# Blender v2.83.0 OBJ File: ''
# www.blender.org
mtllib S.S._Dolphin_part.037.mtl
o S.S._Dolphin_part.037
v -1.063308 -2.731489 -1.207092
v -0.857569 -2.770731 -1.490373
v -0.769868 -2.881929 -1.338469
v -0.511119 -2.731489 -1.525899
v -0.582949 -2.640260 -1.556367
v -0.308188 -2.333353 -1.497673
v -0.316296 -2.357573 -1.389103
v -0.080221 -1.908024 -1.334198
v -0.101687 -1.939451 -1.234260
v 0.907107 0.534863 -0.275641
v 0.880811 0.494176 -0.179087
v 0.988203 0.848701 -0.113237
v 0.956193 0.796774 -0.020878
v 1.012764 1.156295 0.077646
v 0.982112 1.099364 0.165884
v 0.970733 1.440327 0.291267
v 0.940989 1.364852 0.366620
v 0.835356 1.665709 0.519682
v 0.812423 1.579781 0.584135
v 0.677802 1.780146 0.686939
v 0.663029 1.684953 0.740501
v 0.495838 1.710111 0.853801
v 0.748272 1.698773 0.808997
v 0.550068 1.733180 0.946367
v 0.528835 1.827726 0.913160
v 0.315069 1.698773 1.059106
v 0.256523 1.785107 1.041969
v 0.016355 1.661085 1.097947
v 0.244599 1.780146 0.937049
v 0.013395 1.665709 0.994242
v 0.092025 1.579781 1.000056
v -0.232243 1.440327 0.985806
v -0.152189 1.364852 0.997767
v -0.433709 1.156287 0.912764
v -0.341716 1.099362 0.930198
v -0.587373 0.848692 0.796416
v -0.491110 0.796763 0.814716
v -0.685962 0.534861 0.644117
v -0.588934 0.494176 0.669470
v -1.110559 -1.908024 -0.739332
v -1.013042 -1.939451 -0.708089
v -1.140275 -2.333355 -1.017268
v -1.041713 -2.357383 -0.970156
v -1.052621 -2.640261 -1.285203
v -0.960327 -2.643059 -1.207595
v -0.795938 -2.769461 -1.386773
v -0.560813 -2.643058 -1.438254
v -0.230332 -2.423757 -1.362822
v -0.009751 -1.989396 -1.212139
v 0.977577 0.453490 -0.153583
v 1.058673 0.767329 0.008822
v 1.083235 1.074924 0.199705
v 1.041203 1.358954 0.413325
v 0.905827 1.584338 0.641741
v 0.908702 1.661085 0.582750
v 0.746231 1.785107 0.759235
v -1.163199 -2.382559 -0.916801
v -1.062310 -2.423381 -0.882228
v -1.135438 -1.957976 -0.649774
v -1.040088 -1.989396 -0.617274
v -0.709847 0.494176 0.739279
v -0.615492 0.453488 0.766175
v -0.612075 0.815003 0.896716
v -0.516903 0.767320 0.918474
v -0.457320 1.135822 1.021248
v -0.363239 1.074915 1.034820
v -0.224937 1.439875 1.089784
v -0.161772 1.358954 1.107865
v 0.083866 1.584338 1.116300
v 0.299745 1.684953 0.950243
v 0.479598 1.814553 0.824309
v -0.496719 -2.739828 -1.407014
v -0.209929 -2.382558 -1.467171
v 1.064807 1.439876 0.345150
v 1.118427 1.135832 0.111496
v 1.087462 0.815003 -0.084513
v 1.001510 0.494176 -0.248773
v 0.010130 -1.957976 -1.311168
v -0.966392 -2.739829 -1.135849
vt 0.000000 0.000000
vt 0.000000 0.000000
vt 0.000000 0.000000
vt 0.000000 0.000000
vt 0.000000 0.000000
vt 0.000000 0.000000
vt 0.000000 0.000000
vt 0.000000 0.000000
vt 0.000000 0.000000
vt 0.000000 0.000000
vt 0.000000 0.000000
vt 0.000000 0.000000
vt 0.000000 0.000000
vt 0.000000 0.000000
vt 0.000000 0.000000
vt 0.000000 0.000000
vt 0.000000 0.000000
vt 0.000000 0.000000
vt 0.000000 0.000000
vt 0.000000 0.000000
vt 0.000000 0.000000
vt 0.000000 0.000000
vt 0.000000 0.000000
vt 0.000000 0.000000
vt 0.000000 0.000000
vt 0.000000 0.000000
vt 0.000000 0.000000
vt 0.000000 0.000000
vt 0.000000 0.000000
vt 0.000000 0.000000
vt 0.000000 0.000000
vt 0.000000 0.000000
vt 0.000000 0.000000
vt 0.000000 0.000000
vt 0.000000 0.000000
vt 0.000000 0.000000
vt 0.000000 0.000000
vt 0.000000 0.000000
vt 0.000000 0.000000
vt 0.000000 0.000000
vt 0.000000 0.000000
vt 0.000000 0.000000
vt 0.000000 0.000000
vt 0.000000 0.000000
vt 0.000000 0.000000
vt 0.000000 0.000000
vt 0.000000 0.000000
vt 0.000000 0.000000
vt 0.000000 0.000000
vt 0.000000 0.000000
vt 0.000000 0.000000
vt 0.000000 0.000000
vt 0.000000 0.000000
vt 0.000000 0.000000
vt 0.000000 0.000000
vt 0.000000 0.000000
vt 0.000000 0.000000
vt 0.000000 0.000000
vt 0.000000 0.000000
vt 0.000000 0.000000
vt 0.000000 0.000000
vt 0.000000 0.000000
vt 0.000000 0.000000
vt 0.000000 0.000000
vt 0.000000 0.000000
vt 0.000000 0.000000
vt 0.000000 0.000000
vt 0.000000 0.000000
vt 0.000000 0.000000
vt 0.000000 0.000000
vt 0.000000 0.000000
vt 0.000000 0.000000
vt 0.000000 0.000000
vt 0.000000 0.000000
vt 0.000000 0.000000
vt 0.000000 0.000000
vt 0.000000 0.000000
vt 0.000000 0.000000
vt 0.000000 0.000000
vn -0.7824 -0.6219 0.0349
vn -0.4813 0.0223 -0.8762
vn 0.2259 -0.8867 0.4034
vn 0.4203 -0.6207 -0.6619
vn -0.3679 0.4193 -0.8299
vn -0.3774 0.4759 -0.7944
vn -0.7117 0.3195 0.6256
vn -0.4063 0.4945 -0.7684
vn -0.8113 0.1506 0.5650
vn -0.3964 0.4945 -0.7735
vn -0.8556 0.0359 0.5164
vn -0.3905 0.4985 -0.7739
vn -0.8895 -0.1009 0.4456
vn -0.4020 0.5154 -0.7568
vn -0.9010 -0.2652 0.3433
vn -0.3529 0.5464 -0.7595
vn -0.8640 -0.4678 0.1862
vn -0.3114 0.5946 -0.7413
vn -0.7413 -0.6709 -0.0190
vn -0.3494 0.6148 -0.7071
vn -0.5063 -0.8233 -0.2566
vn -0.2547 -0.8660 -0.4303
vn 0.5118 -0.3742 0.7733
vn 0.4613 -0.3946 0.7947
vn 0.2546 0.8660 0.4304
vn 0.4389 -0.3846 0.8121
vn -0.0855 0.8055 0.5864
vn -0.3850 0.6497 0.6555
vn -0.4197 0.6068 -0.6750
vn -0.4719 0.6016 -0.6445
vn 0.3556 -0.6719 -0.6497
vn -0.4973 0.5435 -0.6763
vn 0.6127 -0.4508 -0.6491
vn -0.4575 0.5044 -0.7323
vn 0.7512 -0.2595 -0.6069
vn -0.4765 0.5048 -0.7198
vn 0.8317 -0.1001 -0.5462
vn -0.4731 0.4927 -0.7304
vn 0.8764 0.0366 -0.4801
vn -0.4653 0.4989 -0.7312
vn 0.8971 0.1456 -0.4171
vn -0.5023 0.4741 -0.7231
vn 0.8998 0.3169 -0.3001
vn -0.5437 0.4197 -0.7268
vn 0.8021 0.5950 -0.0514
vn 0.2613 0.8502 0.4570
vn -0.4585 0.5946 0.6605
vn 0.4814 -0.5266 0.7007
vn 0.4636 -0.5007 0.7310
vn 0.4708 -0.5042 0.7239
vn 0.4779 -0.4959 0.7250
vn 0.4630 -0.4940 0.7359
vn 0.5048 -0.4574 0.7320
vn 0.5291 -0.3844 0.7565
vn 0.7371 0.6755 0.0188
vn 0.5476 0.8061 0.2242
vn -0.8994 -0.2975 0.3204
vn 0.3663 -0.5269 0.7669
vn -0.8958 -0.1418 0.4212
vn 0.4034 -0.5022 0.7649
vn -0.8770 -0.0415 0.4787
vn 0.3935 -0.5046 0.7684
vn -0.8338 0.0967 0.5435
vn 0.3876 -0.5001 0.7743
vn -0.7465 0.2638 0.6109
vn 0.4141 -0.4800 0.7734
vn -0.5977 0.4594 0.6570
vn 0.3550 -0.4566 0.8158
vn 0.3815 -0.3925 0.8369
vn 0.0259 -0.8248 -0.5648
vn -0.3987 0.5984 -0.6949
vn 0.5045 -0.5602 0.6570
vn 0.7266 -0.2970 -0.6195
vn 0.8520 0.4936 -0.1747
vn 0.9007 0.2651 -0.3442
vn 0.8895 0.0941 -0.4471
vn 0.8547 -0.0386 -0.5177
vn 0.8112 -0.1466 -0.5661
vn 0.3238 -0.5611 0.7618
usemtl white
s 1
f 1/1/1 2/2/2 3/3/3
f 3/3/3 2/2/2 4/4/4
f 2/2/2 5/5/5 4/4/4
f 4/4/4 5/5/5 6/6/6
f 5/5/5 7/7/7 6/6/6
f 6/6/6 7/7/7 8/8/8
f 7/7/7 9/9/9 8/8/8
f 8/8/8 9/9/9 10/10/10
f 9/9/9 11/11/11 10/10/10
f 10/10/10 11/11/11 12/12/12
f 11/11/11 13/13/13 12/12/12
f 12/12/12 13/13/13 14/14/14
f 13/13/13 15/15/15 14/14/14
f 14/14/14 15/15/15 16/16/16
f 15/15/15 17/17/17 16/16/16
f 16/16/16 17/17/17 18/18/18
f 17/17/17 19/19/19 18/18/18
f 18/18/18 19/19/19 20/20/20
f 19/19/19 21/21/21 20/20/20
f 20/20/20 21/21/21 22/22/22
f 21/21/21 23/23/23 22/22/22
f 22/22/22 23/23/23 24/24/24
f 23/23/23 25/25/25 24/24/24
f 24/24/24 25/25/25 26/26/26
f 25/25/25 27/27/27 26/26/26
f 26/26/26 27/27/27 28/28/28
f 27/27/27 29/29/29 28/28/28
f 28/28/28 29/29/29 30/30/30
f 29/29/29 31/31/31 30/30/30
f 30/30/30 31/31/31 32/32/32
f 31/31/31 33/33/33 32/32/32
f 32/32/32 33/33/33 34/34/34
f 33/33/33 35/35/35 34/34/34
f 34/34/34 35/35/35 36/36/36
f 35/35/35 37/37/37 36/36/36
f 36/36/36 37/37/37 38/38/38
f 37/37/37 39/39/39 38/38/38
f 38/38/38 39/39/39 40/40/40
f 39/39/39 41/41/41 40/40/40
f 40/40/40 41/41/41 42/42/42
f 41/41/41 43/43/43 42/42/42
f 42/42/42 43/43/43 44/44/44
f 43/43/43 45/45/45 44/44/44
f 44/44/44 45/45/45 2/2/2
f 45/45/45 46/46/46 2/2/2
f 2/2/2 46/46/46 5/5/5
f 46/46/46 47/47/47 5/5/5
f 5/5/5 47/47/47 7/7/7
f 47/47/47 48/48/48 7/7/7
f 7/7/7 48/48/48 9/9/9
f 48/48/48 49/49/49 9/9/9
f 9/9/9 49/49/49 11/11/11
f 49/49/49 50/50/50 11/11/11
f 11/11/11 50/50/50 13/13/13
f 50/50/50 51/51/51 13/13/13
f 13/13/13 51/51/51 15/15/15
f 51/51/51 52/52/52 15/15/15
f 15/15/15 52/52/52 17/17/17
f 52/52/52 53/53/53 17/17/17
f 17/17/17 53/53/53 19/19/19
f 53/53/53 54/54/54 19/19/19
f 19/19/19 54/54/54 23/23/23
f 54/54/54 55/55/55 23/23/23
f 23/23/23 55/55/55 56/56/56
f 55/55/55 18/18/18 56/56/56
f 56/56/56 18/18/18 20/20/20
f 2/2/2 1/1/1 44/44/44
f 44/44/44 1/1/1 57/57/57
f 1/1/1 58/58/58 57/57/57
f 57/57/57 58/58/58 59/59/59
f 58/58/58 60/60/60 59/59/59
f 59/59/59 60/60/60 61/61/61
f 60/60/60 62/62/62 61/61/61
f 61/61/61 62/62/62 63/63/63
f 62/62/62 64/64/64 63/63/63
f 63/63/63 64/64/64 65/65/65
f 64/64/64 66/66/66 65/65/65
f 65/65/65 66/66/66 67/67/67
f 66/66/66 68/68/68 67/67/67
f 67/67/67 68/68/68 28/28/28
f 68/68/68 69/69/69 28/28/28
f 28/28/28 69/69/69 26/26/26
f 69/69/69 31/31/31 26/26/26
f 26/26/26 31/31/31 70/70/70
f 31/31/31 29/29/29 70/70/70
f 70/70/70 29/29/29 22/22/22
f 29/29/29 71/71/71 22/22/22
f 22/22/22 71/71/71 20/20/20
f 71/71/71 25/25/25 20/20/20
f 20/20/20 25/25/25 56/56/56
f 25/25/25 23/23/23 56/56/56
f 46/46/46 3/3/3 47/47/47
f 47/47/47 3/3/3 72/72/72
f 3/3/3 4/4/4 72/72/72
f 72/72/72 4/4/4 73/73/73
f 4/4/4 6/6/6 73/73/73
f 73/73/73 6/6/6 8/8/8
f 16/16/16 74/74/74 14/14/14
f 14/14/14 74/74/74 75/75/75
f 74/74/74 53/53/53 75/75/75
f 75/75/75 53/53/53 52/52/52
f 14/14/14 75/75/75 12/12/12
f 12/12/12 75/75/75 76/76/76
f 75/75/75 52/52/52 76/76/76
f 76/76/76 52/52/52 51/51/51
f 12/12/12 76/76/76 10/10/10
f 10/10/10 76/76/76 77/77/77
f 76/76/76 51/51/51 77/77/77
f 77/77/77 51/51/51 50/50/50
f 10/10/10 77/77/77 8/8/8
f 8/8/8 77/77/77 78/78/78
f 77/77/77 50/50/50 78/78/78
f 78/78/78 50/50/50 49/49/49
f 44/44/44 57/57/57 42/42/42
f 42/42/42 57/57/57 40/40/40
f 57/57/57 59/59/59 40/40/40
f 40/40/40 59/59/59 61/61/61
f 43/43/43 58/58/58 45/45/45
f 45/45/45 58/58/58 79/79/79
f 58/58/58 1/1/1 79/79/79
f 79/79/79 1/1/1 3/3/3
f 18/18/18 55/55/55 16/16/16
f 16/16/16 55/55/55 74/74/74
f 55/55/55 54/54/54 74/74/74
f 74/74/74 54/54/54 53/53/53
f 49/49/49 48/48/48 73/73/73
f 73/73/73 48/48/48 72/72/72
f 48/48/48 47/47/47 72/72/72
f 67/67/67 32/32/32 65/65/65
f 65/65/65 32/32/32 34/34/34
f 65/65/65 34/34/34 63/63/63
f 63/63/63 34/34/34 36/36/36
f 70/70/70 22/22/22 26/26/26
f 26/26/26 22/22/22 24/24/24
f 40/40/40 61/61/61 38/38/38
f 38/38/38 61/61/61 63/63/63
f 33/33/33 68/68/68 35/35/35
f 35/35/35 68/68/68 66/66/66
f 35/35/35 66/66/66 37/37/37
f 37/37/37 66/66/66 64/64/64
f 37/37/37 64/64/64 39/39/39
f 39/39/39 64/64/64 62/62/62
f 39/39/39 62/62/62 41/41/41
f 41/41/41 62/62/62 60/60/60
f 41/41/41 60/60/60 43/43/43
f 43/43/43 60/60/60 58/58/58
f 27/27/27 25/25/25 29/29/29
f 29/29/29 25/25/25 71/71/71
f 45/45/45 79/79/79 46/46/46
f 46/46/46 79/79/79 3/3/3
f 28/28/28 30/30/30 67/67/67
f 67/67/67 30/30/30 32/32/32
f 8/8/8 78/78/78 73/73/73
f 73/73/73 78/78/78 49/49/49
f 31/31/31 69/69/69 33/33/33
f 33/33/33 69/69/69 68/68/68
f 23/23/23 21/21/21 19/19/19
f 38/38/38 63/63/63 36/36/36
