# Blender v2.83.0 OBJ File: ''
# www.blender.org
mtllib S.S._Dolphin_part.023.mtl
o S.S._Dolphin_part.023
v -0.883434 -1.151659 0.363555
v -0.721322 -1.347544 0.284407
v -0.826335 -1.106681 0.341165
v -0.671390 -1.292944 0.265915
v -0.510052 -1.497854 0.223679
v -0.477085 -1.430494 0.210338
v -0.264024 -1.592344 0.185503
v -0.245749 -1.523024 0.172955
v -0.000003 -1.624564 0.172483
v -0.000003 -1.549024 0.162450
v 0.264018 -1.592344 0.185503
v 0.245742 -1.523024 0.172955
v 0.510047 -1.497854 0.223679
v 0.477081 -1.430504 0.210338
v 0.721316 -1.347544 0.284407
v 0.671387 -1.292944 0.265915
v 0.883429 -1.151660 0.363555
v 0.826328 -1.106682 0.341165
v 0.985337 -0.923545 0.455716
v 0.917130 -0.894423 0.426925
v 1.020095 -0.678750 0.554616
v 0.954162 -0.664338 0.519886
v 0.985338 -0.433953 0.653526
v 0.917130 -0.434252 0.612845
v 0.883430 -0.205839 0.745685
v 0.826329 -0.221993 0.698605
v 0.721317 -0.009954 0.824825
v 0.671388 -0.035732 0.773865
v 0.510047 0.140356 0.885555
v 0.477082 0.101825 0.829435
v 0.264019 0.234844 0.923735
v 0.245743 0.194353 0.866825
v -0.000002 0.267071 0.936756
v -0.000002 0.220351 0.877326
v -0.264023 0.234844 0.923735
v -0.245748 0.194353 0.866825
v -0.510052 0.140356 0.885555
v -0.477084 0.101825 0.829435
v -0.721321 -0.009954 0.824825
v -0.671390 -0.035732 0.773865
v -0.883434 -0.205838 0.745685
v -0.826335 -0.221992 0.698605
v -0.985342 -0.433953 0.653526
v -0.917137 -0.434250 0.612845
v -1.020105 -0.678749 0.554616
v -0.954169 -0.664337 0.519886
v -0.985343 -0.923545 0.455716
v -0.917138 -0.894422 0.426925
v -1.090005 -0.660019 0.508256
v -1.052865 -0.921588 0.402575
v -0.943970 -1.165333 0.304095
v -0.770748 -1.374643 0.219533
v -0.545002 -1.535254 0.154643
v -0.282115 -1.636213 0.113851
v -0.000003 -1.670644 0.099938
v 0.282110 -1.636213 0.113851
v 0.544997 -1.535254 0.154643
v 0.770743 -1.374643 0.219533
v 0.943964 -1.165333 0.304095
v 1.052855 -0.921589 0.402575
v 1.089995 -0.660019 0.508256
v 1.052855 -0.398449 0.613946
v 0.943965 -0.154703 0.712425
v 0.770744 0.054605 0.796985
v 0.544998 0.215214 0.861875
v 0.282111 0.316176 0.902666
v -0.000002 0.350612 0.916586
v -0.282115 0.316176 0.902666
v -0.545002 0.215213 0.861875
v -0.770748 0.054605 0.796985
v -0.943969 -0.154703 0.712425
v -1.052865 -0.398448 0.613946
v 0.295008 1.196648 -1.139270
v 0.208605 1.246438 -1.346317
v 0.295008 1.432618 -1.055981
v 0.208605 1.519789 -1.256046
v 0.000008 1.270148 -1.432077
v 0.000009 1.555728 -1.338914
v -0.208588 1.246438 -1.346317
v -0.208588 1.519789 -1.256046
v -0.294992 1.196648 -1.139270
v -0.294992 1.432618 -1.055981
v -0.208588 1.223857 -0.945918
v -0.294992 1.621559 -0.901969
v -0.208588 1.527728 -0.716059
v -0.294991 1.722328 -0.587971
v -0.208588 1.595928 -0.522998
v 0.295009 1.621559 -0.901969
v 0.208605 1.715399 -1.087883
v 0.000009 1.754268 -1.164888
v -0.208588 1.715399 -1.087883
v 0.295009 1.722328 -0.587971
v 0.208605 1.848718 -0.852944
v 0.000009 1.901078 -0.921278
v -0.208588 1.848718 -0.852944
v 0.208605 1.223857 -0.945918
v 0.208605 1.527728 -0.716059
v 0.208605 1.595928 -0.522998
v 0.299997 -0.650614 -0.902115
v 0.519612 -0.446991 -0.819846
v 0.000009 1.543579 -0.494663
v 0.000009 1.488857 -0.639051
v 0.000008 1.199508 -0.813047
v -0.000002 -0.725145 -0.932228
v -0.300002 -0.650614 -0.902115
v -0.519617 -0.446990 -0.819846
v -0.600002 -0.168835 -0.707464
v -0.519617 0.109320 -0.595082
v -0.300002 0.312944 -0.512812
v 0.599998 -0.168836 -0.707464
v 0.519613 0.109320 -0.595082
v 0.299998 0.312944 -0.512812
v -0.000002 0.387475 -0.482699
v -0.208588 2.008558 -0.601456
v 0.000009 2.068218 -0.663335
v 0.208605 2.008558 -0.601456
vt 0.441500 0.421900
vt 0.441500 0.421900
vt 0.441500 0.421900
vt 0.441500 0.421900
vt 0.441500 0.421900
vt 0.441500 0.421900
vt 0.441500 0.421900
vt 0.441500 0.421900
vt 0.441500 0.421900
vt 0.441500 0.421900
vt 0.441500 0.421900
vt 0.441500 0.421900
vt 0.441500 0.421900
vt 0.441500 0.421900
vt 0.441500 0.421900
vt 0.441500 0.421900
vt 0.441500 0.421900
vt 0.441500 0.421900
vt 0.441500 0.421900
vt 0.441500 0.421900
vt 0.441500 0.421900
vt 0.441500 0.421900
vt 0.441500 0.421900
vt 0.441500 0.421900
vt 0.441500 0.421900
vt 0.441500 0.421900
vt 0.441500 0.421900
vt 0.441500 0.421900
vt 0.441500 0.421900
vt 0.441500 0.421900
vt 0.441500 0.421900
vt 0.441500 0.421900
vt 0.441500 0.421900
vt 0.441500 0.421900
vt 0.441500 0.421900
vt 0.441500 0.421900
vt 0.441500 0.421900
vt 0.441500 0.421900
vt 0.441500 0.421900
vt 0.441500 0.421900
vt 0.441500 0.421900
vt 0.441500 0.421900
vt 0.441500 0.421900
vt 0.441500 0.421900
vt 0.441500 0.421900
vt 0.441500 0.421900
vt 0.441500 0.421900
vt 0.441500 0.421900
vt 0.441500 0.421900
vt 0.441500 0.421900
vt 0.441500 0.421900
vt 0.441500 0.421900
vt 0.441500 0.421900
vt 0.441500 0.421900
vt 0.441500 0.421900
vt 0.441500 0.421900
vt 0.441500 0.421900
vt 0.441500 0.421900
vt 0.441500 0.421900
vt 0.441500 0.421900
vt 0.441500 0.421900
vt 0.441500 0.421900
vt 0.441500 0.421900
vt 0.441500 0.421900
vt 0.441500 0.421900
vt 0.441500 0.421900
vt 0.441500 0.421900
vt 0.441500 0.421900
vt 0.441500 0.421900
vt 0.441500 0.421900
vt 0.441500 0.421900
vt 0.441500 0.421900
vt 0.441500 0.421900
vt 0.441500 0.421900
vt 0.441500 0.421900
vt 0.441500 0.421900
vt 0.441500 0.421900
vt 0.441500 0.421900
vt 0.441500 0.421900
vt 0.441500 0.421900
vt 0.441500 0.421900
vt 0.441500 0.421900
vt 0.441500 0.421900
vt 0.441500 0.421900
vt 0.441500 0.421900
vt 0.441500 0.421900
vt 0.441500 0.421900
vt 0.441500 0.421900
vt 0.441500 0.421900
vt 0.441500 0.421900
vt 0.441500 0.421900
vt 0.441500 0.421900
vt 0.441500 0.421900
vt 0.441500 0.421900
vt 0.441500 0.421900
vt 0.441500 0.421900
vt 0.441500 0.421900
vt 0.441500 0.421900
vt 0.499100 -0.127200
vt 0.489600 -0.345600
vt 0.499100 -0.268700
vt 0.499100 -0.403200
vt 0.489600 -0.630500
vt 0.499100 -0.529500
vt 0.499100 -0.646400
vt 0.441500 0.421900
vt 0.441500 0.421900
vt 0.441500 0.421900
vt 0.499100 0.020300
vt 0.499100 0.172400
vt 0.489600 -0.029800
vt 0.489600 0.306300
vt 0.499100 0.327800
vt 0.499100 0.485300
vt 0.499100 0.643400
vt 0.499100 0.800900
vt 0.489600 0.651100
vt 0.489600 0.993000
vt 0.499100 0.956400
vt 0.499100 1.108500
vt 0.499100 1.256000
vt 0.499100 1.397700
vt 0.489600 1.320400
vt 0.489600 1.622200
vt 0.499100 1.532200
vt 0.499100 1.658600
vt 0.489600 -0.874800
vt 0.489600 -1.070200
vt 0.499100 -0.848500
vt 0.499100 -0.931900
vt 0.499100 -1.002600
vt 0.489600 2.277800
vt 0.489600 2.109200
vt 0.499100 2.061400
vt 0.499100 1.977800
vt 0.499100 1.882300
vt 0.499100 -0.753000
vt 0.489600 1.888100
vt 0.499100 1.775600
vt 0.441500 0.421900
vt 0.441500 0.421900
vt 0.441500 0.421900
vn -0.0837 -0.4192 0.9040
vn -0.0676 -0.4367 0.8970
vn 0.4300 -0.0999 0.8973
vn 0.3467 0.0001 0.9380
vn -0.0485 -0.4503 0.8916
vn 0.2478 0.0725 0.9661
vn -0.0200 -0.4504 0.8926
vn 0.1349 0.1392 0.9810
vn -0.0018 -0.4615 0.8871
vn -0.0039 0.1342 0.9909
vn 0.0233 -0.4497 0.8929
vn -0.1277 0.1417 0.9816
vn 0.0466 -0.4503 0.8916
vn -0.2503 0.0692 0.9657
vn 0.0678 -0.4370 0.8969
vn -0.3471 0.0007 0.9378
vn 0.0838 -0.4173 0.9049
vn -0.4266 -0.0978 0.8991
vn 0.1026 -0.3998 0.9109
vn -0.4593 -0.2176 0.8612
vn 0.0972 -0.3711 0.9235
vn -0.4932 -0.3225 0.8080
vn 0.1026 -0.3480 0.9319
vn -0.4583 -0.4483 0.7675
vn 0.0827 -0.3269 0.9414
vn -0.4315 -0.5522 0.7134
vn 0.0664 -0.3099 0.9484
vn -0.3484 -0.6531 0.6723
vn 0.0475 -0.2969 0.9537
vn -0.2494 -0.7254 0.6416
vn 0.0193 -0.2981 0.9543
vn -0.1358 -0.7844 0.6052
vn 0.0018 -0.2863 0.9581
vn 0.0039 -0.7877 0.6160
vn -0.0227 -0.2988 0.9540
vn 0.1286 -0.7867 0.6038
vn -0.0456 -0.2969 0.9538
vn 0.2519 -0.7227 0.6437
vn -0.0667 -0.3096 0.9485
vn 0.3489 -0.6534 0.6718
vn -0.0828 -0.3288 0.9408
vn 0.4281 -0.5550 0.7132
vn -0.1020 -0.3452 0.9330
vn 0.4601 -0.4421 0.7699
vn -0.0971 -0.3743 0.9222
vn 0.4932 -0.3297 0.8050
vn -0.1031 -0.3970 0.9120
vn 0.4574 -0.2114 0.8637
vn -0.9604 -0.1044 0.2583
vn -0.9278 -0.3347 0.1647
vn -0.8317 -0.5496 0.0784
vn -0.6792 -0.7339 0.0034
vn -0.4802 -0.8755 -0.0532
vn -0.2486 -0.9644 -0.0897
vn 0.0000 -0.9948 -0.1015
vn 0.2486 -0.9644 -0.0897
vn 0.4802 -0.8755 -0.0532
vn 0.6792 -0.7339 0.0034
vn 0.8317 -0.5496 0.0784
vn 0.9278 -0.3347 0.1647
vn 0.9604 -0.1044 0.2583
vn 0.9278 0.1263 0.3510
vn 0.8317 0.3409 0.4382
vn 0.6792 0.5256 0.5123
vn 0.4802 0.6668 0.5699
vn 0.2486 0.7561 0.6054
vn -0.0000 0.7861 0.6181
vn -0.2486 0.7561 0.6054
vn -0.4802 0.6668 0.5699
vn -0.6792 0.5256 0.5123
vn -0.8317 0.3409 0.4382
vn -0.9278 0.1263 0.3510
vn 0.9989 0.0159 -0.0451
vn 0.7049 0.2244 -0.6728
vn 0.9996 0.0087 -0.0278
vn 0.6929 0.3544 -0.6279
vn 0.0009 0.3111 -0.9504
vn -0.0006 0.4897 -0.8719
vn -0.7044 0.2215 -0.6744
vn -0.6923 0.3582 -0.6265
vn -0.9990 0.0124 -0.0435
vn -0.9994 0.0119 -0.0314
vn -0.7985 -0.3287 0.5043
vn -0.9974 0.0677 -0.0254
vn -0.7155 -0.5678 0.4072
vn -0.9968 -0.0795 0.0021
vn -0.5913 -0.7588 0.2732
vn 0.9942 0.1064 -0.0154
vn 0.6701 0.5808 -0.4622
vn 0.0010 0.7590 -0.6511
vn -0.6698 0.5709 -0.4748
vn 0.9963 -0.0849 -0.0116
vn 0.7177 0.5954 -0.3612
vn 0.0050 0.8514 -0.5244
vn -0.7012 0.6198 -0.3523
vn 0.7899 -0.3150 0.5261
vn 0.7060 -0.5805 0.4056
vn 0.5901 -0.7630 0.2639
vn 0.4643 -0.6068 -0.6452
vn 0.8043 -0.2916 -0.5178
vn 0.0051 -0.9370 0.3493
vn 0.0166 -0.8021 0.5970
vn 0.0322 -0.5448 0.8380
vn 0.0000 -0.7221 -0.6918
vn -0.4643 -0.6068 -0.6452
vn -0.8043 -0.2916 -0.5178
vn -0.9287 0.1389 -0.3439
vn -0.8043 0.5695 -0.1699
vn -0.4643 0.8846 -0.0426
vn 0.9287 0.1389 -0.3439
vn 0.8043 0.5695 -0.1699
vn 0.4643 0.8846 -0.0426
vn 0.0000 1.0000 0.0040
vn -0.6718 0.6252 -0.3973
vn 0.0024 0.8406 -0.5416
vn 0.6700 0.6249 -0.4008
usemtl battery
s 1
f 1/1/1 2/2/2 3/3/3
f 3/3/3 2/2/2 4/4/4
f 2/2/2 5/5/5 4/4/4
f 4/4/4 5/5/5 6/6/6
f 5/5/5 7/7/7 6/6/6
f 6/6/6 7/7/7 8/8/8
f 7/7/7 9/9/9 8/8/8
f 8/8/8 9/9/9 10/10/10
f 9/9/9 11/11/11 10/10/10
f 10/10/10 11/11/11 12/12/12
f 11/11/11 13/13/13 12/12/12
f 12/12/12 13/13/13 14/14/14
f 13/13/13 15/15/15 14/14/14
f 14/14/14 15/15/15 16/16/16
f 15/15/15 17/17/17 16/16/16
f 16/16/16 17/17/17 18/18/18
f 17/17/17 19/19/19 18/18/18
f 18/18/18 19/19/19 20/20/20
f 19/19/19 21/21/21 20/20/20
f 20/20/20 21/21/21 22/22/22
f 21/21/21 23/23/23 22/22/22
f 22/22/22 23/23/23 24/24/24
f 23/23/23 25/25/25 24/24/24
f 24/24/24 25/25/25 26/26/26
f 25/25/25 27/27/27 26/26/26
f 26/26/26 27/27/27 28/28/28
f 27/27/27 29/29/29 28/28/28
f 28/28/28 29/29/29 30/30/30
f 29/29/29 31/31/31 30/30/30
f 30/30/30 31/31/31 32/32/32
f 31/31/31 33/33/33 32/32/32
f 32/32/32 33/33/33 34/34/34
f 33/33/33 35/35/35 34/34/34
f 34/34/34 35/35/35 36/36/36
f 35/35/35 37/37/37 36/36/36
f 36/36/36 37/37/37 38/38/38
f 37/37/37 39/39/39 38/38/38
f 38/38/38 39/39/39 40/40/40
f 39/39/39 41/41/41 40/40/40
f 40/40/40 41/41/41 42/42/42
f 41/41/41 43/43/43 42/42/42
f 42/42/42 43/43/43 44/44/44
f 43/43/43 45/45/45 44/44/44
f 44/44/44 45/45/45 46/46/46
f 45/45/45 47/47/47 46/46/46
f 46/46/46 47/47/47 48/48/48
f 47/47/47 1/1/1 48/48/48
f 48/48/48 1/1/1 3/3/3
f 49/49/49 50/50/50 45/45/45
f 45/45/45 50/50/50 47/47/47
f 50/50/50 51/51/51 47/47/47
f 47/47/47 51/51/51 1/1/1
f 51/51/51 52/52/52 1/1/1
f 1/1/1 52/52/52 2/2/2
f 52/52/52 53/53/53 2/2/2
f 2/2/2 53/53/53 5/5/5
f 53/53/53 54/54/54 5/5/5
f 5/5/5 54/54/54 7/7/7
f 54/54/54 55/55/55 7/7/7
f 7/7/7 55/55/55 9/9/9
f 55/55/55 56/56/56 9/9/9
f 9/9/9 56/56/56 11/11/11
f 56/56/56 57/57/57 11/11/11
f 11/11/11 57/57/57 13/13/13
f 57/57/57 58/58/58 13/13/13
f 13/13/13 58/58/58 15/15/15
f 58/58/58 59/59/59 15/15/15
f 15/15/15 59/59/59 17/17/17
f 59/59/59 60/60/60 17/17/17
f 17/17/17 60/60/60 19/19/19
f 60/60/60 61/61/61 19/19/19
f 19/19/19 61/61/61 21/21/21
f 61/61/61 62/62/62 21/21/21
f 21/21/21 62/62/62 23/23/23
f 62/62/62 63/63/63 23/23/23
f 23/23/23 63/63/63 25/25/25
f 63/63/63 64/64/64 25/25/25
f 25/25/25 64/64/64 27/27/27
f 64/64/64 65/65/65 27/27/27
f 27/27/27 65/65/65 29/29/29
f 65/65/65 66/66/66 29/29/29
f 29/29/29 66/66/66 31/31/31
f 66/66/66 67/67/67 31/31/31
f 31/31/31 67/67/67 33/33/33
f 67/67/67 68/68/68 33/33/33
f 33/33/33 68/68/68 35/35/35
f 68/68/68 69/69/69 35/35/35
f 35/35/35 69/69/69 37/37/37
f 69/69/69 70/70/70 37/37/37
f 37/37/37 70/70/70 39/39/39
f 70/70/70 71/71/71 39/39/39
f 39/39/39 71/71/71 41/41/41
f 71/71/71 72/72/72 41/41/41
f 41/41/41 72/72/72 43/43/43
f 72/72/72 49/49/49 43/43/43
f 43/43/43 49/49/49 45/45/45
f 73/73/73 74/74/74 75/75/75
f 75/75/75 74/74/74 76/76/76
f 74/74/74 77/77/77 76/76/76
f 76/76/76 77/77/77 78/78/78
f 77/77/77 79/79/79 78/78/78
f 78/78/78 79/79/79 80/80/80
f 79/79/79 81/81/81 80/80/80
f 80/80/80 81/81/81 82/82/82
f 81/81/81 83/83/83 82/82/82
f 82/82/82 83/83/83 84/84/84
f 83/83/83 85/85/85 84/84/84
f 84/84/84 85/85/85 86/86/86
f 85/85/85 87/87/87 86/86/86
f 75/75/75 76/76/76 88/88/88
f 88/88/88 76/76/76 89/89/89
f 76/76/76 78/78/78 89/89/89
f 89/89/89 78/78/78 90/90/90
f 78/78/78 80/80/80 90/90/90
f 90/90/90 80/80/80 91/91/91
f 80/80/80 82/82/82 91/91/91
f 91/91/91 82/82/82 84/84/84
f 88/88/88 89/89/89 92/92/92
f 92/92/92 89/89/89 93/93/93
f 89/89/89 90/90/90 93/93/93
f 93/93/93 90/90/90 94/94/94
f 90/90/90 91/91/91 94/94/94
f 94/94/94 91/91/91 95/95/95
f 91/91/91 84/84/84 95/95/95
f 95/95/95 84/84/84 86/86/86
f 73/73/73 75/75/75 96/96/96
f 96/96/96 75/75/75 97/97/97
f 75/75/75 88/88/88 97/97/97
f 97/97/97 88/88/88 98/98/98
f 88/88/88 92/92/92 98/98/98
f 56/99/56 99/100/99 57/101/57
f 57/101/57 99/100/99 58/102/58
f 99/100/99 100/103/100 58/102/58
f 58/102/58 100/103/100 59/104/59
f 100/103/100 60/105/60 59/104/59
f 98/98/98 101/106/101 97/97/97
f 97/97/97 101/106/101 102/107/102
f 101/106/101 87/87/87 102/107/102
f 102/107/102 87/87/87 85/85/85
f 83/83/83 103/108/103 85/85/85
f 85/85/85 103/108/103 102/107/102
f 103/108/103 96/96/96 102/107/102
f 102/107/102 96/96/96 97/97/97
f 55/109/55 54/110/54 104/111/104
f 104/111/104 54/110/54 105/112/105
f 54/110/54 53/113/53 105/112/105
f 105/112/105 53/113/53 52/114/52
f 51/115/51 50/116/50 106/117/106
f 106/117/106 50/116/50 107/118/107
f 50/116/50 49/119/49 107/118/107
f 107/118/107 49/119/49 72/120/72
f 71/121/71 70/122/70 108/123/108
f 108/123/108 70/122/70 109/124/109
f 70/122/70 69/125/69 109/124/109
f 109/124/109 69/125/69 68/126/68
f 110/127/110 111/128/111 62/129/62
f 62/129/62 111/128/111 63/130/63
f 111/128/111 64/131/64 63/130/63
f 111/132/111 112/133/112 64/134/64
f 64/134/64 112/133/112 65/135/65
f 112/133/112 66/136/66 65/135/65
f 100/103/100 110/127/110 60/105/60
f 60/105/60 110/127/110 61/137/61
f 110/127/110 62/129/62 61/137/61
f 109/124/109 68/126/68 113/138/113
f 113/138/113 68/126/68 67/139/67
f 67/139/67 66/136/66 113/138/113
f 113/138/113 66/136/66 112/133/112
f 55/109/55 104/111/104 56/99/56
f 56/99/56 104/111/104 99/100/99
f 86/86/86 114/140/114 95/95/95
f 95/95/95 114/140/114 115/141/115
f 92/92/92 93/93/93 116/142/116
f 116/142/116 93/93/93 94/94/94
f 95/95/95 115/141/115 94/94/94
f 94/94/94 115/141/115 116/142/116
f 107/118/107 72/120/72 108/123/108
f 108/123/108 72/120/72 71/121/71
f 105/112/105 52/114/52 106/117/106
f 106/117/106 52/114/52 51/115/51
