# Blender v2.83.0 OBJ File: ''
# www.blender.org
mtllib S.S._Dolphin_part.017.mtl
o S.S._Dolphin_part.017
v 0.057017 -0.039674 0.111933
v 1.019292 -0.010417 -0.021165
v 0.433079 0.009021 0.043710
v 0.738961 0.135717 -0.024513
v 0.974884 0.177714 -0.078189
v 0.961212 0.301304 -0.104819
v 1.073387 -0.155060 -0.075301
v 1.019292 -0.010417 -0.021165
v 1.019144 -0.155062 -0.047662
v 0.087083 -0.155061 0.099961
v 0.057017 -0.039674 0.111933
v -0.319045 0.009020 0.043708
v -0.624928 0.135715 -0.024513
v -0.905258 -0.010418 -0.021165
v -0.860851 0.177714 -0.078190
v -0.847178 0.301303 -0.104819
v 0.026950 -0.155061 0.099961
v 0.057017 -0.039674 0.111933
v -0.905258 -0.010418 -0.021165
v -0.319045 0.009020 0.043708
v -0.959353 -0.155061 -0.075301
v -0.905111 -0.155063 -0.047662
v -0.905258 -0.010418 -0.021165
v 0.026950 -0.155061 0.099961
vt 0.000000 1.000000
vt 0.000000 1.000000
vt 0.000000 1.000000
vt 0.000000 1.000000
vt 0.000000 1.000000
vt 0.000000 1.000000
vt 0.000000 1.000000
vt 0.000000 1.000000
vt 0.000000 1.000000
vt 0.000000 1.000000
vt 0.000000 1.000000
vt 0.000000 1.000000
vt 0.000000 1.000000
vt 0.000000 1.000000
vt 0.000000 1.000000
vt 0.000000 1.000000
vt 0.000000 1.000000
vt 0.000000 1.000000
vt 0.000000 1.000000
vt 0.000000 1.000000
vt 0.000000 1.000000
vt 0.000000 1.000000
vt 0.000000 1.000000
vt 0.000000 1.000000
vn 0.1140 0.3963 0.9110
vn 0.1405 0.2987 0.9440
vn 0.1142 0.3773 0.9190
vn 0.1315 0.2560 0.9577
vn 0.1673 0.2716 0.9478
vn 0.1777 0.2260 0.9578
vn 0.4480 -0.1615 0.8793
vn 0.2121 -0.1692 0.9625
vn 0.3097 -0.1716 0.9352
vn 0.1400 -0.0759 0.9872
vn 0.1387 -0.0664 0.9881
vn -0.1146 0.2420 0.9635
vn -0.1315 0.2560 0.9577
vn -0.1418 0.2936 0.9454
vn -0.1673 0.2716 0.9478
vn -0.1777 0.2260 0.9578
vn -0.1387 -0.0664 0.9881
vn -0.1379 -0.0328 0.9899
vn -0.1332 0.1022 0.9858
vn -0.1140 0.3963 0.9110
vn -0.4481 -0.1615 0.8793
vn -0.3097 -0.1716 0.9352
vn -0.2169 -0.1761 0.9602
vn -0.1539 -0.1782 0.9719
usemtl Ship_exterior_2
s 1
f 1/1/1 2/2/2 3/3/3
f 3/3/3 2/2/2 4/4/4
f 2/2/2 5/5/5 4/4/4
f 4/4/4 5/5/5 6/6/6
f 7/7/7 8/8/8 9/9/9
f 9/9/9 8/8/8 10/10/10
f 8/8/8 11/11/11 10/10/10
f 12/12/12 13/13/13 14/14/14
f 14/14/14 13/13/13 15/15/15
f 13/13/13 16/16/16 15/15/15
f 17/17/17 18/18/18 19/19/19
f 19/19/19 18/18/18 20/20/20
f 21/21/21 22/22/22 23/23/23
f 23/23/23 22/22/22 24/24/24
