# Blender v2.83.0 OBJ File: ''
# www.blender.org
mtllib S.S._Dolphin_part.025.mtl
o S.S._Dolphin_part.025
v 1.178879 -3.245601 0.190125
v 1.102439 0.407223 0.093288
v 1.102439 -3.245601 0.093287
v 1.184750 -3.245601 -0.137361
v 1.184750 0.407223 -0.137360
v 1.305230 -3.245601 -0.163926
v 1.305230 0.411898 -0.163925
v 1.502140 0.457724 -0.093652
v 1.285529 0.492974 -0.170952
v 1.494809 0.579336 -0.096267
v 1.432240 0.712406 -0.118599
v 1.568810 0.642788 -0.000299
v 1.499809 0.804937 -0.024923
v 1.486499 0.642788 0.230348
v 1.417500 0.804937 0.205725
v 1.305890 0.712406 0.235452
v 1.275719 0.905988 0.155129
v 1.188719 0.799650 0.193640
v 1.082390 0.833136 0.155693
v 1.023310 0.598137 0.134611
v 0.633978 0.598137 0.005529
v 0.648779 0.480636 -0.056173
v -1.102441 -3.245601 0.093288
v -1.102441 0.407223 0.093289
v -1.178880 -3.245601 0.190125
v -1.178880 0.411898 0.190126
v -1.159180 0.492973 0.183099
v -1.375791 0.457723 0.260399
v -1.368460 0.579336 0.257785
v -1.486501 0.642787 0.230348
v -1.417501 0.804937 0.205725
v -1.568810 0.642787 -0.000299
v -1.499810 0.804937 -0.024923
v -1.494810 0.579336 -0.096267
v -1.432241 0.712405 -0.118599
v -1.285530 0.492973 -0.170952
v -1.220550 0.561712 -0.194142
v -1.098110 0.480635 -0.168280
v -1.149660 0.598137 -0.219440
v -0.705508 0.480635 -0.266021
v -0.750902 0.598137 -0.331722
v -1.375791 -3.245601 0.260397
v -1.496270 0.480635 0.233833
v -1.496270 -3.245601 0.233833
v -1.578581 0.480635 0.003185
v -1.578581 -3.245601 0.003185
v -1.502140 0.457723 -0.093653
v -1.502140 -3.245601 -0.093653
v -1.305231 0.411898 -0.163925
v -1.305231 -3.245601 -0.163926
v -1.184750 0.407223 -0.137360
v -1.184750 -3.245601 -0.137361
v -1.015801 0.480635 0.062368
v -1.094201 0.561712 0.159909
v -1.023310 0.598137 0.134611
v -1.082390 0.833136 0.155693
v -0.633974 0.833136 0.005529
v -0.648777 0.950638 -0.056172
v -1.305890 0.712405 0.235452
v -1.188720 0.799650 0.193640
v -1.275721 0.905987 0.155129
v -1.358030 0.905987 -0.075519
v -1.315071 0.799650 -0.160411
v 1.502140 -3.245601 -0.093653
v 1.578580 0.480636 0.003185
v 1.496270 0.480636 0.233833
v 1.368460 0.579336 0.257785
v 1.159180 0.492974 0.183099
v 1.094200 0.561712 0.159909
v 1.015799 0.480636 0.062368
v 0.633978 0.833136 0.005529
v 1.133939 0.950638 0.104532
v 1.216260 0.950638 -0.126116
v 1.358029 0.905988 -0.075519
v 1.315070 0.799650 -0.160411
v 1.178879 0.411898 0.190126
v 1.375789 0.457724 0.260399
v 1.496270 -3.245601 0.233833
v 1.578580 -3.245601 0.003185
v 0.648779 0.950638 -0.056173
v 0.705510 0.950638 -0.266022
v 1.208739 0.833136 -0.198358
v 1.220550 0.561712 -0.194142
v -1.133940 0.950638 0.104532
v -1.216260 0.950638 -0.126116
v -1.208740 0.833136 -0.198358
v -0.750902 0.833136 -0.331722
v -0.705508 0.950638 -0.266021
v 1.098110 0.480636 -0.168280
v 1.149659 0.598137 -0.219440
v 0.750903 0.598137 -0.331722
v 0.750903 0.833136 -0.331722
v -0.633974 0.598137 0.005529
v -0.648777 0.480635 -0.056172
v 1.375789 -3.245601 0.260397
v 0.705510 0.480636 -0.266022
vt 0.000000 0.000000
vt 0.000000 0.000000
vt 0.000000 0.000000
vt 0.000000 0.000000
vt 0.000000 0.000000
vt 0.000000 0.000000
vt 0.000000 0.000000
vt 0.000000 0.000000
vt 0.000000 0.000000
vt 0.000000 0.000000
vt 0.000000 0.000000
vt 0.000000 0.000000
vt 0.000000 0.000000
vt 0.000000 0.000000
vt 0.000000 0.000000
vt 0.000000 0.000000
vt 0.000000 0.000000
vt 0.000000 0.000000
vt 0.000000 0.000000
vt 0.000000 0.000000
vt 0.000000 0.000000
vt 0.000000 0.000000
vt 0.000000 0.000000
vt 0.000000 0.000000
vt 0.000000 0.000000
vt 0.000000 0.000000
vt 0.000000 0.000000
vt 0.000000 0.000000
vt 0.000000 0.000000
vt 0.000000 0.000000
vt 0.000000 0.000000
vt 0.000000 0.000000
vt 0.000000 0.000000
vt 0.000000 0.000000
vt 0.000000 0.000000
vt 0.000000 0.000000
vt 0.000000 0.000000
vt 0.000000 0.000000
vt 0.000000 0.000000
vt 0.000000 0.000000
vt 0.000000 0.000000
vt 0.000000 0.000000
vt 0.000000 0.000000
vt 0.000000 0.000000
vt 0.000000 0.000000
vt 0.000000 0.000000
vt 0.000000 0.000000
vt 0.000000 0.000000
vt 0.000000 0.000000
vt 0.000000 0.000000
vt 0.000000 0.000000
vt 0.000000 0.000000
vt 0.000000 0.000000
vt 0.000000 0.000000
vt 0.000000 0.000000
vt 0.000000 0.000000
vt 0.000000 0.000000
vt 0.000000 0.000000
vt 0.000000 0.000000
vt 0.000000 0.000000
vt 0.000000 0.000000
vt 0.000000 0.000000
vt 0.000000 0.000000
vt 0.000000 0.000000
vt 0.000000 0.000000
vt 0.000000 0.000000
vt 0.000000 0.000000
vt 0.000000 0.000000
vt 0.000000 0.000000
vt 0.000000 0.000000
vt 0.000000 0.000000
vt 0.000000 0.000000
vt 0.000000 0.000000
vt 0.000000 0.000000
vt 0.000000 0.000000
vt 0.000000 0.000000
vt 0.000000 0.000000
vt 0.000000 0.000000
vt 0.000000 0.000000
vt 0.000000 0.000000
vt 0.000000 0.000000
vt 0.000000 0.000000
vt 0.000000 0.000000
vt 0.000000 0.000000
vt 0.000000 0.000000
vt 0.000000 0.000000
vt 0.000000 0.000000
vt 0.000000 0.000000
vt 0.000000 0.000000
vt 0.000000 0.000000
vt 0.000000 0.000000
vt 0.000000 0.000000
vt 0.000000 0.000000
vt 0.000000 0.000000
vt 0.000000 0.000000
vt 0.000000 0.000000
vn -0.4433 -0.6499 0.6174
vn -0.8914 -0.3373 0.3028
vn -0.7799 -0.6126 0.1280
vn -0.5226 -0.6126 -0.5929
vn -0.4982 -0.3373 -0.7987
vn 0.0478 -0.6499 -0.7585
vn 0.0857 -0.0309 -0.9958
vn 0.5864 0.0080 -0.8100
vn 0.1664 -0.1118 -0.9797
vn 0.5870 0.0644 -0.8070
vn 0.5167 0.1673 -0.8396
vn 0.9604 0.2215 -0.1693
vn 0.7910 0.5641 -0.2370
vn 0.6362 0.2215 0.7391
vn 0.4609 0.5645 0.6848
vn -0.1318 0.1695 0.9767
vn 0.1832 0.7825 0.5950
vn -0.2205 0.2365 0.9463
vn -0.2812 0.2632 0.9228
vn -0.3621 -0.2083 0.9086
vn -0.3059 -0.2483 0.9191
vn -0.1557 -0.8676 0.4722
vn 0.7799 -0.6126 0.1280
vn 0.8934 -0.3291 0.3058
vn 0.4433 -0.6499 0.6174
vn 0.5642 -0.0310 0.8251
vn 0.4988 -0.1118 0.8595
vn 0.0589 0.0080 0.9982
vn 0.0575 0.0611 0.9965
vn -0.6391 0.2193 0.7372
vn -0.4622 0.5661 0.6826
vn -0.9614 0.2193 -0.1660
vn -0.7892 0.5665 -0.2370
vn -0.5864 0.0611 -0.8077
vn -0.5122 0.1706 -0.8418
vn -0.1664 -0.1118 -0.9797
vn -0.2104 -0.1677 -0.9631
vn 0.0806 -0.7547 -0.6511
vn -0.2473 -0.1981 -0.9485
vn -0.1192 -0.8927 -0.4345
vn -0.2620 -0.2949 -0.9189
vn 0.0478 -0.6499 0.7585
vn -0.6632 0.0289 0.7479
vn -0.5226 -0.6126 0.5929
vn -0.9868 0.0289 -0.1591
vn -0.7799 -0.6126 -0.1280
vn -0.5864 0.0080 -0.8100
vn -0.4433 -0.6499 -0.6174
vn -0.0857 -0.0309 -0.9958
vn -0.0478 -0.6499 -0.7585
vn 0.4982 -0.3373 -0.7987
vn 0.5227 -0.6126 -0.5929
vn 0.4322 -0.7776 0.4566
vn 0.4467 -0.1768 0.8770
vn 0.3638 -0.2083 0.9079
vn 0.2810 0.2623 0.9232
vn 0.3068 0.2466 0.9193
vn 0.1574 0.8680 0.4709
vn 0.1363 0.1684 0.9762
vn 0.2223 0.2362 0.9459
vn -0.1828 0.7837 0.5937
vn -0.5185 0.7826 -0.3446
vn -0.4284 0.2365 -0.8721
vn 0.4433 -0.6499 -0.6174
vn 0.9868 0.0289 -0.1591
vn 0.6632 0.0289 0.7479
vn -0.0566 0.0644 0.9963
vn -0.4915 -0.1118 0.8637
vn -0.4469 -0.1678 0.8787
vn -0.4350 -0.7785 0.4525
vn -0.3064 0.2484 0.9189
vn -0.0407 0.8617 0.5058
vn 0.2720 0.8593 -0.4332
vn 0.5173 0.7837 -0.3438
vn 0.4268 0.2362 -0.8730
vn -0.5642 -0.0310 0.8251
vn -0.0589 0.0080 0.9982
vn 0.5226 -0.6126 0.5929
vn 0.7799 -0.6126 -0.1280
vn -0.1564 0.8676 0.4720
vn 0.1252 0.8918 -0.4348
vn 0.3274 0.2733 -0.9045
vn 0.2104 -0.1678 -0.9631
vn 0.0401 0.8618 0.5057
vn -0.2743 0.8598 -0.4308
vn -0.3297 0.2696 -0.9048
vn -0.2614 0.2926 -0.9198
vn -0.1188 0.8933 -0.4336
vn -0.0745 -0.7601 -0.6456
vn 0.2535 -0.1976 -0.9469
vn 0.2486 -0.2877 -0.9249
vn 0.2639 0.3000 -0.9167
vn 0.3021 -0.2495 0.9200
vn 0.1533 -0.8666 0.4748
vn -0.0478 -0.6499 0.7585
vn 0.1076 -0.8954 -0.4321
usemtl blue
s 1
f 1/1/1 2/2/2 3/3/3
f 3/3/3 2/2/2 4/4/4
f 2/2/2 5/5/5 4/4/4
f 4/4/4 5/5/5 6/6/6
f 5/5/5 7/7/7 6/6/6
f 6/6/6 7/7/7 8/8/8
f 7/7/7 9/9/9 8/8/8
f 8/8/8 9/9/9 10/10/10
f 9/9/9 11/11/11 10/10/10
f 10/10/10 11/11/11 12/12/12
f 11/11/11 13/13/13 12/12/12
f 12/12/12 13/13/13 14/14/14
f 13/13/13 15/15/15 14/14/14
f 14/14/14 15/15/15 16/16/16
f 15/15/15 17/17/17 16/16/16
f 16/16/16 17/17/17 18/18/18
f 17/17/17 19/19/19 18/18/18
f 18/18/18 19/19/19 20/20/20
f 19/19/19 21/21/21 20/20/20
f 20/20/20 21/21/21 22/22/22
f 23/23/23 24/24/24 25/25/25
f 25/25/25 24/24/24 26/26/26
f 24/24/24 27/27/27 26/26/26
f 26/26/26 27/27/27 28/28/28
f 27/27/27 29/29/29 28/28/28
f 28/28/28 29/29/29 30/30/30
f 29/29/29 31/31/31 30/30/30
f 30/30/30 31/31/31 32/32/32
f 31/31/31 33/33/33 32/32/32
f 32/32/32 33/33/33 34/34/34
f 33/33/33 35/35/35 34/34/34
f 34/34/34 35/35/35 36/36/36
f 35/35/35 37/37/37 36/36/36
f 36/36/36 37/37/37 38/38/38
f 37/37/37 39/39/39 38/38/38
f 38/38/38 39/39/39 40/40/40
f 39/39/39 41/41/41 40/40/40
f 26/26/26 28/28/28 25/25/25
f 25/25/25 28/28/28 42/42/42
f 28/28/28 43/43/43 42/42/42
f 42/42/42 43/43/43 44/44/44
f 43/43/43 45/45/45 44/44/44
f 44/44/44 45/45/45 46/46/46
f 45/45/45 47/47/47 46/46/46
f 46/46/46 47/47/47 48/48/48
f 47/47/47 49/49/49 48/48/48
f 48/48/48 49/49/49 50/50/50
f 49/49/49 51/51/51 50/50/50
f 50/50/50 51/51/51 52/52/52
f 51/51/51 23/23/23 52/52/52
f 45/45/45 34/34/34 47/47/47
f 47/47/47 34/34/34 49/49/49
f 34/34/34 36/36/36 49/49/49
f 49/49/49 36/36/36 51/51/51
f 36/36/36 38/38/38 51/51/51
f 51/51/51 38/38/38 24/24/24
f 38/38/38 53/53/53 24/24/24
f 24/24/24 53/53/53 54/54/54
f 53/53/53 55/55/55 54/54/54
f 54/54/54 55/55/55 56/56/56
f 55/55/55 57/57/57 56/56/56
f 56/56/56 57/57/57 58/58/58
f 24/24/24 54/54/54 27/27/27
f 27/27/27 54/54/54 59/59/59
f 54/54/54 60/60/60 59/59/59
f 59/59/59 60/60/60 31/31/31
f 60/60/60 61/61/61 31/31/31
f 31/31/31 61/61/61 33/33/33
f 61/61/61 62/62/62 33/33/33
f 33/33/33 62/62/62 35/35/35
f 62/62/62 63/63/63 35/35/35
f 35/35/35 63/63/63 37/37/37
f 63/63/63 39/39/39 37/37/37
f 6/6/6 8/8/8 64/64/64
f 64/64/64 8/8/8 65/65/65
f 8/8/8 12/12/12 65/65/65
f 65/65/65 12/12/12 66/66/66
f 12/12/12 14/14/14 66/66/66
f 66/66/66 14/14/14 67/67/67
f 14/14/14 16/16/16 67/67/67
f 67/67/67 16/16/16 68/68/68
f 16/16/16 69/69/69 68/68/68
f 68/68/68 69/69/69 70/70/70
f 69/69/69 20/20/20 70/70/70
f 21/21/21 19/19/19 71/71/71
f 71/71/71 19/19/19 72/72/72
f 19/19/19 17/17/17 72/72/72
f 72/72/72 17/17/17 73/73/73
f 17/17/17 74/74/74 73/73/73
f 73/73/73 74/74/74 75/75/75
f 74/74/74 13/13/13 75/75/75
f 75/75/75 13/13/13 11/11/11
f 5/5/5 2/2/2 70/70/70
f 70/70/70 2/2/2 68/68/68
f 2/2/2 76/76/76 68/68/68
f 68/68/68 76/76/76 67/67/67
f 76/76/76 77/77/77 67/67/67
f 67/67/67 77/77/77 66/66/66
f 77/77/77 78/78/78 66/66/66
f 66/66/66 78/78/78 79/79/79
f 71/71/71 72/72/72 80/80/80
f 80/80/80 72/72/72 81/81/81
f 72/72/72 73/73/73 81/81/81
f 81/81/81 73/73/73 82/82/82
f 73/73/73 75/75/75 82/82/82
f 82/82/82 75/75/75 83/83/83
f 75/75/75 11/11/11 83/83/83
f 83/83/83 11/11/11 9/9/9
f 60/60/60 84/84/84 61/61/61
f 61/61/61 84/84/84 62/62/62
f 84/84/84 85/85/85 62/62/62
f 62/62/62 85/85/85 86/86/86
f 85/85/85 87/87/87 86/86/86
f 86/86/86 87/87/87 41/41/41
f 54/54/54 56/56/56 60/60/60
f 60/60/60 56/56/56 84/84/84
f 56/56/56 58/58/58 84/84/84
f 84/84/84 58/58/58 85/85/85
f 58/58/58 88/88/88 85/85/85
f 85/85/85 88/88/88 87/87/87
f 7/7/7 5/5/5 9/9/9
f 9/9/9 5/5/5 89/89/89
f 5/5/5 70/70/70 89/89/89
f 89/89/89 70/70/70 22/22/22
f 70/70/70 20/20/20 22/22/22
f 28/28/28 30/30/30 43/43/43
f 43/43/43 30/30/30 45/45/45
f 30/30/30 32/32/32 45/45/45
f 45/45/45 32/32/32 34/34/34
f 9/9/9 89/89/89 83/83/83
f 83/83/83 89/89/89 90/90/90
f 89/89/89 91/91/91 90/90/90
f 90/90/90 91/91/91 92/92/92
f 93/93/93 53/53/53 94/94/94
f 94/94/94 53/53/53 40/40/40
f 53/53/53 38/38/38 40/40/40
f 42/42/42 44/44/44 52/52/52
f 52/52/52 44/44/44 46/46/46
f 41/41/41 39/39/39 86/86/86
f 86/86/86 39/39/39 63/63/63
f 46/46/46 48/48/48 52/52/52
f 52/52/52 48/48/48 50/50/50
f 4/4/4 6/6/6 3/3/3
f 3/3/3 6/6/6 64/64/64
f 57/57/57 55/55/55 93/93/93
f 93/93/93 55/55/55 53/53/53
f 2/2/2 1/1/1 76/76/76
f 76/76/76 1/1/1 95/95/95
f 64/64/64 79/79/79 3/3/3
f 3/3/3 79/79/79 78/78/78
f 76/76/76 95/95/95 77/77/77
f 77/77/77 95/95/95 78/78/78
f 27/27/27 59/59/59 29/29/29
f 29/29/29 59/59/59 31/31/31
f 16/16/16 18/18/18 69/69/69
f 69/69/69 18/18/18 20/20/20
f 64/64/64 65/65/65 79/79/79
f 79/79/79 65/65/65 66/66/66
f 22/22/22 96/96/96 89/89/89
f 89/89/89 96/96/96 91/91/91
f 17/17/17 15/15/15 74/74/74
f 74/74/74 15/15/15 13/13/13
f 78/78/78 95/95/95 3/3/3
f 3/3/3 95/95/95 1/1/1
f 23/23/23 25/25/25 52/52/52
f 52/52/52 25/25/25 42/42/42
f 83/83/83 90/90/90 82/82/82
f 82/82/82 90/90/90 92/92/92
f 86/86/86 63/63/63 62/62/62
f 51/51/51 24/24/24 23/23/23
f 8/8/8 10/10/10 12/12/12
f 82/82/82 92/92/92 81/81/81
