# Blender v2.83.0 OBJ File: ''
# www.blender.org
mtllib S.S._Dolphin_part.034.mtl
o S.S._Dolphin_part.034
v -2.083369 0.913559 0.174384
v -2.068459 0.824239 0.223749
v -1.976629 0.873878 0.118306
v -1.984949 0.774239 0.090769
v -2.083369 0.734920 0.174383
v -2.113199 0.734920 0.075650
v -2.113199 0.734920 0.075650
v -2.128119 0.824239 0.026285
v -1.984949 0.774239 0.090769
v -1.993269 0.873878 0.063233
v -2.113199 0.913559 0.075650
v -2.083369 0.913559 0.174384
v 2.138102 0.774239 0.090769
v 2.146422 0.873878 0.063233
v 2.281272 0.824239 0.026285
v 2.266352 0.913559 0.075650
v 2.129782 0.873878 0.118306
v 2.236532 0.913559 0.174383
v 2.221612 0.824239 0.223749
v 2.236532 0.734920 0.174383
v 2.138102 0.774239 0.090769
v 2.266352 0.734920 0.075650
v 2.281272 0.824239 0.026285
v 0.006577 -4.774493 0.210996
v 0.146577 -4.774493 0.210996
v 0.006578 -2.515621 0.210997
v 0.146578 -2.515621 0.210997
v 0.076577 -4.774493 0.029499
v 0.076578 -2.551553 0.029500
v 0.006577 -4.774493 0.210996
v 0.006578 -2.515621 0.210997
v 0.275407 0.952619 -0.484864
v 0.258769 0.952619 -0.429794
v 2.146422 0.873878 0.063233
v 2.129782 0.873878 0.118306
v -0.019355 0.785090 -0.485904
v -1.984949 0.774239 0.090769
v -0.105613 0.884729 -0.429794
v -1.976629 0.873878 0.118306
v -0.105613 0.884729 -0.429794
v -0.122252 0.884739 -0.484867
v -1.976629 0.873878 0.118306
v -1.993269 0.873878 0.063233
v -0.122252 0.884739 -0.484867
v -1.993269 0.873878 0.063233
v -0.019355 0.785090 -0.485904
v -1.984949 0.774239 0.090769
v 2.068412 -0.255661 0.817914
v 2.088102 -0.255661 0.763854
v 0.155420 -0.255661 0.378934
v 0.175114 -0.255661 0.324874
v 2.068412 -0.255661 0.817914
v 0.155420 -0.255661 0.378934
v 2.078262 -0.355312 0.790883
v 0.258098 -0.355302 0.385723
v 0.258098 -0.355302 0.385723
v 2.078262 -0.355312 0.790883
v 0.175114 -0.255661 0.324874
v 2.088102 -0.255661 0.763854
v 0.172510 0.852979 -0.485902
v 2.138102 0.774239 0.090769
v 0.275407 0.952619 -0.484864
v 2.146422 0.873878 0.063233
v 0.258769 0.952619 -0.429794
v 2.129782 0.873878 0.118306
v 0.172510 0.852979 -0.485902
v 2.138102 0.774239 0.090769
v -2.068459 0.824239 0.223749
v -2.083369 0.913559 0.174384
v -2.083369 0.734920 0.174383
v -2.113199 0.913559 0.075650
v -2.113199 0.913559 0.075650
v -2.128119 0.824239 0.026285
v -2.083369 0.734920 0.174383
v -2.113199 0.734920 0.075650
v 2.236532 0.734920 0.174383
v 2.266352 0.734920 0.075650
v 2.221612 0.824239 0.223749
v 2.281272 0.824239 0.026285
v 2.281272 0.824239 0.026285
v 2.266352 0.913559 0.075650
v 2.221612 0.824239 0.223749
v 2.236532 0.913559 0.174383
v -1.789819 -2.886761 -0.736955
v -1.599829 0.949220 -0.736953
v -1.859829 -2.886771 -0.876954
v -1.529829 0.949220 -0.876953
v -1.459829 0.949220 -0.736953
v -1.529829 0.949220 -0.876953
v -1.719819 -2.886771 -0.876954
v -1.859829 -2.886771 -0.876954
v 2.236532 0.913559 0.174383
v 2.221612 0.824239 0.223749
v 2.129782 0.873878 0.118306
v 2.138102 0.774239 0.090769
v -1.599829 0.949220 -0.736953
v -1.459829 0.949220 -0.736953
v -1.789819 -2.886761 -0.736955
v -1.719819 -2.886771 -0.876954
v 0.076578 -2.551553 0.029500
v 0.146578 -2.515621 0.210997
v 0.076577 -4.774493 0.029499
v 0.146577 -4.774493 0.210996
v -1.993269 0.873878 0.063233
v -1.976629 0.873878 0.118306
v -2.083369 0.913559 0.174384
vt 0.000000 0.000000
vt 0.000000 0.000000
vt 0.000000 0.000000
vt 0.000000 0.000000
vt 0.000000 0.000000
vt 0.000000 0.000000
vt 0.000000 0.000000
vt 0.000000 0.000000
vt 0.000000 0.000000
vt 0.000000 0.000000
vt 0.000000 0.000000
vt 0.000000 0.000000
vt 0.000000 0.000000
vt 0.000000 0.000000
vt 0.000000 0.000000
vt 0.000000 0.000000
vt 0.000000 0.000000
vt 0.000000 0.000000
vt 0.000000 0.000000
vt 0.000000 0.000000
vt 0.000000 0.000000
vt 0.000000 0.000000
vt 0.000000 0.000000
vt 0.000000 0.000000
vt 0.000000 0.000000
vt 0.000000 0.000000
vt 0.000000 0.000000
vt 0.000000 0.000000
vt 0.000000 0.000000
vt 0.000000 0.000000
vt 0.000000 0.000000
vt 0.000000 0.000000
vt 0.000000 0.000000
vt 0.000000 0.000000
vt 0.000000 0.000000
vt 0.000000 0.000000
vt 0.000000 0.000000
vt 0.000000 0.000000
vt 0.000000 0.000000
vt 0.000000 0.000000
vt 0.000000 0.000000
vt 0.000000 0.000000
vt 0.000000 0.000000
vt 0.000000 0.000000
vt 0.000000 0.000000
vt 0.000000 0.000000
vt 0.000000 0.000000
vt 0.000000 0.000000
vt 0.000000 0.000000
vt 0.000000 0.000000
vt 0.000000 0.000000
vt 0.000000 0.000000
vt 0.000000 0.000000
vt 0.000000 0.000000
vt 0.000000 0.000000
vt 0.000000 0.000000
vt 0.000000 0.000000
vt 0.000000 0.000000
vt 0.000000 0.000000
vt 0.000000 0.000000
vt 0.000000 0.000000
vt 0.000000 0.000000
vt 0.000000 0.000000
vt 0.000000 0.000000
vt 0.000000 0.000000
vt 0.000000 0.000000
vt 0.000000 0.000000
vt 0.000000 0.000000
vt 0.000000 0.000000
vt 0.000000 0.000000
vt 0.000000 0.000000
vt 0.000000 0.000000
vt 0.000000 0.000000
vt 0.000000 0.000000
vt 0.000000 0.000000
vt 0.000000 0.000000
vt 0.000000 0.000000
vt 0.000000 0.000000
vt 0.000000 0.000000
vt 0.000000 0.000000
vt 0.000000 0.000000
vt 0.000000 0.000000
vt 0.000000 0.000000
vt 0.000000 0.000000
vt 0.000000 0.000000
vt 0.000000 0.000000
vt 0.000000 0.000000
vt 0.000000 0.000000
vt 0.000000 0.000000
vt 0.000000 0.000000
vt 0.000000 0.000000
vt 0.000000 0.000000
vt 0.000000 0.000000
vt 0.000000 0.000000
vt 0.000000 0.000000
vt 0.000000 0.000000
vt 0.000000 0.000000
vt 0.000000 0.000000
vt 0.000000 0.000000
vt 0.000000 0.000000
vt 0.000000 0.000000
vt 0.000000 0.000000
vt 0.000000 0.000000
vt 0.000000 0.000000
vt 0.000000 0.000000
vt 0.000000 0.000000
vn 0.5411 0.4742 0.6945
vn 0.7207 -0.0407 0.6921
vn 0.7487 0.0223 0.6625
vn 0.6948 -0.5774 0.4289
vn 0.5777 -0.7472 0.3286
vn 0.3017 -0.9490 -0.0912
vn 0.2368 -0.4394 -0.8665
vn 0.2168 -0.0407 -0.9754
vn 0.2986 -0.3093 -0.9029
vn 0.3275 0.3348 -0.8835
vn 0.2103 0.8079 -0.5506
vn 0.3042 0.9482 -0.0919
vn -0.3337 -0.2251 -0.9154
vn -0.3612 0.5892 -0.7228
vn -0.1861 0.2089 -0.9601
vn -0.2103 0.8079 -0.5505
vn -0.3042 0.9482 -0.0919
vn 0.6770 0.4394 -0.5904
vn 0.5777 0.7472 -0.3287
vn 0.5310 0.8321 0.1604
vn 0.2990 0.7472 0.5935
vn 0.2368 0.4394 0.8665
vn 0.0000 -0.0000 1.0000
vn 0.9330 -0.0000 0.3598
vn 0.0386 0.9992 0.0117
vn -0.2714 0.2830 -0.9199
vn -0.2716 0.2776 -0.9215
vn -0.2714 0.2829 -0.9199
vn -0.2716 0.2774 -0.9216
vn -0.0053 1.0000 0.0018
vn -0.0053 1.0000 0.0016
vn 0.2694 0.2685 0.9248
vn 0.2691 0.2771 0.9224
vn 0.2693 0.2691 0.9247
vn 0.2691 0.2774 0.9223
vn 0.0000 1.0000 -0.0000
vn -0.2150 -0.2754 0.9370
vn -0.2148 -0.1636 0.9629
vn -0.2151 -0.2715 0.9381
vn -0.2146 -0.1555 0.9642
vn -0.2007 0.3834 0.9015
vn -0.2146 0.2791 0.9360
vn -0.2016 0.3768 0.9041
vn -0.2150 0.2754 0.9370
vn -0.2621 0.2610 0.9291
vn -0.2594 0.2767 0.9253
vn -0.2621 0.2614 0.9290
vn -0.2593 0.2773 0.9251
vn 0.2809 0.2746 -0.9196
vn 0.2807 0.2773 -0.9189
vn 0.2809 0.2748 -0.9196
vn 0.2807 0.2774 -0.9188
vn -0.9573 -0.0000 0.2891
vn -0.9573 -0.0000 0.2892
vn -0.9572 0.0000 0.2893
vn -0.9573 0.0000 0.2893
vn -0.9573 -0.0001 0.2892
vn 0.9573 0.0001 0.2891
vn 0.9573 -0.0000 0.2892
vn 0.9573 -0.0001 0.2892
vn 0.9573 0.0001 0.2892
vn 0.9573 -0.0001 0.2891
vn -0.8935 0.0443 0.4468
vn -0.9007 0.0767 -0.4275
vn -0.9027 0.0456 0.4278
vn -0.8918 0.0767 -0.4459
vn -0.8936 0.0443 0.4468
vn -0.8844 0.0438 0.4647
vn -0.0222 0.0011 0.9998
vn 0.5411 -0.4742 -0.6945
vn 0.6866 -0.2090 -0.6963
vn 0.7487 -0.0223 -0.6625
vn 0.7848 0.2251 -0.5775
vn 0.0000 0.0000 -1.0000
vn -0.0241 0.0021 -0.9997
vn -0.8823 0.0759 -0.4646
vn 0.9330 -0.0000 -0.3598
vn -0.3042 -0.9482 0.0919
usemtl ship_grey
s 1
f 1/1/1 2/2/2 3/3/3
f 3/3/3 2/2/2 4/4/4
f 2/2/2 5/5/5 4/4/4
f 4/4/4 5/5/5 6/6/6
f 7/7/7 8/8/8 9/9/9
f 9/9/9 8/8/8 10/10/10
f 8/8/8 11/11/11 10/10/10
f 10/10/10 11/11/11 12/12/12
f 13/13/13 14/14/14 15/15/15
f 15/15/15 14/14/14 16/16/16
f 14/14/14 17/17/17 16/16/16
f 16/16/16 17/17/17 18/18/17
f 19/19/18 20/20/19 21/21/20
f 20/20/19 22/22/21 21/21/20
f 21/21/20 22/22/21 23/23/22
f 24/24/23 25/25/23 26/26/23
f 26/26/23 25/25/23 27/27/23
f 28/28/24 29/29/24 30/30/24
f 29/29/24 31/31/24 30/30/24
f 32/32/25 33/33/25 34/34/25
f 34/34/25 33/33/25 35/35/25
f 36/36/26 37/37/27 38/38/28
f 37/37/27 39/39/29 38/38/28
f 40/40/30 41/41/30 42/42/31
f 42/42/31 41/41/30 43/43/31
f 44/44/32 45/45/33 46/46/34
f 45/45/33 47/47/35 46/46/34
f 48/48/36 49/49/36 50/50/36
f 50/50/36 49/49/36 51/51/36
f 52/52/37 53/53/38 54/54/39
f 54/54/39 53/53/38 55/55/40
f 56/56/41 57/57/42 58/58/43
f 57/57/42 59/59/44 58/58/43
f 60/60/45 61/61/46 62/62/47
f 61/61/46 63/63/48 62/62/47
f 64/64/49 65/65/50 66/66/51
f 65/65/50 67/67/52 66/66/51
f 68/68/53 69/69/54 70/70/54
f 70/70/54 69/69/54 71/71/54
f 72/72/55 73/73/56 74/74/54
f 74/74/54 73/73/56 75/75/57
f 76/76/58 77/77/59 78/78/59
f 78/78/59 77/77/59 79/79/60
f 80/80/61 81/81/59 82/82/59
f 82/82/59 81/81/59 83/83/62
f 84/84/63 85/85/64 86/86/65
f 86/86/65 85/85/64 87/87/66
f 88/88/67 89/89/68 90/90/69
f 89/89/68 91/91/23 90/90/69
f 92/92/70 93/93/71 94/94/72
f 93/93/71 95/95/73 94/94/72
f 96/96/74 97/97/75 98/98/76
f 97/97/75 99/99/66 98/98/76
f 100/100/77 101/101/77 102/102/77
f 102/102/77 101/101/77 103/103/77
f 104/104/78 105/105/78 106/106/78
