# Blender v2.83.0 OBJ File: ''
# www.blender.org
mtllib S.S._Dolphin_Gluon_Drive_cog_6.mtl
o S.S._Dolphin_Gluon_Drive_cog_6
v -0.395122 0.039515 1.090429
v -0.518210 0.100356 0.744518
v -0.076481 0.100355 0.904111
v 0.000460 0.220356 0.000039
v 0.385864 0.100355 0.821458
v 0.744941 0.100356 0.518707
v 0.746978 0.039515 0.887819
v -0.202154 0.039515 -1.142060
v 0.077401 0.100356 -0.904033
v -0.384945 0.100356 -0.821380
v 0.000460 0.220356 0.000039
v -0.744022 0.100356 -0.518629
v -0.903615 0.100356 -0.076901
v -1.089940 0.039515 -0.395542
v 1.142562 0.039515 -0.202575
v 0.893814 0.100356 0.076066
v 0.821882 0.100356 -0.385365
v 0.000460 0.220356 0.000039
v 0.519130 0.100356 -0.744440
v -1.141640 0.039515 0.202653
v -0.903615 0.100356 -0.076901
v -0.820962 0.100356 0.385443
v 0.000460 0.220356 0.000039
v -0.518210 0.100356 0.744518
v 0.000460 0.220356 0.000039
v 0.893814 0.100356 0.076066
v 0.744941 0.100356 0.518707
v 1.090851 0.039515 0.395620
v 0.396041 0.039515 -1.090351
v 0.519130 0.100356 -0.744440
v 0.077401 0.100356 -0.904033
v 0.000460 0.220356 0.000039
v 0.893814 0.100356 0.076066
v 0.893814 -0.161644 0.076066
v 1.090851 0.039515 0.395620
v 1.090851 -0.161795 0.395620
v 0.744941 0.100356 0.518707
v 0.744941 -0.161644 0.518707
v 0.746978 0.039515 0.887819
v 0.746978 -0.161795 0.887819
v 0.385864 0.100355 0.821458
v 0.385864 -0.161644 0.821458
v 0.203074 0.039515 1.142139
v 0.203072 -0.161795 1.142139
v -0.076481 0.100355 0.904111
v -0.076481 -0.161644 0.904111
v -0.395122 0.039515 1.090429
v -0.395122 -0.161795 1.090429
v -0.518210 0.100356 0.744518
v -0.518210 -0.161644 0.744518
v -0.887321 0.039515 0.746558
v -0.887321 -0.161795 0.746558
v -0.820962 0.100356 0.385443
v -0.820962 -0.161644 0.385443
v -1.141640 0.039515 0.202653
v -1.141640 -0.161795 0.202653
v -0.903615 0.100356 -0.076901
v -0.903615 -0.161644 -0.076901
v -1.089940 0.039515 -0.395542
v -1.089940 -0.161795 -0.395542
v -0.744022 0.100356 -0.518629
v -0.744022 -0.161644 -0.518629
v -0.746059 0.039515 -0.887741
v -0.746059 -0.161795 -0.887741
v -0.384945 -0.161644 -0.821380
v -0.202154 -0.161795 -1.142060
v -0.384945 0.100356 -0.821380
v -0.202154 0.039515 -1.142060
v 0.396041 -0.161795 -1.090351
v 0.396041 0.039515 -1.090351
v 0.077400 -0.161644 -0.904033
v 0.077401 0.100356 -0.904033
v 0.888240 -0.161795 -0.746479
v 0.888240 0.039515 -0.746479
v 0.519130 -0.161644 -0.744440
v 0.519130 0.100356 -0.744440
v 1.142562 -0.161795 -0.202575
v 1.142562 0.039515 -0.202575
v 0.821882 -0.161644 -0.385365
v 0.821882 0.100356 -0.385365
v -0.384945 -0.161644 -0.821380
v -0.384945 0.100356 -0.821380
v -0.746059 -0.161795 -0.887741
v -0.746059 0.039515 -0.887741
v -0.744022 -0.161644 -0.518629
v -0.744022 0.100356 -0.518629
v -1.089940 -0.161795 -0.395542
v -1.089940 0.039515 -0.395542
v 0.077401 0.100356 -0.904033
v -0.202154 0.039515 -1.142060
v 0.077400 -0.161644 -0.904033
v -0.202154 -0.161795 -1.142060
v -0.903615 -0.161644 -0.076901
v -0.903615 0.100356 -0.076901
v -1.141640 -0.161795 0.202653
v -1.141640 0.039515 0.202653
v -0.820962 -0.161644 0.385443
v -0.820962 0.100356 0.385443
v -0.887321 -0.161795 0.746558
v -0.887321 0.039515 0.746558
v -0.518210 -0.161644 0.744518
v -0.518210 0.100356 0.744518
v -0.395122 -0.161795 1.090429
v -0.395122 0.039515 1.090429
v 0.396041 0.039515 -1.090351
v 0.396041 -0.161795 -1.090351
v 0.519130 0.100356 -0.744440
v 0.519130 -0.161644 -0.744440
v -0.076481 -0.161644 0.904111
v -0.076481 0.100355 0.904111
v 0.203072 -0.161795 1.142139
v 0.203074 0.039515 1.142139
v 0.385864 -0.161644 0.821458
v 0.385864 0.100355 0.821458
v 0.746978 -0.161795 0.887819
v 0.746978 0.039515 0.887819
v 1.142562 0.039515 -0.202575
v 1.142562 -0.161795 -0.202575
v 0.893814 0.100356 0.076066
v 0.893814 -0.161644 0.076066
v 0.888240 0.039515 -0.746479
v 0.888240 -0.161795 -0.746479
v 0.821882 0.100356 -0.385365
v 0.821882 -0.161644 -0.385365
v 0.744941 -0.161644 0.518707
v 0.744941 0.100356 0.518707
v 1.090851 -0.161795 0.395620
v 1.090851 0.039515 0.395620
v -0.744022 0.100356 -0.518629
v -0.746059 0.039515 -0.887741
v -0.384945 0.100356 -0.821380
v 0.385864 0.100355 0.821458
v 0.203074 0.039515 1.142139
v -0.076481 0.100355 0.904111
v -0.518210 0.100356 0.744518
v -0.887321 0.039515 0.746558
v -0.820962 0.100356 0.385443
v 0.519130 0.100356 -0.744440
v 0.888240 0.039515 -0.746479
v 0.821882 0.100356 -0.385365
vt 0.000000 0.000000
vt 0.000000 0.000000
vt 0.000000 0.000000
vt 0.000000 0.000000
vt 0.000000 0.000000
vt 0.000000 0.000000
vt 0.000000 0.000000
vt 0.000000 0.000000
vt 0.000000 0.000000
vt 0.000000 0.000000
vt 0.000000 0.000000
vt 0.000000 0.000000
vt 0.000000 0.000000
vt 0.000000 0.000000
vt 0.000000 0.000000
vt 0.000000 0.000000
vt 0.000000 0.000000
vt 0.000000 0.000000
vt 0.000000 0.000000
vt 0.000000 0.000000
vt 0.000000 0.000000
vt 0.000000 0.000000
vt 0.000000 0.000000
vt 0.000000 0.000000
vt 0.000000 0.000000
vt 0.000000 0.000000
vt 0.000000 0.000000
vt 0.000000 0.000000
vt 0.000000 0.000000
vt 0.000000 0.000000
vt 0.000000 0.000000
vt 0.000000 0.000000
vt 0.000000 0.000000
vt 0.000000 0.000000
vt 0.000000 0.000000
vt 0.000000 0.000000
vt 0.000000 0.000000
vt 0.000000 0.000000
vt 0.000000 0.000000
vt 0.000000 0.000000
vt 0.000000 0.000000
vt 0.000000 0.000000
vt 0.000000 0.000000
vt 0.000000 0.000000
vt 0.000000 0.000000
vt 0.000000 0.000000
vt 0.000000 0.000000
vt 0.000000 0.000000
vt 0.000000 0.000000
vt 0.000000 0.000000
vt 0.000000 0.000000
vt 0.000000 0.000000
vt 0.000000 0.000000
vt 0.000000 0.000000
vt 0.000000 0.000000
vt 0.000000 0.000000
vt 0.000000 0.000000
vt 0.000000 0.000000
vt 0.000000 0.000000
vt 0.000000 0.000000
vt 0.000000 0.000000
vt 0.000000 0.000000
vt 0.000000 0.000000
vt 0.000000 0.000000
vt 0.000000 0.000000
vt 0.000000 0.000000
vt 0.000000 0.000000
vt 0.000000 0.000000
vt 0.000000 0.000000
vt 0.000000 0.000000
vt 0.000000 0.000000
vt 0.000000 0.000000
vt 0.000000 0.000000
vt 0.000000 0.000000
vt 0.000000 0.000000
vt 0.000000 0.000000
vt 0.000000 0.000000
vt 0.000000 0.000000
vt 0.000000 0.000000
vt 0.000000 0.000000
vt 0.000000 0.000000
vt 0.000000 0.000000
vt 0.000000 0.000000
vt 0.000000 0.000000
vt 0.000000 0.000000
vt 0.000000 0.000000
vt 0.000000 0.000000
vt 0.000000 0.000000
vt 0.000000 0.000000
vt 0.000000 0.000000
vt 0.000000 0.000000
vt 0.000000 0.000000
vt 0.000000 0.000000
vt 0.000000 0.000000
vt 0.000000 0.000000
vt 0.000000 0.000000
vt 0.000000 0.000000
vt 0.000000 0.000000
vt 0.000000 0.000000
vt 0.000000 0.000000
vt 0.000000 0.000000
vt 0.000000 0.000000
vt 0.000000 0.000000
vt 0.000000 0.000000
vt 0.000000 0.000000
vt 0.000000 0.000000
vt 0.000000 0.000000
vt 0.000000 0.000000
vt 0.000000 0.000000
vt 0.000000 0.000000
vt 0.000000 0.000000
vt 0.000000 0.000000
vt 0.000000 0.000000
vt 0.000000 0.000000
vt 0.000000 0.000000
vt 0.000000 0.000000
vt 0.000000 0.000000
vt 0.000000 0.000000
vt 0.000000 0.000000
vt 0.000000 0.000000
vt 0.000000 0.000000
vt 0.000000 0.000000
vt 0.000000 0.000000
vt 0.000000 0.000000
vt 0.000000 0.000000
vt 0.000000 0.000000
vt 0.000000 0.000000
vt 0.000000 0.000000
vt 0.000000 0.000000
vt 0.000000 0.000000
vt 0.000000 0.000000
vt 0.000000 0.000000
vt 0.000000 0.000000
vt 0.000000 0.000000
vt 0.000000 0.000000
vt 0.000000 0.000000
vt 0.000000 0.000000
vt 0.000000 0.000000
vt 0.000000 0.000000
vt 0.000000 0.000000
vn 0.0713 -0.9777 -0.1973
vn 0.0563 -0.9862 -0.1560
vn 0.0264 -0.9887 -0.1476
vn -0.0218 -0.9923 -0.1218
vn -0.0760 -0.9887 -0.1294
vn -0.1068 -0.9862 -0.1267
vn -0.1353 -0.9777 -0.1604
vn 0.0369 -0.9777 0.2065
vn 0.0292 -0.9862 0.1632
vn 0.0510 -0.9887 0.1410
vn 0.0798 -0.9923 0.0946
vn 0.1305 -0.9887 0.0741
vn 0.1558 -0.9862 0.0563
vn 0.1973 -0.9777 0.0713
vn -0.2038 -0.9785 0.0318
vn -0.1626 -0.9864 0.0253
vn -0.1412 -0.9888 0.0487
vn -0.1194 -0.9914 0.0543
vn -0.1037 -0.9908 0.0874
vn 0.2065 -0.9777 -0.0369
vn 0.1632 -0.9862 -0.0292
vn 0.1410 -0.9887 -0.0510
vn 0.1187 -0.9914 -0.0557
vn 0.1037 -0.9908 -0.0874
vn -0.1294 -0.9906 -0.0435
vn -0.1559 -0.9864 -0.0524
vn -0.1569 -0.9862 -0.0528
vn -0.1955 -0.9785 -0.0658
vn -0.0713 -0.9777 0.1973
vn -0.0563 -0.9862 0.1560
vn -0.0563 -0.9862 0.1558
vn -0.0461 -0.9908 0.1276
vn -0.8512 0.0000 0.5248
vn -1.0000 0.0000 0.0055
vn -0.8688 0.0000 -0.4952
vn -0.5048 0.0000 -0.8633
vn -0.0055 0.0000 -1.0000
vn 0.4952 0.0000 -0.8688
vn 0.8632 0.0000 -0.5048
vn 1.0000 0.0000 -0.0055
vn 0.8688 0.0000 0.4952
vn 0.5048 0.0000 0.8633
vn 0.0055 0.0000 1.0000
vn -0.4952 0.0000 0.8688
vn -0.1807 0.0000 0.9835
vn 0.3352 0.0000 0.9421
vn -0.6483 0.0000 0.7614
vn 0.7614 0.0000 0.6483
vn 0.9835 0.0000 0.1807
vn 0.9421 0.0000 -0.3352
vn -0.9421 0.0000 0.3352
vn 0.6483 0.0000 -0.7614
vn 0.1807 0.0000 -0.9835
vn -0.7460 0.0000 -0.6660
vn -0.9835 0.0000 -0.1807
vn -0.3352 0.0000 -0.9421
vn 0.1353 -0.9777 0.1604
vn -0.0369 -0.9777 -0.2065
vn 0.1604 -0.9777 -0.1353
vn -0.1604 -0.9777 0.1353
usemtl dark_red
s 1
f 1/1/1 2/2/2 3/3/3
f 2/2/2 4/4/4 3/3/3
f 3/3/3 4/4/4 5/5/5
f 4/4/4 6/6/6 5/5/5
f 5/5/5 6/6/6 7/7/7
f 8/8/8 9/9/9 10/10/10
f 9/9/9 11/11/11 10/10/10
f 10/10/10 11/11/11 12/12/12
f 11/11/11 13/13/13 12/12/12
f 12/12/12 13/13/13 14/14/14
f 15/15/15 16/16/16 17/17/17
f 16/16/16 18/18/18 17/17/17
f 17/17/17 18/18/18 19/19/19
f 20/20/20 21/21/21 22/22/22
f 21/21/21 23/23/23 22/22/22
f 22/22/22 23/23/23 24/24/24
f 25/25/25 26/26/26 27/27/27
f 26/26/26 28/28/28 27/27/27
f 29/29/29 30/30/30 31/31/31
f 30/30/30 32/32/32 31/31/31
f 33/33/33 34/34/33 35/35/33
f 34/34/33 36/36/33 35/35/33
f 37/37/34 38/38/34 39/39/34
f 38/38/34 40/40/34 39/39/34
f 41/41/35 42/42/35 43/43/35
f 42/42/35 44/44/35 43/43/35
f 45/45/36 46/46/36 47/47/36
f 46/46/36 48/48/36 47/47/36
f 49/49/37 50/50/37 51/51/37
f 50/50/37 52/52/37 51/51/37
f 53/53/38 54/54/38 55/55/38
f 54/54/38 56/56/38 55/55/38
f 57/57/39 58/58/39 59/59/39
f 58/58/39 60/60/39 59/59/39
f 61/61/40 62/62/40 63/63/40
f 62/62/40 64/64/40 63/63/40
f 65/65/41 66/66/41 67/67/41
f 66/66/41 68/68/41 67/67/41
f 69/69/42 70/70/42 71/71/42
f 70/70/42 72/72/42 71/71/42
f 73/73/43 74/74/43 75/75/43
f 74/74/43 76/76/43 75/75/43
f 77/77/44 78/78/44 79/79/44
f 78/78/44 80/80/44 79/79/44
f 81/81/45 82/82/45 83/83/45
f 82/82/45 84/84/45 83/83/45
f 85/85/46 86/86/46 87/87/46
f 86/86/46 88/88/46 87/87/46
f 89/89/47 90/90/47 91/91/47
f 90/90/47 92/92/47 91/91/47
f 93/93/48 94/94/48 95/95/48
f 94/94/48 96/96/48 95/95/48
f 97/97/49 98/98/49 99/99/49
f 98/98/49 100/100/49 99/99/49
f 101/101/50 102/102/50 103/103/50
f 102/102/50 104/104/50 103/103/50
f 105/105/51 106/106/51 107/107/51
f 106/106/51 108/108/51 107/107/51
f 109/109/52 110/110/52 111/111/52
f 110/110/52 112/112/52 111/111/52
f 113/113/53 114/114/53 115/115/53
f 114/114/53 116/116/53 115/115/53
f 117/117/54 118/118/54 119/119/54
f 118/118/54 120/120/54 119/119/54
f 121/121/55 122/122/55 123/123/55
f 122/122/55 124/124/55 123/123/55
f 125/125/56 126/126/56 127/127/56
f 126/126/56 128/128/56 127/127/56
f 129/129/57 130/130/57 131/131/57
f 132/132/58 133/133/58 134/134/58
f 135/135/59 136/136/59 137/137/59
f 138/138/60 139/139/60 140/140/60
