# Blender v2.83.0 OBJ File: ''
# www.blender.org
mtllib S.S._Dolphin_part.039.mtl
o S.S._Dolphin_part.039
v -0.375146 0.245077 -0.397665
v 0.378040 0.245077 -0.396863
v -0.377040 -0.245078 -0.396476
v 0.379124 -0.245078 -0.396188
v 0.377065 -0.245078 0.395424
v 0.378959 0.245077 0.397834
v -0.376922 -0.245078 0.398624
v -0.377206 0.245077 0.397546
v -0.375146 0.245077 -0.397665
v -0.377040 -0.245078 -0.396476
v -0.377206 0.245077 0.397546
v -0.376922 -0.245078 0.398624
v 0.378040 0.245077 -0.396863
v 0.378959 0.245077 0.397834
v 0.379124 -0.245078 -0.396188
v 0.377065 -0.245078 0.395424
v -0.377040 -0.245078 -0.396476
v -0.003441 -0.548009 -0.001120
v 0.379124 -0.245078 -0.396188
v -0.003441 0.548012 -0.001120
v -0.377206 0.245077 0.397546
v 0.378959 0.245077 0.397834
v 0.378959 0.245077 0.397834
v 0.378040 0.245077 -0.396863
v -0.003441 0.548012 -0.001120
v -0.376922 -0.245078 0.398624
v -0.377040 -0.245078 -0.396476
v -0.003441 -0.548009 -0.001120
v -0.375146 0.245077 -0.397665
v -0.377206 0.245077 0.397546
v -0.003441 0.548012 -0.001120
v -0.003441 -0.548009 -0.001120
v 0.377065 -0.245078 0.395424
v 0.379124 -0.245078 -0.396188
v -0.376922 -0.245078 0.398624
v -0.003441 -0.548009 -0.001120
v 0.377065 -0.245078 0.395424
v -0.375146 0.245077 -0.397665
v 0.378040 0.245077 -0.396863
v -0.003441 0.548012 -0.001120
vt 0.000000 0.000000
vt 0.000000 0.000000
vt 0.000000 0.000000
vt 0.000000 0.000000
vt 0.000000 0.000000
vt 0.000000 0.000000
vt 0.000000 0.000000
vt 0.000000 0.000000
vt 0.000000 0.000000
vt 0.000000 0.000000
vt 0.000000 0.000000
vt 0.000000 0.000000
vt 0.000000 0.000000
vt 0.000000 0.000000
vt 0.000000 0.000000
vt 0.000000 0.000000
vt 0.000000 0.000000
vt 0.000000 0.000000
vt 0.000000 0.000000
vt 0.000000 0.000000
vt 0.000000 0.000000
vt 0.000000 0.000000
vt 0.000000 0.000000
vt 0.000000 0.000000
vt 0.000000 0.000000
vt 0.000000 0.000000
vt 0.000000 0.000000
vt 0.000000 0.000000
vt 0.000000 0.000000
vt 0.000000 0.000000
vt 0.000000 0.000000
vt 0.000000 0.000000
vt 0.000000 0.000000
vt 0.000000 0.000000
vt 0.000000 0.000000
vt 0.000000 0.000000
vt 0.000000 0.000000
vt 0.000000 0.000000
vt 0.000000 0.000000
vt 0.000000 0.000000
vn 0.0011 -0.0024 -1.0000
vn 0.0006 -0.0018 -1.0000
vn 0.0008 -0.0020 -1.0000
vn 0.0004 -0.0014 -1.0000
vn 0.0042 -0.0049 1.0000
vn 0.0025 -0.0023 1.0000
vn 0.0013 -0.0004 1.0000
vn -0.0004 0.0022 1.0000
vn -1.0000 0.0039 -0.0026
vn -1.0000 0.0023 -0.0016
vn -1.0000 0.0010 -0.0008
vn -1.0000 -0.0006 0.0001
vn 1.0000 0.0022 -0.0012
vn 1.0000 -0.0017 0.0013
vn 1.0000 0.0001 0.0002
vn 1.0000 -0.0039 0.0026
vn -0.0002 0.7937 0.6083
vn -0.0002 0.7963 0.6049
vn 0.6214 0.7835 -0.0007
vn -0.6299 -0.7767 0.0001
vn -0.6307 0.7760 -0.0016
vn -0.6218 0.7832 -0.0016
vn 0.0026 -0.7958 0.6055
vn -0.0006 -0.7944 0.6074
usemtl white
s 1
f 1/1/1 2/2/2 3/3/3
f 3/3/3 2/2/2 4/4/4
f 5/5/5 6/6/6 7/7/7
f 7/7/7 6/6/6 8/8/8
f 9/9/9 10/10/10 11/11/11
f 11/11/11 10/10/10 12/12/12
f 13/13/13 14/14/14 15/15/15
f 15/15/15 14/14/14 16/16/16
f 17/17/17 18/18/17 19/19/17
f 20/20/18 21/21/18 22/22/18
f 23/23/19 24/24/19 25/25/19
f 26/26/20 27/27/20 28/28/20
f 29/29/21 30/30/21 31/31/21
f 32/32/22 33/33/22 34/34/22
f 35/35/23 36/36/23 37/37/23
f 38/38/24 39/39/24 40/40/24
