# Blender v2.83.0 OBJ File: ''
# www.blender.org
mtllib S.S._Dolphin_Gluon_Drive_cog_5.mtl
o S.S._Dolphin_Gluon_Drive_cog_5
v 0.640150 0.047783 -0.882984
v 0.328499 0.089383 -0.644719
v 0.879877 0.047783 -0.643257
v 0.641611 0.089383 -0.331607
v 0.003226 0.185498 -0.006333
v 0.710882 0.089383 0.105748
v 0.509852 0.089383 0.500293
v 0.879878 0.047783 0.630593
v 0.328499 0.089383 -0.644719
v -0.108856 0.089383 -0.713989
v 0.003226 0.185498 -0.006333
v -0.503400 0.089383 -0.512958
v -0.331625 0.047783 -1.036903
v -0.633698 0.047783 -0.882984
v -0.503400 0.089383 -0.512958
v -0.704430 0.089383 -0.118415
v 0.003226 0.185498 -0.006333
v -0.635159 0.089383 0.318940
v -1.080375 0.047783 -0.006333
v -1.027335 0.047783 0.328520
v -0.635159 0.089383 0.318940
v -0.322048 0.089383 0.632054
v 0.003226 0.185498 -0.006333
v 0.115308 0.089383 0.701322
v -0.331625 0.047783 1.024228
v 0.003226 0.047783 1.077267
v 1.033795 -0.137717 0.328519
v 0.710882 -0.137717 0.105748
v 1.033795 0.047783 0.328520
v 0.710882 0.089383 0.105748
v 0.641611 0.089383 -0.331607
v 0.879878 0.047783 0.630593
v 0.509852 0.089383 0.500293
v 0.879878 -0.137717 0.630592
v 0.509852 -0.137717 0.500293
v 0.115308 -0.137717 0.701322
v -0.331625 0.047783 1.024228
v -0.322048 0.089383 0.632054
v -0.331625 -0.137717 1.024228
v -0.322048 -0.137717 0.632053
v -0.635159 -0.137717 0.318940
v -1.080375 0.047783 -0.006333
v -0.704430 0.089383 -0.118415
v -1.080375 -0.137717 -0.006333
v -0.704430 -0.137717 -0.118415
v -0.503400 -0.137717 -0.512958
v -0.331625 0.047783 -1.036903
v -0.108856 0.089383 -0.713989
v -0.331625 -0.137717 -1.036903
v -0.108856 -0.137717 -0.713989
v 0.328499 -0.137717 -0.644719
v 0.879877 0.047783 -0.643257
v 0.641611 0.089383 -0.331607
v 0.879877 -0.137717 -0.643258
v 0.641611 -0.137717 -0.331607
v 0.710882 -0.137717 0.105748
v -0.322048 0.089383 0.632054
v -0.635159 0.089383 0.318940
v -0.635159 -0.137717 0.318940
v -1.027335 0.047783 0.328520
v -1.027335 -0.137717 0.328519
v -1.027335 0.047783 0.328520
v -1.080375 -0.137717 -0.006333
v -1.080375 0.047783 -0.006333
v 0.509852 0.089383 0.500293
v 0.115308 0.089383 0.701322
v 0.115308 -0.137717 0.701322
v 0.003226 0.047783 1.077267
v -0.704430 0.089383 -0.118415
v -0.503400 0.089383 -0.512958
v -0.503400 -0.137717 -0.512958
v -0.633698 0.047783 -0.882984
v -0.633698 -0.137717 -0.882985
v -0.633698 0.047783 -0.882984
v -0.331625 -0.137717 -1.036903
v -0.331625 0.047783 -1.036903
v 0.003226 -0.137717 1.077267
v 0.003226 0.047783 1.077267
v -0.331625 -0.137717 1.024228
v -0.331625 0.047783 1.024228
v -0.108856 0.089383 -0.713989
v 0.328499 0.089383 -0.644719
v 0.328499 -0.137717 -0.644719
v 0.640150 0.047783 -0.882984
v 0.879877 0.047783 -0.643257
v 0.879877 -0.137717 -0.643258
v 0.640150 0.047783 -0.882984
v 0.640150 -0.137717 -0.882985
v 1.033795 -0.137717 0.328519
v 1.033795 0.047783 0.328520
v 0.879878 -0.137717 0.630592
v 0.879878 0.047783 0.630593
v -1.027335 0.047783 0.328520
v -1.027335 -0.137717 0.328519
v -0.635159 -0.137717 0.318940
v 0.115308 0.089383 0.701322
v 0.003226 0.185498 -0.006333
v 0.509852 0.089383 0.500293
v 0.710882 0.089383 0.105748
v 0.879878 0.047783 0.630593
v 1.033795 0.047783 0.328520
v 0.640150 0.047783 -0.882984
v 0.640150 -0.137717 -0.882985
v 0.328499 -0.137717 -0.644719
v 0.003226 0.047783 1.077267
v 0.115308 -0.137717 0.701322
v 0.003226 -0.137717 1.077267
v -0.633698 0.047783 -0.882984
v -0.633698 -0.137717 -0.882985
v -0.503400 -0.137717 -0.512958
vt 0.000000 1.000000
vt 0.000000 1.000000
vt 0.000000 1.000000
vt 0.000000 1.000000
vt 0.000000 1.000000
vt 0.000000 1.000000
vt 0.000000 1.000000
vt 0.000000 1.000000
vt 0.000000 1.000000
vt 0.000000 1.000000
vt 0.000000 1.000000
vt 0.000000 1.000000
vt 0.000000 1.000000
vt 0.000000 1.000000
vt 0.000000 1.000000
vt 0.000000 1.000000
vt 0.000000 1.000000
vt 0.000000 1.000000
vt 0.000000 1.000000
vt 0.000000 1.000000
vt 0.000000 1.000000
vt 0.000000 1.000000
vt 0.000000 1.000000
vt 0.000000 1.000000
vt 0.000000 1.000000
vt 0.000000 1.000000
vt 0.000000 1.000000
vt 0.000000 1.000000
vt 0.000000 1.000000
vt 0.000000 1.000000
vt 0.000000 1.000000
vt 0.000000 1.000000
vt 0.000000 1.000000
vt 0.000000 1.000000
vt 0.000000 1.000000
vt 0.000000 1.000000
vt 0.000000 1.000000
vt 0.000000 1.000000
vt 0.000000 1.000000
vt 0.000000 1.000000
vt 0.000000 1.000000
vt 0.000000 1.000000
vt 0.000000 1.000000
vt 0.000000 1.000000
vt 0.000000 1.000000
vt 0.000000 1.000000
vt 0.000000 1.000000
vt 0.000000 1.000000
vt 0.000000 1.000000
vt 0.000000 1.000000
vt 0.000000 1.000000
vt 0.000000 1.000000
vt 0.000000 1.000000
vt 0.000000 1.000000
vt 0.000000 1.000000
vt 0.000000 1.000000
vt 0.000000 1.000000
vt 0.000000 1.000000
vt 0.000000 1.000000
vt 0.000000 1.000000
vt 0.000000 1.000000
vt 0.000000 1.000000
vt 0.000000 1.000000
vt 0.000000 1.000000
vt 0.000000 1.000000
vt 0.000000 1.000000
vt 0.000000 1.000000
vt 0.000000 1.000000
vt 0.000000 1.000000
vt 0.000000 1.000000
vt 0.000000 1.000000
vt 0.000000 1.000000
vt 0.000000 1.000000
vt 0.000000 1.000000
vt 0.000000 1.000000
vt 0.000000 1.000000
vt 0.000000 1.000000
vt 0.000000 1.000000
vt 0.000000 1.000000
vt 0.000000 1.000000
vt 0.000000 1.000000
vt 0.000000 1.000000
vt 0.000000 1.000000
vt 0.000000 1.000000
vt 0.000000 1.000000
vt 0.000000 1.000000
vt 0.000000 1.000000
vt 0.000000 1.000000
vt 0.000000 1.000000
vt 0.000000 1.000000
vt 0.000000 1.000000
vt 0.000000 1.000000
vt 0.000000 1.000000
vt 0.000000 1.000000
vt 0.000000 1.000000
vt 0.000000 1.000000
vt 0.000000 1.000000
vt 0.000000 1.000000
vt 0.000000 1.000000
vt 0.000000 1.000000
vt 0.000000 1.000000
vt 0.000000 1.000000
vt 0.000000 1.000000
vt 0.000000 1.000000
vt 0.000000 1.000000
vt 0.000000 1.000000
vt 0.000000 1.000000
vt 0.000000 1.000000
vt 0.000000 1.000000
vt 0.000000 1.000000
vn 0.0752 0.9943 -0.0752
vn 0.0862 0.9925 -0.0862
vn 0.1028 0.9925 -0.0658
vn 0.1207 0.9925 -0.0191
vn 0.1227 0.9921 0.0273
vn 0.1086 0.9925 0.0554
vn 0.0948 0.9943 0.0483
vn 0.0218 0.9902 -0.1380
vn -0.0308 0.9925 -0.1181
vn -0.0208 0.9911 -0.1313
vn -0.0554 0.9925 -0.1086
vn -0.0483 0.9943 -0.0948
vn -0.1244 0.9902 -0.0634
vn -0.1218 0.9925 -0.0072
vn -0.1313 0.9911 -0.0208
vn -0.1204 0.9925 0.0191
vn -0.1051 0.9943 0.0166
vn -0.0988 0.9902 0.0988
vn -0.0445 0.9925 0.1136
vn -0.0604 0.9911 0.1185
vn -0.0191 0.9925 0.1204
vn -0.0166 0.9943 0.1051
vn 0.5679 0.0000 -0.8231
vn 0.8033 0.0000 -0.5956
vn 0.8541 0.0000 -0.5202
vn 0.9877 0.0000 -0.1564
vn -0.3321 -0.0000 0.9432
vn 0.0048 -0.0000 1.0000
vn 0.0663 0.0000 0.9978
vn 0.4540 0.0000 0.8910
vn -0.9997 0.0000 -0.0244
vn -0.9496 -0.0000 0.3136
vn -0.9285 -0.0000 0.3714
vn -0.7071 -0.0000 0.7071
vn -0.2857 0.0000 -0.9583
vn -0.5917 0.0000 -0.8062
vn -0.6401 0.0000 -0.7683
vn -0.8910 0.0000 -0.4540
vn 0.8231 0.0000 -0.5679
vn 0.5839 0.0000 -0.8118
vn 0.5329 0.0000 -0.8462
vn 0.1564 0.0000 -0.9877
vn 0.7944 -0.0000 0.6074
vn 0.9525 -0.0000 0.3044
vn 0.9694 0.0000 0.2453
vn -0.3852 -0.0000 0.9228
vn -0.3656 -0.0000 0.9308
vn 0.0244 -0.0000 0.9997
vn -0.9877 0.0000 0.1564
vn 0.7586 0.0000 0.6515
vn 0.7722 0.0000 0.6353
vn 0.9583 0.0000 0.2857
vn -0.9967 0.0000 -0.0812
vn -0.9982 0.0000 -0.0601
vn -0.9432 0.0000 0.3321
vn -0.4540 0.0000 -0.8910
vn -0.1564 0.0000 0.9877
vn -0.2308 0.0000 -0.9730
vn -0.2513 0.0000 -0.9679
vn -0.6074 0.0000 -0.7944
vn 0.7071 0.0000 -0.7071
vn 0.8910 -0.0000 0.4540
vn -0.0634 -0.9902 -0.1244
vn -0.9583 0.0000 -0.2857
usemtl ship_yellow
s 1
f 1/1/1 2/2/2 3/3/1
f 3/3/1 2/2/2 4/4/3
f 2/2/2 5/5/4 4/4/3
f 4/4/3 5/5/4 6/6/5
f 5/5/4 7/7/6 6/6/5
f 6/6/5 7/7/6 8/8/7
f 9/9/8 10/10/9 11/11/10
f 11/11/10 10/10/9 12/12/11
f 10/10/9 13/13/12 12/12/11
f 12/12/11 13/13/12 14/14/12
f 15/15/13 16/16/14 17/17/15
f 17/17/15 16/16/14 18/18/16
f 16/16/14 19/19/17 18/18/16
f 18/18/16 19/19/17 20/20/17
f 21/21/18 22/22/19 23/23/20
f 23/23/20 22/22/19 24/24/21
f 22/22/19 25/25/22 24/24/21
f 24/24/21 25/25/22 26/26/22
f 27/27/23 28/28/24 29/29/23
f 29/29/23 28/28/24 30/30/25
f 28/28/24 31/31/26 30/30/25
f 32/32/27 33/33/28 34/34/27
f 34/34/27 33/33/28 35/35/29
f 33/33/28 36/36/30 35/35/29
f 37/37/31 38/38/32 39/39/31
f 39/39/31 38/38/32 40/40/33
f 38/38/32 41/41/34 40/40/33
f 42/42/35 43/43/36 44/44/35
f 44/44/35 43/43/36 45/45/37
f 43/43/36 46/46/38 45/45/37
f 47/47/39 48/48/40 49/49/39
f 49/49/39 48/48/40 50/50/41
f 48/48/40 51/51/42 50/50/41
f 52/52/43 53/53/44 54/54/43
f 54/54/43 53/53/44 55/55/45
f 53/53/44 56/56/26 55/55/45
f 57/57/34 58/58/46 59/59/47
f 59/59/47 58/58/46 60/60/48
f 61/61/49 62/62/49 63/63/49
f 63/63/49 62/62/49 64/64/49
f 65/65/30 66/66/50 67/67/51
f 67/67/51 66/66/50 68/68/52
f 69/69/38 70/70/53 71/71/54
f 71/71/54 70/70/53 72/72/55
f 73/73/56 74/74/56 75/75/56
f 75/75/56 74/74/56 76/76/56
f 77/77/57 78/78/57 79/79/57
f 79/79/57 78/78/57 80/80/57
f 81/81/42 82/82/58 83/83/59
f 83/83/59 82/82/58 84/84/60
f 85/85/61 86/86/61 87/87/61
f 87/87/61 86/86/61 88/88/61
f 89/89/62 90/90/62 91/91/62
f 91/91/62 90/90/62 92/92/62
f 93/93/48 94/94/48 95/95/48
f 96/96/63 97/97/63 98/98/63
f 99/99/7 100/100/7 101/101/7
f 102/102/60 103/103/60 104/104/60
f 105/105/64 106/106/64 107/107/64
f 108/108/55 109/109/55 110/110/55
