# Blender v2.83.0 OBJ File: ''
# www.blender.org
mtllib S.S._Dolphin_Bowsprit_4.mtl
o S.S._Dolphin_Bowsprit_4
v 1.002907 -0.087511 0.467308
v 0.957156 -0.087511 0.178442
v 0.571036 0.114432 0.467308
v 0.503146 0.114432 0.215697
v 0.824376 -0.087512 -0.082149
v 0.617576 -0.087512 -0.288953
v 0.356984 -0.087512 -0.421730
v 0.068117 -0.087512 -0.467482
v 0.320163 0.114432 0.030999
v 0.068117 0.114432 -0.035616
v -0.183930 0.114432 0.030999
v 0.503146 0.114432 0.215697
v 0.617576 -0.087512 -0.288953
v 0.320163 0.114432 0.030999
v 0.356984 -0.087512 -0.421730
v -0.866674 -0.087511 0.467308
v -0.434806 0.114432 0.467308
v -0.820920 -0.087511 0.178442
v -0.366912 0.114432 0.215697
v 0.068117 -0.087512 -0.467482
v -0.220749 -0.087512 -0.421730
v -0.183930 0.114432 0.030999
v -0.481339 -0.087512 -0.288953
v -0.183930 0.114432 0.030999
v -0.481339 -0.087512 -0.288953
v -0.366912 0.114432 0.215697
v -0.688143 -0.087512 -0.082149
v -0.820920 -0.087511 0.178442
v -0.688143 -0.087512 -0.082149
v -0.366912 0.114432 0.215697
vt 0.000000 1.000000
vt 0.000000 1.000000
vt 0.000000 1.000000
vt 0.000000 1.000000
vt 0.000000 1.000000
vt 0.000000 1.000000
vt 0.000000 1.000000
vt 0.000000 1.000000
vt 0.000000 1.000000
vt 0.000000 1.000000
vt 0.000000 1.000000
vt 0.000000 1.000000
vt 0.000000 1.000000
vt 0.000000 1.000000
vt 0.000000 1.000000
vt 0.000000 1.000000
vt 0.000000 1.000000
vt 0.000000 1.000000
vt 0.000000 1.000000
vt 0.000000 1.000000
vt 0.000000 1.000000
vt 0.000000 1.000000
vt 0.000000 1.000000
vt 0.000000 1.000000
vt 0.000000 1.000000
vt 0.000000 1.000000
vt 0.000000 1.000000
vt 0.000000 1.000000
vt 0.000000 1.000000
vt 0.000000 1.000000
vn 0.4226 0.9038 -0.0669
vn 0.4027 0.9061 -0.1294
vn 0.4052 0.9094 -0.0941
vn 0.3736 0.9119 -0.1696
vn 0.3380 0.9072 -0.2505
vn 0.2962 0.9080 -0.2962
vn 0.0637 0.9133 -0.4022
vn 0.0338 0.9103 -0.4125
vn 0.0940 0.9053 -0.4143
vn 0.0000 0.9059 -0.4236
vn -0.1113 0.9002 -0.4210
vn 0.2983 0.9076 -0.2955
vn 0.2245 0.9046 -0.3623
vn 0.2710 0.9075 -0.3209
vn 0.1967 0.9013 -0.3860
vn -0.4226 0.9038 -0.0669
vn -0.4052 0.9094 -0.0941
vn -0.4146 0.9065 -0.0795
vn -0.3967 0.9117 -0.1071
vn -0.0637 0.9133 -0.4022
vn -0.1206 0.9102 -0.3962
vn -0.1360 0.9088 -0.3943
vn -0.1967 0.9013 -0.3860
vn -0.2983 0.9076 -0.2955
vn -0.2969 0.9079 -0.2960
vn -0.2976 0.9077 -0.2958
vn -0.2962 0.9080 -0.2962
vn 0.3850 -0.9018 0.1962
usemtl black
s 1
f 1/1/1 2/2/2 3/3/3
f 3/3/3 2/2/2 4/4/4
f 2/2/2 5/5/5 4/4/4
f 4/4/4 5/5/5 6/6/6
f 7/7/7 8/8/8 9/9/9
f 9/9/9 8/8/8 10/10/10
f 8/8/8 11/11/11 10/10/10
f 12/12/12 13/13/13 14/14/14
f 14/14/14 13/13/13 15/15/15
f 16/16/16 17/17/17 18/18/18
f 18/18/18 17/17/17 19/19/19
f 20/20/20 21/21/21 22/22/22
f 22/22/22 21/21/21 23/23/23
f 24/24/24 25/25/25 26/26/26
f 26/26/26 25/25/25 27/27/27
f 28/28/28 29/29/28 30/30/28
