# Blender v2.83.0 OBJ File: ''
# www.blender.org
mtllib S.S._Dolphin_Guard_Satellite_2.mtl
o S.S._Dolphin_Guard_Satellite_2
v -0.227152 0.275588 0.635119
v 0.234513 0.275588 0.637235
v 0.265814 0.153519 0.719005
v 0.654573 0.275588 -0.097000
v 0.744203 0.153519 -0.117387
v 0.503024 0.153519 -0.534309
v 0.265814 0.153519 0.719005
v -0.265337 0.153519 0.713875
v -0.227152 0.275588 0.635119
v -0.745223 0.153519 -0.122314
v -0.639770 0.275588 -0.102981
v -0.434251 0.275588 -0.451123
v 0.654573 0.275588 -0.097000
v 0.234513 0.275588 0.637235
v 0.000022 0.364649 0.018298
v -0.227152 0.275588 0.635119
v -0.639770 0.275588 -0.102981
v -0.639770 0.275588 -0.102981
v -0.434251 0.275588 -0.451123
v 0.000022 0.364649 0.018298
v 0.435699 0.275588 -0.458477
v 0.654573 0.275588 -0.097000
v -0.507277 0.153519 -0.526911
v -0.504145 -0.755588 -0.524757
v 0.503024 0.153519 -0.534309
v 0.504510 -0.755588 -0.538330
v 0.744203 0.153519 -0.117387
v 0.744982 -0.755589 -0.113320
v 0.265814 0.153519 0.719005
v 0.266038 -0.755588 0.722612
v 0.504510 -0.755588 -0.538330
v 0.744982 -0.755589 -0.113320
v 0.503024 0.153519 -0.534309
v 0.744203 0.153519 -0.117387
v 0.266038 -0.755588 0.722612
v -0.265729 -0.755588 0.715580
v 0.265814 0.153519 0.719005
v -0.265337 0.153519 0.713875
v -0.742138 -0.755589 -0.122793
v -0.504145 -0.755588 -0.524757
v -0.745223 0.153519 -0.122314
v -0.507277 0.153519 -0.526911
v -0.265337 0.153519 0.713875
v -0.265729 -0.755588 0.715580
v -0.745223 0.153519 -0.122314
v -0.742138 -0.755589 -0.122793
v -0.745223 0.153519 -0.122314
v -0.507277 0.153519 -0.526911
v -0.434251 0.275588 -0.451123
v 0.435699 0.275588 -0.458477
v 0.654573 0.275588 -0.097000
v 0.435699 0.275588 -0.458477
v 0.503024 0.153519 -0.534309
v -0.507277 0.153519 -0.526911
vt 0.000000 0.937500
vt 0.000000 0.937500
vt 0.000000 0.937500
vt 0.000000 0.937500
vt 0.000000 0.937500
vt 0.000000 0.937500
vt 0.000000 0.937500
vt 0.000000 0.937500
vt 0.000000 0.937500
vt 0.000000 0.937500
vt 0.000000 0.937500
vt 0.000000 0.937500
vt 0.000000 0.937500
vt 0.000000 0.937500
vt 0.000000 0.937500
vt 0.000000 0.937500
vt 0.000000 0.937500
vt 0.000000 0.937500
vt 0.000000 0.937500
vt 0.000000 0.937500
vt 0.000000 0.937500
vt 0.000000 0.937500
vt 0.000000 0.937500
vt 0.000000 0.937500
vt 0.000000 0.937500
vt 0.000000 0.937500
vt 0.000000 0.937500
vt 0.000000 0.937500
vt 0.000000 0.937500
vt 0.000000 0.937500
vt 0.000000 0.937500
vt 0.000000 0.937500
vt 0.000000 0.937500
vt 0.000000 0.937500
vt 0.000000 0.937500
vt 0.000000 0.937500
vt 0.000000 0.937500
vt 0.000000 0.937500
vt 0.000000 0.937500
vt 0.000000 0.937500
vt 0.000000 0.937500
vt 0.000000 0.937500
vt 0.000000 0.937500
vt 0.000000 0.937500
vt 0.000000 0.937500
vt 0.000000 0.937500
vt 0.000000 0.937500
vt 0.000000 0.937500
vt 0.000000 0.937500
vt 0.000000 0.937500
vt 0.000000 0.937500
vt 0.000000 0.937500
vt 0.000000 0.937500
vt 0.000000 0.937500
vn 0.0038 -0.5559 -0.8313
vn -0.4371 -0.5752 -0.6914
vn -0.4415 -0.5747 -0.6891
vn -0.8099 -0.5795 -0.0910
vn -0.8034 -0.5947 0.0285
vn -0.7027 -0.5839 0.4065
vn 0.0081 -0.5439 -0.8391
vn 0.4029 -0.5818 -0.7065
vn 0.4586 -0.5810 -0.6724
vn 0.7616 -0.6470 -0.0357
vn 0.7587 -0.6507 -0.0298
vn 0.6644 -0.6361 0.3922
vn -0.1491 -0.9851 -0.0853
vn -0.0630 -0.9909 -0.1187
vn 0.0028 -0.9952 -0.0981
vn 0.0642 -0.9908 -0.1194
vn 0.1533 -0.9845 -0.0857
vn 0.1239 -0.9896 0.0731
vn 0.0757 -0.9901 0.1178
vn 0.0005 -0.9910 0.1337
vn -0.0736 -0.9903 0.1177
vn -0.1217 -0.9898 0.0737
vn 0.0073 0.0024 1.0000
vn 0.0102 -0.0008 0.9999
vn 0.0106 -0.0012 0.9999
vn 0.0135 -0.0044 0.9999
vn -0.8680 -0.0030 -0.4965
vn -0.8679 -0.0026 -0.4968
vn -0.8678 -0.0026 -0.4968
vn -0.8677 -0.0022 -0.4971
vn -0.8703 -0.0036 0.4924
vn -0.8689 -0.0020 0.4950
vn -0.8671 -0.0001 0.4981
vn -0.8656 0.0015 0.5007
vn 0.0132 -0.0040 -0.9999
vn 0.0120 -0.0033 -0.9999
vn 0.0109 -0.0026 -0.9999
vn 0.0097 -0.0019 -1.0000
vn 0.8605 0.0027 0.5095
vn 0.8609 0.0031 0.5087
vn 0.8615 0.0037 0.5077
vn 0.8620 0.0042 0.5069
vn 0.8673 -0.0013 -0.4978
vn 0.8683 0.0009 -0.4960
vn 0.8684 0.0010 -0.4958
vn 0.8694 0.0032 -0.4941
vn 0.6631 -0.6389 0.3900
vn 0.4321 -0.6479 0.6272
vn 0.2992 -0.6261 0.7201
vn 0.0072 -0.5305 0.8476
vn -0.6701 -0.6216 0.4057
vn -0.3532 -0.6264 0.6949
vn -0.3499 -0.6259 0.6970
vn 0.0062 -0.5252 0.8510
usemtl ship_glow
s 1
f 1/1/1 2/2/2 3/3/3
f 2/2/2 4/4/4 3/3/3
f 3/3/3 4/4/4 5/5/5
f 4/4/4 6/6/6 5/5/5
f 7/7/7 8/8/8 9/9/9
f 8/8/8 10/10/10 9/9/9
f 9/9/9 10/10/10 11/11/11
f 10/10/10 12/12/12 11/11/11
f 13/13/13 14/14/14 15/15/15
f 14/14/14 16/16/16 15/15/15
f 15/15/15 16/16/16 17/17/17
f 18/18/18 19/19/19 20/20/20
f 19/19/19 21/21/21 20/20/20
f 20/20/20 21/21/21 22/22/22
f 23/23/23 24/24/24 25/25/25
f 24/24/24 26/26/26 25/25/25
f 27/27/27 28/28/28 29/29/29
f 28/28/28 30/30/30 29/29/29
f 31/31/31 32/32/32 33/33/33
f 32/32/32 34/34/34 33/33/33
f 35/35/35 36/36/36 37/37/37
f 36/36/36 38/38/38 37/37/37
f 39/39/39 40/40/40 41/41/41
f 40/40/40 42/42/42 41/41/41
f 43/43/43 44/44/44 45/45/45
f 44/44/44 46/46/46 45/45/45
f 47/47/47 48/48/48 49/49/49
f 48/48/48 50/50/50 49/49/49
f 51/51/51 52/52/52 53/53/53
f 52/52/52 54/54/54 53/53/53
