# Blender v2.83.0 OBJ File: ''
# www.blender.org
mtllib S.S._Dolphin_part.002.mtl
o S.S._Dolphin_part.002
v -0.714117 1.121798 -0.247630
v -0.923759 0.929799 -0.205439
v -0.706976 1.107598 -0.306100
v -0.914522 0.915598 -0.264433
v -1.098639 0.714658 -0.145123
v -1.087649 0.700459 -0.204631
v -1.222639 0.441917 -0.062404
v -1.210409 0.427729 -0.122686
v -1.306379 0.103688 0.053926
v -1.293319 0.089498 -0.007612
v -1.241629 -0.304421 0.206182
v -1.229209 -0.318611 0.143075
v -1.078279 -0.598451 0.334505
v -1.067499 -0.612648 0.270115
v -0.904194 -0.798842 0.414814
v -0.895152 -0.813037 0.349620
v -0.681944 -0.964429 0.495119
v -0.675125 -0.978624 0.429122
v -0.376061 -1.091126 0.563341
v -0.372301 -1.105322 0.496661
v 0.000001 -1.139817 0.631564
v 0.000001 -1.154015 0.564204
v 0.376063 -1.091124 0.563341
v 0.372302 -1.105321 0.496662
v 0.681945 -0.964429 0.495119
v 0.675126 -0.978624 0.429123
v 0.904196 -0.798841 0.414814
v 0.895153 -0.813036 0.349620
v 1.078281 -0.598450 0.334505
v 1.067491 -0.612647 0.270115
v 1.241631 -0.304421 0.206182
v 1.229211 -0.318611 0.143075
v 1.306381 0.103688 0.049126
v 1.293311 0.089498 -0.012412
v 1.222641 0.441917 -0.057604
v 1.210411 0.427729 -0.117885
v 1.098631 0.714658 -0.145123
v 1.087651 0.700459 -0.204631
v 0.923759 0.929799 -0.205439
v 0.914521 0.915598 -0.264432
v 0.714117 1.121798 -0.247630
v 0.706976 1.107598 -0.306100
v 1.769741 -0.294132 -0.137559
v 1.759702 -0.278682 -0.069837
v 1.846892 -0.888998 -0.011353
v 1.829121 -0.879669 0.043058
v 1.734611 -0.270871 -0.022315
v 1.796001 -0.876149 0.082132
v 1.360221 -0.913880 0.276257
v 1.823202 -1.093989 0.137958
v 0.962276 -1.110562 0.498468
v 1.845551 -1.234384 0.117518
v 1.016371 -1.255206 0.444332
v -1.306379 0.103688 0.053926
v -1.734609 -0.270882 -0.022315
v -1.241629 -0.304421 0.206182
v -1.360219 -0.913881 0.276257
v -1.795999 -0.876152 0.082131
v -1.823199 -1.093991 0.137958
v -1.882609 -1.075338 0.061638
v -1.845549 -1.234385 0.117517
v -1.871259 -1.243167 0.067123
v 1.615881 0.508278 -0.339159
v 1.606712 0.517548 -0.287766
v 1.583802 0.524549 -0.242358
v 1.306381 0.103688 0.049126
v 1.241631 -0.304421 0.206182
v -1.222639 0.441917 -0.062404
v -1.583799 0.524549 -0.242358
v -1.606709 0.517548 -0.287766
v -1.759699 -0.278682 -0.069837
v -1.615879 0.508278 -0.339159
v -1.769739 -0.294132 -0.137559
v 1.262261 1.461298 -0.814137
v 1.259731 1.467528 -0.772977
v 1.246231 1.476309 -0.725077
v 0.923759 0.929799 -0.205439
v 1.098631 0.714658 -0.145123
v -1.880929 -1.249398 0.023461
v -1.846889 -0.888999 -0.011353
v -1.829119 -0.879671 0.043058
v -1.262269 1.461298 -0.814137
v -1.259729 1.467528 -0.772977
v -1.246229 1.476309 -0.725077
v 0.917868 -0.922432 0.441443
v 0.904196 -0.798841 0.414814
v 1.078281 -0.598450 0.334505
v 0.682481 1.471069 -0.425216
v 0.714117 1.121798 -0.247630
v 0.520790 1.244999 -0.262220
v -0.000000 1.374599 -0.258600
v -0.682482 1.471069 -0.425216
v -0.295233 1.330199 -0.263410
v -0.520790 1.244999 -0.262222
v -0.714117 1.121798 -0.247630
v -1.078279 -0.598451 0.334505
v -0.904194 -0.798842 0.414814
v -0.917867 -0.922432 0.441442
v -0.923759 0.929799 -0.205439
v -1.098639 0.714658 -0.145123
v 1.882602 -1.075337 0.061638
v 1.880931 -1.249397 0.023462
v 1.871262 -1.243166 0.067123
v 0.292280 1.315998 -0.321615
v -0.000000 1.471069 -0.378190
v -0.000000 1.360398 -0.317132
v -0.292281 1.315998 -0.321615
v 0.295232 1.330199 -0.263410
v -0.000000 1.471068 -0.317123
v -0.962274 -1.110562 0.498468
v 1.222641 0.441917 -0.057604
v -1.016369 -1.255206 0.444332
vt 0.000000 1.000000
vt 0.000000 1.000000
vt 0.000000 1.000000
vt 0.000000 1.000000
vt 0.000000 1.000000
vt 0.000000 1.000000
vt 0.000000 1.000000
vt 0.000000 1.000000
vt 0.000000 1.000000
vt 0.000000 1.000000
vt 0.000000 1.000000
vt 0.000000 1.000000
vt 0.000000 1.000000
vt 0.000000 1.000000
vt 0.000000 1.000000
vt 0.000000 1.000000
vt 0.000000 1.000000
vt 0.000000 1.000000
vt 0.000000 1.000000
vt 0.000000 1.000000
vt 0.000000 1.000000
vt 0.000000 1.000000
vt 0.000000 1.000000
vt 0.000000 1.000000
vt 0.000000 1.000000
vt 0.000000 1.000000
vt 0.000000 1.000000
vt 0.000000 1.000000
vt 0.000000 1.000000
vt 0.000000 1.000000
vt 0.000000 1.000000
vt 0.000000 1.000000
vt 0.000000 1.000000
vt 0.000000 1.000000
vt 0.000000 1.000000
vt 0.000000 1.000000
vt 0.000000 1.000000
vt 0.000000 1.000000
vt 0.000000 1.000000
vt 0.000000 1.000000
vt 0.000000 1.000000
vt 0.000000 1.000000
vt 0.000000 1.000000
vt 0.000000 1.000000
vt 0.000000 1.000000
vt 0.000000 1.000000
vt 0.000000 1.000000
vt 0.000000 1.000000
vt 0.000000 1.000000
vt 0.000000 1.000000
vt 0.000000 1.000000
vt 0.000000 1.000000
vt 0.000000 1.000000
vt 0.000000 1.000000
vt 0.000000 1.000000
vt 0.000000 1.000000
vt 0.000000 1.000000
vt 0.000000 1.000000
vt 0.000000 1.000000
vt 0.000000 1.000000
vt 0.000000 1.000000
vt 0.000000 1.000000
vt 0.000000 1.000000
vt 0.000000 1.000000
vt 0.000000 1.000000
vt 0.000000 1.000000
vt 0.000000 1.000000
vt 0.000000 1.000000
vt 0.000000 1.000000
vt 0.000000 1.000000
vt 0.000000 1.000000
vt 0.000000 1.000000
vt 0.000000 1.000000
vt 0.000000 1.000000
vt 0.000000 1.000000
vt 0.000000 1.000000
vt 0.000000 1.000000
vt 0.000000 1.000000
vt 0.000000 1.000000
vt 0.000000 1.000000
vt 0.000000 1.000000
vt 0.000000 1.000000
vt 0.000000 1.000000
vt 0.000000 1.000000
vt 0.000000 1.000000
vt 0.000000 1.000000
vt 0.000000 1.000000
vt 0.000000 1.000000
vt 0.000000 1.000000
vt 0.000000 1.000000
vt 0.000000 1.000000
vt 0.000000 1.000000
vt 0.000000 1.000000
vt 0.000000 1.000000
vt 0.000000 1.000000
vt 0.000000 1.000000
vt 0.000000 1.000000
vt 0.000000 1.000000
vt 0.000000 1.000000
vt 0.000000 1.000000
vt 0.000000 1.000000
vt 0.000000 1.000000
vt 0.000000 1.000000
vt 0.000000 1.000000
vt 0.000000 1.000000
vt 0.000000 1.000000
vt 0.000000 1.000000
vt 0.000000 1.000000
vt 0.000000 1.000000
vt 0.000000 1.000000
vt 0.000000 1.000000
vt 0.000000 1.000000
vn 0.6808 -0.6884 0.2503
vn 0.7387 -0.6203 0.2636
vn 0.6811 -0.6871 0.2531
vn 0.7319 -0.6270 0.2669
vn 0.8583 -0.4410 0.2623
vn 0.8479 -0.4580 0.2668
vn 0.9397 -0.2378 0.2457
vn 0.9350 -0.2520 0.2494
vn 0.9794 0.0437 0.1973
vn 0.9789 0.0153 0.2036
vn 0.9243 0.3685 0.0997
vn 0.9310 0.3502 0.1031
vn 0.8150 0.5794 0.0100
vn 0.8201 0.5722 0.0096
vn 0.6909 0.7205 -0.0596
vn 0.6960 0.7154 -0.0607
vn 0.5144 0.8480 -0.1278
vn 0.5220 0.8432 -0.1285
vn 0.2822 0.9417 -0.1835
vn 0.2957 0.9375 -0.1833
vn 0.0005 0.9786 -0.2058
vn 0.0006 0.9786 -0.2059
vn -0.2816 0.9415 -0.1850
vn -0.2945 0.9382 -0.1820
vn -0.5145 0.8475 -0.1303
vn -0.5212 0.8440 -0.1262
vn -0.6914 0.7197 -0.0623
vn -0.6954 0.7162 -0.0579
vn -0.8157 0.5784 0.0076
vn -0.8196 0.5729 0.0123
vn -0.9246 0.3681 0.0978
vn -0.9307 0.3504 0.1050
vn -0.9794 0.0392 0.1983
vn -0.9788 0.0120 0.2046
vn -0.9389 -0.2393 0.2473
vn -0.9349 -0.2535 0.2484
vn -0.8592 -0.4381 0.2641
vn -0.8483 -0.4587 0.2645
vn -0.7387 -0.6193 0.2662
vn -0.7319 -0.6281 0.2643
vn -0.6835 -0.6849 0.2526
vn -0.6841 -0.6852 0.2500
vn 0.9778 0.1818 0.1043
vn 0.9388 0.2103 0.2728
vn 0.9544 0.2064 0.2157
vn 0.8597 0.2258 0.4582
vn 0.6731 0.2511 0.6956
vn 0.5825 0.2342 0.7784
vn 0.3681 0.2261 0.9019
vn 0.5772 0.1142 0.8086
vn 0.3591 0.1185 0.9257
vn 0.6935 -0.0507 0.7187
vn 0.3634 -0.2043 0.9090
vn -0.3969 0.3149 0.8622
vn -0.6770 0.2454 0.6939
vn -0.3957 0.2116 0.8936
vn -0.3681 0.2261 0.9019
vn -0.5844 0.2389 0.7755
vn -0.5732 0.1098 0.8120
vn -0.9690 0.1225 0.2145
vn -0.6880 -0.0462 0.7243
vn -0.9398 -0.0525 0.3377
vn 0.9447 0.3082 0.1119
vn 0.9065 0.3404 0.2496
vn 0.6453 0.4162 0.6406
vn 0.3955 0.3133 0.8634
vn 0.3952 0.2151 0.8930
vn -0.3361 0.3940 0.8554
vn -0.6450 0.4185 0.6394
vn -0.9050 0.3441 0.2500
vn -0.9397 0.2021 0.2758
vn -0.9437 0.3115 0.1112
vn -0.9785 0.1741 0.1107
vn 0.9368 0.3499 0.0046
vn 0.9215 0.3801 0.0793
vn 0.7036 0.4999 0.5051
vn 0.3581 0.5042 0.7859
vn 0.3511 0.4870 0.7998
vn -0.9930 -0.0344 0.1133
vn -0.9514 0.2159 0.2195
vn -0.8583 0.2350 0.4562
vn -0.9378 0.3471 0.0087
vn -0.9234 0.3749 0.0819
vn -0.7072 0.4953 0.5045
vn 0.3302 0.2873 0.8991
vn 0.3267 0.1769 0.9284
vn 0.3548 0.1466 0.9234
vn 0.2864 0.4956 0.8200
vn 0.2408 0.4571 0.8562
vn 0.2016 0.4738 0.8572
vn -0.0184 0.5293 0.8482
vn -0.2851 0.4955 0.8205
vn -0.1229 0.5839 0.8024
vn -0.2016 0.4738 0.8572
vn -0.2408 0.4571 0.8562
vn -0.3548 0.1466 0.9234
vn -0.3267 0.1769 0.9284
vn -0.3302 0.2873 0.8991
vn -0.3581 0.5042 0.7859
vn -0.3503 0.4836 0.8022
vn 0.9690 0.1225 0.2145
vn 0.9930 -0.0344 0.1133
vn 0.9398 -0.0525 0.3377
vn 0.0865 0.4813 0.8723
vn 0.0000 0.4831 0.8756
vn -0.0865 0.4813 0.8723
vn 0.1366 0.5495 0.8242
vn -0.0154 0.5291 0.8484
vn -0.3660 0.1154 0.9234
vn 0.3467 0.3910 0.8526
vn -0.3810 -0.1857 0.9057
usemtl ship_exterior
s 1
f 1/1/1 2/2/2 3/3/3
f 3/3/3 2/2/2 4/4/4
f 2/2/2 5/5/5 4/4/4
f 4/4/4 5/5/5 6/6/6
f 5/5/5 7/7/7 6/6/6
f 6/6/6 7/7/7 8/8/8
f 7/7/7 9/9/9 8/8/8
f 8/8/8 9/9/9 10/10/10
f 9/9/9 11/11/11 10/10/10
f 10/10/10 11/11/11 12/12/12
f 11/11/11 13/13/13 12/12/12
f 12/12/12 13/13/13 14/14/14
f 13/13/13 15/15/15 14/14/14
f 14/14/14 15/15/15 16/16/16
f 15/15/15 17/17/17 16/16/16
f 16/16/16 17/17/17 18/18/18
f 17/17/17 19/19/19 18/18/18
f 18/18/18 19/19/19 20/20/20
f 19/19/19 21/21/21 20/20/20
f 20/20/20 21/21/21 22/22/22
f 21/21/21 23/23/23 22/22/22
f 22/22/22 23/23/23 24/24/24
f 23/23/23 25/25/25 24/24/24
f 24/24/24 25/25/25 26/26/26
f 25/25/25 27/27/27 26/26/26
f 26/26/26 27/27/27 28/28/28
f 27/27/27 29/29/29 28/28/28
f 28/28/28 29/29/29 30/30/30
f 29/29/29 31/31/31 30/30/30
f 30/30/30 31/31/31 32/32/32
f 31/31/31 33/33/33 32/32/32
f 32/32/32 33/33/33 34/34/34
f 33/33/33 35/35/35 34/34/34
f 34/34/34 35/35/35 36/36/36
f 35/35/35 37/37/37 36/36/36
f 36/36/36 37/37/37 38/38/38
f 37/37/37 39/39/39 38/38/38
f 38/38/38 39/39/39 40/40/40
f 39/39/39 41/41/41 40/40/40
f 40/40/40 41/41/41 42/42/42
f 43/43/43 44/44/44 45/45/45
f 45/45/45 44/44/44 46/46/46
f 44/44/44 47/47/47 46/46/46
f 46/46/46 47/47/47 48/48/48
f 47/47/47 49/49/49 48/48/48
f 48/48/48 49/49/49 50/50/50
f 49/49/49 51/51/51 50/50/50
f 50/50/50 51/51/51 52/52/52
f 51/51/51 53/53/53 52/52/52
f 54/54/54 55/55/55 56/56/56
f 56/56/56 55/55/55 57/57/57
f 55/55/55 58/58/58 57/57/57
f 57/57/57 58/58/58 59/59/59
f 58/58/58 60/60/60 59/59/59
f 59/59/59 60/60/60 61/61/61
f 60/60/60 62/62/62 61/61/61
f 63/63/63 64/64/64 43/43/43
f 43/43/43 64/64/64 44/44/44
f 64/64/64 65/65/65 44/44/44
f 44/44/44 65/65/65 47/47/47
f 65/65/65 66/66/66 47/47/47
f 47/47/47 66/66/66 67/67/67
f 68/68/68 69/69/69 54/54/54
f 54/54/54 69/69/69 55/55/55
f 69/69/69 70/70/70 55/55/55
f 55/55/55 70/70/70 71/71/71
f 70/70/70 72/72/72 71/71/71
f 71/71/71 72/72/72 73/73/73
f 74/74/74 75/75/75 63/63/63
f 63/63/63 75/75/75 64/64/64
f 75/75/75 76/76/76 64/64/64
f 64/64/64 76/76/76 65/65/65
f 76/76/76 77/77/77 65/65/65
f 65/65/65 77/77/77 78/78/78
f 62/62/62 60/60/60 79/79/79
f 79/79/79 60/60/60 80/80/80
f 60/60/60 81/81/81 80/80/80
f 80/80/80 81/81/81 73/73/73
f 81/81/81 71/71/71 73/73/73
f 72/72/72 70/70/70 82/82/82
f 82/82/82 70/70/70 83/83/83
f 70/70/70 69/69/69 83/83/83
f 83/83/83 69/69/69 84/84/84
f 51/51/51 49/49/49 85/85/85
f 85/85/85 49/49/49 86/86/86
f 49/49/49 87/87/87 86/86/86
f 76/76/76 88/88/88 77/77/77
f 77/77/77 88/88/88 89/89/89
f 88/88/88 90/90/90 89/89/89
f 91/91/91 92/92/92 93/93/93
f 93/93/93 92/92/92 94/94/94
f 92/92/92 95/95/95 94/94/94
f 60/60/60 58/58/58 81/81/81
f 81/81/81 58/58/58 71/71/71
f 58/58/58 55/55/55 71/71/71
f 56/56/56 57/57/57 96/96/96
f 96/96/96 57/57/57 97/97/97
f 57/57/57 98/98/98 97/97/97
f 84/84/84 69/69/69 99/99/99
f 99/99/99 69/69/69 100/100/100
f 69/69/69 68/68/68 100/100/100
f 45/45/45 101/101/101 102/102/102
f 102/102/102 101/101/101 103/103/103
f 101/101/101 52/52/52 103/103/103
f 104/104/104 105/105/105 106/106/105
f 105/105/105 107/107/106 106/106/105
f 108/108/107 109/109/108 91/91/91
f 91/91/91 109/109/108 92/92/92
f 90/90/90 88/88/88 108/108/107
f 108/108/107 88/88/88 109/109/108
f 95/95/95 92/92/92 99/99/99
f 99/99/99 92/92/92 84/84/84
f 98/98/98 57/57/57 110/110/109
f 110/110/109 57/57/57 59/59/59
f 78/78/78 111/111/110 65/65/65
f 65/65/65 111/111/110 66/66/66
f 110/110/109 59/59/59 112/112/111
f 112/112/111 59/59/59 61/61/61
f 87/87/87 49/49/49 67/67/67
f 67/67/67 49/49/49 47/47/47
f 45/45/45 46/46/46 101/101/101
f 101/101/101 46/46/46 48/48/48
f 48/48/48 50/50/50 101/101/101
f 101/101/101 50/50/50 52/52/52
