# Blender v2.83.0 OBJ File: ''
# www.blender.org
mtllib S.S._Dolphin_outer_lights_2.mtl
o S.S._Dolphin_outer_lights_2
v -2.189282 -0.089088 0.239249
v -2.244045 -0.099850 0.159246
v -2.225275 0.097979 0.221303
v -2.277297 0.072979 0.142669
v -2.155769 0.239322 0.112663
v -2.213082 0.203561 0.042297
v -2.021480 0.252142 -0.023037
v -2.089016 0.215407 -0.083072
v -1.901074 0.128932 -0.106300
v -1.977776 0.101575 -0.159999
v -1.865081 -0.058135 -0.088356
v -1.944522 -0.071253 -0.143420
v -1.934587 -0.199478 0.020286
v -2.008738 -0.201836 -0.043049
v -2.068875 -0.212298 0.155983
v -2.132804 -0.213682 0.082320
v -2.189282 -0.089088 0.239249
v -2.244045 -0.099850 0.159246
v -2.244045 -0.099850 0.159246
v -2.269062 -0.084316 0.025564
v -2.277297 0.072979 0.142669
v -2.290115 0.025103 0.015068
v -2.213082 0.203561 0.042297
v -2.249460 0.107776 -0.048479
v -2.089016 0.215407 -0.083072
v -2.170912 0.115276 -0.127851
v -1.977776 0.101575 -0.159999
v -2.100485 0.043207 -0.176554
v -1.944522 -0.071253 -0.143420
v -2.079432 -0.066213 -0.166059
v -2.008738 -0.201836 -0.043049
v -2.120087 -0.148885 -0.102512
v -2.132804 -0.213682 0.082320
v -2.198635 -0.156385 -0.023140
v -2.244045 -0.099850 0.159246
v -2.269062 -0.084316 0.025564
v -2.290115 0.025103 0.015068
v -2.269062 -0.084316 0.025564
v -2.216944 -0.029883 -0.108214
v -2.198635 -0.156385 -0.023140
v -2.120087 -0.148885 -0.102512
v -2.120087 -0.148885 -0.102512
v -2.079432 -0.066213 -0.166059
v -2.216944 -0.029883 -0.108214
v -2.100485 0.043207 -0.176554
v -2.170912 0.115276 -0.127851
v -2.170912 0.115276 -0.127851
v -2.249460 0.107776 -0.048479
v -2.216944 -0.029883 -0.108214
v -2.290115 0.025103 0.015068
v 2.234035 0.056044 0.260604
v 2.282966 0.038499 0.178064
v 2.171487 -0.124106 0.244936
v 2.225179 -0.127938 0.163588
v 2.035811 -0.211785 0.142386
v 2.099833 -0.208943 0.068844
v 1.906487 -0.155633 0.013027
v 1.980352 -0.157065 -0.050667
v 1.859269 0.011458 -0.067364
v 1.936728 -0.002693 -0.124940
v 1.921817 0.191608 -0.051697
v 1.994515 0.163744 -0.110464
v 2.057492 0.279288 0.050853
v 2.119862 0.244750 -0.015720
v 2.186816 0.223135 0.180212
v 2.239341 0.192870 0.103791
v 2.234035 0.056044 0.260604
v 2.282966 0.038499 0.178064
v 2.282966 0.038499 0.178064
v 2.288577 0.013252 0.043947
v 2.225179 -0.127938 0.163588
v 2.252311 -0.091199 0.034862
v 2.099833 -0.208943 0.068844
v 2.173645 -0.142036 -0.024597
v 1.980352 -0.157065 -0.050667
v 2.098662 -0.109479 -0.099599
v 1.936728 -0.002693 -0.124940
v 2.071286 -0.012599 -0.146211
v 1.994515 0.163744 -0.110464
v 2.107551 0.091852 -0.137127
v 2.119862 0.244750 -0.015720
v 2.186215 0.142690 -0.077668
v 2.239341 0.192870 0.103791
v 2.261199 0.110132 -0.002665
v 2.282966 0.038499 0.178064
v 2.288577 0.013252 0.043947
v 2.252311 -0.091199 0.034862
v 2.288577 0.013252 0.043947
v 2.211788 -0.007662 -0.086451
v 2.261199 0.110132 -0.002665
v 2.186215 0.142690 -0.077668
v 2.186215 0.142690 -0.077668
v 2.107551 0.091852 -0.137127
v 2.211788 -0.007662 -0.086451
v 2.071286 -0.012599 -0.146211
v 2.098662 -0.109479 -0.099599
v 2.252311 -0.091199 0.034862
v 2.211788 -0.007662 -0.086451
v 2.173645 -0.142036 -0.024597
v 2.098662 -0.109479 -0.099599
vt 0.000000 1.000000
vt 0.000000 1.000000
vt 0.000000 1.000000
vt 0.000000 1.000000
vt 0.000000 1.000000
vt 0.000000 1.000000
vt 0.000000 1.000000
vt 0.000000 1.000000
vt 0.000000 1.000000
vt 0.000000 1.000000
vt 0.000000 1.000000
vt 0.000000 1.000000
vt 0.000000 1.000000
vt 0.000000 1.000000
vt 0.000000 1.000000
vt 0.000000 1.000000
vt 0.000000 1.000000
vt 0.000000 1.000000
vt 0.000000 1.000000
vt 0.000000 1.000000
vt 0.000000 1.000000
vt 0.000000 1.000000
vt 0.000000 1.000000
vt 0.000000 1.000000
vt 0.000000 1.000000
vt 0.000000 1.000000
vt 0.000000 1.000000
vt 0.000000 1.000000
vt 0.000000 1.000000
vt 0.000000 1.000000
vt 0.000000 1.000000
vt 0.000000 1.000000
vt 0.000000 1.000000
vt 0.000000 1.000000
vt 0.000000 1.000000
vt 0.000000 1.000000
vt 0.000000 1.000000
vt 0.000000 1.000000
vt 0.000000 1.000000
vt 0.000000 1.000000
vt 0.000000 1.000000
vt 0.000000 1.000000
vt 0.000000 1.000000
vt 0.000000 1.000000
vt 0.000000 1.000000
vt 0.000000 1.000000
vt 0.000000 1.000000
vt 0.000000 1.000000
vt 0.000000 1.000000
vt 0.000000 1.000000
vt 0.000000 1.000000
vt 0.000000 1.000000
vt 0.000000 1.000000
vt 0.000000 1.000000
vt 0.000000 1.000000
vt 0.000000 1.000000
vt 0.000000 1.000000
vt 0.000000 1.000000
vt 0.000000 1.000000
vt 0.000000 1.000000
vt 0.000000 1.000000
vt 0.000000 1.000000
vt 0.000000 1.000000
vt 0.000000 1.000000
vt 0.000000 1.000000
vt 0.000000 1.000000
vt 0.000000 1.000000
vt 0.000000 1.000000
vt 0.000000 1.000000
vt 0.000000 1.000000
vt 0.000000 1.000000
vt 0.000000 1.000000
vt 0.000000 1.000000
vt 0.000000 1.000000
vt 0.000000 1.000000
vt 0.000000 1.000000
vt 0.000000 1.000000
vt 0.000000 1.000000
vt 0.000000 1.000000
vt 0.000000 1.000000
vt 0.000000 1.000000
vt 0.000000 1.000000
vt 0.000000 1.000000
vt 0.000000 1.000000
vt 0.000000 1.000000
vt 0.000000 1.000000
vt 0.000000 1.000000
vt 0.000000 1.000000
vt 0.000000 1.000000
vt 0.000000 1.000000
vt 0.000000 1.000000
vt 0.000000 1.000000
vt 0.000000 1.000000
vt 0.000000 1.000000
vt 0.000000 1.000000
vt 0.000000 1.000000
vt 0.000000 1.000000
vt 0.000000 1.000000
vt 0.000000 1.000000
vt 0.000000 1.000000
vn 0.8145 0.1019 -0.5712
vn 0.8406 -0.2674 -0.4711
vn 0.5679 -0.8219 -0.0449
vn 0.0411 -0.8722 0.4875
vn -0.4313 -0.3888 0.8141
vn -0.5725 0.3451 0.7437
vn -0.2998 0.8996 0.3175
vn 0.2270 0.9499 -0.2148
vn 0.4815 0.7625 -0.4321
vn 0.9718 0.1714 -0.1619
vn 0.9911 -0.1219 -0.0538
vn 0.7727 -0.5659 0.2875
vn 0.3509 -0.6062 0.7137
vn -0.0274 -0.2191 0.9753
vn -0.1404 0.3685 0.9189
vn 0.0779 0.8126 0.5777
vn 0.4998 0.8528 0.1514
vn 0.6981 0.7144 -0.0476
vn 0.8790 0.2102 0.4280
vn 0.8301 0.3227 0.4547
vn 0.7594 0.3904 0.5205
vn 0.6832 0.4730 0.5563
vn 0.5876 0.5084 0.6295
vn 0.4431 0.3991 0.8027
vn 0.4347 0.2849 0.8543
vn 0.4733 0.1739 0.8636
vn 0.4786 0.0568 0.8762
vn 0.5302 -0.0537 0.8462
vn 0.7108 -0.1319 0.6909
vn 0.7892 -0.0779 0.6091
vn 0.8553 -0.0226 0.5177
vn -0.7841 0.3186 -0.5326
vn -0.6186 0.6516 -0.4390
vn -0.0863 0.9956 -0.0367
vn 0.4210 0.7753 0.4708
vn 0.6063 0.1198 0.7862
vn 0.3609 -0.5870 0.7247
vn -0.1714 -0.9310 0.3224
vn -0.6788 -0.7107 -0.1851
vn -0.8168 -0.4207 -0.3948
vn -0.8168 -0.4208 -0.3948
vn -0.9370 0.3342 -0.1021
vn -0.8039 0.5948 0.0003
vn -0.3823 0.8672 0.3190
vn 0.0195 0.6928 0.7209
vn 0.1662 0.1736 0.9707
vn -0.0281 -0.3862 0.9220
vn -0.4497 -0.6586 0.6034
vn -0.8515 -0.4841 0.2014
vn -0.9635 -0.2675 0.0100
vn -0.8505 0.2553 0.4599
vn -0.8634 0.1290 0.4877
vn -0.8318 0.0315 0.5542
vn -0.8038 -0.0820 0.5893
vn -0.7322 -0.1632 0.6612
vn -0.5379 -0.1400 0.8313
vn -0.4691 -0.0422 0.8821
vn -0.4463 0.0774 0.8915
vn -0.3901 0.1853 0.9019
vn -0.3812 0.3111 0.8706
vn -0.7051 0.4518 0.5466
vn -0.6131 0.4673 0.6370
vn -0.5107 0.4749 0.7167
usemtl outer_lights_blue_ss_light_blue.png
s 1
f 1/1/1 2/2/1 3/3/2
f 2/2/1 4/4/2 3/3/2
f 3/3/2 4/4/2 5/5/3
f 4/4/2 6/6/3 5/5/3
f 5/5/3 6/6/3 7/7/4
f 6/6/3 8/8/4 7/7/4
f 7/7/4 8/8/4 9/9/5
f 8/8/4 10/10/5 9/9/5
f 9/9/5 10/10/5 11/11/6
f 10/10/5 12/12/6 11/11/6
f 11/11/6 12/12/6 13/13/7
f 12/12/6 14/14/7 13/13/7
f 13/13/7 14/14/7 15/15/8
f 14/14/7 16/16/8 15/15/8
f 15/15/8 16/16/8 17/17/9
f 16/16/8 18/18/9 17/17/9
f 19/19/10 20/20/10 21/21/11
f 20/20/10 22/22/11 21/21/11
f 21/21/11 22/22/11 23/23/12
f 22/22/11 24/24/12 23/23/12
f 23/23/12 24/24/12 25/25/13
f 24/24/12 26/26/13 25/25/13
f 25/25/13 26/26/13 27/27/14
f 26/26/13 28/28/14 27/27/14
f 27/27/14 28/28/14 29/29/15
f 28/28/14 30/30/15 29/29/15
f 29/29/15 30/30/15 31/31/16
f 30/30/15 32/32/16 31/31/16
f 31/31/16 32/32/16 33/33/17
f 32/32/16 34/34/17 33/33/17
f 33/33/17 34/34/17 35/35/18
f 34/34/17 36/36/18 35/35/18
f 37/37/19 38/38/20 39/39/21
f 38/38/20 40/40/22 39/39/21
f 39/39/21 40/40/22 41/41/23
f 42/42/24 43/43/25 44/44/26
f 43/43/25 45/45/27 44/44/26
f 44/44/26 45/45/27 46/46/28
f 47/47/29 48/48/30 49/49/30
f 48/48/30 50/50/31 49/49/30
f 51/51/32 52/52/32 53/53/33
f 52/52/32 54/54/33 53/53/33
f 53/53/33 54/54/33 55/55/34
f 54/54/33 56/56/34 55/55/34
f 55/55/34 56/56/34 57/57/35
f 56/56/34 58/58/35 57/57/35
f 57/57/35 58/58/35 59/59/36
f 58/58/35 60/60/36 59/59/36
f 59/59/36 60/60/36 61/61/37
f 60/60/36 62/62/37 61/61/37
f 61/61/37 62/62/37 63/63/38
f 62/62/37 64/64/38 63/63/38
f 63/63/38 64/64/38 65/65/39
f 64/64/38 66/66/39 65/65/39
f 65/65/39 66/66/39 67/67/40
f 66/66/39 68/68/41 67/67/40
f 69/69/42 70/70/42 71/71/43
f 70/70/42 72/72/43 71/71/43
f 71/71/43 72/72/43 73/73/44
f 72/72/43 74/74/44 73/73/44
f 73/73/44 74/74/44 75/75/45
f 74/74/44 76/76/45 75/75/45
f 75/75/45 76/76/45 77/77/46
f 76/76/45 78/78/46 77/77/46
f 77/77/46 78/78/46 79/79/47
f 78/78/46 80/80/47 79/79/47
f 79/79/47 80/80/47 81/81/48
f 80/80/47 82/82/48 81/81/48
f 81/81/48 82/82/48 83/83/49
f 82/82/48 84/84/49 83/83/49
f 83/83/49 84/84/49 85/85/50
f 84/84/49 86/86/50 85/85/50
f 87/87/51 88/88/52 89/89/53
f 88/88/52 90/90/54 89/89/53
f 89/89/53 90/90/54 91/91/55
f 92/92/56 93/93/57 94/94/58
f 93/93/57 95/95/59 94/94/58
f 94/94/58 95/95/59 96/96/60
f 97/97/61 98/98/62 99/99/62
f 98/98/62 100/100/63 99/99/62
