# Blender v2.83.0 OBJ File: ''
# www.blender.org
mtllib S.S._Dolphin_Bowsprit_8.mtl
o S.S._Dolphin_Bowsprit_8
v -0.623117 -0.029403 -0.237765
v -0.566309 -0.013355 0.280577
v -0.834861 -0.423585 -0.000000
v 0.188331 -0.029403 -0.639796
v -0.290803 -0.013355 -0.586949
v 0.000000 -0.423586 -0.842888
v 0.623117 -0.029403 0.237765
v 0.566309 -0.013355 -0.280577
v 0.834861 -0.423585 -0.000000
v -0.188331 -0.029403 0.639796
v 0.290803 -0.013355 0.586949
v 0.000000 -0.423585 0.842888
v -0.290803 -0.013355 -0.586949
v -0.387124 0.364776 -0.177302
v -0.623117 -0.029403 -0.237765
v 0.188331 -0.029403 -0.639796
v 0.614771 -0.423586 -0.620682
v 0.566309 -0.013355 -0.280577
v 0.623117 -0.029403 0.237765
v 0.387124 0.364776 0.177302
v 0.566309 -0.013355 -0.280577
v 0.290803 -0.013355 0.586949
v 0.387124 0.364776 0.177302
v 0.623117 -0.029403 0.237765
v -0.566309 -0.013355 0.280577
v -0.119842 0.364776 0.408581
v -0.188331 -0.029403 0.639796
v 0.387124 0.364776 0.177302
v 0.119842 0.364776 -0.408581
v 0.566309 -0.013355 -0.280577
v -0.623117 -0.029403 -0.237765
v -0.614771 -0.423586 -0.620682
v -0.290803 -0.013355 -0.586949
v -0.623117 -0.029403 -0.237765
v -0.387124 0.364776 -0.177302
v -0.566309 -0.013355 0.280577
v 0.188331 -0.029403 -0.639796
v 0.119842 0.364776 -0.408581
v -0.290803 -0.013355 -0.586949
v 0.566309 -0.013355 -0.280577
v 0.119842 0.364776 -0.408581
v 0.188331 -0.029403 -0.639796
v 0.000000 -0.423586 -0.842888
v 0.614771 -0.423586 -0.620682
v 0.188331 -0.029403 -0.639796
v -0.188331 -0.029403 0.639796
v -0.119842 0.364776 0.408581
v 0.290803 -0.013355 0.586949
v -0.614771 -0.423586 -0.620682
v 0.000000 -0.423586 -0.842888
v -0.290803 -0.013355 -0.586949
v -0.290803 -0.013355 -0.586949
v 0.119842 0.364776 -0.408581
v -0.387124 0.364776 -0.177302
v 0.290803 -0.013355 0.586949
v -0.119842 0.364776 0.408581
v 0.387124 0.364776 0.177302
v 0.000000 -0.423585 0.842888
v -0.614771 -0.423585 0.620682
v -0.188331 -0.029403 0.639796
v -0.614771 -0.423585 0.620682
v -0.834861 -0.423585 -0.000000
v -0.566309 -0.013355 0.280577
v 0.614771 -0.423586 -0.620682
v 0.834861 -0.423585 -0.000000
v 0.566309 -0.013355 -0.280577
v 0.623117 -0.029403 0.237765
v 0.614771 -0.423585 0.620682
v 0.290803 -0.013355 0.586949
v -0.566309 -0.013355 0.280577
v -0.387124 0.364776 -0.177302
v -0.119842 0.364776 0.408581
v 0.834861 -0.423585 -0.000000
v 0.614771 -0.423585 0.620682
v 0.623117 -0.029403 0.237765
v 0.000000 0.579875 0.000000
v 0.387124 0.364776 0.177302
v -0.119842 0.364776 0.408581
v 0.614771 -0.423585 0.620682
v 0.000000 -0.423585 0.842888
v 0.290803 -0.013355 0.586949
v 0.000000 0.579875 0.000000
v -0.119842 0.364776 0.408581
v -0.387124 0.364776 -0.177302
v -0.188331 -0.029403 0.639796
v -0.614771 -0.423585 0.620682
v -0.566309 -0.013355 0.280577
v -0.834861 -0.423585 -0.000000
v -0.614771 -0.423586 -0.620682
v -0.623117 -0.029403 -0.237765
v -0.387124 0.364776 -0.177302
v 0.119842 0.364776 -0.408581
v 0.000000 0.579875 0.000000
v 0.387124 0.364776 0.177302
v 0.000000 0.579875 0.000000
v 0.119842 0.364776 -0.408581
vt 0.000000 0.937500
vt 0.000000 0.937500
vt 0.000000 0.937500
vt 0.000000 0.937500
vt 0.000000 0.937500
vt 0.000000 0.937500
vt 0.000000 0.937500
vt 0.000000 0.937500
vt 0.000000 0.937500
vt 0.000000 0.937500
vt 0.000000 0.937500
vt 0.000000 0.937500
vt 0.000000 0.937500
vt 0.000000 0.937500
vt 0.000000 0.937500
vt 0.000000 0.937500
vt 0.000000 0.937500
vt 0.000000 0.937500
vt 0.000000 0.937500
vt 0.000000 0.937500
vt 0.000000 0.937500
vt 0.000000 0.937500
vt 0.000000 0.937500
vt 0.000000 0.937500
vt 0.000000 0.937500
vt 0.000000 0.937500
vt 0.000000 0.937500
vt 0.000000 0.937500
vt 0.000000 0.937500
vt 0.000000 0.937500
vt 0.000000 0.937500
vt 0.000000 0.937500
vt 0.000000 0.937500
vt 0.000000 0.937500
vt 0.000000 0.937500
vt 0.000000 0.937500
vt 0.000000 0.937500
vt 0.000000 0.937500
vt 0.000000 0.937500
vt 0.000000 0.937500
vt 0.000000 0.937500
vt 0.000000 0.937500
vt 0.000000 0.937500
vt 0.000000 0.937500
vt 0.000000 0.937500
vt 0.000000 0.937500
vt 0.000000 0.937500
vt 0.000000 0.937500
vt 0.000000 0.937500
vt 0.000000 0.937500
vt 0.000000 0.937500
vt 0.000000 0.937500
vt 0.000000 0.937500
vt 0.000000 0.937500
vt 0.000000 0.937500
vt 0.000000 0.937500
vt 0.000000 0.937500
vt 0.000000 0.937500
vt 0.000000 0.937500
vt 0.000000 0.937500
vt 0.000000 0.937500
vt 0.000000 0.937500
vt 0.000000 0.937500
vt 0.000000 0.937500
vt 0.000000 0.937500
vt 0.000000 0.937500
vt 0.000000 0.937500
vt 0.000000 0.937500
vt 0.000000 0.937500
vt 0.000000 0.937500
vt 0.000000 0.937500
vt 0.000000 0.937500
vt 0.000000 0.937500
vt 0.000000 0.937500
vt 0.000000 0.937500
vt 0.000000 0.937500
vt 0.000000 0.937500
vt 0.000000 0.937500
vt 0.000000 0.937500
vt 0.000000 0.937500
vt 0.000000 0.937500
vt 0.000000 0.937500
vt 0.000000 0.937500
vt 0.000000 0.937500
vt 0.000000 0.937500
vt 0.000000 0.937500
vt 0.000000 0.937500
vt 0.000000 0.937500
vt 0.000000 0.937500
vt 0.000000 0.937500
vt 0.000000 0.937500
vt 0.000000 0.937500
vt 0.000000 0.937500
vt 0.000000 0.937500
vt 0.000000 0.937500
vt 0.000000 0.937500
vn 0.8578 -0.5080 -0.0783
vn 0.0797 -0.4864 0.8701
vn -0.8578 -0.5080 0.0783
vn -0.0797 -0.4864 -0.8701
vn 0.6470 -0.4784 0.5937
vn -0.5535 -0.5693 0.6079
vn -0.8606 -0.5032 0.0787
vn -0.6470 -0.4784 -0.5937
vn 0.5929 -0.4816 -0.6454
vn -0.6650 -0.6825 0.3034
vn 0.6226 -0.5384 0.5678
vn 0.8606 -0.5032 -0.0787
vn 0.0789 -0.4941 0.8658
vn -0.5929 -0.4816 0.6454
vn -0.3235 -0.3066 0.8952
vn -0.0789 -0.4941 -0.8658
vn 0.3213 -0.3268 0.8888
vn 0.3116 -0.6606 0.6830
vn -0.3116 -0.6606 -0.6830
vn 0.3235 -0.3066 -0.8952
vn 0.8786 -0.3621 -0.3115
vn -0.8786 -0.3621 0.3115
vn -0.6226 -0.5384 -0.5678
vn 0.6650 -0.6825 -0.3034
vn -0.9016 -0.2915 -0.3197
vn -0.2306 -0.8315 -0.5054
vn -0.3213 -0.3268 -0.8888
vn 0.5560 -0.7916 -0.2536
vn 0.5535 -0.5693 -0.6079
vn 0.9016 -0.2915 0.3197
vn 0.2306 -0.8315 0.5054
vn -0.5560 -0.7916 0.2536
usemtl ship_glow
s 1
f 1/1/1 2/2/1 3/3/1
f 4/4/2 5/5/2 6/6/2
f 7/7/3 8/8/3 9/9/3
f 10/10/4 11/11/4 12/12/4
f 13/13/5 14/14/5 15/15/5
f 16/16/6 17/17/6 18/18/6
f 19/19/7 20/20/7 21/21/7
f 22/22/8 23/23/8 24/24/8
f 25/25/9 26/26/9 27/27/9
f 28/28/10 29/29/10 30/30/10
f 31/31/11 32/32/11 33/33/11
f 34/34/12 35/35/12 36/36/12
f 37/37/13 38/38/13 39/39/13
f 40/40/14 41/41/14 42/42/14
f 43/43/15 44/44/15 45/45/15
f 46/46/16 47/47/16 48/48/16
f 49/49/17 50/50/17 51/51/17
f 52/52/18 53/53/18 54/54/18
f 55/55/19 56/56/19 57/57/19
f 58/58/20 59/59/20 60/60/20
f 61/61/21 62/62/21 63/63/21
f 64/64/22 65/65/22 66/66/22
f 67/67/23 68/68/23 69/69/23
f 70/70/24 71/71/24 72/72/24
f 73/73/25 74/74/25 75/75/25
f 76/76/26 77/77/26 78/78/26
f 79/79/27 80/80/27 81/81/27
f 82/82/28 83/83/28 84/84/28
f 85/85/29 86/86/29 87/87/29
f 88/88/30 89/89/30 90/90/30
f 91/91/31 92/92/31 93/93/31
f 94/94/32 95/95/32 96/96/32
