# Blender v2.83.0 OBJ File: ''
# www.blender.org
mtllib S.S._Dolphin_Bowsprit_4.001.mtl
o S.S._Dolphin_Bowsprit_4.001
v -0.502923 0.843362 0.707392
v -0.934791 0.641418 0.707392
v -0.861409 0.619416 0.707392
v -1.229640 0.310376 0.707392
v -1.312197 0.310374 0.707392
v -1.593685 -0.141617 0.707392
v -1.664932 -0.141618 0.707392
v -2.043672 -0.936543 0.707392
v -2.138232 -0.936543 0.707392
v -2.033581 -0.936543 0.046641
v -1.583447 -0.141618 0.192899
v -1.247972 0.310373 0.301901
v -1.061589 0.310373 -0.063897
v -0.756260 0.641418 0.157935
v -0.549456 0.641418 -0.048869
v -1.729872 -0.936542 -0.549429
v -1.346959 -0.141618 -0.271230
v -0.771289 0.310373 -0.354198
v -0.288866 0.641418 -0.181646
v -1.256825 -0.936542 -1.022479
v -0.978623 -0.141618 -0.639568
v -0.405491 0.310373 -0.540578
v 0.000000 0.641418 -0.227398
v -0.660751 -0.936542 -1.326189
v -0.514492 -0.141618 -0.876048
v 0.000000 0.310373 -0.604808
v 0.288866 0.641418 -0.181646
v 0.000000 -0.936542 -1.430838
v 0.000000 -0.141618 -0.957538
v 0.405489 0.310373 -0.540578
v 0.549459 0.641418 -0.048869
v 0.660749 -0.936542 -1.326189
v 0.514489 -0.141618 -0.876048
v 0.771289 0.310373 -0.354198
v 0.756259 0.641418 0.157935
v 1.256819 -0.936542 -1.022478
v 0.978619 -0.141618 -0.639568
v 1.061589 0.310373 -0.063897
v 0.889039 0.641418 0.418526
v 1.729869 -0.936542 -0.549428
v 1.346959 -0.141618 -0.271230
v 1.247969 0.310373 0.301901
v 0.934790 0.641418 0.707392
v 2.033581 -0.936543 0.046641
v 1.583449 -0.141618 0.192899
v 1.312199 0.310374 0.707392
v 2.138239 -0.936543 0.707392
v 1.664929 -0.141618 0.707392
v -0.889038 0.641418 0.418526
v 0.502919 0.843362 0.707392
v 0.861409 0.619415 0.707392
v 1.229639 0.310375 0.707392
v 1.593689 -0.141617 0.707392
v 2.043669 -0.936543 0.707392
vt 0.000000 1.000000
vt 0.000000 1.000000
vt 0.000000 1.000000
vt 0.000000 1.000000
vt 0.000000 1.000000
vt 0.000000 1.000000
vt 0.000000 1.000000
vt 0.000000 1.000000
vt 0.000000 1.000000
vt 0.000000 1.000000
vt 0.000000 1.000000
vt 0.000000 1.000000
vt 0.000000 1.000000
vt 0.000000 1.000000
vt 0.000000 1.000000
vt 0.000000 1.000000
vt 0.000000 1.000000
vt 0.000000 1.000000
vt 0.000000 1.000000
vt 0.000000 1.000000
vt 0.000000 1.000000
vt 0.000000 1.000000
vt 0.000000 1.000000
vt 0.000000 1.000000
vt 0.000000 1.000000
vt 0.000000 1.000000
vt 0.000000 1.000000
vt 0.000000 1.000000
vt 0.000000 1.000000
vt 0.000000 1.000000
vt 0.000000 1.000000
vt 0.000000 1.000000
vt 0.000000 1.000000
vt 0.000000 1.000000
vt 0.000000 1.000000
vt 0.000000 1.000000
vt 0.000000 1.000000
vt 0.000000 1.000000
vt 0.000000 1.000000
vt 0.000000 1.000000
vt 0.000000 1.000000
vt 0.000000 1.000000
vt 0.000000 1.000000
vt 0.000000 1.000000
vt 0.000000 1.000000
vt 0.000000 1.000000
vt 0.000000 1.000000
vt 0.000000 1.000000
vt 0.000000 1.000000
vt 0.000000 1.000000
vt 0.000000 1.000000
vt 0.000000 1.000000
vt 0.000000 1.000000
vt 0.000000 1.000000
vn 0.0000 0.0000 1.0000
vn -0.3498 0.3988 0.8477
vn -0.5597 0.5218 0.6438
vn -0.6323 0.4292 0.6450
vn -0.7485 0.4456 0.4911
vn -0.8172 0.5116 -0.2655
vn -0.7869 0.5616 -0.2557
vn -0.6957 0.6819 -0.2260
vn -0.5918 0.6819 -0.4299
vn -0.5335 0.7518 -0.3876
vn -0.3876 0.7518 -0.5335
vn -0.6951 0.5116 -0.5050
vn -0.6694 0.5616 -0.4863
vn -0.4299 0.6819 -0.5918
vn -0.2038 0.7518 -0.6271
vn -0.5050 0.5116 -0.6951
vn -0.4863 0.5616 -0.6694
vn -0.2260 0.6819 -0.6957
vn -0.0000 0.7518 -0.6594
vn -0.2655 0.5116 -0.8172
vn -0.2557 0.5616 -0.7869
vn 0.0000 0.6819 -0.7315
vn 0.2038 0.7518 -0.6271
vn -0.0000 0.5116 -0.8592
vn 0.0000 0.5616 -0.8274
vn 0.2260 0.6819 -0.6957
vn 0.3876 0.7518 -0.5335
vn 0.2655 0.5116 -0.8172
vn 0.2557 0.5616 -0.7869
vn 0.4299 0.6819 -0.5918
vn 0.5335 0.7518 -0.3876
vn 0.5050 0.5116 -0.6951
vn 0.4863 0.5616 -0.6694
vn 0.5918 0.6819 -0.4299
vn 0.6272 0.7518 -0.2038
vn 0.6951 0.5116 -0.5050
vn 0.6694 0.5616 -0.4863
vn 0.6957 0.6819 -0.2260
vn 0.3498 0.3988 0.8477
vn 0.8172 0.5116 -0.2655
vn 0.7869 0.5616 -0.2557
vn 0.5597 0.5218 0.6438
vn 0.7485 0.4456 0.4911
vn 0.6323 0.4292 0.6450
vn -0.6271 0.7518 -0.2038
usemtl ship_exterior
s 1
f 1/1/1 2/2/2 3/3/1
f 3/3/1 2/2/2 4/4/1
f 2/2/2 5/5/3 4/4/1
f 4/4/1 5/5/3 6/6/1
f 5/5/3 7/7/4 6/6/1
f 6/6/1 7/7/4 8/8/1
f 7/7/4 9/9/5 8/8/1
f 9/9/5 7/7/4 10/10/6
f 10/10/6 7/7/4 11/11/7
f 7/7/4 12/12/8 11/11/7
f 11/11/7 12/12/8 13/13/9
f 12/12/8 14/14/10 13/13/9
f 13/13/9 14/14/10 15/15/11
f 10/10/6 11/11/7 16/16/12
f 16/16/12 11/11/7 17/17/13
f 11/11/7 13/13/9 17/17/13
f 17/17/13 13/13/9 18/18/14
f 13/13/9 15/15/11 18/18/14
f 18/18/14 15/15/11 19/19/15
f 16/16/12 17/17/13 20/20/16
f 20/20/16 17/17/13 21/21/17
f 17/17/13 18/18/14 21/21/17
f 21/21/17 18/18/14 22/22/18
f 18/18/14 19/19/15 22/22/18
f 22/22/18 19/19/15 23/23/19
f 20/20/16 21/21/17 24/24/20
f 24/24/20 21/21/17 25/25/21
f 21/21/17 22/22/18 25/25/21
f 25/25/21 22/22/18 26/26/22
f 22/22/18 23/23/19 26/26/22
f 26/26/22 23/23/19 27/27/23
f 24/24/20 25/25/21 28/28/24
f 28/28/24 25/25/21 29/29/25
f 25/25/21 26/26/22 29/29/25
f 29/29/25 26/26/22 30/30/26
f 26/26/22 27/27/23 30/30/26
f 30/30/26 27/27/23 31/31/27
f 28/28/24 29/29/25 32/32/28
f 32/32/28 29/29/25 33/33/29
f 29/29/25 30/30/26 33/33/29
f 33/33/29 30/30/26 34/34/30
f 30/30/26 31/31/27 34/34/30
f 34/34/30 31/31/27 35/35/31
f 32/32/28 33/33/29 36/36/32
f 36/36/32 33/33/29 37/37/33
f 33/33/29 34/34/30 37/37/33
f 37/37/33 34/34/30 38/38/34
f 34/34/30 35/35/31 38/38/34
f 38/38/34 35/35/31 39/39/35
f 36/36/32 37/37/33 40/40/36
f 40/40/36 37/37/33 41/41/37
f 37/37/33 38/38/34 41/41/37
f 41/41/37 38/38/34 42/42/38
f 38/38/34 39/39/35 42/42/38
f 42/42/38 39/39/35 43/43/39
f 40/40/36 41/41/37 44/44/40
f 44/44/40 41/41/37 45/45/41
f 41/41/37 42/42/38 45/45/41
f 45/45/41 42/42/38 46/46/42
f 42/42/38 43/43/39 46/46/42
f 44/44/40 45/45/41 47/47/43
f 47/47/43 45/45/41 48/48/44
f 45/45/41 46/46/42 48/48/44
f 14/14/10 12/12/8 49/49/45
f 49/49/45 12/12/8 5/5/3
f 12/12/8 7/7/4 5/5/3
f 50/50/1 51/51/1 43/43/39
f 43/43/39 51/51/1 52/52/1
f 43/43/39 52/52/1 46/46/42
f 46/46/42 52/52/1 53/53/1
f 46/46/42 53/53/1 48/48/44
f 48/48/44 53/53/1 54/54/1
f 49/49/45 5/5/3 2/2/2
f 48/48/44 54/54/1 47/47/43
