# Blender v2.83.0 OBJ File: ''
# www.blender.org
mtllib S.S._Dolphin_part.035.mtl
o S.S._Dolphin_part.035
v -0.100549 -2.955802 -0.000001
v 0.069999 -2.955802 -0.070001
v -0.100546 2.955801 0.000001
v 0.070002 2.955801 -0.069999
v 0.100547 -2.955802 -0.000001
v 0.100550 2.955801 0.000001
v 0.069999 -2.955802 -0.070001
v 0.070002 2.955801 -0.069999
v 0.100547 -2.955802 -0.000001
v -0.070001 -2.955802 0.069998
v 0.100550 2.955801 0.000001
v -0.069998 2.955801 0.070000
v -0.100549 -2.955802 -0.000001
v -0.100546 2.955801 0.000001
v -0.070001 -2.955802 0.069998
v -0.069998 2.955801 0.070000
vt 0.000000 0.000000
vt 0.000000 0.000000
vt 0.000000 0.000000
vt 0.000000 0.000000
vt 0.000000 0.000000
vt 0.000000 0.000000
vt 0.000000 0.000000
vt 0.000000 0.000000
vt 0.000000 0.000000
vt 0.000000 0.000000
vt 0.000000 0.000000
vt 0.000000 0.000000
vt 0.000000 0.000000
vt 0.000000 0.000000
vt 0.000000 0.000000
vt 0.000000 0.000000
vn 0.3797 -0.0000 0.9251
vn -0.9165 0.0000 0.4000
vn -0.3797 0.0000 -0.9251
vn 0.9165 -0.0000 -0.4000
usemtl black
s 1
f 1/1/1 2/2/1 3/3/1
f 2/2/1 4/4/1 3/3/1
f 5/5/2 6/6/2 7/7/2
f 6/6/2 8/8/2 7/7/2
f 9/9/3 10/10/3 11/11/3
f 10/10/3 12/12/3 11/11/3
f 13/13/4 14/14/4 15/15/4
f 14/14/4 16/16/4 15/15/4
