# Blender v2.83.0 OBJ File: ''
# www.blender.org
mtllib S.S._Dolphin_Main_Engine_Part_3.mtl
o S.S._Dolphin_Main_Engine_Part_3
v 0.841769 0.507128 -0.484609
v 0.785336 0.397481 -0.202531
v 1.273842 -0.328490 -0.559292
v 1.042951 -0.482414 -0.425985
v 0.519515 0.291786 -0.296797
v 0.892352 -0.482413 -0.686827
v 0.575948 0.401433 -0.578870
v 1.123241 -0.328488 -0.820135
v -0.785717 0.403137 0.207260
v -0.518360 0.294269 0.293206
v -1.039690 -0.482416 0.428634
v -0.889091 -0.482416 0.689477
v -0.566617 0.400623 0.578043
v -1.119980 -0.328490 0.822781
v -0.833975 0.509490 0.492097
v -1.270579 -0.328490 0.561938
v 0.979936 -0.405452 0.804385
v 1.241251 -0.300013 0.717020
v 0.687200 0.514452 0.577154
v 0.842508 0.519713 0.326376
v 1.186252 -0.405453 0.447029
v 0.630090 0.372447 0.184150
v 0.924937 -0.510891 0.534395
v 0.474782 0.367186 0.434926
v -1.119980 -0.328488 -0.820135
v -1.270579 -0.328491 -0.559292
v -0.838482 0.509550 -0.481842
v -0.786143 0.403421 -0.204865
v -1.039690 -0.482415 -0.425985
v -0.513853 0.294210 -0.298165
v -0.889091 -0.482413 -0.686827
v -0.566193 0.400336 -0.575140
v 0.152229 -0.345063 -1.361931
v -0.148967 -0.345063 -1.361931
v 0.000871 0.502995 -0.980570
v -0.213675 0.403744 -0.793919
v -0.148967 -0.489591 -1.090114
v 0.002391 0.300796 -0.600293
v 0.152229 -0.489591 -1.090114
v 0.216938 0.400046 -0.786945
v 0.216938 0.409753 0.793374
v 0.002391 0.508997 0.980025
v 0.152229 -0.345063 1.364577
v -0.148967 -0.345063 1.364577
v -0.213677 0.406047 0.786405
v -0.148967 -0.489591 1.092760
v 0.000870 0.306803 0.599752
v 0.152229 -0.489591 1.092760
vt 0.440800 0.880500
vt 0.440800 0.881900
vt 0.436100 0.881200
vt 0.433900 0.881400
vt 0.437200 0.881400
vt 0.433900 0.879500
vt 0.437200 0.880000
vt 0.436100 0.879700
vt 0.546600 0.880800
vt 0.546600 0.879000
vt 0.543300 0.880700
vt 0.543300 0.879300
vt 0.514200 0.881400
vt 0.514200 0.879400
vt 0.512000 0.879500
vt 0.512000 0.880700
vt 0.519000 0.881200
vt 0.545400 0.879400
vt 0.550200 0.879900
vt 0.545400 0.880600
vt 0.088900 0.890200
vt 0.452800 0.890200
vt 0.250500 0.890400
vt 0.755700 0.890400
vt 0.795500 0.890100
vt 0.888500 0.890400
vt 0.419400 0.890100
vt 0.184800 0.890400
vt 0.123600 0.875900
vt 0.899900 0.875900
vt 0.500300 0.877000
vt 1.267800 0.877000
vt 1.027500 0.875600
vt 0.486000 0.877000
vt 0.004600 0.875600
vt -0.282300 0.877000
vt 0.185500 0.877100
vt 1.079700 0.877100
vt 0.409500 0.877300
vt 1.241600 0.877300
vt 1.311600 0.877100
vt 0.407300 0.877300
vt 0.109700 0.877000
vt -0.427800 0.877300
vt 1.429200 0.877700
vt 0.602600 0.877700
vt 0.904000 0.877500
vt -0.114000 0.877500
vt -0.236900 0.877700
vt -0.408500 0.877400
vt 0.593800 0.877700
vt 1.032100 0.877400
vn 0.7193 0.5622 -0.4081
vn 0.4610 0.0584 0.8855
vn 0.9131 0.2904 0.2863
vn -0.1456 -0.4165 0.8974
vn -0.7828 -0.4351 0.4448
vn -0.8504 -0.4157 -0.3224
vn -0.5236 0.0669 -0.8493
vn 0.2091 0.2895 -0.9341
vn -0.4833 0.0731 -0.8724
vn 0.7676 -0.4352 -0.4705
vn 0.1456 -0.4163 -0.8975
vn 0.8506 -0.4156 0.3223
vn 0.5458 0.0518 0.8363
vn -0.2090 0.2897 0.9340
vn -0.7043 0.5618 0.4340
vn -0.9130 0.2906 -0.2862
vn -0.4706 -0.0598 0.8803
vn 0.7787 0.4394 0.4479
vn 0.1040 0.3948 0.9129
vn 0.8594 0.4271 -0.2810
vn 0.5295 -0.0581 -0.8463
vn -0.1635 -0.2759 -0.9472
vn -0.7193 -0.5583 -0.4135
vn -0.9183 -0.3093 0.2470
vn -0.2086 0.2905 -0.9339
vn -0.9134 0.2896 0.2860
vn -0.7152 0.5620 -0.4155
vn -0.4708 0.0648 0.8799
vn 0.1460 -0.4156 0.8978
vn 0.7786 -0.4353 0.4521
vn 0.8500 -0.4164 -0.3226
vn 0.5333 0.0603 -0.8437
vn 0.7045 0.2675 -0.6574
vn -0.7044 0.2666 -0.6578
vn 0.0062 0.5330 -0.8461
vn -0.9973 0.0680 0.0265
vn -0.7045 -0.3954 0.5894
vn -0.0062 -0.4034 0.9150
vn 0.7044 -0.3963 0.5889
vn 0.9973 0.0600 0.0415
vn 0.9974 0.0676 -0.0263
vn -0.0062 0.5327 0.8463
vn 0.7044 0.2670 0.6577
vn -0.7045 0.2678 0.6572
vn -0.9974 0.0597 -0.0413
vn -0.7044 -0.3960 -0.5891
vn 0.0062 -0.4037 -0.9149
vn 0.7045 -0.3951 -0.5896
usemtl ship_glow
s 1
f 1/1/1 2/2/2 3/3/3
f 3/3/3 2/2/2 4/4/4
f 2/2/2 5/5/5 4/4/4
f 4/4/4 5/5/5 6/6/6
f 5/5/5 7/7/7 6/6/6
f 6/6/6 7/7/7 8/8/8
f 7/7/7 1/1/1 8/8/8
f 8/8/8 1/1/1 3/3/3
f 9/9/9 10/10/10 11/11/11
f 11/11/11 10/10/10 12/12/12
f 10/13/10 13/14/13 12/15/12
f 12/15/12 13/14/13 14/16/14
f 13/14/13 15/17/15 14/16/14
f 14/18/14 15/19/15 16/20/16
f 15/19/15 9/9/9 16/20/16
f 16/20/16 9/9/9 11/11/11
f 17/21/17 18/22/18 19/23/19
f 19/23/19 18/22/18 20/24/20
f 18/22/18 21/25/21 20/24/20
f 20/24/20 21/25/21 22/26/22
f 21/25/21 23/27/23 22/26/22
f 22/26/22 23/27/23 24/28/24
f 23/27/23 17/21/17 24/28/24
f 24/28/24 17/21/17 19/23/19
f 25/29/25 26/30/26 27/31/27
f 27/31/27 26/30/26 28/32/28
f 26/30/26 29/33/29 28/32/28
f 28/32/28 29/33/29 30/34/30
f 29/33/29 31/35/31 30/34/30
f 30/34/30 31/35/31 32/36/32
f 31/35/31 25/29/25 32/36/32
f 32/36/32 25/29/25 27/31/27
f 33/37/33 34/38/34 35/39/35
f 35/39/35 34/38/34 36/40/36
f 34/38/34 37/41/37 36/40/36
f 36/40/36 37/41/37 38/42/38
f 37/41/37 39/43/39 38/42/38
f 38/42/38 39/43/39 40/44/40
f 39/43/39 33/37/33 40/44/40
f 40/44/40 33/37/33 35/39/35
f 41/45/41 42/46/42 43/47/43
f 43/47/43 42/46/42 44/48/44
f 42/46/42 45/49/45 44/48/44
f 44/48/44 45/49/45 46/50/46
f 45/49/45 47/51/47 46/50/46
f 46/50/46 47/51/47 48/52/48
f 47/51/47 41/45/41 48/52/48
f 48/52/48 41/45/41 43/47/43
