# Blender v2.83.0 OBJ File: ''
# www.blender.org
mtllib S.S._Dolphin_Bowsprit_6.mtl
o S.S._Dolphin_Bowsprit_6
v -0.088272 0.765056 2.069226
v -0.065149 0.702326 2.066124
v -0.062813 0.788987 1.619485
v -0.088228 0.729626 1.616434
v -0.111308 0.702326 2.066124
v -0.113843 0.788987 1.619485
v -0.088272 0.765056 2.069226
v -0.062813 0.788987 1.619485
v -0.229029 -3.680264 0.387981
v -0.229241 -3.635316 2.644825
v 0.052670 -3.680264 0.387981
v 0.052881 -3.635316 2.644825
v -0.229029 -3.698506 2.764055
v 0.052670 -3.698506 2.764055
v 0.052670 -3.817716 2.764055
v -1.561556 1.637627 -1.598536
v -2.090876 1.637627 -0.380916
v -1.212846 2.566498 -1.245425
v -1.607936 2.566498 -0.369435
v -0.725169 3.374307 -0.776941
v -0.915483 3.374310 -0.383952
v -0.229029 -3.698506 2.764055
v -0.229241 -3.635316 2.644825
v -0.229029 -3.817716 2.764055
v -0.229241 -3.891057 2.644824
v -0.229029 -3.680264 0.387981
v -0.088180 -3.856915 0.387982
v 2.143255 0.983297 -0.596163
v 1.666465 1.093297 -0.596161
v 2.166025 0.983297 -0.155837
v 1.866285 1.093297 0.108358
v -2.482416 1.093297 -0.596161
v -2.506236 1.093297 -0.155837
v 2.143255 0.983297 0.108357
v 1.866285 1.093297 0.108358
v 2.143255 0.939867 0.108358
v 1.852605 1.049867 0.108358
v -2.482416 1.093297 0.108358
v -2.482416 1.049867 0.108358
v -2.482416 1.093297 -0.596161
v 1.666465 1.093297 -0.596161
v -2.482416 1.049867 -0.596164
v 1.660455 1.049867 -0.596164
v 2.143255 0.983297 -0.596163
v 2.143255 0.939866 -0.596164
v 2.143255 0.939867 0.108358
v 2.166025 0.939867 0.020291
v 1.852605 1.049867 0.108358
v 1.660455 1.049867 -0.596164
v -2.482416 1.049867 0.108358
v -2.506236 1.049867 0.020292
v 1.914525 1.637627 -0.380917
v 1.774955 1.637656 -0.597360
v 1.431585 2.566498 -0.369436
v 0.942735 1.637637 -1.186530
v 1.036485 2.566498 -1.295825
v 0.958355 1.637627 -1.215501
v 1.092925 2.566498 -1.342975
v 1.497175 2.566487 -0.371673
v 0.779589 3.411596 -0.386752
v 0.583194 3.411597 -0.805779
v 0.823850 1.637627 -1.270696
v 0.065786 1.637627 -2.263515
v 0.918325 2.566487 -1.431255
v 0.050444 2.566487 -1.768705
v 0.034955 3.374307 -1.082125
v 2.143255 0.939866 -0.596164
v 1.660455 1.049867 -0.596164
v 2.166025 0.939867 -0.155837
v 2.166025 0.939867 0.020291
v 2.204625 0.939867 0.020291
v 2.143255 0.983297 0.108357
v 2.166025 0.983297 0.020293
v 1.866285 1.093297 0.108358
v 2.166025 0.983297 -0.155837
v 2.233325 0.983297 -0.155837
v -0.619377 3.374307 -0.891664
v -0.211314 3.374307 -1.082125
v -1.094686 2.566487 -1.380855
v -0.226805 2.566487 -1.768705
v -0.242147 1.637627 -2.263515
v -0.400487 -4.896914 0.099357
v -0.400487 -4.896914 0.853563
v -0.400487 -4.776685 0.099357
v -0.400487 -4.776685 0.853563
v 0.224127 -4.896914 0.099357
v 0.224127 -4.896914 0.853563
v -0.400487 -4.896914 0.099357
v -0.400487 -4.896914 0.853563
v -0.400487 -4.776685 0.099357
v 0.224127 -4.776685 0.099357
v -0.400487 -4.776685 0.853563
v 0.224127 -4.776685 0.853563
v -0.400487 -4.776685 0.853563
v -0.400487 -4.896914 0.853563
v 0.224127 -4.776685 0.853563
v 0.224127 -4.896914 0.853563
v 2.294875 -4.896914 0.108356
v 2.294875 -4.776685 0.108356
v -2.471236 -4.896914 0.108356
v -2.471236 -4.776685 0.108356
v -2.471236 -4.896914 0.108356
v -2.471236 -4.896914 -0.596162
v 2.294875 -4.896914 0.108356
v 2.294875 -4.896914 -0.596162
v 0.960485 2.566497 -1.475405
v 0.058190 2.566487 -1.825585
v 0.468895 3.411597 -0.921063
v 0.041643 3.411596 -1.120983
v -1.627206 1.637627 -1.652016
v -2.180116 1.637627 -0.384020
v -1.269286 2.566498 -1.292575
v -1.673526 2.566487 -0.371672
v -0.229029 -3.698506 2.764055
v -0.229029 -3.817716 2.764055
v 0.052670 -3.817716 2.764055
v -0.229241 -3.891057 2.644824
v 0.052670 -3.817716 2.764055
v -0.229241 -3.891057 2.644824
v 0.052881 -3.891057 2.644824
v -0.088180 -3.856915 0.387982
v -0.088180 -3.856915 0.387982
v 0.052670 -3.680264 0.387981
v 0.052881 -3.891057 2.644824
v 0.052881 -3.635316 2.644825
v 0.052881 -3.635316 2.644825
v 0.052670 -3.698506 2.764055
v 0.052881 -3.891057 2.644824
v 0.052670 -3.817716 2.764055
v 2.294875 -4.776685 -0.596163
v 2.294875 -4.776685 0.108356
v -2.471236 -4.776685 -0.596163
v -2.471236 -4.776685 0.108356
v -0.645252 3.411597 -0.921062
v -0.218001 3.411596 -1.120983
v -1.136846 2.566487 -1.425005
v -0.234550 2.566487 -1.825585
v -0.234550 2.566487 -1.825585
v -0.249007 1.637627 -2.343235
v -1.136846 2.566487 -1.425005
v -1.489156 1.637627 -1.790735
v 1.036485 2.566498 -1.295825
v 0.548812 3.374307 -0.776942
v 1.431585 2.566498 -0.369436
v 0.739125 3.374310 -0.383952
v -1.269286 2.566498 -1.292575
v -1.673526 2.566487 -0.371672
v -0.759551 3.411597 -0.805778
v -0.955946 3.411596 -0.386752
v 0.864483 1.637627 -1.311216
v 0.072647 1.637627 -2.343235
v 0.960485 2.566497 -1.475405
v 0.058190 2.566487 -1.825585
v -2.506236 1.049867 0.020292
v -2.482416 1.049867 0.108358
v -2.506236 1.093297 0.020292
v -2.482416 1.093297 0.108358
v -2.546616 1.093297 0.020292
v -2.576636 1.093297 -0.155837
v -2.546616 1.049867 0.020292
v -2.576636 1.049876 -0.155839
v 2.143255 0.939867 0.108358
v 2.166025 0.939867 0.020291
v 2.143255 0.983297 0.108357
v 2.166025 0.983297 0.020293
v 2.003755 1.637627 -0.384020
v 1.857975 1.637656 -0.609496
v 1.497175 2.566487 -0.371673
v 0.958355 1.637627 -1.215501
v 2.233325 0.983297 -0.155837
v 2.204625 0.983297 0.020293
v 2.233325 0.939867 -0.155837
v 2.204625 0.939867 0.020291
v 2.166025 0.939867 -0.155837
v 2.233325 0.939867 -0.155837
v 2.166025 0.983297 -0.155837
v 2.233325 0.983297 -0.155837
v -2.482416 1.093297 -0.596161
v -2.482416 1.049867 -0.596164
v -2.506236 1.093297 -0.155837
v -2.506236 1.049876 -0.155839
v 2.166025 0.983297 -0.155837
v 2.166025 0.939867 -0.155837
v 2.143255 0.983297 -0.596163
v 2.143255 0.939866 -0.596164
v -2.576636 1.093297 -0.155837
v -2.546616 1.093297 0.020292
v -2.506236 1.093297 -0.155837
v -2.506236 1.093297 0.020292
v -2.546616 1.049867 0.020292
v -2.506236 1.049867 0.020292
v -2.576636 1.049876 -0.155839
v -2.506236 1.049876 -0.155839
v -2.506236 1.093297 -0.155837
v -2.576636 1.093297 -0.155837
v -2.506236 1.049876 -0.155839
v -2.576636 1.049876 -0.155839
v -2.506236 1.049867 0.020292
v -2.506236 1.093297 0.020292
v -2.546616 1.049867 0.020292
v -2.546616 1.093297 0.020292
v 2.166025 0.983297 0.020293
v 2.166025 0.939867 0.020291
v 2.204625 0.983297 0.020293
v 2.204625 0.939867 0.020291
v -2.506236 1.049867 0.020292
v 1.660455 1.049867 -0.596164
v -2.506236 1.049876 -0.155839
v -2.482416 1.049867 -0.596164
v -2.506236 1.093297 -0.155837
v -2.506236 1.093297 0.020292
v 1.866285 1.093297 0.108358
v -2.482416 1.093297 0.108358
v 0.224127 -4.776685 0.099357
v 0.224127 -4.776685 0.853563
v 0.224127 -4.896914 0.099357
v 0.224127 -4.896914 0.853563
v 2.204625 0.939867 0.020291
v 2.166025 0.939867 -0.155837
v 2.233325 0.939867 -0.155837
v 2.233325 0.983297 -0.155837
v 2.204625 0.983297 0.020293
v 2.166025 0.983297 0.020293
v 0.034955 3.374307 -1.082125
v 0.443019 3.374307 -0.891664
v 0.918325 2.566487 -1.431255
v -0.242147 1.637627 -2.263515
v -1.094686 2.566487 -1.380855
v -1.429406 1.637627 -1.732006
vt 0.000000 1.000000
vt 0.000000 1.000000
vt 0.000000 1.000000
vt 0.000000 1.000000
vt 0.000000 1.000000
vt 0.000000 1.000000
vt 0.000000 1.000000
vt 0.000000 1.000000
vt 0.000000 1.000000
vt 0.000000 1.000000
vt 0.000000 1.000000
vt 0.000000 1.000000
vt 0.000000 1.000000
vt 0.000000 1.000000
vt 0.000000 1.000000
vt 0.000000 1.000000
vt 0.000000 1.000000
vt 0.000000 1.000000
vt 0.000000 1.000000
vt 0.000000 1.000000
vt 0.000000 1.000000
vt 0.000000 1.000000
vt 0.000000 1.000000
vt 0.000000 1.000000
vt 0.000000 1.000000
vt 0.000000 1.000000
vt 0.000000 1.000000
vt 0.000000 1.000000
vt 0.000000 1.000000
vt 0.000000 1.000000
vt 0.000000 1.000000
vt 0.000000 1.000000
vt 0.000000 1.000000
vt 0.000000 1.000000
vt 0.000000 1.000000
vt 0.000000 1.000000
vt 0.000000 1.000000
vt 0.000000 1.000000
vt 0.000000 1.000000
vt 0.000000 1.000000
vt 0.000000 1.000000
vt 0.000000 1.000000
vt 0.000000 1.000000
vt 0.000000 1.000000
vt 0.000000 1.000000
vt 0.000000 1.000000
vt 0.000000 1.000000
vt 0.000000 1.000000
vt 0.000000 1.000000
vt 0.000000 1.000000
vt 0.000000 1.000000
vt 0.000000 1.000000
vt 0.000000 1.000000
vt 0.000000 1.000000
vt 0.000000 1.000000
vt 0.000000 1.000000
vt 0.000000 1.000000
vt 0.000000 1.000000
vt 0.000000 1.000000
vt 0.000000 1.000000
vt 0.000000 1.000000
vt 0.000000 1.000000
vt 0.000000 1.000000
vt 0.000000 1.000000
vt 0.000000 1.000000
vt 0.000000 1.000000
vt 0.000000 1.000000
vt 0.000000 1.000000
vt 0.000000 1.000000
vt 0.000000 1.000000
vt 0.000000 1.000000
vt 0.000000 1.000000
vt 0.000000 1.000000
vt 0.000000 1.000000
vt 0.000000 1.000000
vt 0.000000 1.000000
vt 0.000000 1.000000
vt 0.000000 1.000000
vt 0.000000 1.000000
vt 0.000000 1.000000
vt 0.000000 1.000000
vt 0.000000 1.000000
vt 0.000000 1.000000
vt 0.000000 1.000000
vt 0.000000 1.000000
vt 0.000000 1.000000
vt 0.000000 1.000000
vt 0.000000 1.000000
vt 0.000000 1.000000
vt 0.000000 1.000000
vt 0.000000 1.000000
vt 0.000000 1.000000
vt 0.000000 1.000000
vt 0.000000 1.000000
vt 0.000000 1.000000
vt 0.000000 1.000000
vt 0.000000 1.000000
vt 0.000000 1.000000
vt 0.000000 1.000000
vt 0.000000 1.000000
vt 0.000000 1.000000
vt 0.000000 1.000000
vt 0.000000 1.000000
vt 0.000000 1.000000
vt 0.000000 1.000000
vt 0.000000 1.000000
vt 0.000000 1.000000
vt 0.000000 1.000000
vt 0.000000 1.000000
vt 0.000000 1.000000
vt 0.000000 1.000000
vt 0.000000 1.000000
vt 0.000000 1.000000
vt 0.000000 1.000000
vt 0.000000 1.000000
vt 0.000000 1.000000
vt 0.000000 1.000000
vt 0.000000 1.000000
vt 0.000000 1.000000
vt 0.000000 1.000000
vt 0.000000 1.000000
vt 0.000000 1.000000
vt 0.000000 1.000000
vt 0.000000 1.000000
vt 0.000000 1.000000
vt 0.000000 1.000000
vt 0.000000 1.000000
vt 0.000000 1.000000
vt 0.000000 1.000000
vt 0.000000 1.000000
vt 0.000000 1.000000
vt 0.000000 1.000000
vt 0.000000 1.000000
vt 0.000000 1.000000
vt 0.000000 1.000000
vt 0.000000 1.000000
vt 0.000000 1.000000
vt 0.000000 1.000000
vt 0.000000 1.000000
vt 0.000000 1.000000
vt 0.000000 1.000000
vt 0.000000 1.000000
vt 0.000000 1.000000
vt 0.000000 1.000000
vt 0.000000 1.000000
vt 0.000000 1.000000
vt 0.000000 1.000000
vt 0.000000 1.000000
vt 0.000000 1.000000
vt 0.000000 1.000000
vt 0.000000 1.000000
vt 0.000000 1.000000
vt 0.000000 1.000000
vt 0.000000 1.000000
vt 0.000000 1.000000
vt 0.000000 1.000000
vt 0.000000 1.000000
vt 0.000000 1.000000
vt 0.000000 1.000000
vt 0.000000 1.000000
vt 0.000000 1.000000
vt 0.000000 1.000000
vt 0.000000 1.000000
vt 0.000000 1.000000
vt 0.000000 1.000000
vt 0.000000 1.000000
vt 0.000000 1.000000
vt 0.000000 1.000000
vt 0.000000 1.000000
vt 0.000000 1.000000
vt 0.000000 1.000000
vt 0.000000 1.000000
vt 0.000000 1.000000
vt 0.000000 1.000000
vt 0.000000 1.000000
vt 0.000000 1.000000
vt 0.000000 1.000000
vt 0.000000 1.000000
vt 0.000000 1.000000
vt 0.000000 1.000000
vt 0.000000 1.000000
vt 0.000000 1.000000
vt 0.000000 1.000000
vt 0.000000 1.000000
vt 0.000000 1.000000
vt 0.000000 1.000000
vt 0.000000 1.000000
vt 0.000000 1.000000
vt 0.000000 1.000000
vt 0.000000 1.000000
vt 0.000000 1.000000
vt 0.000000 1.000000
vt 0.000000 1.000000
vt 0.000000 1.000000
vt 0.000000 1.000000
vt 0.000000 1.000000
vt 0.000000 1.000000
vt 0.000000 1.000000
vt 0.000000 1.000000
vt 0.000000 1.000000
vt 0.000000 1.000000
vt 0.000000 1.000000
vt 0.000000 1.000000
vt 0.000000 1.000000
vt 0.000000 1.000000
vt 0.000000 1.000000
vt 0.000000 1.000000
vt 0.000000 1.000000
vt 0.000000 1.000000
vt 0.000000 1.000000
vt 0.000000 1.000000
vt 0.000000 1.000000
vt 0.000000 1.000000
vt 0.000000 1.000000
vt 0.000000 1.000000
vt 0.000000 1.000000
vt 0.000000 1.000000
vt 0.000000 1.000000
vt 0.000000 1.000000
vt 0.000000 1.000000
vt 0.000000 1.000000
vt 0.000000 1.000000
vt 0.000000 1.000000
vt 0.000000 1.000000
vt 0.000000 1.000000
vt 0.000000 1.000000
vt 0.000000 1.000000
vt 0.000000 1.000000
vt 0.000000 1.000000
vn 0.9370 0.3419 0.0712
vn 0.8076 -0.5897 0.0002
vn 0.9424 -0.3293 -0.0590
vn 0.0014 -0.9855 -0.1694
vn -0.8072 -0.5903 0.0003
vn -0.8254 0.5645 -0.0063
vn -0.9125 0.4024 0.0733
vn 0.0000 0.9986 0.0531
vn 0.0000 0.9998 -0.0199
vn 0.0000 0.9728 0.2315
vn 0.0000 0.7740 0.6332
vn 0.0000 0.5159 0.8567
vn 0.0000 0.0000 1.0000
vn -0.8216 0.4442 -0.3572
vn -0.8219 0.4385 -0.3636
vn -0.7798 0.5209 -0.3473
vn -0.7815 0.5129 -0.3551
vn -0.7156 0.6128 -0.3353
vn -0.7153 0.6069 -0.3464
vn -1.0000 0.0000 0.0018
vn -1.0000 0.0000 0.0007
vn -0.9997 -0.0241 -0.0016
vn -0.8076 -0.5872 -0.0549
vn -0.7806 -0.6224 -0.0582
vn 0.2248 0.9743 -0.0116
vn 0.1044 0.9944 -0.0177
vn 0.2606 0.9639 -0.0549
vn 0.1364 0.9899 -0.0387
vn -0.0000 1.0000 -0.0000
vn 0.0000 0.0001 -1.0000
vn 0.0000 0.0000 -1.0000
vn 0.3525 0.9314 0.0911
vn 0.3314 0.9435 0.0010
vn 0.1863 0.9819 -0.0350
vn 0.0645 0.9978 -0.0176
vn 0.7682 0.4055 -0.4953
vn 0.6669 0.4007 -0.6283
vn 0.7717 0.1824 -0.6092
vn 0.7775 0.1318 -0.6150
vn 0.9111 -0.1377 -0.3886
vn 0.9076 -0.1833 -0.3777
vn 0.9014 0.2074 -0.3802
vn 0.8656 0.3479 -0.3602
vn 0.7147 0.6235 -0.3168
vn 0.7016 0.6322 -0.3288
vn 0.7814 -0.1826 -0.5967
vn 0.6091 0.1404 -0.7806
vn 0.5255 0.3178 -0.7892
vn 0.3076 0.5286 -0.7912
vn 0.2831 0.6243 -0.7281
vn 0.2221 0.9749 -0.0115
vn 0.2203 0.9754 -0.0093
vn 0.2014 0.9795 -0.0028
vn 0.0657 0.9978 0.0000
vn 0.3674 0.9252 0.0950
vn 0.3159 0.9483 0.0312
vn 0.3539 0.9346 0.0371
vn 0.1254 0.9921 0.0000
vn -0.3307 0.6235 -0.7084
vn -0.3263 0.6205 -0.7131
vn -0.3404 0.5590 -0.7561
vn -0.3485 0.5200 -0.7799
vn -0.3659 0.4422 -0.8188
vn -1.0000 0.0000 0.0000
vn 0.0000 -1.0000 0.0000
vn 0.2795 0.6350 -0.7202
vn 0.2948 0.6278 -0.7204
vn 0.3107 0.6201 -0.7204
vn 0.3369 0.6068 -0.7199
vn -0.8173 0.4528 -0.3564
vn -0.8174 0.4517 -0.3576
vn -0.8173 0.4519 -0.3574
vn -0.8174 0.4506 -0.3588
vn 0.0000 -0.4881 0.8728
vn 0.0000 -0.5218 0.8531
vn 0.0000 -0.8518 0.5239
vn 0.0000 -0.9934 0.1143
vn 0.0000 -0.9627 0.2705
vn 0.0000 -0.9999 -0.0151
vn 0.7806 -0.6224 -0.0582
vn 0.8076 -0.5872 -0.0549
vn 0.9992 -0.0399 -0.0038
vn 1.0000 0.0000 -0.0001
vn 1.0000 0.0000 0.0018
vn -0.3331 0.6183 -0.7119
vn -0.3278 0.6145 -0.7176
vn -0.3247 0.6123 -0.7209
vn -0.3215 0.6101 -0.7242
vn -0.3606 0.4583 -0.8123
vn -0.3613 0.4577 -0.8124
vn -0.3614 0.4576 -0.8124
vn -0.3619 0.4572 -0.8124
vn 0.7157 0.6281 -0.3052
vn 0.7157 0.6174 -0.3266
vn 0.7158 0.6228 -0.3160
vn 0.7153 0.6069 -0.3464
vn -0.7207 0.6169 -0.3163
vn -0.7207 0.6140 -0.3220
vn -0.7206 0.6110 -0.3276
vn -0.7205 0.6057 -0.3377
vn 0.7795 -0.1863 -0.5981
vn 0.6027 0.1552 -0.7827
vn 0.6389 0.1018 -0.7625
vn 0.3203 0.4650 -0.8254
vn -0.9653 0.0000 0.2611
vn -0.9858 0.0000 0.1680
vn 0.9682 0.0000 0.2503
vn 0.7614 0.4218 -0.4922
vn 0.6552 0.4160 -0.6306
vn 0.5751 0.4053 -0.7106
vn 0.5134 0.3945 -0.7621
vn 0.9870 0.0000 0.1608
vn -0.9985 0.0000 -0.0540
vn 0.9987 0.0000 -0.0516
vn 0.0000 1.0000 0.0001
vn 1.0000 0.0000 0.0000
vn 0.3216 0.6495 -0.6890
vn 0.3666 -0.4417 0.8189
usemtl ship_exterior
s 1
f 1/1/1 2/2/2 3/3/3
f 3/3/3 2/2/2 4/4/4
f 2/2/2 5/5/5 4/4/4
f 4/4/4 5/5/5 6/6/6
f 5/5/5 7/7/7 6/6/6
f 6/6/6 7/7/7 8/8/8
f 9/9/9 10/10/10 11/11/9
f 11/11/9 10/10/10 12/12/10
f 10/10/10 13/13/11 12/12/10
f 12/12/10 13/13/11 14/14/12
f 13/13/11 15/15/13 14/14/12
f 16/16/14 17/17/15 18/18/16
f 17/17/15 19/19/17 18/18/16
f 18/18/16 19/19/17 20/20/18
f 19/19/17 21/21/19 20/20/18
f 22/22/20 23/23/21 24/24/20
f 24/24/20 23/23/21 25/25/22
f 23/23/21 26/26/23 25/25/22
f 25/25/22 26/26/23 27/27/24
f 28/28/25 29/29/26 30/30/27
f 30/30/27 29/29/26 31/31/28
f 29/29/26 32/32/29 31/31/28
f 31/31/28 32/32/29 33/33/29
f 34/34/13 35/35/13 36/36/13
f 36/36/13 35/35/13 37/37/13
f 35/35/13 38/38/13 37/37/13
f 37/37/13 38/38/13 39/39/13
f 40/40/30 41/41/30 42/42/30
f 42/42/30 41/41/30 43/43/30
f 41/41/30 44/44/31 43/43/30
f 43/43/30 44/44/31 45/45/31
f 46/46/32 47/47/33 48/48/34
f 47/47/33 49/49/35 48/48/34
f 48/48/34 49/49/35 50/50/29
f 49/49/35 51/51/29 50/50/29
f 52/52/36 53/53/37 54/54/38
f 53/53/37 55/55/39 54/54/38
f 54/54/38 55/55/39 56/56/40
f 57/57/41 58/58/42 59/59/43
f 59/59/43 58/58/42 60/60/44
f 58/58/42 61/61/45 60/60/44
f 62/62/46 63/63/47 64/64/48
f 63/63/47 65/65/49 64/64/48
f 64/64/48 65/65/49 66/66/50
f 67/67/51 68/68/52 69/69/53
f 68/68/52 70/70/54 69/69/53
f 69/69/53 70/70/54 71/71/29
f 72/72/55 73/73/56 74/74/57
f 74/74/57 73/73/56 75/75/58
f 73/73/56 76/76/29 75/75/58
f 77/77/59 78/78/60 79/79/61
f 78/78/60 80/80/62 79/79/61
f 79/79/61 80/80/62 81/81/63
f 82/82/64 83/83/64 84/84/64
f 84/84/64 83/83/64 85/85/64
f 86/86/65 87/87/65 88/88/65
f 88/88/65 87/87/65 89/89/65
f 90/90/65 91/91/65 92/92/65
f 91/91/65 93/93/65 92/92/65
f 94/94/13 95/95/13 96/96/13
f 96/96/13 95/95/13 97/97/13
f 98/98/13 99/99/13 100/100/13
f 100/100/13 99/99/13 101/101/13
f 102/102/65 103/103/65 104/104/65
f 104/104/65 103/103/65 105/105/65
f 106/106/66 107/107/67 108/108/68
f 108/108/68 107/107/67 109/109/69
f 110/110/70 111/111/71 112/112/72
f 112/112/72 111/111/71 113/113/73
f 114/114/13 115/115/74 116/116/75
f 116/116/75 115/115/74 117/117/76
f 118/118/76 119/119/77 120/120/78
f 120/120/78 119/119/77 121/121/79
f 122/122/80 123/123/81 124/124/82
f 124/124/82 123/123/81 125/125/83
f 126/126/84 127/127/84 128/128/84
f 128/128/84 127/127/84 129/129/84
f 130/130/65 131/131/65 132/132/65
f 131/131/65 133/133/65 132/132/65
f 134/134/85 135/135/86 136/136/87
f 136/136/87 135/135/86 137/137/88
f 138/138/89 139/139/90 140/140/91
f 140/140/91 139/139/90 141/141/92
f 142/142/93 143/143/94 144/144/95
f 143/143/94 145/145/96 144/144/95
f 146/146/97 147/147/98 148/148/99
f 148/148/99 147/147/98 149/149/100
f 150/150/101 151/151/102 152/152/103
f 152/152/103 151/151/102 153/153/104
f 154/154/105 155/155/105 156/156/105
f 156/156/105 155/155/105 157/157/105
f 158/158/106 159/159/106 160/160/106
f 160/160/106 159/159/106 161/161/106
f 162/162/107 163/163/107 164/164/107
f 164/164/107 163/163/107 165/165/107
f 166/166/108 167/167/109 168/168/110
f 168/168/110 167/167/109 169/169/111
f 170/170/112 171/171/112 172/172/112
f 172/172/112 171/171/112 173/173/112
f 174/174/13 175/175/13 176/176/13
f 175/175/13 177/177/13 176/176/13
f 178/178/113 179/179/113 180/180/113
f 180/180/113 179/179/113 181/181/113
f 182/182/114 183/183/114 184/184/114
f 184/184/114 183/183/114 185/185/114
f 186/186/29 187/187/29 188/188/29
f 188/188/29 187/187/29 189/189/29
f 190/190/115 191/191/115 192/192/115
f 191/191/115 193/193/115 192/192/115
f 194/194/13 195/195/13 196/196/13
f 195/195/13 197/197/13 196/196/13
f 198/198/13 199/199/13 200/200/13
f 200/200/13 199/199/13 201/201/13
f 202/202/13 203/203/13 204/204/13
f 204/204/13 203/203/13 205/205/13
f 206/206/115 207/207/29 208/208/29
f 207/207/29 209/209/29 208/208/29
f 210/210/29 211/211/29 212/212/29
f 212/212/29 211/211/29 213/213/29
f 214/214/116 215/215/116 216/216/116
f 216/216/116 215/215/116 217/217/116
f 218/218/65 219/219/65 220/220/65
f 221/221/65 222/222/65 223/223/65
f 224/224/117 225/225/117 226/226/117
f 227/227/118 228/228/118 229/229/118
