# Blender v2.83.0 OBJ File: ''
# www.blender.org
mtllib S.S._Dolphin_Chronos_Reactor_lights_frame.mtl
o S.S._Dolphin_Chronos_Reactor_lights_frame
v -0.631406 -0.006406 -1.940861
v -0.718855 0.147832 -1.952471
v -0.573745 0.006408 -1.935149
v -0.680605 0.191653 -1.953010
v -0.887991 0.211720 -1.904480
v -0.883744 0.268384 -1.895370
v -1.033475 0.147832 -1.805761
v -1.058475 0.191653 -1.776810
v -1.080795 -0.006406 -1.731311
v -1.113485 0.006406 -1.683471
v -0.986151 -0.160642 -1.700170
v -0.999805 -0.178838 -1.646060
v -0.815324 -0.224529 -1.748639
v -0.794639 -0.255570 -1.704281
v -0.668384 -0.160642 -1.848340
v -0.618157 -0.178838 -1.824031
v -0.631406 -0.006406 -1.940861
v -0.573745 0.006408 -1.935149
v 1.082165 -0.006406 -1.731311
v 1.034845 0.147832 -1.805761
v 1.114855 0.006406 -1.683471
v 1.059855 0.191653 -1.776810
v 0.889274 0.211720 -1.885421
v 0.876272 0.268384 -1.876400
v 0.720227 0.147832 -1.952471
v 0.681977 0.191653 -1.953010
v 0.632778 -0.006406 -1.940861
v 0.575117 0.006408 -1.935149
v 0.669756 -0.160642 -1.848340
v 0.619529 -0.178838 -1.824031
v 0.816696 -0.224529 -1.748639
v 0.796011 -0.255570 -1.704281
v 0.987523 -0.160642 -1.700170
v 1.001185 -0.178838 -1.646060
v 1.082165 -0.006406 -1.731311
v 1.114855 0.006406 -1.683471
v 1.751905 -0.006407 1.052380
v 1.825515 0.147831 1.003761
v 1.704636 0.006406 1.085890
v 1.797006 0.191652 1.029270
v 1.921676 0.211719 0.856579
v 1.912495 0.268383 0.852491
v 1.966716 0.147831 0.686630
v 1.966586 0.191653 0.648377
v 1.953586 -0.006406 0.599396
v 1.946865 0.006406 0.541845
v 1.898946 -0.160642 0.650717
v 1.873256 -0.178838 0.599928
v 1.799876 -0.224531 0.802349
v 1.754276 -0.255570 0.782044
v 1.753476 -0.160642 0.977429
v 1.698545 -0.178839 0.992322
v 1.751905 -0.006407 1.052380
v 1.704636 0.006406 1.085890
v -1.952215 -0.006406 0.599396
v -1.965346 0.147831 0.686630
v -1.945495 0.006406 0.541845
v -1.965215 0.191653 0.648377
v -1.920305 0.211719 0.856578
v -1.911125 0.268383 0.852491
v -1.824145 0.147831 1.003761
v -1.795635 0.191652 1.029270
v -1.750535 -0.006407 1.052380
v -1.703265 0.006406 1.085890
v -1.752105 -0.160642 0.977429
v -1.697175 -0.178839 0.992322
v -1.798505 -0.224531 0.802349
v -1.752895 -0.255570 0.782044
v -1.897565 -0.160642 0.650717
v -1.871876 -0.178838 0.599928
v -1.952215 -0.006406 0.599396
v -1.945495 0.006406 0.541845
v 1.953586 -0.006406 -0.596803
v 1.966716 0.147832 -0.684037
v 1.946865 0.006406 -0.539252
v 1.966586 0.191653 -0.645781
v 1.921676 0.211720 -0.853984
v 1.912495 0.268384 -0.849895
v 1.825515 0.147832 -1.001170
v 1.797006 0.191653 -1.026670
v 1.751905 -0.006406 -1.049781
v 1.704636 0.006406 -1.083300
v 1.753476 -0.160642 -0.974836
v 1.698545 -0.178838 -0.989727
v 1.799876 -0.224529 -0.799755
v 1.754276 -0.255570 -0.779448
v 1.898946 -0.160642 -0.648125
v 1.873256 -0.178838 -0.597332
v 1.953586 -0.006406 -0.596803
v 1.946865 0.006406 -0.539252
v -1.750535 -0.006406 -1.049781
v -1.824145 0.147832 -1.001170
v -1.703265 0.006406 -1.083300
v -1.795635 0.191653 -1.026670
v -1.920305 0.211720 -0.853984
v -1.911125 0.268384 -0.849895
v -1.965346 0.147832 -0.684037
v -1.965215 0.191653 -0.645781
v -1.952215 -0.006406 -0.596803
v -1.945495 0.006406 -0.539252
v -1.897565 -0.160642 -0.648125
v -1.871876 -0.178838 -0.597332
v -1.798505 -0.224529 -0.799755
v -1.752895 -0.255570 -0.779448
v -1.752105 -0.160642 -0.974836
v -1.697175 -0.178838 -0.989727
v -1.750535 -0.006406 -1.049781
v -1.703265 0.006406 -1.083300
v 0.626456 -0.006408 1.924040
v 0.713031 0.147830 1.935531
v 0.569372 0.006406 1.918380
v 0.675163 0.191652 1.936061
v 0.880475 0.211718 1.888010
v 0.876271 0.268382 1.878990
v 1.024505 0.147830 1.790281
v 1.049255 0.191652 1.761621
v 1.071355 -0.006408 1.716581
v 1.103715 0.006406 1.669211
v 0.987523 -0.160645 1.702761
v 1.001185 -0.178840 1.648650
v 0.816696 -0.224531 1.751230
v 0.796011 -0.255570 1.706881
v 0.669756 -0.160645 1.850941
v 0.619529 -0.178840 1.826620
v 0.626456 -0.006408 1.924040
v 0.569372 0.006406 1.918380
v -1.080795 -0.006408 1.733900
v -1.033475 0.147830 1.808351
v -1.113485 0.006406 1.686061
v -1.058475 0.191652 1.779400
v -0.887990 0.211718 1.907070
v -0.874899 0.268382 1.897961
v -0.718855 0.147830 1.955060
v -0.680604 0.191652 1.955610
v -0.631405 -0.006408 1.943461
v -0.573744 0.006406 1.937740
v -0.668383 -0.160645 1.850941
v -0.618157 -0.178840 1.826620
v -0.815324 -0.224531 1.751230
v -0.794639 -0.255570 1.706881
v -0.986150 -0.160645 1.702761
v -0.999805 -0.178840 1.648650
v -1.080795 -0.006408 1.733900
v -1.113485 0.006406 1.686061
vt 0.000000 0.000000
vt 0.000000 0.000000
vt 0.000000 0.000000
vt 0.000000 0.000000
vt 0.000000 0.000000
vt 0.000000 0.000000
vt 0.000000 0.000000
vt 0.000000 0.000000
vt 0.000000 0.000000
vt 0.000000 0.000000
vt 0.000000 0.000000
vt 0.000000 0.000000
vt 0.000000 0.000000
vt 0.000000 0.000000
vt 0.000000 0.000000
vt 0.000000 0.000000
vt 0.000000 0.000000
vt 0.000000 0.000000
vt 0.000000 0.000000
vt 0.000000 0.000000
vt 0.000000 0.000000
vt 0.000000 0.000000
vt 0.000000 0.000000
vt 0.000000 0.000000
vt 0.000000 0.000000
vt 0.000000 0.000000
vt 0.000000 0.000000
vt 0.000000 0.000000
vt 0.000000 0.000000
vt 0.000000 0.000000
vt 0.000000 0.000000
vt 0.000000 0.000000
vt 0.000000 0.000000
vt 0.000000 0.000000
vt 0.000000 0.000000
vt 0.000000 0.000000
vt 0.000000 0.000000
vt 0.000000 0.000000
vt 0.000000 0.000000
vt 0.000000 0.000000
vt 0.000000 0.000000
vt 0.000000 0.000000
vt 0.000000 0.000000
vt 0.000000 0.000000
vt 0.000000 0.000000
vt 0.000000 0.000000
vt 0.000000 0.000000
vt 0.000000 0.000000
vt 0.000000 0.000000
vt 0.000000 0.000000
vt 0.000000 0.000000
vt 0.000000 0.000000
vt 0.000000 0.000000
vt 0.000000 0.000000
vt 0.000000 0.000000
vt 0.000000 0.000000
vt 0.000000 0.000000
vt 0.000000 0.000000
vt 0.000000 0.000000
vt 0.000000 0.000000
vt 0.000000 0.000000
vt 0.000000 0.000000
vt 0.000000 0.000000
vt 0.000000 0.000000
vt 0.000000 0.000000
vt 0.000000 0.000000
vt 0.000000 0.000000
vt 0.000000 0.000000
vt 0.000000 0.000000
vt 0.000000 0.000000
vt 0.000000 0.000000
vt 0.000000 0.000000
vt 0.000000 0.000000
vt 0.000000 0.000000
vt 0.000000 0.000000
vt 0.000000 0.000000
vt 0.000000 0.000000
vt 0.000000 0.000000
vt 0.000000 0.000000
vt 0.000000 0.000000
vt 0.000000 0.000000
vt 0.000000 0.000000
vt 0.000000 0.000000
vt 0.000000 0.000000
vt 0.000000 0.000000
vt 0.000000 0.000000
vt 0.000000 0.000000
vt 0.000000 0.000000
vt 0.000000 0.000000
vt 0.000000 0.000000
vt 0.000000 0.000000
vt 0.000000 0.000000
vt 0.000000 0.000000
vt 0.000000 0.000000
vt 0.000000 0.000000
vt 0.000000 0.000000
vt 0.000000 0.000000
vt 0.000000 0.000000
vt 0.000000 0.000000
vt 0.000000 0.000000
vt 0.000000 0.000000
vt 0.000000 0.000000
vt 0.000000 0.000000
vt 0.000000 0.000000
vt 0.000000 0.000000
vt 0.000000 0.000000
vt 0.000000 0.000000
vt 0.000000 0.000000
vt 0.000000 0.000000
vt 0.000000 0.000000
vt 0.000000 0.000000
vt 0.000000 0.000000
vt 0.000000 0.000000
vt 0.000000 0.000000
vt 0.000000 0.000000
vt 0.000000 0.000000
vt 0.000000 0.000000
vt 0.000000 0.000000
vt 0.000000 0.000000
vt 0.000000 0.000000
vt 0.000000 0.000000
vt 0.000000 0.000000
vt 0.000000 0.000000
vt 0.000000 0.000000
vt 0.000000 0.000000
vt 0.000000 0.000000
vt 0.000000 0.000000
vt 0.000000 0.000000
vt 0.000000 0.000000
vt 0.000000 0.000000
vt 0.000000 0.000000
vt 0.000000 0.000000
vt 0.000000 0.000000
vt 0.000000 0.000000
vt 0.000000 0.000000
vt 0.000000 0.000000
vt 0.000000 0.000000
vt 0.000000 0.000000
vt 0.000000 0.000000
vt 0.000000 0.000000
vt 0.000000 0.000000
vt 0.000000 0.000000
vt 0.000000 0.000000
vt 0.000000 0.000000
vn 0.1023 -0.0169 -0.9946
vn -0.0737 0.0585 -0.9956
vn 0.0926 -0.0269 -0.9953
vn -0.0758 0.0539 -0.9957
vn -0.4161 0.1747 -0.8924
vn -0.7078 0.0612 -0.7038
vn -0.7136 0.0620 -0.6978
vn -0.8204 -0.3014 -0.4859
vn -0.8238 -0.2954 -0.4838
vn -0.5991 -0.7010 -0.3869
vn -0.6047 -0.6963 -0.3867
vn -0.2264 -0.8445 -0.4854
vn 0.0886 -0.7009 -0.7077
vn 0.0923 -0.6962 -0.7119
vn 0.2008 -0.5389 -0.8181
vn 0.8276 -0.0169 -0.5610
vn 0.6914 0.0858 -0.7174
vn 0.8220 -0.0269 -0.5689
vn 0.6880 0.0867 -0.7206
vn 0.4291 0.2353 -0.8721
vn 0.4040 0.2354 -0.8839
vn 0.1203 0.0909 -0.9886
vn 0.1128 0.0944 -0.9891
vn -0.1552 -0.3014 -0.9408
vn -0.1590 -0.2953 -0.9421
vn -0.0886 -0.7009 -0.7077
vn -0.0923 -0.6962 -0.7119
vn 0.2263 -0.8445 -0.4854
vn 0.5991 -0.7010 -0.3870
vn 0.6047 -0.6962 -0.3868
vn 0.7557 -0.5389 -0.3721
vn 0.5752 -0.0167 0.8178
vn 0.7089 0.0584 0.7029
vn 0.5830 -0.0268 0.8120
vn 0.7105 0.0538 0.7016
vn 0.8995 0.1746 0.4005
vn 0.9959 0.0612 0.0668
vn 0.9964 0.0620 0.0584
vn 0.9625 -0.2212 -0.1569
vn 0.9630 -0.2095 -0.1696
vn 0.7356 -0.6660 -0.1238
vn 0.7503 -0.6442 -0.1487
vn 0.4824 -0.8492 0.2148
vn 0.3923 -0.6598 0.6408
vn 0.4005 -0.6337 0.6618
vn 0.4356 -0.4133 0.7996
vn 0.4488 -0.4146 0.7916
vn -0.9927 -0.0168 -0.1197
vn -0.9967 0.0585 0.0563
vn -0.9936 -0.0268 -0.1100
vn -0.9968 0.0540 0.0584
vn -0.8995 0.1746 0.4005
vn -0.7161 0.0611 0.6953
vn -0.7102 0.0619 0.7013
vn -0.5273 -0.2212 0.8203
vn -0.5183 -0.2095 0.8292
vn -0.4002 -0.6660 0.6295
vn -0.3915 -0.6442 0.6571
vn -0.4824 -0.8493 0.2147
vn -0.4823 -0.8493 0.2147
vn -0.7387 -0.6599 -0.1373
vn -0.7598 -0.6337 -0.1452
vn -0.8857 -0.4133 -0.2112
vn -0.8886 -0.4146 -0.1961
vn 0.9927 -0.0168 0.1197
vn 0.9967 0.0585 -0.0563
vn 0.9936 -0.0268 0.1100
vn 0.9968 0.0540 -0.0584
vn 0.8995 0.1746 -0.4005
vn 0.7160 0.0612 -0.6954
vn 0.7101 0.0620 -0.7013
vn 0.5274 -0.2212 -0.8203
vn 0.5184 -0.2095 -0.8291
vn 0.4002 -0.6660 -0.6295
vn 0.3915 -0.6442 -0.6571
vn 0.4824 -0.8492 -0.2148
vn 0.7388 -0.6598 0.1373
vn 0.7598 -0.6337 0.1452
vn 0.8858 -0.4133 0.2113
vn 0.8886 -0.4146 0.1961
vn -0.5753 -0.0168 -0.8178
vn -0.7088 0.0584 -0.7030
vn -0.5831 -0.0268 -0.8120
vn -0.7105 0.0539 -0.7017
vn -0.8995 0.1746 -0.4005
vn -0.9959 0.0612 -0.0667
vn -0.9964 0.0620 -0.0584
vn -0.9625 -0.2212 0.1569
vn -0.9630 -0.2095 0.1695
vn -0.7356 -0.6660 0.1238
vn -0.7503 -0.6442 0.1487
vn -0.4824 -0.8492 -0.2148
vn -0.3923 -0.6599 -0.6408
vn -0.4005 -0.6337 -0.6618
vn -0.4357 -0.4133 -0.7996
vn -0.4489 -0.4146 -0.7916
vn -0.1023 -0.0167 0.9946
vn 0.0731 0.0574 0.9957
vn -0.0928 -0.0265 0.9953
vn 0.0768 0.0543 0.9956
vn 0.4163 0.1730 0.8926
vn 0.7082 0.0601 0.7034
vn 0.7129 0.0621 0.6985
vn 0.8259 -0.2627 0.4989
vn 0.8322 -0.2505 0.4947
vn 0.6213 -0.6798 0.3897
vn 0.6359 -0.6687 0.3854
vn 0.2264 -0.8445 0.4854
vn -0.1076 -0.6765 0.7285
vn -0.1117 -0.6640 0.7393
vn -0.1993 -0.4759 0.8566
vn -0.1921 -0.4769 0.8577
vn -0.8276 -0.0169 0.5610
vn -0.7152 0.0584 0.6964
vn -0.8220 -0.0269 0.5689
vn -0.7146 0.0631 0.6967
vn -0.4232 0.2319 0.8759
vn -0.3900 0.2303 0.8915
vn -0.0863 0.0659 0.9941
vn -0.0801 0.0655 0.9946
vn 0.1553 -0.3014 0.9408
vn 0.1591 -0.2953 0.9421
vn 0.0887 -0.7010 0.7076
vn 0.0924 -0.6963 0.7118
vn -0.2264 -0.8445 0.4854
vn -0.2263 -0.8445 0.4854
vn -0.5991 -0.7010 0.3869
vn -0.6047 -0.6963 0.3867
vn -0.7557 -0.5389 0.3721
usemtl ship_grey
s 1
f 1/1/1 2/2/2 3/3/3
f 3/3/3 2/2/2 4/4/4
f 2/2/2 5/5/5 4/4/4
f 4/4/4 5/5/5 6/6/5
f 5/5/5 7/7/6 6/6/5
f 6/6/5 7/7/6 8/8/7
f 7/7/6 9/9/8 8/8/7
f 8/8/7 9/9/8 10/10/9
f 9/9/8 11/11/10 10/10/9
f 10/10/9 11/11/10 12/12/11
f 11/11/10 13/13/12 12/12/11
f 12/12/11 13/13/12 14/14/12
f 13/13/12 15/15/13 14/14/12
f 14/14/12 15/15/13 16/16/14
f 15/15/13 17/17/15 16/16/14
f 16/16/14 17/17/15 18/18/15
f 19/19/16 20/20/17 21/21/18
f 21/21/18 20/20/17 22/22/19
f 20/20/17 23/23/20 22/22/19
f 22/22/19 23/23/20 24/24/21
f 23/23/20 25/25/22 24/24/21
f 24/24/21 25/25/22 26/26/23
f 25/25/22 27/27/24 26/26/23
f 26/26/23 27/27/24 28/28/25
f 27/27/24 29/29/26 28/28/25
f 28/28/25 29/29/26 30/30/27
f 29/29/26 31/31/28 30/30/27
f 30/30/27 31/31/28 32/32/28
f 31/31/28 33/33/29 32/32/28
f 32/32/28 33/33/29 34/34/30
f 33/33/29 35/35/31 34/34/30
f 34/34/30 35/35/31 36/36/31
f 37/37/32 38/38/33 39/39/34
f 39/39/34 38/38/33 40/40/35
f 38/38/33 41/41/36 40/40/35
f 40/40/35 41/41/36 42/42/36
f 41/41/36 43/43/37 42/42/36
f 42/42/36 43/43/37 44/44/38
f 43/43/37 45/45/39 44/44/38
f 44/44/38 45/45/39 46/46/40
f 45/45/39 47/47/41 46/46/40
f 46/46/40 47/47/41 48/48/42
f 47/47/41 49/49/43 48/48/42
f 48/48/42 49/49/43 50/50/43
f 49/49/43 51/51/44 50/50/43
f 50/50/43 51/51/44 52/52/45
f 51/51/44 53/53/46 52/52/45
f 52/52/45 53/53/46 54/54/47
f 55/55/48 56/56/49 57/57/50
f 57/57/50 56/56/49 58/58/51
f 56/56/49 59/59/52 58/58/51
f 58/58/51 59/59/52 60/60/52
f 59/59/52 61/61/53 60/60/52
f 60/60/52 61/61/53 62/62/54
f 61/61/53 63/63/55 62/62/54
f 62/62/54 63/63/55 64/64/56
f 63/63/55 65/65/57 64/64/56
f 64/64/56 65/65/57 66/66/58
f 65/65/57 67/67/59 66/66/58
f 66/66/58 67/67/59 68/68/60
f 67/67/59 69/69/61 68/68/60
f 68/68/60 69/69/61 70/70/62
f 69/69/61 71/71/63 70/70/62
f 70/70/62 71/71/63 72/72/64
f 73/73/65 74/74/66 75/75/67
f 75/75/67 74/74/66 76/76/68
f 74/74/66 77/77/69 76/76/68
f 76/76/68 77/77/69 78/78/69
f 77/77/69 79/79/70 78/78/69
f 78/78/69 79/79/70 80/80/71
f 79/79/70 81/81/72 80/80/71
f 80/80/71 81/81/72 82/82/73
f 81/81/72 83/83/74 82/82/73
f 82/82/73 83/83/74 84/84/75
f 83/83/74 85/85/76 84/84/75
f 84/84/75 85/85/76 86/86/76
f 85/85/76 87/87/77 86/86/76
f 86/86/76 87/87/77 88/88/78
f 87/87/77 89/89/79 88/88/78
f 88/88/78 89/89/79 90/90/80
f 91/91/81 92/92/82 93/93/83
f 93/93/83 92/92/82 94/94/84
f 92/92/82 95/95/85 94/94/84
f 94/94/84 95/95/85 96/96/85
f 95/95/85 97/97/86 96/96/85
f 96/96/85 97/97/86 98/98/87
f 97/97/86 99/99/88 98/98/87
f 98/98/87 99/99/88 100/100/89
f 99/99/88 101/101/90 100/100/89
f 100/100/89 101/101/90 102/102/91
f 101/101/90 103/103/92 102/102/91
f 102/102/91 103/103/92 104/104/92
f 103/103/92 105/105/93 104/104/92
f 104/104/92 105/105/93 106/106/94
f 105/105/93 107/107/95 106/106/94
f 106/106/94 107/107/95 108/108/96
f 109/109/97 110/110/98 111/111/99
f 111/111/99 110/110/98 112/112/100
f 110/110/98 113/113/101 112/112/100
f 112/112/100 113/113/101 114/114/101
f 113/113/101 115/115/102 114/114/101
f 114/114/101 115/115/102 116/116/103
f 115/115/102 117/117/104 116/116/103
f 116/116/103 117/117/104 118/118/105
f 117/117/104 119/119/106 118/118/105
f 118/118/105 119/119/106 120/120/107
f 119/119/106 121/121/108 120/120/107
f 120/120/107 121/121/108 122/122/108
f 121/121/108 123/123/109 122/122/108
f 122/122/108 123/123/109 124/124/110
f 123/123/109 125/125/111 124/124/110
f 124/124/110 125/125/111 126/126/112
f 127/127/113 128/128/114 129/129/115
f 129/129/115 128/128/114 130/130/116
f 128/128/114 131/131/117 130/130/116
f 130/130/116 131/131/117 132/132/118
f 131/131/117 133/133/119 132/132/118
f 132/132/118 133/133/119 134/134/120
f 133/133/119 135/135/121 134/134/120
f 134/134/120 135/135/121 136/136/122
f 135/135/121 137/137/123 136/136/122
f 136/136/122 137/137/123 138/138/124
f 137/137/123 139/139/125 138/138/124
f 138/138/124 139/139/125 140/140/126
f 139/139/125 141/141/127 140/140/126
f 140/140/126 141/141/127 142/142/128
f 141/141/127 143/143/129 142/142/128
f 142/142/128 143/143/129 144/144/129
