# Blender v2.83.0 OBJ File: ''
# www.blender.org
mtllib S.S._Dolphin_Bowsprit_11.mtl
o S.S._Dolphin_Bowsprit_11
v 0.000170 0.286318 -0.002197
v 1.666401 -0.214492 1.433568
v 2.064461 -0.214492 0.737282
v -2.064460 -0.214492 0.737282
v -1.666400 -0.214492 1.433565
v -0.000125 0.286318 -0.002118
v -0.000125 0.286318 -0.002118
v -2.044840 -0.071822 0.723072
v -2.064460 -0.214492 0.737282
v -0.000046 0.286318 -0.002413
v -0.394279 -0.071822 -2.125783
v 0.394279 -0.071822 -2.125783
v -0.000125 0.286318 -0.002118
v -1.650560 -0.071822 1.405987
v -2.044840 -0.071822 0.723072
v -0.398059 -0.214491 -2.167393
v -0.394279 -0.071822 -2.125783
v -0.000046 0.286318 -0.002413
v -0.000046 0.286318 -0.002413
v 0.394279 -0.071822 -2.125783
v 0.398063 -0.214491 -2.167393
v 0.000170 0.286318 -0.002197
v 2.044841 -0.071822 0.723072
v 1.650560 -0.071822 1.405987
v -1.650560 -0.071822 1.405987
v -0.000125 0.286318 -0.002118
v -1.666400 -0.214492 1.433565
v -0.000046 0.286318 -0.002413
v 0.398063 -0.214491 -2.167393
v -0.398059 -0.214491 -2.167393
v 2.064461 -0.214492 0.737282
v 2.044841 -0.071822 0.723072
v 0.000170 0.286318 -0.002197
v 0.000170 0.286318 -0.002197
v 1.650560 -0.071822 1.405987
v 1.666401 -0.214492 1.433568
vt 0.000000 -0.125000
vt 0.000000 -0.125000
vt 0.000000 -0.125000
vt 0.000000 -0.125000
vt 0.000000 -0.125000
vt 0.000000 -0.125000
vt 0.000000 -0.125000
vt 0.000000 -0.125000
vt 0.000000 -0.125000
vt 0.000000 -0.125000
vt 0.000000 -0.125000
vt 0.000000 -0.125000
vt 0.000000 -0.125000
vt 0.000000 -0.125000
vt 0.000000 -0.125000
vt 0.000000 -0.125000
vt 0.000000 -0.125000
vt 0.000000 -0.125000
vt 0.000000 -0.125000
vt 0.000000 -0.125000
vt 0.000000 -0.125000
vt 0.000000 -0.125000
vt 0.000000 -0.125000
vt 0.000000 -0.125000
vt 0.000000 -0.125000
vt 0.000000 -0.125000
vt 0.000000 -0.125000
vt 0.000000 -0.125000
vt 0.000000 -0.125000
vt 0.000000 -0.125000
vt 0.000000 -0.125000
vt 0.000000 -0.125000
vt 0.000000 -0.125000
vt 0.000000 -0.125000
vt 0.000000 -0.125000
vt 0.000000 -0.125000
vn 0.1962 0.9741 0.1121
vn -0.1962 0.9741 0.1121
vn 0.3262 0.0492 0.9440
vn 0.0000 -0.9861 0.1663
vn 0.1434 -0.9862 -0.0828
vn 0.9819 0.0286 -0.1871
vn -0.9819 0.0285 -0.1872
vn -0.1434 -0.9862 -0.0828
vn -0.6373 -0.0774 -0.7667
vn 0.0000 0.9743 -0.2254
vn -0.3262 0.0492 0.9440
vn 0.6374 -0.0775 -0.7667
usemtl ship_pink
s 1
f 1/1/1 2/2/1 3/3/1
f 4/4/2 5/5/2 6/6/2
f 7/7/3 8/8/3 9/9/3
f 10/10/4 11/11/4 12/12/4
f 13/13/5 14/14/5 15/15/5
f 16/16/6 17/17/6 18/18/6
f 19/19/7 20/20/7 21/21/7
f 22/22/8 23/23/8 24/24/8
f 25/25/9 26/26/9 27/27/9
f 28/28/10 29/29/10 30/30/10
f 31/31/11 32/32/11 33/33/11
f 34/34/12 35/35/12 36/36/12
