# Blender v2.83.0 OBJ File: ''
# www.blender.org
mtllib S.S._Dolphin_Geiger_Counter.mtl
o S.S._Dolphin_Geiger_Counter
v -0.152703 -0.235641 -0.031611
v -0.334164 0.473969 0.055519
v -0.472576 0.358513 0.041342
v 0.055885 -0.180167 -0.024801
v 0.334152 0.473969 0.055519
v 0.172967 0.535065 0.063020
v -0.055897 -0.180167 -0.024801
v -0.000006 0.555904 0.065579
v -0.172979 0.535065 0.063020
v 0.152691 -0.235641 -0.031611
v 0.590347 0.155220 0.016381
v 0.472564 0.358513 0.041342
v -0.208594 -0.331725 -0.043409
v -0.590359 0.155220 0.016381
v -0.635383 0.001102 -0.002543
v 0.208582 -0.331725 -0.043409
v 0.652565 -0.192240 -0.026283
v 0.635372 0.001102 -0.002543
v -0.334134 0.473969 0.055519
v -0.055867 -0.180167 -0.024801
v -0.172949 0.535065 0.063020
v 0.334182 0.473969 0.055519
v 0.152721 -0.235641 -0.031611
v 0.472594 0.358513 0.041342
v 0.000024 0.555904 0.065579
v 0.055915 -0.180167 -0.024801
v 0.172997 0.535065 0.063020
v 0.590377 0.155220 0.016381
v 0.208612 -0.331725 -0.043409
v 0.635402 0.001102 -0.002543
v -0.590329 0.155220 0.016381
v -0.152673 -0.235641 -0.031611
v -0.472546 0.358513 0.041342
v -0.652546 -0.192240 -0.026283
v -0.208564 -0.331725 -0.043409
v -0.635353 0.001102 -0.002543
v -0.055894 -0.180199 -0.024704
v -0.334162 0.473936 0.055613
v -0.152700 -0.235674 -0.031517
v -0.208591 -0.331757 -0.043315
v -0.652574 -0.192273 -0.026187
v -0.215949 -0.387232 -0.050125
v -0.590357 0.155186 0.016476
v -0.208591 -0.331757 -0.043315
v -0.152700 -0.235674 -0.031517
v 0.208585 -0.331757 -0.043315
v 0.590350 0.155186 0.016476
v 0.152694 -0.235674 -0.031517
v 0.055887 -0.180199 -0.024704
v -0.000003 0.555870 0.065673
v -0.055894 -0.180199 -0.024704
v 0.652568 -0.192273 -0.026187
v 0.208585 -0.331757 -0.043315
v 0.215943 -0.387232 -0.050125
v 0.152694 -0.235674 -0.031517
v 0.334155 0.473936 0.055613
v 0.055887 -0.180199 -0.024704
v -0.652573 -0.192276 -0.026434
v -0.635380 0.001067 -0.002694
v -0.652574 -0.199737 0.034342
v -0.635380 -0.006396 0.058081
v -0.590356 0.155184 0.016229
v -0.590357 0.147723 0.077005
v -0.472573 0.358477 0.041191
v -0.472574 0.351015 0.101965
v -0.334161 0.473933 0.055367
v -0.334161 0.466472 0.116143
v -0.172976 0.535030 0.062869
v -0.172976 0.527568 0.123643
v -0.000003 0.555868 0.065427
v -0.000003 0.548407 0.126202
v 0.172970 0.535030 0.062869
v 0.172970 0.527568 0.123643
v 0.334155 0.473933 0.055367
v 0.334155 0.466472 0.116143
v 0.472567 0.358477 0.041191
v 0.472568 0.351015 0.101965
v 0.590350 0.155184 0.016229
v 0.590351 0.147723 0.077005
v 0.635375 0.001067 -0.002694
v 0.635375 -0.006396 0.058081
v 0.652568 -0.192276 -0.026434
v 0.652568 -0.199737 0.034342
v -0.215949 -0.394697 0.010404
v -0.208591 -0.339222 0.017214
v -0.215949 -0.387235 -0.050372
v -0.208591 -0.331760 -0.043561
v -0.152700 -0.243139 0.029013
v -0.152700 -0.235677 -0.031764
v -0.055894 -0.187664 0.035824
v -0.055894 -0.180202 -0.024951
v 0.055888 -0.187664 0.035824
v 0.055888 -0.180202 -0.024951
v 0.152694 -0.243139 0.029013
v 0.152694 -0.235677 -0.031764
v 0.208585 -0.339222 0.017214
v 0.208585 -0.331760 -0.043561
v 0.215943 -0.394697 0.010404
v 0.215943 -0.387235 -0.050372
v -0.000003 -0.800662 -0.039444
v 0.371517 -0.701856 -0.027310
v 0.205131 -0.818104 -0.082250
v 0.396285 -0.739517 -0.072600
v 0.420055 -0.767245 -0.184603
v 0.594049 -0.634731 -0.168331
v 0.217435 -0.850547 -0.194830
v -0.000003 -0.844910 -0.085543
v -0.205137 -0.818104 -0.082250
v -0.371523 -0.701856 -0.027310
v -0.396291 -0.739517 -0.072600
v -0.560439 -0.614500 -0.057252
v -0.420061 -0.767245 -0.184603
v -0.594055 -0.634731 -0.168331
v 0.727559 0.371817 -0.044741
v 0.765567 0.145360 0.036049
v 0.811488 0.170708 -0.069435
v 0.792573 -0.058244 0.011049
v 0.743037 -0.063164 0.051111
v 0.765566 -0.261849 -0.013950
v 0.643488 -0.431912 0.005835
v 0.686387 -0.451577 -0.037246
v 0.560433 -0.614500 -0.057252
v 0.727559 -0.462035 -0.147127
v 0.643489 0.305586 0.096387
v 0.686388 0.335088 0.059345
v 0.594049 0.544513 -0.023536
v 0.371517 0.575529 0.129532
v 0.560433 0.498012 0.079350
v 0.396285 0.623027 0.094699
v 0.420055 0.677028 -0.007265
v 0.217435 0.760331 0.002963
v -0.643494 -0.431913 0.005834
v -0.743043 -0.063164 0.051111
v -0.765572 -0.261849 -0.013950
v -0.792579 -0.058244 0.011049
v -0.765572 0.145360 0.036049
v -0.840120 -0.045109 -0.095933
v -0.811493 0.170708 -0.069435
v -0.000003 0.674335 0.141664
v -0.686394 -0.451577 -0.037246
v -0.727565 -0.462035 -0.147127
v -0.811493 -0.260925 -0.122433
v 0.811487 -0.260925 -0.122433
v 0.840114 -0.045109 -0.095933
v -0.371523 0.575529 0.129532
v -0.205137 0.701616 0.104350
v -0.000003 0.728422 0.107641
v -0.217441 0.760331 0.002963
v -0.000003 0.788743 0.006451
v -0.643495 0.305586 0.096387
v -0.686394 0.335088 0.059345
v -0.560439 0.498012 0.079350
v -0.727565 0.371817 -0.044741
v -0.594055 0.544513 -0.023536
v -0.396291 0.623027 0.094699
v -0.420061 0.677028 -0.007265
v 0.205131 0.701616 0.104350
v -0.000003 -0.878960 -0.198319
v -0.217441 -0.850547 -0.194830
vt 0.000000 1.000000
vt 0.000000 1.000000
vt 0.000000 1.000000
vt 0.000000 1.000000
vt 0.000000 1.000000
vt 0.000000 1.000000
vt 0.000000 1.000000
vt 0.000000 1.000000
vt 0.000000 1.000000
vt 0.000000 1.000000
vt 0.000000 1.000000
vt 0.000000 1.000000
vt 0.000000 1.000000
vt 0.000000 1.000000
vt 0.000000 1.000000
vt 0.000000 1.000000
vt 0.000000 1.000000
vt 0.000000 1.000000
vt 0.000000 1.000000
vt 0.000000 1.000000
vt 0.000000 1.000000
vt 0.000000 1.000000
vt 0.000000 1.000000
vt 0.000000 1.000000
vt 0.000000 1.000000
vt 0.000000 1.000000
vt 0.000000 1.000000
vt 0.000000 1.000000
vt 0.000000 1.000000
vt 0.000000 1.000000
vt 0.000000 1.000000
vt 0.000000 1.000000
vt 0.000000 1.000000
vt 0.000000 1.000000
vt 0.000000 1.000000
vt 0.000000 1.000000
vt 0.000000 1.000000
vt 0.000000 1.000000
vt 0.000000 1.000000
vt 0.000000 1.000000
vt 0.000000 1.000000
vt 0.000000 1.000000
vt 0.000000 1.000000
vt 0.000000 1.000000
vt 0.000000 1.000000
vt 0.000000 1.000000
vt 0.000000 1.000000
vt 0.000000 1.000000
vt 0.000000 1.000000
vt 0.000000 1.000000
vt 0.000000 1.000000
vt 0.000000 1.000000
vt 0.000000 1.000000
vt 0.000000 1.000000
vt 0.000000 1.000000
vt 0.000000 1.000000
vt 0.000000 1.000000
vt 0.000000 1.000000
vt 0.000000 1.000000
vt 0.000000 1.000000
vt 0.000000 1.000000
vt 0.000000 1.000000
vt 0.000000 1.000000
vt 0.000000 1.000000
vt 0.000000 1.000000
vt 0.000000 1.000000
vt 0.000000 1.000000
vt 0.000000 1.000000
vt 0.000000 1.000000
vt 0.000000 1.000000
vt 0.000000 1.000000
vt 0.000000 1.000000
vt 0.000000 1.000000
vt 0.000000 1.000000
vt 0.000000 1.000000
vt 0.000000 1.000000
vt 0.000000 1.000000
vt 0.000000 1.000000
vt 0.000000 1.000000
vt 0.000000 1.000000
vt 0.000000 1.000000
vt 0.000000 1.000000
vt 0.000000 1.000000
vt 0.000000 1.000000
vt 0.000000 1.000000
vt 0.000000 1.000000
vt 0.000000 1.000000
vt 0.000000 1.000000
vt 0.000000 1.000000
vt 0.000000 1.000000
vt 0.000000 1.000000
vt 0.000000 1.000000
vt 0.000000 1.000000
vt 0.000000 1.000000
vt 0.000000 1.000000
vt 0.000000 1.000000
vt 0.000000 1.000000
vt 0.000000 1.000000
vt 0.000000 1.000000
vt 0.000000 1.000000
vt 0.000000 1.000000
vt 0.000000 1.000000
vt 0.000000 1.000000
vt 0.000000 1.000000
vt 0.000000 1.000000
vt 0.000000 1.000000
vt 0.000000 1.000000
vt 0.000000 1.000000
vt 0.000000 1.000000
vt 0.000000 1.000000
vt 0.000000 1.000000
vt 0.000000 1.000000
vt 0.000000 1.000000
vt 0.000000 1.000000
vt 0.000000 1.000000
vt 0.000000 1.000000
vt 0.000000 1.000000
vt 0.000000 1.000000
vt 0.000000 1.000000
vt 0.000000 1.000000
vt 0.000000 1.000000
vt 0.000000 1.000000
vt 0.000000 1.000000
vt 0.000000 1.000000
vt 0.000000 1.000000
vt 0.000000 1.000000
vt 0.000000 1.000000
vt 0.000000 1.000000
vt 0.000000 1.000000
vt 0.000000 1.000000
vt 0.000000 1.000000
vt 0.000000 1.000000
vt 0.000000 1.000000
vt 0.000000 1.000000
vt 0.000000 1.000000
vt 0.000000 1.000000
vt 0.000000 1.000000
vt 0.000000 1.000000
vt 0.000000 1.000000
vt 0.000000 1.000000
vt 0.000000 1.000000
vt 0.000000 1.000000
vt 0.000000 1.000000
vt 0.000000 1.000000
vt 0.000000 1.000000
vt 0.000000 1.000000
vt 0.000000 1.000000
vt 0.000000 1.000000
vt 0.000000 1.000000
vt 0.000000 1.000000
vt 0.000000 1.000000
vt 0.000000 1.000000
vt 0.000000 1.000000
vt 0.000000 1.000000
vt 0.000000 1.000000
vt 0.000000 1.000000
vt 0.000000 1.000000
vt 0.000000 1.000000
vt 0.000000 1.000000
vn -0.0000 -0.1219 0.9925
vn 0.8628 0.5018 0.0616
vn 0.9829 -0.1827 -0.0224
vn 0.4356 0.1481 0.8879
vn 0.6722 -0.2139 0.7088
vn 0.9203 -0.3884 -0.0477
vn 0.6240 -0.3529 0.6972
vn 0.7668 -0.6371 -0.0782
vn 0.5085 -0.5137 0.6910
vn 0.5071 -0.8554 -0.1050
vn 0.3374 -0.6602 0.6711
vn 0.2404 -0.9634 -0.1183
vn 0.1629 -0.7423 0.6499
vn 0.0000 -0.9925 -0.1218
vn 0.0000 -0.7623 0.6472
vn -0.2404 -0.9634 -0.1183
vn -0.1629 -0.7423 0.6499
vn -0.5071 -0.8554 -0.1050
vn -0.3374 -0.6602 0.6711
vn -0.7668 -0.6371 -0.0782
vn -0.5085 -0.5137 0.6910
vn -0.9203 -0.3884 -0.0477
vn -0.6240 -0.3529 0.6972
vn -0.9829 -0.1827 -0.0224
vn -0.6722 -0.2139 0.7088
vn -0.8628 0.5018 0.0616
vn -0.4356 0.1481 0.8879
vn -0.1708 0.1900 0.9668
vn -0.7066 0.1569 0.6900
vn -0.4869 0.8669 0.1064
vn -0.9469 0.3190 0.0392
vn -0.5354 0.4518 0.7136
vn -0.7071 0.7018 0.0862
vn -0.1960 0.6463 0.7375
vn -0.2588 0.9587 0.1177
vn 0.1960 0.6463 0.7375
vn 0.2588 0.9587 0.1177
vn 0.5354 0.4518 0.7136
vn 0.7071 0.7018 0.0862
vn 0.7066 0.1569 0.6900
vn 0.9469 0.3190 0.0392
vn 0.1708 0.1900 0.9668
vn 0.4869 0.8669 0.1064
vn -0.0000 -0.4701 0.8826
vn 0.1795 -0.4223 0.8885
vn 0.1963 -0.8066 0.5575
vn 0.4011 -0.7624 0.5078
vn 0.4575 -0.8357 0.3040
vn 0.6470 -0.6913 0.3217
vn 0.2368 -0.9264 0.2928
vn -0.0000 -0.8690 0.4948
vn -0.1963 -0.8066 0.5575
vn -0.1795 -0.4223 0.8885
vn -0.4011 -0.7624 0.5078
vn -0.5363 -0.6118 0.5814
vn -0.4575 -0.8357 0.3040
vn -0.6470 -0.6913 0.3217
vn 0.7924 0.4049 0.4563
vn 0.7327 0.1154 0.6707
vn 0.8838 0.1859 0.4294
vn 0.8023 -0.0728 0.5925
vn 0.3590 -0.1137 0.9264
vn 0.7327 -0.2743 0.6229
vn 0.3109 -0.2919 0.9045
vn 0.6948 -0.4709 0.5436
vn 0.5363 -0.6118 0.5814
vn 0.7924 -0.5033 0.3448
vn 0.3109 0.0644 0.9483
vn 0.6948 0.3254 0.6414
vn 0.6470 0.5930 0.4794
vn 0.1795 0.1949 0.9643
vn 0.5363 0.4529 0.7122
vn 0.4011 0.6168 0.6772
vn 0.4575 0.7373 0.4971
vn 0.2368 0.8280 0.5083
vn -0.3109 -0.2919 0.9045
vn -0.3590 -0.1137 0.9264
vn -0.7327 -0.2743 0.6229
vn -0.8023 -0.0728 0.5925
vn -0.7327 0.1154 0.6707
vn -0.9150 -0.0492 0.4005
vn -0.8838 0.1859 0.4294
vn 0.0000 0.2426 0.9701
vn -0.6948 -0.4709 0.5436
vn -0.7924 -0.5032 0.3448
vn -0.8838 -0.2842 0.3717
vn 0.8838 -0.2842 0.3717
vn 0.9150 -0.0492 0.4005
vn -0.1795 0.1949 0.9643
vn -0.1963 0.6478 0.7361
vn 0.0000 0.7235 0.6903
vn -0.2368 0.8280 0.5083
vn 0.0000 0.8590 0.5120
vn -0.3109 0.0644 0.9483
vn -0.6948 0.3254 0.6414
vn -0.5363 0.4529 0.7122
vn -0.7924 0.4049 0.4563
vn -0.6470 0.5930 0.4794
vn -0.4011 0.6168 0.6772
vn -0.4575 0.7373 0.4971
vn 0.1963 0.6478 0.7361
vn -0.0000 -0.9573 0.2890
vn -0.2368 -0.9264 0.2928
usemtl ship_meter_o
s 1
f 1/1/1 2/2/1 3/3/1
f 4/4/1 5/5/1 6/6/1
f 7/7/1 8/8/1 9/9/1
f 10/10/1 11/11/1 12/12/1
f 13/13/1 14/14/1 15/15/1
f 16/16/1 17/17/1 18/18/1
usemtl ship_meter_y
f 19/19/1 20/20/1 21/21/1
f 22/22/1 23/23/1 24/24/1
f 25/25/1 26/26/1 27/27/1
f 28/28/1 29/29/1 30/30/1
f 31/31/1 32/32/1 33/33/1
f 34/34/1 35/35/1 36/36/1
usemtl ship_meter_g
f 37/37/1 38/38/1 39/39/1
f 40/40/1 41/41/1 42/42/1
f 43/43/1 44/44/1 45/45/1
f 46/46/1 47/47/1 48/48/1
f 49/49/1 50/50/1 51/51/1
f 52/52/1 53/53/1 54/54/1
f 55/55/1 56/56/1 57/57/1
usemtl ship_grey
f 58/58/2 59/59/3 60/60/4
f 60/60/4 59/59/3 61/61/5
f 59/59/3 62/62/6 61/61/5
f 61/61/5 62/62/6 63/63/7
f 62/62/6 64/64/8 63/63/7
f 63/63/7 64/64/8 65/65/9
f 64/64/8 66/66/10 65/65/9
f 65/65/9 66/66/10 67/67/11
f 66/66/10 68/68/12 67/67/11
f 67/67/11 68/68/12 69/69/13
f 68/68/12 70/70/14 69/69/13
f 69/69/13 70/70/14 71/71/15
f 70/70/14 72/72/16 71/71/15
f 71/71/15 72/72/16 73/73/17
f 72/72/16 74/74/18 73/73/17
f 73/73/17 74/74/18 75/75/19
f 74/74/18 76/76/20 75/75/19
f 75/75/19 76/76/20 77/77/21
f 76/76/20 78/78/22 77/77/21
f 77/77/21 78/78/22 79/79/23
f 78/78/22 80/80/24 79/79/23
f 79/79/23 80/80/24 81/81/25
f 80/80/24 82/82/26 81/81/25
f 81/81/25 82/82/26 83/83/27
f 84/84/28 85/85/29 86/86/30
f 86/86/30 85/85/29 87/87/31
f 85/85/29 88/88/32 87/87/31
f 87/87/31 88/88/32 89/89/33
f 88/88/32 90/90/34 89/89/33
f 89/89/33 90/90/34 91/91/35
f 90/90/34 92/92/36 91/91/35
f 91/91/35 92/92/36 93/93/37
f 92/92/36 94/94/38 93/93/37
f 93/93/37 94/94/38 95/95/39
f 94/94/38 96/96/40 95/95/39
f 95/95/39 96/96/40 97/97/41
f 96/96/40 98/98/42 97/97/41
f 97/97/41 98/98/42 99/99/43
f 90/90/34 88/88/32 92/92/36
f 92/92/36 88/88/32 94/94/38
f 88/88/32 85/85/29 94/94/38
f 94/94/38 85/85/29 96/96/40
f 85/85/29 84/84/28 96/96/40
f 96/96/40 84/84/28 98/98/42
f 84/84/28 100/100/44 98/98/42
f 98/98/42 100/100/44 101/101/45
f 100/100/44 102/102/46 101/101/45
f 101/101/45 102/102/46 103/103/47
f 102/102/46 104/104/48 103/103/47
f 103/103/47 104/104/48 105/105/49
f 104/104/48 102/102/46 106/106/50
f 106/106/50 102/102/46 107/107/51
f 102/102/46 100/100/44 107/107/51
f 107/107/51 100/100/44 108/108/52
f 100/100/44 109/109/53 108/108/52
f 108/108/52 109/109/53 110/110/54
f 109/109/53 111/111/55 110/110/54
f 110/110/54 111/111/55 112/112/56
f 111/111/55 113/113/57 112/112/56
f 114/114/58 115/115/59 116/116/60
f 116/116/60 115/115/59 117/117/61
f 115/115/59 118/118/62 117/117/61
f 117/117/61 118/118/62 119/119/63
f 118/118/62 120/120/64 119/119/63
f 119/119/63 120/120/64 121/121/65
f 120/120/64 122/122/66 121/121/65
f 121/121/65 122/122/66 123/123/67
f 122/122/66 105/105/49 123/123/67
f 81/81/25 118/118/62 79/79/23
f 79/79/23 118/118/62 124/124/68
f 118/118/62 115/115/59 124/124/68
f 124/124/68 115/115/59 125/125/69
f 115/115/59 114/114/58 125/125/69
f 125/125/69 114/114/58 126/126/70
f 79/79/23 124/124/68 77/77/21
f 77/77/21 124/124/68 127/127/71
f 124/124/68 128/128/72 127/127/71
f 127/127/71 128/128/72 129/129/73
f 128/128/72 130/130/74 129/129/73
f 129/129/73 130/130/74 131/131/75
f 100/100/44 84/84/28 109/109/53
f 109/109/53 84/84/28 132/132/76
f 84/84/28 60/60/4 132/132/76
f 132/132/76 60/60/4 133/133/77
f 60/60/4 61/61/5 133/133/77
f 133/133/77 61/61/5 63/63/7
f 132/132/76 133/133/77 134/134/78
f 134/134/78 133/133/77 135/135/79
f 133/133/77 136/136/80 135/135/79
f 135/135/79 136/136/80 137/137/81
f 136/136/80 138/138/82 137/137/81
f 77/77/21 127/127/71 75/75/19
f 75/75/19 127/127/71 73/73/17
f 127/127/71 139/139/83 73/73/17
f 73/73/17 139/139/83 71/71/15
f 139/139/83 69/69/13 71/71/15
f 109/109/53 132/132/76 111/111/55
f 111/111/55 132/132/76 140/140/84
f 132/132/76 134/134/78 140/140/84
f 140/140/84 134/134/78 141/141/85
f 134/134/78 142/142/86 141/141/85
f 123/123/67 143/143/87 121/121/65
f 121/121/65 143/143/87 119/119/63
f 143/143/87 144/144/88 119/119/63
f 119/119/63 144/144/88 117/117/61
f 144/144/88 116/116/60 117/117/61
f 69/69/13 139/139/83 145/145/89
f 145/145/89 139/139/83 146/146/90
f 139/139/83 147/147/91 146/146/90
f 146/146/90 147/147/91 148/148/92
f 147/147/91 149/149/93 148/148/92
f 69/69/13 145/145/89 67/67/11
f 67/67/11 145/145/89 65/65/9
f 145/145/89 150/150/94 65/65/9
f 65/65/9 150/150/94 63/63/7
f 150/150/94 133/133/77 63/63/7
f 133/133/77 150/150/94 136/136/80
f 136/136/80 150/150/94 151/151/95
f 150/150/94 152/152/96 151/151/95
f 151/151/95 152/152/96 153/153/97
f 152/152/96 154/154/98 153/153/97
f 150/150/94 145/145/89 152/152/96
f 152/152/96 145/145/89 155/155/99
f 145/145/89 146/146/90 155/155/99
f 155/155/99 146/146/90 156/156/100
f 146/146/90 148/148/92 156/156/100
f 81/81/25 83/83/27 118/118/62
f 118/118/62 83/83/27 120/120/64
f 83/83/27 98/98/42 120/120/64
f 120/120/64 98/98/42 101/101/45
f 127/127/71 157/157/101 139/139/83
f 139/139/83 157/157/101 147/147/91
f 157/157/101 149/149/93 147/147/91
f 158/158/102 108/108/52 159/159/103
f 159/159/103 108/108/52 110/110/54
f 120/120/64 101/101/45 122/122/66
f 122/122/66 101/101/45 103/103/47
f 141/141/85 113/113/57 140/140/84
f 140/140/84 113/113/57 111/111/55
f 99/99/43 98/98/42 82/82/26
f 82/82/26 98/98/42 83/83/27
f 60/60/4 84/84/28 58/58/2
f 58/58/2 84/84/28 86/86/30
f 124/124/68 125/125/69 128/128/72
f 128/128/72 125/125/69 126/126/70
f 137/137/81 142/142/86 135/135/79
f 135/135/79 142/142/86 134/134/78
f 153/153/97 138/138/82 151/151/95
f 151/151/95 138/138/82 136/136/80
f 156/156/100 154/154/98 155/155/99
f 155/155/99 154/154/98 152/152/96
f 106/106/50 107/107/51 158/158/102
f 158/158/102 107/107/51 108/108/52
f 127/127/71 129/129/73 157/157/101
f 157/157/101 129/129/73 131/131/75
f 110/110/54 112/112/56 159/159/103
f 128/128/72 126/126/70 130/130/74
f 103/103/47 105/105/49 122/122/66
f 157/157/101 131/131/75 149/149/93
