# Blender v2.83.0 OBJ File: ''
# www.blender.org
mtllib S.S._Dolphin_part.026.mtl
o S.S._Dolphin_part.026
v 1.441357 -1.032746 -0.488968
v 1.441357 -1.032746 0.287172
v 1.441357 0.580864 -0.488968
v 1.441357 0.340863 0.287172
v 1.587917 0.297255 0.573802
v 1.587917 0.527255 0.405092
v 1.881037 0.527255 0.405092
v 1.587917 0.767254 -0.606888
v 1.881037 0.767254 -0.606888
v 1.881037 0.537253 -0.775599
v 2.027597 0.580864 -0.488968
v 2.027597 -1.032746 -0.488968
v 2.027597 0.340863 0.287172
v 2.027597 -1.032746 0.287172
v 1.891587 -0.822346 0.513802
v -1.614804 -1.032746 -0.488968
v -1.614804 0.580864 -0.488968
v -1.614804 -1.032746 0.287172
v -1.614804 0.340863 0.287172
v -1.761364 0.527255 0.405092
v -1.761364 0.297255 0.573802
v -2.054484 0.527255 0.405092
v -2.054484 0.297255 0.573802
v -2.201044 0.340863 0.287172
v -2.065034 -0.822346 0.513802
v -2.201044 -1.032746 0.287172
v -2.201044 -1.032746 0.287172
v -2.201044 0.340863 0.287172
v -2.201044 -1.032746 -0.488968
v -2.201044 0.580864 -0.488968
v -2.054484 0.767254 -0.606888
v -2.054484 0.537253 -0.775599
v -1.761364 0.767254 -0.606888
v -1.761364 0.537253 -0.775599
v -1.614804 0.580864 -0.488968
v 1.441357 -1.032746 0.287172
v 1.577367 -0.822346 0.513802
v 1.587917 0.297255 0.573802
v 1.881037 0.297255 0.573802
v 1.891587 -0.822346 0.513802
v 2.027597 0.340863 0.287172
v -1.614804 0.340863 0.287172
v -1.761364 0.297255 0.573802
v -1.614804 -1.032746 0.287172
v -1.750814 -0.822346 0.513802
v -2.054484 0.297255 0.573802
v -2.065034 -0.822346 0.513802
v -1.614804 0.580864 -0.488968
v -1.761364 0.767254 -0.606888
v -1.761364 0.527255 0.405092
v -2.054484 0.527255 0.405092
v -2.054484 0.767254 -0.606888
v -2.201044 0.340863 0.287172
v 1.441357 0.340863 0.287172
v 1.441357 0.580864 -0.488968
v 1.587917 0.527255 0.405092
v 1.587917 0.767254 -0.606888
v 1.587917 0.297255 0.573802
v 1.881037 0.297255 0.573802
v 1.881037 0.527255 0.405092
v 2.027597 0.340863 0.287172
v -2.201044 0.580864 -0.488968
v -2.054484 0.537253 -0.775599
v -2.201044 -1.032746 -0.488968
v -2.065034 -0.932345 -0.775599
v 2.027597 0.580864 -0.488968
v 1.881037 0.767254 -0.606888
v 2.027597 0.340863 0.287172
v 1.881037 0.527255 0.405092
v 1.881037 0.537253 -0.775599
v 1.587917 0.537253 -0.775599
v 1.587917 0.767254 -0.606888
v 1.441357 0.580864 -0.488968
v 1.441357 -1.032746 0.287172
v 2.027597 -1.032746 0.287172
v 1.577367 -0.822346 0.513802
v 1.891587 -0.822346 0.513802
v -2.201044 -1.032746 0.287172
v -1.614804 -1.032746 0.287172
v -2.065034 -0.822346 0.513802
v -1.750814 -0.822346 0.513802
v 1.881037 0.537253 -0.775599
v 2.027597 -1.032746 -0.488968
v 1.891587 -0.932345 -0.775599
vt 0.000000 0.000000
vt 0.000000 0.000000
vt 0.000000 0.000000
vt 0.000000 0.000000
vt 0.000000 0.000000
vt 0.000000 0.000000
vt 0.000000 0.000000
vt 0.000000 0.000000
vt 0.000000 0.000000
vt 0.000000 0.000000
vt 0.000000 0.000000
vt 0.000000 0.000000
vt 0.000000 0.000000
vt 0.000000 0.000000
vt 0.000000 0.000000
vt 0.000000 0.000000
vt 0.000000 0.000000
vt 0.000000 0.000000
vt 0.000000 0.000000
vt 0.000000 0.000000
vt 0.000000 0.000000
vt 0.000000 0.000000
vt 0.000000 0.000000
vt 0.000000 0.000000
vt 0.000000 0.000000
vt 0.000000 0.000000
vt 0.000000 0.000000
vt 0.000000 0.000000
vt 0.000000 0.000000
vt 0.000000 0.000000
vt 0.000000 0.000000
vt 0.000000 0.000000
vt 0.000000 0.000000
vt 0.000000 0.000000
vt 0.000000 0.000000
vt 0.000000 0.000000
vt 0.000000 0.000000
vt 0.000000 0.000000
vt 0.000000 0.000000
vt 0.000000 0.000000
vt 0.000000 0.000000
vt 0.000000 0.000000
vt 0.000000 0.000000
vt 0.000000 0.000000
vt 0.000000 0.000000
vt 0.000000 0.000000
vt 0.000000 0.000000
vt 0.000000 0.000000
vt 0.000000 0.000000
vt 0.000000 0.000000
vt 0.000000 0.000000
vt 0.000000 0.000000
vt 0.000000 0.000000
vt 0.000000 0.000000
vt 0.000000 0.000000
vt 0.000000 0.000000
vt 0.000000 0.000000
vt 0.000000 0.000000
vt 0.000000 0.000000
vt 0.000000 0.000000
vt 0.000000 0.000000
vt 0.000000 0.000000
vt 0.000000 0.000000
vt 0.000000 0.000000
vt 0.000000 0.000000
vt 0.000000 0.000000
vt 0.000000 0.000000
vt 0.000000 0.000000
vt 0.000000 0.000000
vt 0.000000 0.000000
vt 0.000000 0.000000
vt 0.000000 0.000000
vt 0.000000 0.000000
vt 0.000000 0.000000
vt 0.000000 0.000000
vt 0.000000 0.000000
vt 0.000000 0.000000
vt 0.000000 0.000000
vt 0.000000 0.000000
vt 0.000000 0.000000
vt 0.000000 0.000000
vt 0.000000 0.000000
vt 0.000000 0.000000
vt 0.000000 0.000000
vn -1.0000 0.0000 0.0000
vn -0.9982 0.0000 0.0606
vn -0.9590 0.0825 0.2710
vn -0.7309 0.2801 0.6224
vn -0.2712 0.7634 0.5862
vn 0.0000 0.8958 0.4444
vn 0.0000 0.9915 -0.1298
vn 0.3009 0.8471 -0.4381
vn 0.7335 0.2768 -0.6208
vn 0.9444 0.0958 -0.3146
vn 0.9986 -0.0000 -0.0525
vn 0.9984 -0.0000 0.0557
vn 0.9811 0.0000 0.1937
vn 0.8574 0.0000 0.5146
vn 1.0000 0.0000 0.0000
vn 0.9942 0.1031 0.0319
vn 0.9393 0.2964 0.1728
vn 0.5605 0.5711 0.5998
vn 0.3276 0.5588 0.7618
vn -0.4071 0.5402 0.7365
vn -0.6289 0.3459 0.6963
vn -0.8708 0.1345 0.4729
vn -0.8617 -0.0019 0.5074
vn -0.8574 -0.0000 0.5146
vn -0.9973 0.0697 0.0216
vn -0.8890 0.4579 0.0031
vn -0.5141 0.6254 -0.5870
vn -0.3276 0.5588 -0.7618
vn 0.4071 0.5402 -0.7365
vn 0.3276 0.5588 -0.7618
vn 0.8139 0.3436 -0.4685
vn -0.8488 -0.0203 0.5283
vn -0.5745 -0.0384 0.8176
vn -0.0937 -0.0524 0.9942
vn 0.5345 -0.0402 0.8442
vn 0.1438 -0.0516 0.9883
vn 0.8912 -0.0159 0.4533
vn 0.8904 -0.0000 0.4553
vn 0.5296 -0.0319 0.8476
vn 0.8604 -0.0150 0.5094
vn 0.5745 -0.0384 0.8176
vn 0.0000 -0.0535 0.9986
vn 0.7247 0.6704 0.1590
vn 0.2921 0.9306 0.2207
vn 0.0984 0.9683 0.2296
vn -0.4164 0.8846 0.2098
vn -0.1216 0.9658 0.2290
vn -0.8182 0.5594 0.1327
vn 0.8237 -0.5417 -0.1675
vn 0.7385 -0.6550 -0.1603
vn 0.8073 -0.5663 -0.1663
vn 0.7247 -0.6704 -0.1590
vn 0.0000 0.5915 0.8063
vn 0.5568 0.4913 0.6698
vn 0.8139 0.3436 0.4685
vn -0.8904 0.0000 -0.4553
vn -0.8920 0.0008 -0.4520
vn -0.9021 0.0055 -0.4314
vn -0.9043 0.0065 -0.4268
vn 0.6989 0.6833 0.2113
vn 0.7344 0.6515 0.1903
vn 0.8060 0.5747 0.1420
vn 0.8182 0.5594 0.1327
vn 0.0000 0.5915 -0.8063
vn -0.5568 0.4913 -0.6698
vn -0.8139 0.3436 -0.4685
vn 0.0000 -0.7329 0.6804
vn 0.9043 0.0065 -0.4268
usemtl green
s 1
f 1/1/1 2/2/2 3/3/1
f 3/3/1 2/2/2 4/4/3
f 2/2/2 5/5/4 4/4/3
f 4/4/3 5/5/4 6/6/5
f 5/5/4 7/7/6 6/6/5
f 6/6/5 7/7/6 8/8/7
f 7/7/6 9/9/8 8/8/7
f 8/8/7 9/9/8 10/10/9
f 9/9/8 11/11/10 10/10/9
f 10/10/9 11/11/10 12/12/11
f 11/11/10 13/13/12 12/12/11
f 12/12/11 13/13/12 14/14/13
f 13/13/12 15/15/14 14/14/13
f 16/16/15 17/17/16 18/18/15
f 18/18/15 17/17/16 19/19/17
f 17/17/16 20/20/18 19/19/17
f 19/19/17 20/20/18 21/21/19
f 20/20/18 22/22/20 21/21/19
f 21/21/19 22/22/20 23/23/21
f 22/22/20 24/24/22 23/23/21
f 23/23/21 24/24/22 25/25/23
f 24/24/22 26/26/24 25/25/23
f 27/27/1 28/28/25 29/29/1
f 29/29/1 28/28/25 30/30/26
f 28/28/25 31/31/27 30/30/26
f 30/30/26 31/31/27 32/32/28
f 31/31/27 33/33/29 32/32/28
f 32/32/28 33/33/29 34/34/30
f 33/33/29 35/35/31 34/34/30
f 36/36/32 37/37/33 38/38/34
f 38/38/34 37/37/33 39/39/35
f 37/37/33 40/40/36 39/39/35
f 39/39/35 40/40/36 41/41/37
f 42/42/38 43/43/39 44/44/40
f 44/44/40 43/43/39 45/45/41
f 43/43/39 46/46/42 45/45/41
f 45/45/41 46/46/42 47/47/42
f 48/48/43 49/49/44 50/50/45
f 50/50/45 49/49/44 51/51/46
f 49/49/44 52/52/47 51/51/46
f 51/51/46 52/52/47 53/53/48
f 54/54/49 55/55/50 56/56/51
f 55/55/50 57/57/52 56/56/51
f 58/58/53 59/59/19 60/60/54
f 60/60/54 59/59/19 61/61/55
f 62/62/56 63/63/57 64/64/58
f 64/64/58 63/63/57 65/65/59
f 66/66/60 67/67/61 68/68/62
f 68/68/62 67/67/61 69/69/63
f 70/70/64 71/71/28 72/72/65
f 72/72/65 71/71/28 73/73/66
f 74/74/67 75/75/67 76/76/67
f 76/76/67 75/75/67 77/77/67
f 78/78/67 79/79/67 80/80/67
f 80/80/67 79/79/67 81/81/67
f 82/82/68 83/83/68 84/84/68
