# Blender v2.83.0 OBJ File: ''
# www.blender.org
mtllib S.S._Dolphin_outer_lights.mtl
o S.S._Dolphin_outer_lights
v -2.364802 -0.065724 -0.073498
v -2.354034 -0.242980 -0.002249
v -2.415610 -0.044327 0.006974
v -2.405661 -0.208088 0.072800
v -2.246413 -0.329165 0.130424
v -2.306234 -0.287714 0.195373
v -2.104984 -0.273795 0.246800
v -2.175570 -0.236558 0.302891
v -2.012594 -0.109303 0.278710
v -2.090213 -0.084587 0.332373
v -2.023361 0.067952 0.207462
v -2.100162 0.079175 0.266546
v -2.130981 0.154138 0.074790
v -2.199589 0.158800 0.143973
v -2.272411 0.098767 -0.041587
v -2.330252 0.107643 0.036456
v -2.425307 -0.026967 0.137662
v -2.418964 -0.131373 0.179629
v -2.355574 -0.182138 0.257775
v -2.272270 -0.149523 0.326325
v -2.217850 -0.052635 0.345120
v -2.224193 0.051772 0.303153
v -2.287583 0.102536 0.225006
v -2.370886 0.069922 0.156458
v -2.356496 -0.027263 0.277860
v 2.332546 -0.150416 -0.325606
v 2.368429 0.013238 -0.418025
v 2.386824 -0.113155 -0.253630
v 2.419976 0.038041 -0.339015
v 2.298267 0.191091 -0.410451
v 2.355155 0.202355 -0.332015
v 2.163161 0.278958 -0.307312
v 2.230333 0.283535 -0.236730
v 2.042253 0.225370 -0.169033
v 2.118629 0.234026 -0.108975
v 2.006370 0.061716 -0.076612
v 2.085477 0.082829 -0.023590
v 2.076532 -0.116137 -0.084189
v 2.150298 -0.081485 -0.030590
v 2.211638 -0.204004 -0.187326
v 2.275120 -0.162664 -0.125875
v 2.409357 -0.026893 -0.157085
v 2.430741 0.070637 -0.212162
v 2.388929 0.176627 -0.207648
v 2.308412 0.228992 -0.146183
v 2.236357 0.197057 -0.063776
v 2.214973 0.099527 -0.008698
v 2.256785 -0.006463 -0.013214
v 2.337302 -0.058828 -0.074677
v 2.358107 0.097470 -0.074809
vt 0.000000 1.000000
vt 0.000000 1.000000
vt 0.000000 1.000000
vt 0.000000 1.000000
vt 0.000000 1.000000
vt 0.000000 1.000000
vt 0.000000 1.000000
vt 0.000000 1.000000
vt 0.000000 1.000000
vt 0.000000 1.000000
vt 0.000000 1.000000
vt 0.000000 1.000000
vt 0.000000 1.000000
vt 0.000000 1.000000
vt 0.000000 1.000000
vt 0.000000 1.000000
vt 0.000000 1.000000
vt 0.000000 1.000000
vt 0.000000 1.000000
vt 0.000000 1.000000
vt 0.000000 1.000000
vt 0.000000 1.000000
vt 0.000000 1.000000
vt 0.000000 1.000000
vt 0.000000 1.000000
vt 0.000000 1.000000
vt 0.000000 1.000000
vt 0.000000 1.000000
vt 0.000000 1.000000
vt 0.000000 1.000000
vt 0.000000 1.000000
vt 0.000000 1.000000
vt 0.000000 1.000000
vt 0.000000 1.000000
vt 0.000000 1.000000
vt 0.000000 1.000000
vt 0.000000 1.000000
vt 0.000000 1.000000
vt 0.000000 1.000000
vt 0.000000 1.000000
vt 0.000000 1.000000
vt 0.000000 1.000000
vt 0.000000 1.000000
vt 0.000000 1.000000
vt 0.000000 1.000000
vt 0.000000 1.000000
vt 0.000000 1.000000
vt 0.000000 1.000000
vt 0.000000 1.000000
vt 0.000000 1.000000
vn -0.8218 0.1325 -0.5541
vn -0.7796 -0.5629 -0.2746
vn -0.9161 0.1774 -0.3596
vn -0.8767 -0.4707 -0.0990
vn -0.3574 -0.9010 0.2459
vn -0.4832 -0.7858 0.3860
vn 0.1975 -0.6838 0.7025
vn 0.0339 -0.5833 0.8115
vn 0.5599 -0.0385 0.8276
vn 0.3717 0.0181 0.9282
vn 0.5177 0.6569 0.5481
vn 0.3323 0.6662 0.6677
vn 0.0955 0.9950 0.0276
vn -0.0612 0.9813 0.1826
vn -0.4594 0.7778 -0.4289
vn -0.5783 0.7788 -0.2429
vn -0.9627 0.2435 0.1181
vn -0.9361 -0.1933 0.2937
vn -0.6709 -0.4058 0.6207
vn -0.3223 -0.2693 0.9075
vn -0.0946 0.1361 0.9862
vn -0.1212 0.5730 0.8106
vn -0.3864 0.7854 0.4836
vn -0.7350 0.6489 0.1967
vn -0.6712 0.2410 0.7010
vn 0.7026 -0.6903 -0.1725
vn 0.8434 -0.0483 -0.5351
vn 0.8056 -0.5924 -0.0103
vn 0.9371 0.0073 -0.3490
vn 0.5682 0.6495 -0.5054
vn 0.6800 0.6591 -0.3212
vn 0.0381 0.9942 -0.1007
vn 0.1848 0.9811 0.0567
vn -0.4362 0.7839 0.4418
vn -0.2582 0.7847 0.5635
vn -0.5770 0.1419 0.8043
vn -0.3897 0.1850 0.9022
vn -0.3017 -0.5558 0.7746
vn -0.1326 -0.4668 0.8744
vn 0.2283 -0.9006 0.3700
vn 0.3625 -0.7888 0.4964
vn 0.8957 -0.2774 0.3475
vn 0.9846 0.1283 0.1185
vn 0.8107 0.5691 0.1372
vn 0.4758 0.7869 0.3929
vn 0.1761 0.6541 0.7356
vn 0.0872 0.2484 0.9647
vn 0.2611 -0.1924 0.9459
vn 0.5960 -0.4102 0.6903
vn 0.6828 0.2400 0.6900
usemtl outer_lights_blue_ss_light_blue.png
s 1
f 1/1/1 2/2/2 3/3/3
f 3/3/3 2/2/2 4/4/4
f 2/2/2 5/5/5 4/4/4
f 4/4/4 5/5/5 6/6/6
f 5/5/5 7/7/7 6/6/6
f 6/6/6 7/7/7 8/8/8
f 7/7/7 9/9/9 8/8/8
f 8/8/8 9/9/9 10/10/10
f 9/9/9 11/11/11 10/10/10
f 10/10/10 11/11/11 12/12/12
f 11/11/11 13/13/13 12/12/12
f 12/12/12 13/13/13 14/14/14
f 13/13/13 15/15/15 14/14/14
f 14/14/14 15/15/15 16/16/16
f 15/15/15 1/1/1 16/16/16
f 16/16/16 1/1/1 3/3/3
f 3/3/3 4/4/4 17/17/17
f 17/17/17 4/4/4 18/18/18
f 4/4/4 6/6/6 18/18/18
f 18/18/18 6/6/6 19/19/19
f 6/6/6 8/8/8 19/19/19
f 19/19/19 8/8/8 20/20/20
f 8/8/8 10/10/10 20/20/20
f 20/20/20 10/10/10 21/21/21
f 10/10/10 12/12/12 21/21/21
f 21/21/21 12/12/12 22/22/22
f 12/12/12 14/14/14 22/22/22
f 22/22/22 14/14/14 23/23/23
f 14/14/14 16/16/16 23/23/23
f 23/23/23 16/16/16 24/24/24
f 16/16/16 3/3/3 24/24/24
f 24/24/24 3/3/3 17/17/17
f 18/18/18 25/25/25 17/17/17
f 17/17/17 25/25/25 24/24/24
f 25/25/25 23/23/23 24/24/24
f 23/23/23 25/25/25 22/22/22
f 22/22/22 25/25/25 21/21/21
f 25/25/25 20/20/20 21/21/21
f 18/18/18 19/19/19 25/25/25
f 25/25/25 19/19/19 20/20/20
f 26/26/26 27/27/27 28/28/28
f 28/28/28 27/27/27 29/29/29
f 27/27/27 30/30/30 29/29/29
f 29/29/29 30/30/30 31/31/31
f 30/30/30 32/32/32 31/31/31
f 31/31/31 32/32/32 33/33/33
f 32/32/32 34/34/34 33/33/33
f 33/33/33 34/34/34 35/35/35
f 34/34/34 36/36/36 35/35/35
f 35/35/35 36/36/36 37/37/37
f 36/36/36 38/38/38 37/37/37
f 37/37/37 38/38/38 39/39/39
f 38/38/38 40/40/40 39/39/39
f 39/39/39 40/40/40 41/41/41
f 40/40/40 26/26/26 41/41/41
f 41/41/41 26/26/26 28/28/28
f 28/28/28 29/29/29 42/42/42
f 42/42/42 29/29/29 43/43/43
f 29/29/29 31/31/31 43/43/43
f 43/43/43 31/31/31 44/44/44
f 31/31/31 33/33/33 44/44/44
f 44/44/44 33/33/33 45/45/45
f 33/33/33 35/35/35 45/45/45
f 45/45/45 35/35/35 46/46/46
f 35/35/35 37/37/37 46/46/46
f 46/46/46 37/37/37 47/47/47
f 37/37/37 39/39/39 47/47/47
f 47/47/47 39/39/39 48/48/48
f 39/39/39 41/41/41 48/48/48
f 48/48/48 41/41/41 49/49/49
f 41/41/41 28/28/28 49/49/49
f 49/49/49 28/28/28 42/42/42
f 43/43/43 50/50/50 42/42/42
f 42/42/42 50/50/50 49/49/49
f 50/50/50 48/48/48 49/49/49
f 48/48/48 50/50/50 47/47/47
f 47/47/47 50/50/50 46/46/46
f 50/50/50 45/45/45 46/46/46
f 45/45/45 50/50/50 44/44/44
f 44/44/44 50/50/50 43/43/43
