# Blender v2.83.0 OBJ File: ''
# www.blender.org
mtllib S.S._Dolphin_Radiation_Canopy_2.mtl
o S.S._Dolphin_Radiation_Canopy_2
v 1.003701 -0.552856 0.266633
v 0.763447 -0.828854 0.431174
v 1.155091 -0.656426 0.195409
v 0.878598 -0.977462 0.373108
v 0.523854 -0.982103 0.541306
v 0.602867 -1.156476 0.490768
v 0.241859 -1.069789 0.617451
v 0.278338 -1.259435 0.571377
v 0.000000 -1.094301 0.650595
v 0.000000 -1.288709 0.605911
v -0.241858 -1.069789 0.617451
v -0.278337 -1.259435 0.571377
v -0.523853 -0.982103 0.541306
v -0.602866 -1.156476 0.490768
v -0.763446 -0.828854 0.431174
v -0.878597 -0.977462 0.373108
v -1.003710 -0.552856 0.266633
v -1.155090 -0.656426 0.195409
v -1.122950 -0.260308 0.142207
v -1.292320 -0.318172 0.057628
v -1.161980 0.008207 0.044706
v -1.337240 -0.008383 -0.051932
v -1.112040 0.311830 -0.040809
v -1.279760 0.340904 -0.150790
v -0.991576 0.604741 -0.132439
v -1.141140 0.678241 -0.255399
v -0.817119 0.841414 -0.200223
v -0.940365 0.950556 -0.333599
v -0.581319 1.028706 -0.220779
v -0.668999 1.164716 -0.362004
v -0.298582 1.165870 -0.217905
v -0.343617 1.322447 -0.359115
v 0.000000 1.216002 -0.200834
v 0.000000 1.377224 -0.349425
v 0.298582 1.165870 -0.217905
v 0.343618 1.320821 -0.364665
v 0.581320 1.028706 -0.220779
v 0.669000 1.164716 -0.362004
v 0.817120 0.841414 -0.200224
v 0.940366 0.950556 -0.333599
v 0.991577 0.604741 -0.132439
v 1.141131 0.678241 -0.255399
v 1.112031 0.311830 -0.040809
v 1.279761 0.340904 -0.150790
v 1.161981 0.008207 0.044706
v 1.337241 -0.008383 -0.051932
v 1.122951 -0.260308 0.142207
v 1.292321 -0.318172 0.057628
v -1.141140 0.643935 -0.372813
v -1.279760 0.306598 -0.268201
v -1.337240 -0.042688 -0.169345
v -1.292320 -0.352479 -0.059784
v -1.155090 -0.690732 0.077996
v -0.878597 -1.011765 0.255696
v -0.602866 -1.190782 0.373354
v -0.278337 -1.293742 0.453963
v 0.000000 -1.323006 0.488496
v 0.278338 -1.293742 0.453963
v 0.602867 -1.190782 0.373354
v 0.878598 -1.011765 0.255696
v 1.155091 -0.690732 0.077996
v -0.940365 0.916249 -0.451011
v -0.668999 1.130410 -0.479415
v -0.343617 1.286514 -0.482076
v 0.000000 1.342918 -0.466836
v 0.343618 1.286514 -0.482076
v 0.669000 1.130410 -0.479415
v 0.940366 0.916249 -0.451011
v 1.141131 0.643935 -0.372813
v 1.279761 0.306598 -0.268201
v 1.337241 -0.042688 -0.169345
v 1.292321 -0.352478 -0.059784
v 0.000000 1.166650 -0.440166
v -0.585374 0.982261 -0.445834
v 0.998494 0.556937 -0.351382
v 0.585375 0.982261 -0.445834
v -1.010710 -0.611021 0.042649
v -1.170090 -0.042688 -0.169345
v -0.998493 0.556937 -0.351382
v 1.170091 -0.042688 -0.169345
v 1.010711 -0.611021 0.042649
v 0.527509 -1.049407 0.298207
v 0.000000 -1.165108 0.398954
v -0.527508 -1.049407 0.298207
vt 0.369000 0.975700
vt 0.369000 0.975700
vt 0.369000 0.975700
vt 0.369000 0.975700
vt 0.369000 0.975700
vt 0.369000 0.975700
vt 0.369000 0.975700
vt 0.369000 0.975700
vt 0.369000 0.975700
vt 0.369000 0.975700
vt 0.369000 0.975700
vt 0.369000 0.975700
vt 0.369000 0.975700
vt 0.369000 0.975700
vt 0.369000 0.975700
vt 0.369000 0.975700
vt 0.369000 0.975700
vt 0.369000 0.975700
vt 0.369000 0.975700
vt 0.369000 0.975700
vt 0.369000 0.975700
vt 0.369000 0.975700
vt 0.369000 0.975700
vt 0.369000 0.975700
vt 0.369000 0.975700
vt 0.369000 0.975700
vt 0.369000 0.975700
vt 0.369000 0.975700
vt 0.369000 0.975700
vt 0.369000 0.975700
vt 0.369000 0.975700
vt 0.369000 0.975700
vt 0.369000 0.975700
vt 0.369000 0.975700
vt 0.369000 0.975700
vt 0.369000 0.975700
vt 0.369000 0.975700
vt 0.369000 0.975700
vt 0.369000 0.975700
vt 0.369000 0.975700
vt 0.369000 0.975700
vt 0.369000 0.975700
vt 0.369000 0.975700
vt 0.369000 0.975700
vt 0.369000 0.975700
vt 0.369000 0.975700
vt 0.369000 0.975700
vt 0.369000 0.975700
vt 0.369000 0.975700
vt 0.369000 0.975700
vt 0.369000 0.975700
vt 0.369000 0.975700
vt 0.369000 0.975700
vt 0.369000 0.975700
vt 0.369000 0.975700
vt 0.369000 0.975700
vt 0.369000 0.975700
vt 0.369000 0.975700
vt 0.369000 0.975700
vt 0.369000 0.975700
vt 0.369000 0.975700
vt 0.369000 0.975700
vt 0.369000 0.975700
vt 0.369000 0.975700
vt 0.369000 0.975700
vt 0.369000 0.975700
vt 0.369000 0.975700
vt 0.369000 0.975700
vt 0.369000 0.975700
vt 0.369000 0.975700
vt 0.369000 0.975700
vt 0.369000 0.975700
vt 0.369000 0.975700
vt 0.369000 0.975700
vt 0.369000 0.975700
vt 0.369000 0.975700
vt 0.369000 0.975700
vt 0.369000 0.975700
vt 0.369000 0.975700
vt 0.369000 0.975700
vt 0.369000 0.975700
vt 0.369000 0.975700
vt 0.369000 0.975700
vt 0.369000 0.975700
vn -0.3254 0.5859 0.7422
vn -0.1521 0.6435 0.7502
vn 0.7994 -0.2287 0.5556
vn 0.6724 -0.4126 0.6146
vn -0.0609 0.6947 0.7167
vn 0.4824 -0.5659 0.6686
vn 0.0060 0.6727 0.7399
vn 0.2644 -0.6591 0.7040
vn -0.0038 0.6604 0.7509
vn -0.0018 -0.6833 0.7301
vn -0.0094 0.6703 0.7420
vn -0.2656 -0.6560 0.7065
vn 0.0571 0.6917 0.7199
vn -0.4827 -0.5616 0.6720
vn 0.1478 0.6401 0.7540
vn -0.6714 -0.4081 0.6186
vn 0.3235 0.5800 0.7476
vn -0.7970 -0.2273 0.5596
vn 0.3966 0.4249 0.8137
vn -0.8556 -0.0367 0.5163
vn 0.4672 0.2686 0.8423
vn -0.8769 0.1538 0.4554
vn 0.4250 0.1428 0.8938
vn -0.8362 0.3611 0.4128
vn 0.4336 0.0253 0.9007
vn -0.7626 0.5387 0.3580
vn 0.2889 -0.0823 0.9538
vn -0.6494 0.6984 0.3008
vn 0.1759 -0.2310 0.9569
vn -0.4968 0.8224 0.2772
vn 0.0301 -0.2070 0.9779
vn -0.2923 0.9179 0.2683
vn 0.0098 -0.2167 0.9762
vn 0.0060 0.9638 0.2666
vn -0.0293 -0.1923 0.9809
vn 0.2915 0.9210 0.2586
vn -0.1748 -0.2272 0.9580
vn 0.4944 0.8226 0.2809
vn -0.2906 -0.0782 0.9537
vn 0.6475 0.6995 0.3023
vn -0.4343 0.0261 0.9004
vn 0.7625 0.5391 0.3577
vn -0.4249 0.1417 0.8941
vn 0.8364 0.3606 0.4128
vn -0.4682 0.2717 0.8408
vn 0.8772 0.1547 0.4545
vn -0.3986 0.4275 0.8114
vn 0.8570 -0.0371 0.5140
vn -0.8796 0.4566 -0.1334
vn -0.9649 0.2521 -0.0737
vn -0.9999 0.0122 -0.0036
vn -0.9706 -0.2311 0.0675
vn -0.8794 -0.4569 0.1335
vn -0.7116 -0.6744 0.1970
vn -0.4905 -0.8365 0.2444
vn -0.2517 -0.9290 0.2714
vn -0.0000 -0.9599 0.2804
vn 0.2517 -0.9290 0.2714
vn 0.4905 -0.8365 0.2444
vn 0.7116 -0.6744 0.1970
vn 0.8794 -0.4569 0.1335
vn -0.7278 0.6582 -0.1923
vn -0.5294 0.8143 -0.2379
vn -0.2937 0.9175 -0.2681
vn -0.0000 0.9599 -0.2805
vn 0.2937 0.9175 -0.2681
vn 0.5294 0.8143 -0.2379
vn 0.7278 0.6582 -0.1923
vn 0.8796 0.4566 -0.1334
vn 0.9649 0.2521 -0.0737
vn 0.9999 0.0122 -0.0036
vn 0.9706 -0.2311 0.0675
vn 0.0000 -0.9602 0.2792
vn 0.5274 -0.8151 0.2396
vn -0.8743 -0.4631 0.1454
vn -0.5274 -0.8151 0.2396
vn 0.8775 0.4720 -0.0846
vn 0.9995 -0.0081 0.0308
vn 0.8743 -0.4631 0.1454
vn -0.9995 -0.0081 0.0308
vn -0.8775 0.4720 -0.0846
vn -0.4935 0.8527 -0.1716
vn 0.0000 0.9772 -0.2121
vn 0.4935 0.8527 -0.1716
usemtl af
s 1
f 1/1/1 2/2/2 3/3/3
f 3/3/3 2/2/2 4/4/4
f 2/2/2 5/5/5 4/4/4
f 4/4/4 5/5/5 6/6/6
f 5/5/5 7/7/7 6/6/6
f 6/6/6 7/7/7 8/8/8
f 7/7/7 9/9/9 8/8/8
f 8/8/8 9/9/9 10/10/10
f 9/9/9 11/11/11 10/10/10
f 10/10/10 11/11/11 12/12/12
f 11/11/11 13/13/13 12/12/12
f 12/12/12 13/13/13 14/14/14
f 13/13/13 15/15/15 14/14/14
f 14/14/14 15/15/15 16/16/16
f 15/15/15 17/17/17 16/16/16
f 16/16/16 17/17/17 18/18/18
f 17/17/17 19/19/19 18/18/18
f 18/18/18 19/19/19 20/20/20
f 19/19/19 21/21/21 20/20/20
f 20/20/20 21/21/21 22/22/22
f 21/21/21 23/23/23 22/22/22
f 22/22/22 23/23/23 24/24/24
f 23/23/23 25/25/25 24/24/24
f 24/24/24 25/25/25 26/26/26
f 25/25/25 27/27/27 26/26/26
f 26/26/26 27/27/27 28/28/28
f 27/27/27 29/29/29 28/28/28
f 28/28/28 29/29/29 30/30/30
f 29/29/29 31/31/31 30/30/30
f 30/30/30 31/31/31 32/32/32
f 31/31/31 33/33/33 32/32/32
f 32/32/32 33/33/33 34/34/34
f 33/33/33 35/35/35 34/34/34
f 34/34/34 35/35/35 36/36/36
f 35/35/35 37/37/37 36/36/36
f 36/36/36 37/37/37 38/38/38
f 37/37/37 39/39/39 38/38/38
f 38/38/38 39/39/39 40/40/40
f 39/39/39 41/41/41 40/40/40
f 40/40/40 41/41/41 42/42/42
f 41/41/41 43/43/43 42/42/42
f 42/42/42 43/43/43 44/44/44
f 43/43/43 45/45/45 44/44/44
f 44/44/44 45/45/45 46/46/46
f 45/45/45 47/47/47 46/46/46
f 46/46/46 47/47/47 48/48/48
f 49/49/49 50/50/50 26/26/26
f 26/26/26 50/50/50 24/24/24
f 50/50/50 51/51/51 24/24/24
f 24/24/24 51/51/51 22/22/22
f 51/51/51 52/52/52 22/22/22
f 22/22/22 52/52/52 20/20/20
f 52/52/52 53/53/53 20/20/20
f 20/20/20 53/53/53 18/18/18
f 53/53/53 54/54/54 18/18/18
f 18/18/18 54/54/54 16/16/16
f 54/54/54 55/55/55 16/16/16
f 16/16/16 55/55/55 14/14/14
f 55/55/55 56/56/56 14/14/14
f 14/14/14 56/56/56 12/12/12
f 56/56/56 57/57/57 12/12/12
f 12/12/12 57/57/57 10/10/10
f 57/57/57 58/58/58 10/10/10
f 10/10/10 58/58/58 8/8/8
f 58/58/58 59/59/59 8/8/8
f 8/8/8 59/59/59 6/6/6
f 59/59/59 60/60/60 6/6/6
f 6/6/6 60/60/60 4/4/4
f 60/60/60 61/61/61 4/4/4
f 4/4/4 61/61/61 3/3/3
f 61/61/61 48/48/48 3/3/3
f 3/3/3 48/48/48 1/1/1
f 48/48/48 47/47/47 1/1/1
f 26/26/26 28/28/28 49/49/49
f 49/49/49 28/28/28 62/62/62
f 28/28/28 30/30/30 62/62/62
f 62/62/62 30/30/30 63/63/63
f 30/30/30 32/32/32 63/63/63
f 63/63/63 32/32/32 64/64/64
f 32/32/32 34/34/34 64/64/64
f 64/64/64 34/34/34 65/65/65
f 34/34/34 36/36/36 65/65/65
f 65/65/65 36/36/36 66/66/66
f 36/36/36 38/38/38 66/66/66
f 66/66/66 38/38/38 67/67/67
f 38/38/38 40/40/40 67/67/67
f 67/67/67 40/40/40 68/68/68
f 40/40/40 42/42/42 68/68/68
f 68/68/68 42/42/42 69/69/69
f 42/42/42 44/44/44 69/69/69
f 69/69/69 44/44/44 70/70/70
f 44/44/44 46/46/46 70/70/70
f 70/70/70 46/46/46 71/71/71
f 46/46/46 48/48/48 71/71/71
f 71/71/71 48/48/48 72/72/72
f 48/48/48 61/61/61 72/72/72
f 33/33/33 31/31/31 73/73/73
f 73/73/73 31/31/31 74/74/74
f 31/31/31 29/29/29 74/74/74
f 74/74/74 29/29/29 27/27/27
f 41/41/41 39/39/39 75/75/75
f 75/75/75 39/39/39 76/76/76
f 39/39/39 37/37/37 76/76/76
f 76/76/76 37/37/37 35/35/35
f 77/77/77 78/78/78 19/19/19
f 19/19/19 78/78/78 21/21/21
f 78/78/78 23/23/23 21/21/21
f 78/78/78 79/79/79 23/23/23
f 23/23/23 79/79/79 25/25/25
f 79/79/79 27/27/27 25/25/25
f 80/80/80 81/81/81 47/47/47
f 47/47/47 81/81/81 1/1/1
f 81/81/81 2/2/2 1/1/1
f 81/81/81 82/82/82 2/2/2
f 2/2/2 82/82/82 5/5/5
f 82/82/82 7/7/7 5/5/5
f 82/82/82 83/83/83 7/7/7
f 7/7/7 83/83/83 9/9/9
f 83/83/83 11/11/11 9/9/9
f 83/83/83 84/84/84 11/11/11
f 11/11/11 84/84/84 13/13/13
f 84/84/84 15/15/15 13/13/13
f 84/84/84 77/77/77 15/15/15
f 15/15/15 77/77/77 17/17/17
f 77/77/77 19/19/19 17/17/17
f 47/47/47 45/45/45 80/80/80
f 80/80/80 45/45/45 43/43/43
f 76/76/76 35/35/35 73/73/73
f 73/73/73 35/35/35 33/33/33
f 80/80/80 43/43/43 75/75/75
f 75/75/75 43/43/43 41/41/41
f 74/74/74 27/27/27 79/79/79
