# Blender v2.83.0 OBJ File: ''
# www.blender.org
mtllib S.S._Dolphin_Bowsprit_10.mtl
o S.S._Dolphin_Bowsprit_10
v -0.592526 0.092772 -0.636325
v -0.811408 0.092772 -0.019051
v 0.018870 0.092772 -0.857311
v 0.630266 0.092772 -0.636325
v 0.849147 0.092772 -0.019051
v 0.703174 -0.162344 0.671833
v 0.986623 -0.162344 -0.019051
v 0.630266 0.092771 0.598223
v 0.849147 0.092772 -0.019051
v 0.703174 -0.162344 -0.709935
v 0.018870 -0.162344 -0.996109
v 0.630266 0.092772 -0.636325
v 0.018870 0.092772 -0.857311
v 0.018870 -0.162344 0.958007
v 0.703174 -0.162344 0.671833
v 0.018870 0.092771 0.819209
v 0.630266 0.092771 0.598223
v 0.018870 -0.162344 -0.996109
v -0.665435 -0.162344 -0.709935
v 0.018870 0.092772 -0.857311
v -0.592526 0.092772 -0.636325
v -0.665435 -0.162344 0.671833
v 0.018870 -0.162344 0.958007
v -0.592526 0.092771 0.598223
v 0.018870 0.092771 0.819209
v -0.948883 -0.162344 -0.019051
v -0.665435 -0.162344 0.671833
v -0.811408 0.092772 -0.019051
v -0.592526 0.092771 0.598223
v -0.665435 -0.162344 -0.709935
v -0.948883 -0.162344 -0.019051
v -0.592526 0.092772 -0.636325
v -0.811408 0.092772 -0.019051
v 0.986623 -0.162344 -0.019051
v 0.703174 -0.162344 -0.709935
v 0.849147 0.092772 -0.019051
v 0.630266 0.092772 -0.636325
v 0.630266 0.092771 0.598223
v 0.849147 0.092772 -0.019051
v 0.018870 0.092771 0.819209
v -0.811408 0.092772 -0.019051
v 0.018870 0.092771 0.819209
v -0.592526 0.092771 0.598223
v -0.811408 0.092772 -0.019051
vt 0.000000 1.000000
vt 0.000000 1.000000
vt 0.000000 1.000000
vt 0.000000 1.000000
vt 0.000000 1.000000
vt 0.000000 1.000000
vt 0.000000 1.000000
vt 0.000000 1.000000
vt 0.000000 1.000000
vt 0.000000 1.000000
vt 0.000000 1.000000
vt 0.000000 1.000000
vt 0.000000 1.000000
vt 0.000000 1.000000
vt 0.000000 1.000000
vt 0.000000 1.000000
vt 0.000000 1.000000
vt 0.000000 1.000000
vt 0.000000 1.000000
vt 0.000000 1.000000
vt 0.000000 1.000000
vt 0.000000 1.000000
vt 0.000000 1.000000
vt 0.000000 1.000000
vt 0.000000 1.000000
vt 0.000000 1.000000
vt 0.000000 1.000000
vt 0.000000 1.000000
vt 0.000000 1.000000
vt 0.000000 1.000000
vt 0.000000 1.000000
vt 0.000000 1.000000
vt 0.000000 1.000000
vt 0.000000 1.000000
vt 0.000000 1.000000
vt 0.000000 1.000000
vt 0.000000 1.000000
vt 0.000000 1.000000
vt 0.000000 1.000000
vt 0.000000 1.000000
vt 0.000000 1.000000
vt 0.000000 1.000000
vt 0.000000 1.000000
vt 0.000000 1.000000
vn 0.0000 1.0000 0.0000
vn 0.8666 0.3502 0.3555
vn 0.8485 0.4263 0.3136
vn 0.8618 0.3736 0.3431
vn 0.8403 0.4528 0.2980
vn 0.3611 0.3523 -0.8634
vn 0.3187 0.4286 -0.8454
vn 0.3484 0.3760 -0.8586
vn 0.3026 0.4555 -0.8372
vn 0.3448 0.4486 0.8245
vn 0.3265 0.3746 0.8678
vn 0.3397 0.4270 0.8380
vn 0.3190 0.3458 0.8824
vn -0.3448 0.4486 -0.8245
vn -0.3265 0.3746 -0.8678
vn -0.3397 0.4270 -0.8380
vn -0.3190 0.3458 -0.8824
vn -0.3611 0.3523 0.8634
vn -0.3187 0.4286 0.8454
vn -0.3484 0.3760 0.8586
vn -0.3026 0.4555 0.8372
vn -0.8280 0.4462 0.3397
vn -0.8708 0.3721 0.3214
vn -0.8412 0.4248 0.3346
vn -0.8851 0.3435 0.3139
vn -0.8666 0.3502 -0.3555
vn -0.8485 0.4263 -0.3136
vn -0.8618 0.3736 -0.3431
vn -0.8403 0.4528 -0.2980
vn 0.8280 0.4462 -0.3397
vn 0.8708 0.3721 -0.3214
vn 0.8412 0.4248 -0.3346
vn 0.8851 0.3435 -0.3139
vn -0.0000 -1.0000 -0.0000
usemtl ship_grey
s 1
f 1/1/1 2/2/1 3/3/1
f 3/3/1 2/2/1 4/4/1
f 2/2/1 5/5/1 4/4/1
f 6/6/2 7/7/3 8/8/4
f 8/8/4 7/7/3 9/9/5
f 10/10/6 11/11/7 12/12/8
f 12/12/8 11/11/7 13/13/9
f 14/14/10 15/15/11 16/16/12
f 16/16/12 15/15/11 17/17/13
f 18/18/14 19/19/15 20/20/16
f 20/20/16 19/19/15 21/21/17
f 22/22/18 23/23/19 24/24/20
f 24/24/20 23/23/19 25/25/21
f 26/26/22 27/27/23 28/28/24
f 28/28/24 27/27/23 29/29/25
f 30/30/26 31/31/27 32/32/28
f 32/32/28 31/31/27 33/33/29
f 34/34/30 35/35/31 36/36/32
f 36/36/32 35/35/31 37/37/33
f 38/38/1 39/39/1 40/40/1
f 40/40/1 39/39/1 41/41/1
f 42/42/34 43/43/34 44/44/34
