# Blender v2.83.0 OBJ File: ''
# www.blender.org
mtllib S.S._Dolphin_part.011.mtl
o S.S._Dolphin_part.011
v -1.225720 1.217350 -0.569302
v -0.635020 1.212111 -0.348002
v -0.651851 1.212111 -0.289299
v 0.031856 1.212111 -0.266119
v 0.033987 1.212111 -0.205089
v 0.691395 1.212111 -0.394322
v 0.712280 1.212111 -0.336935
v 1.278134 1.202341 -0.745853
v 1.265222 1.217350 -0.656288
v 1.277042 1.208571 -0.704630
v -1.728407 -0.553089 0.036128
v -1.801105 -1.147957 0.164950
v -1.012367 -0.871606 0.419046
v -1.833910 -1.508357 0.200931
v -0.837350 -1.071996 0.492488
v -0.881479 -1.514166 0.552462
v -0.614683 -1.237581 0.564263
v -0.309686 -1.364279 0.621192
v 0.734746 -1.237581 0.517140
v 1.000069 -1.514166 0.486757
v 0.951864 -1.071994 0.430007
v 1.925660 -1.508355 0.069645
v 1.121322 -0.871605 0.344536
v 1.890425 -1.147955 0.036039
v 1.808917 -0.553089 -0.087398
v -0.481397 0.971841 -0.190387
v -0.635020 1.212111 -0.348002
v -0.672173 0.848641 -0.169400
v -1.244858 1.202341 -0.657748
v -0.878139 0.656641 -0.120515
v -1.049073 0.441502 -0.054707
v 0.031856 1.212111 -0.266119
v 0.325932 1.057041 -0.219779
v 0.691395 1.212111 -0.394322
v 0.549140 0.971841 -0.226374
v 0.740917 0.848641 -0.218746
v -0.309686 -1.364279 0.621192
v -0.881479 -1.514166 0.552462
v 0.064746 -1.412974 0.675701
v 0.064499 -1.514161 0.668614
v 1.000069 -1.514166 0.486757
v 0.691395 1.212111 -0.394322
v 0.740917 0.848641 -0.218746
v 1.278134 1.202341 -0.745853
v 0.949790 0.656641 -0.184347
v 1.124902 0.441502 -0.130624
v 1.121322 -0.871605 0.344536
v 1.808917 -0.553089 -0.087398
v 1.278510 -0.577569 0.211929
v 1.648115 0.249320 -0.283505
v 1.337145 -0.169459 0.054300
v 1.278134 1.202341 -0.745853
v 1.124902 0.441502 -0.130624
v 1.648115 0.249320 -0.283505
v 1.250614 0.168770 -0.048216
v 1.337145 -0.169459 0.054300
v 0.036631 -1.514165 0.732107
v 0.067097 -1.398776 0.743020
v 0.066845 -1.514161 0.735816
v 0.096727 -1.514165 0.730008
v 0.031856 1.212111 -0.266119
v -0.635020 1.212111 -0.348002
v -0.258273 1.057041 -0.199378
v -0.481397 0.971841 -0.190387
v 0.064746 -1.412974 0.675701
v 1.000069 -1.514166 0.486757
v 0.434463 -1.364278 0.595207
v 0.734746 -1.237581 0.517140
v -1.244858 1.202341 -0.657748
v -1.581676 0.249320 -0.170718
v -1.049073 0.441502 -0.054707
v -1.168899 0.168770 0.031472
v -1.581676 0.249320 -0.170718
v -1.728407 -0.553089 0.036128
v -1.168899 0.168770 0.031472
v -1.247742 -0.169459 0.149369
v -1.244858 1.202341 -0.657748
v -0.635020 1.212111 -0.348002
v -1.240884 1.208571 -0.616702
v -1.225720 1.217350 -0.569302
v -1.247742 -0.169459 0.149369
v -1.728407 -0.553089 0.036128
v -1.178412 -0.577569 0.297727
v -1.012367 -0.871606 0.419046
vt 0.000000 1.000000
vt 0.000000 1.000000
vt 0.000000 1.000000
vt 0.000000 1.000000
vt 0.000000 1.000000
vt 0.000000 1.000000
vt 0.000000 1.000000
vt 0.000000 1.000000
vt 0.000000 1.000000
vt 0.000000 1.000000
vt 0.000000 1.000000
vt 0.000000 1.000000
vt 0.000000 1.000000
vt 0.000000 1.000000
vt 0.000000 1.000000
vt 0.000000 1.000000
vt 0.000000 1.000000
vt 0.000000 1.000000
vt 0.000000 1.000000
vt 0.000000 1.000000
vt 0.000000 1.000000
vt 0.000000 1.000000
vt 0.000000 1.000000
vt 0.000000 1.000000
vt 0.000000 1.000000
vt 0.000000 1.000000
vt 0.000000 1.000000
vt 0.000000 1.000000
vt 0.000000 1.000000
vt 0.000000 1.000000
vt 0.000000 1.000000
vt 0.000000 1.000000
vt 0.000000 1.000000
vt 0.000000 1.000000
vt 0.000000 1.000000
vt 0.000000 1.000000
vt 0.000000 1.000000
vt 0.000000 1.000000
vt 0.000000 1.000000
vt 0.000000 1.000000
vt 0.000000 1.000000
vt 0.000000 1.000000
vt 0.000000 1.000000
vt 0.000000 1.000000
vt 0.000000 1.000000
vt 0.000000 1.000000
vt 0.000000 1.000000
vt 0.000000 1.000000
vt 0.000000 1.000000
vt 0.000000 1.000000
vt 0.000000 1.000000
vt 0.000000 1.000000
vt 0.000000 1.000000
vt 0.000000 1.000000
vt 0.000000 1.000000
vt 0.000000 1.000000
vt 0.000000 1.000000
vt 0.000000 1.000000
vt 0.000000 1.000000
vt 0.000000 1.000000
vt 0.000000 1.000000
vt 0.000000 1.000000
vt 0.000000 1.000000
vt 0.000000 1.000000
vt 0.000000 1.000000
vt 0.000000 1.000000
vt 0.000000 1.000000
vt 0.000000 1.000000
vt 0.000000 1.000000
vt 0.000000 1.000000
vt 0.000000 1.000000
vt 0.000000 1.000000
vt 0.000000 1.000000
vt 0.000000 1.000000
vt 0.000000 1.000000
vt 0.000000 1.000000
vt 0.000000 1.000000
vt 0.000000 1.000000
vt 0.000000 1.000000
vt 0.000000 1.000000
vt 0.000000 1.000000
vt 0.000000 1.000000
vt 0.000000 1.000000
vt 0.000000 1.000000
vn -0.0080 -1.0000 -0.0023
vn -0.0039 -1.0000 -0.0011
vn -0.0040 -1.0000 -0.0011
vn 0.0000 -1.0000 0.0000
vn -0.0069 -1.0000 0.0025
vn -0.0021 -1.0000 0.0090
vn 0.0742 -0.9840 0.1619
vn 0.1031 -0.9785 0.1788
vn -0.1371 -0.9800 0.1445
vn -0.3728 0.2397 0.8964
vn -0.3553 0.1688 0.9194
vn -0.3319 0.1253 0.9350
vn -0.3376 0.1260 0.9328
vn -0.2878 0.1272 0.9492
vn -0.2698 0.1460 0.9518
vn -0.1676 0.1199 0.9785
vn -0.1437 0.0966 0.9849
vn 0.2667 0.1512 0.9519
vn 0.3643 0.1575 0.9179
vn 0.3533 0.1272 0.9268
vn 0.4019 0.1260 0.9070
vn 0.3963 0.1253 0.9095
vn 0.4186 0.1688 0.8924
vn 0.4344 0.2397 0.8683
vn -0.1937 0.4485 0.8725
vn -0.3576 0.4410 0.8232
vn -0.3151 0.4893 0.8132
vn -0.3735 0.4903 0.7875
vn -0.3443 0.5309 0.7743
vn -0.3583 0.5215 0.7743
vn 0.1596 0.5480 0.8211
vn 0.1731 0.5279 0.8315
vn 0.2116 0.4862 0.8478
vn 0.2297 0.4626 0.8563
vn 0.2541 0.4485 0.8569
vn -0.1356 0.0640 0.9887
vn -0.1301 0.0088 0.9915
vn 0.0220 -0.0599 0.9980
vn 0.0348 -0.0699 0.9969
vn 0.1904 -0.0691 0.9793
vn 0.4680 0.4353 0.7691
vn 0.4140 0.5024 0.7591
vn 0.4275 0.4903 0.7595
vn 0.3975 0.5309 0.7484
vn 0.4114 0.5215 0.7475
vn 0.4825 0.1325 0.8658
vn 0.4641 0.2680 0.8443
vn 0.4839 0.1864 0.8550
vn 0.4840 0.2803 0.8290
vn 0.5595 0.2275 0.7970
vn 0.4102 0.5220 0.7478
vn 0.4049 0.4867 0.7741
vn 0.4104 0.4554 0.7900
vn 0.4079 0.3937 0.8238
vn 0.4201 0.3600 0.8330
vn 0.1216 0.0616 -0.9907
vn -0.0348 0.0624 -0.9974
vn -0.1904 0.0616 -0.9798
vn -0.1019 0.5480 0.8302
vn -0.1273 0.5075 0.8522
vn -0.1147 0.5279 0.8415
vn -0.1466 0.4754 0.8675
vn 0.2042 0.0640 0.9768
vn 0.2104 0.0897 0.9735
vn 0.2057 0.0702 0.9761
vn 0.2121 0.0966 0.9725
vn -0.3571 0.5220 0.7746
vn -0.3498 0.4860 0.8009
vn -0.3490 0.4820 0.8037
vn -0.3339 0.4142 0.8467
vn -0.3733 0.2950 0.8796
vn -0.4179 0.3294 0.8467
vn -0.4122 0.3250 0.8512
vn -0.4923 0.3866 0.7799
vn -0.0633 -0.9858 0.1557
vn -0.0757 -0.9801 0.1837
vn -0.0701 -0.9828 0.1711
vn -0.0866 -0.9742 0.2082
vn -0.4067 0.2503 0.8786
vn -0.4119 0.2134 0.8859
vn -0.4165 0.1752 0.8921
vn -0.4209 0.1326 0.8974
usemtl ship_interior
s 1
f 1/1/1 2/2/2 3/3/3
f 2/2/2 4/4/4 3/3/3
f 3/3/3 4/4/4 5/5/4
f 4/4/4 6/6/5 5/5/4
f 5/5/4 6/6/5 7/7/6
f 6/6/5 8/8/7 7/7/6
f 7/7/6 8/8/7 9/9/8
f 8/8/7 10/10/9 9/9/8
f 11/11/10 12/12/11 13/13/12
f 12/12/11 14/14/13 13/13/12
f 13/13/12 14/14/13 15/15/14
f 14/14/13 16/16/15 15/15/14
f 15/15/14 16/16/15 17/17/16
f 16/16/15 18/18/17 17/17/16
f 19/19/18 20/20/19 21/21/20
f 20/20/19 22/22/21 21/21/20
f 21/21/20 22/22/21 23/23/22
f 22/22/21 24/24/23 23/23/22
f 23/23/22 24/24/23 25/25/24
f 26/26/25 27/27/26 28/28/27
f 27/27/26 29/29/28 28/28/27
f 28/28/27 29/29/28 30/30/29
f 29/29/28 31/31/30 30/30/29
f 32/32/31 33/33/32 34/34/33
f 33/33/32 35/35/34 34/34/33
f 34/34/33 35/35/34 36/36/35
f 37/37/36 38/38/37 39/39/38
f 38/38/37 40/40/39 39/39/38
f 39/39/38 40/40/39 41/41/40
f 42/42/41 43/43/42 44/44/43
f 43/43/42 45/45/44 44/44/43
f 44/44/43 45/45/44 46/46/45
f 47/47/46 48/48/47 49/49/48
f 48/48/47 50/50/49 49/49/48
f 49/49/48 50/50/49 51/51/50
f 52/52/51 53/53/52 54/54/53
f 53/53/52 55/55/54 54/54/53
f 54/54/53 55/55/54 56/56/55
f 57/57/56 58/58/57 59/59/57
f 58/58/57 60/60/58 59/59/57
f 61/61/59 62/62/60 63/63/61
f 62/62/60 64/64/62 63/63/61
f 65/65/63 66/66/64 67/67/65
f 66/66/64 68/68/66 67/67/65
f 69/69/67 70/70/68 71/71/69
f 70/70/68 72/72/70 71/71/69
f 73/73/71 74/74/72 75/75/73
f 74/74/72 76/76/74 75/75/73
f 77/77/75 78/78/76 79/79/77
f 78/78/76 80/80/78 79/79/77
f 81/81/79 82/82/80 83/83/81
f 82/82/80 84/84/82 83/83/81
