# Blender v2.83.0 OBJ File: ''
# www.blender.org
mtllib S.S._Dolphin_Whimsical_Radar_4.mtl
o S.S._Dolphin_Whimsical_Radar_4
v 0.000000 -0.005147 0.322893
v 0.000000 0.185805 -0.201743
v -0.091452 -0.054763 0.304834
v -0.091452 0.136189 -0.219802
v 0.000000 0.106821 -0.293491
v -0.091452 0.036958 -0.255918
v 0.000000 -0.012658 -0.273977
v 0.000000 -0.203610 0.250659
v 0.091452 -0.153994 0.268717
v 0.091452 -0.054763 0.304834
v 0.091452 0.136189 -0.219802
v 0.091452 0.036958 -0.255918
v -0.091452 -0.153994 0.268717
vt 0.000000 1.000000
vt 0.000000 1.000000
vt 0.000000 1.000000
vt 0.000000 1.000000
vt 0.000000 1.000000
vt 0.000000 1.000000
vt 0.000000 1.000000
vt 0.000000 1.000000
vt 0.000000 1.000000
vt 0.000000 1.000000
vt 0.000000 1.000000
vt 0.000000 1.000000
vt 0.000000 1.000000
vn 0.0000 0.9397 0.3420
vn 0.0000 0.9936 -0.1127
vn -0.8660 0.4698 0.1710
vn -0.7752 0.5730 -0.2658
vn 0.0000 0.3420 -0.9397
vn -0.7752 -0.2681 -0.5720
vn -0.0000 -0.6887 -0.7250
vn -0.0000 -0.9397 -0.3420
vn 0.8660 -0.4698 -0.1710
vn 0.8660 0.4698 0.1710
vn 0.7752 0.5730 -0.2658
vn 0.7752 -0.2681 -0.5720
vn -0.8660 -0.4698 -0.1710
usemtl white
s 1
f 1/1/1 2/2/2 3/3/3
f 3/3/3 2/2/2 4/4/4
f 2/2/2 5/5/5 4/4/4
f 4/4/4 5/5/5 6/6/6
f 5/5/5 7/7/7 6/6/6
f 6/6/6 7/7/7 8/8/8
f 7/7/7 9/9/9 8/8/8
f 1/1/1 10/10/10 2/2/2
f 2/2/2 10/10/10 11/11/11
f 10/10/10 9/9/9 11/11/11
f 11/11/11 9/9/9 12/12/12
f 9/9/9 7/7/7 12/12/12
f 12/12/12 7/7/7 5/5/5
f 3/3/3 4/4/4 13/13/13
f 13/13/13 4/4/4 6/6/6
f 2/2/2 11/11/11 5/5/5
f 5/5/5 11/11/11 12/12/12
f 8/8/8 13/13/13 6/6/6
