# Blender v2.83.0 OBJ File: ''
# www.blender.org
mtllib S.S._Dolphin_Radiation_Canopy.mtl
o S.S._Dolphin_Radiation_Canopy
v -0.628695 0.849904 -1.050023
v -0.454433 1.000305 -0.808425
v -0.322915 0.997774 -1.050777
v -0.000000 1.074181 -0.841234
v -0.000000 1.092884 -0.537374
v 0.454435 1.000305 -0.808425
v 0.413580 1.011630 -0.502213
v 0.758862 0.748134 -0.412535
v 0.668993 0.735341 -0.132063
v 1.002561 0.398192 -0.283100
v 0.883829 0.432266 -0.019709
v 0.952712 0.041233 0.119156
v 0.795793 0.111011 0.322772
v 0.883829 -0.325289 0.250645
v 0.714845 -0.188029 0.430442
v 0.558803 -0.467084 0.532062
v 0.540958 -0.069231 0.559929
v 0.417119 -0.268353 0.631988
v 0.230480 -0.048429 0.680889
v 0.223159 -0.396054 0.678299
v 0.124460 -0.126345 0.709163
v -0.000000 -0.151484 0.718229
v -0.000000 0.221146 0.637652
v -0.124458 -0.126345 0.709163
v -0.230479 -0.048429 0.680889
v -0.223157 -0.396054 0.678299
v -0.417117 -0.268353 0.631988
v -0.558803 -0.467084 0.532062
v -0.540958 -0.069231 0.559929
v -0.714845 -0.188029 0.430442
v -0.795793 0.111011 0.322772
v -0.883829 -0.325289 0.250645
v -0.952712 0.041233 0.119156
v -1.002560 -0.469346 0.026772
v -1.080691 -0.046802 -0.124751
v -1.101590 -0.606027 -0.234685
v -1.187450 -0.145177 -0.399800
v -1.214470 -0.550074 -0.649417
v -1.256680 -0.257863 -0.754954
v 0.594019 0.163627 0.475592
v 0.540958 0.392968 0.392533
v 0.328226 0.200372 0.590749
v 0.301702 0.332341 0.542919
v 0.230480 0.449172 0.500609
v 0.124460 0.522337 0.474064
v 0.223159 0.719791 0.274165
v -0.000000 0.552226 0.463269
v -0.000000 0.774536 0.254410
v -0.223157 0.719791 0.274165
v -0.000000 0.937894 0.023396
v -0.294890 0.854420 0.056321
v -0.364600 0.967937 -0.210879
v -0.558803 0.689108 0.113489
v -0.668992 0.735341 -0.132063
v -0.883829 0.432266 -0.019709
v -1.002560 0.398192 -0.283100
v -0.000000 -0.447282 0.696774
v 0.000001 -0.706540 0.618749
v 0.294891 -0.619825 0.585411
v 0.364601 -0.860963 0.441815
v 0.668993 -0.652871 0.370386
v 0.413580 -1.082785 0.245884
v 0.758862 -0.841735 0.163037
v 0.454435 -1.271394 0.002966
v 0.833825 -1.007396 -0.087660
v 0.566546 -1.339189 -0.227479
v 0.825667 -1.170977 -0.342688
v -0.417117 0.595606 0.319195
v -0.540958 0.392968 0.392533
v -0.230479 0.449172 0.500609
v -0.301700 0.332341 0.542919
v -0.328225 0.200372 0.590749
v -0.301700 0.063648 0.640299
v 0.417119 0.595606 0.319195
v 0.558803 0.689108 0.113489
v 0.294891 0.854420 0.056321
v 0.364601 0.967937 -0.210879
v -0.000000 1.049983 -0.245998
v 0.000001 -0.940376 0.474443
v 0.000001 -1.171012 0.282242
v -0.413579 -1.082785 0.245884
v -0.454433 -1.271394 0.002966
v -0.758862 -0.841735 0.163037
v -0.833825 -1.007396 -0.087660
v -1.085510 -0.868916 -0.516073
v -0.364600 -0.860963 0.441815
v -0.668992 -0.652871 0.370386
v 1.002561 -0.469346 0.026772
v 1.101591 -0.606027 -0.234685
v 1.085510 -0.868916 -0.516073
v 0.833825 0.717039 -0.711940
v 1.101591 0.334944 -0.570775
v 1.080691 -0.046801 -0.124751
v 0.000001 -1.364536 0.041633
v -0.261568 -1.435786 -0.148307
v -0.566546 -1.339189 -0.227479
v -0.124458 0.522337 0.474064
v -1.202661 0.071895 -0.849329
v -1.101590 0.334944 -0.570775
v -1.072391 0.390262 -0.949592
v -0.833825 0.717039 -0.711940
v -0.758862 0.748134 -0.412535
v -0.413579 1.011630 -0.502213
v -0.000000 1.051394 -1.034884
v 0.322916 0.997774 -1.050777
v 0.628696 0.849904 -1.050023
v 0.883714 0.647338 -1.024292
v 1.072391 0.390262 -0.949592
v 0.301702 0.063648 0.640299
v 1.214471 -0.550073 -0.649417
v 1.187450 -0.145177 -0.399800
v 1.256680 -0.257863 -0.754954
v 1.202661 0.071895 -0.849329
v -0.294890 -0.619825 0.585411
v -0.714845 0.422624 0.211290
v -0.594018 0.163627 0.475592
v -0.883714 0.647338 -1.024292
v 0.714845 0.422624 0.211290
v -0.825666 -1.170977 -0.342688
v 0.261569 -1.435786 -0.148307
v 0.000001 -1.463111 -0.114209
vt 0.000000 1.000000
vt 0.000000 1.000000
vt 0.000000 1.000000
vt 0.000000 1.000000
vt 0.000000 1.000000
vt 0.000000 1.000000
vt 0.000000 1.000000
vt 0.000000 1.000000
vt 0.000000 1.000000
vt 0.000000 1.000000
vt 0.000000 1.000000
vt 0.000000 1.000000
vt 0.000000 1.000000
vt 0.000000 1.000000
vt 0.000000 1.000000
vt 0.000000 1.000000
vt 0.000000 1.000000
vt 0.000000 1.000000
vt 0.000000 1.000000
vt 0.000000 1.000000
vt 0.000000 1.000000
vt 0.000000 1.000000
vt 0.000000 1.000000
vt 0.000000 1.000000
vt 0.000000 1.000000
vt 0.000000 1.000000
vt 0.000000 1.000000
vt 0.000000 1.000000
vt 0.000000 1.000000
vt 0.000000 1.000000
vt 0.000000 1.000000
vt 0.000000 1.000000
vt 0.000000 1.000000
vt 0.000000 1.000000
vt 0.000000 1.000000
vt 0.000000 1.000000
vt 0.000000 1.000000
vt 0.000000 1.000000
vt 0.000000 1.000000
vt 0.000000 1.000000
vt 0.000000 1.000000
vt 0.000000 1.000000
vt 0.000000 1.000000
vt 0.000000 1.000000
vt 0.000000 1.000000
vt 0.000000 1.000000
vt 0.000000 1.000000
vt 0.000000 1.000000
vt 0.000000 1.000000
vt 0.000000 1.000000
vt 0.000000 1.000000
vt 0.000000 1.000000
vt 0.000000 1.000000
vt 0.000000 1.000000
vt 0.000000 1.000000
vt 0.000000 1.000000
vt 0.000000 1.000000
vt 0.000000 1.000000
vt 0.000000 1.000000
vt 0.000000 1.000000
vt 0.000000 1.000000
vt 0.000000 1.000000
vt 0.000000 1.000000
vt 0.000000 1.000000
vt 0.000000 1.000000
vt 0.000000 1.000000
vt 0.000000 1.000000
vt 0.000000 1.000000
vt 0.000000 1.000000
vt 0.000000 1.000000
vt 0.000000 1.000000
vt 0.000000 1.000000
vt 0.000000 1.000000
vt 0.000000 1.000000
vt 0.000000 1.000000
vt 0.000000 1.000000
vt 0.000000 1.000000
vt 0.000000 1.000000
vt 0.000000 1.000000
vt 0.000000 1.000000
vt 0.000000 1.000000
vt 0.000000 1.000000
vt 0.000000 1.000000
vt 0.000000 1.000000
vt 0.000000 1.000000
vt 0.000000 1.000000
vt 0.000000 1.000000
vt 0.000000 1.000000
vt 0.000000 1.000000
vt 0.000000 1.000000
vt 0.000000 1.000000
vt 0.000000 1.000000
vt 0.000000 1.000000
vt 0.000000 1.000000
vt 0.000000 1.000000
vt 0.000000 1.000000
vt 0.000000 1.000000
vt 0.000000 1.000000
vt 0.000000 1.000000
vt 0.000000 1.000000
vt 0.000000 1.000000
vt 0.000000 1.000000
vt 0.000000 1.000000
vt 0.000000 1.000000
vt 0.000000 1.000000
vt 0.000000 1.000000
vt 0.000000 1.000000
vt 0.000000 1.000000
vt 0.000000 1.000000
vt 0.000000 1.000000
vt 0.000000 1.000000
vt 0.000000 1.000000
vt 0.000000 1.000000
vt 0.000000 1.000000
vt 0.000000 1.000000
vt 0.000000 1.000000
vt 0.000000 1.000000
vt 0.000000 1.000000
vt 0.000000 1.000000
vt 0.000000 1.000000
vt 0.000000 1.000000
vn -0.5660 0.8168 -0.1117
vn -0.4047 0.9120 -0.0665
vn -0.2603 0.9531 -0.1545
vn 0.0017 0.9961 -0.0887
vn -0.0000 0.9989 0.0462
vn 0.4040 0.9123 -0.0670
vn 0.3936 0.9136 0.1022
vn 0.6772 0.7165 0.1673
vn 0.6248 0.7145 0.3148
vn 0.8545 0.4507 0.2582
vn 0.7819 0.4739 0.4049
vn 0.8578 0.1694 0.4853
vn 0.7230 0.2300 0.6515
vn 0.7903 -0.0987 0.6047
vn 0.6677 -0.0029 0.7444
vn 0.5240 -0.2224 0.8222
vn 0.5101 0.1001 0.8543
vn 0.3908 -0.0464 0.9193
vn 0.2243 0.1374 0.9648
vn 0.2226 -0.1714 0.9597
vn 0.1284 0.0699 0.9893
vn -0.0000 0.0490 0.9988
vn -0.0000 0.3424 0.9396
vn -0.1284 0.0699 0.9893
vn -0.2243 0.1374 0.9648
vn -0.2226 -0.1714 0.9597
vn -0.3908 -0.0464 0.9193
vn -0.5240 -0.2224 0.8222
vn -0.5101 0.1001 0.8543
vn -0.6677 -0.0029 0.7444
vn -0.7230 0.2300 0.6515
vn -0.7903 -0.0987 0.6047
vn -0.8578 0.1694 0.4853
vn -0.8581 -0.1727 0.4836
vn -0.9205 0.1280 0.3693
vn -0.9025 -0.2408 0.3571
vn -0.9632 0.0872 0.2542
vn -0.9624 -0.1471 0.2282
vn -0.9831 0.0664 0.1706
vn 0.5354 0.2882 0.7939
vn 0.5019 0.4672 0.7279
vn 0.3040 0.3247 0.8956
vn 0.2839 0.4218 0.8611
vn 0.2211 0.5109 0.8307
vn 0.1261 0.5731 0.8097
vn 0.2163 0.7287 0.6498
vn -0.0000 0.5975 0.8018
vn -0.0000 0.7635 0.6458
vn -0.2163 0.7287 0.6498
vn -0.0000 0.8778 0.4790
vn -0.2831 0.8182 0.5005
vn -0.3582 0.8839 0.3006
vn -0.5175 0.6864 0.5109
vn -0.6248 0.7145 0.3148
vn -0.7819 0.4739 0.4049
vn -0.8545 0.4507 0.2582
vn -0.0000 -0.1953 0.9807
vn 0.0000 -0.4188 0.9081
vn 0.2924 -0.3607 0.8857
vn 0.3443 -0.5125 0.7867
vn 0.6201 -0.3574 0.6984
vn 0.3790 -0.6398 0.6686
vn 0.6708 -0.4503 0.5894
vn 0.4045 -0.7344 0.5450
vn 0.7132 -0.5331 0.4551
vn 0.5239 -0.7250 0.4472
vn 0.7142 -0.5994 0.3616
vn -0.3851 0.6221 0.6817
vn -0.5019 0.4672 0.7279
vn -0.2211 0.5109 0.8307
vn -0.2839 0.4218 0.8611
vn -0.3040 0.3247 0.8956
vn -0.2856 0.2236 0.9319
vn 0.3851 0.6221 0.6817
vn 0.5175 0.6864 0.5109
vn 0.2831 0.8182 0.5005
vn 0.3582 0.8839 0.3006
vn -0.0000 0.9648 0.2631
vn 0.0000 -0.5876 0.8092
vn 0.0000 -0.7153 0.6988
vn -0.3790 -0.6398 0.6686
vn -0.4045 -0.7344 0.5450
vn -0.6708 -0.4503 0.5894
vn -0.7132 -0.5331 0.4551
vn -0.8738 -0.3915 0.2884
vn -0.3443 -0.5125 0.7867
vn -0.6201 -0.3574 0.6984
vn 0.8581 -0.1727 0.4836
vn 0.9025 -0.2408 0.3571
vn 0.8738 -0.3915 0.2884
vn 0.7094 0.7041 0.0336
vn 0.8992 0.4188 0.1270
vn 0.9205 0.1280 0.3693
vn 0.0000 -0.8049 0.5934
vn -0.2464 -0.8101 0.5321
vn -0.5239 -0.7250 0.4472
vn -0.1261 0.5731 0.8097
vn -0.9597 0.2681 0.0838
vn -0.8992 0.4188 0.1270
vn -0.8596 0.5109 0.0016
vn -0.7094 0.7041 0.0336
vn -0.6772 0.7165 0.1674
vn -0.3936 0.9136 0.1022
vn 0.0038 0.9935 -0.1138
vn 0.2567 0.9549 -0.1493
vn 0.5660 0.8168 -0.1117
vn 0.7289 0.6837 -0.0361
vn 0.8596 0.5109 0.0016
vn 0.2856 0.2236 0.9319
vn 0.9624 -0.1471 0.2282
vn 0.9632 0.0872 0.2542
vn 0.9831 0.0664 0.1706
vn 0.9597 0.2681 0.0838
vn -0.2924 -0.3607 0.8857
vn -0.6506 0.4813 0.5875
vn -0.5354 0.2882 0.7939
vn -0.7289 0.6837 -0.0361
vn 0.6506 0.4813 0.5875
vn -0.7142 -0.5994 0.3616
vn 0.2464 -0.8101 0.5321
vn 0.0000 -0.8451 0.5346
usemtl radiation_canopy
s 1
f 1/1/1 2/2/2 3/3/3
f 3/3/3 2/2/2 4/4/4
f 2/2/2 5/5/5 4/4/4
f 4/4/4 5/5/5 6/6/6
f 5/5/5 7/7/7 6/6/6
f 6/6/6 7/7/7 8/8/8
f 7/7/7 9/9/9 8/8/8
f 8/8/8 9/9/9 10/10/10
f 9/9/9 11/11/11 10/10/10
f 10/10/10 11/11/11 12/12/12
f 11/11/11 13/13/13 12/12/12
f 12/12/12 13/13/13 14/14/14
f 13/13/13 15/15/15 14/14/14
f 14/14/14 15/15/15 16/16/16
f 15/15/15 17/17/17 16/16/16
f 16/16/16 17/17/17 18/18/18
f 17/17/17 19/19/19 18/18/18
f 18/18/18 19/19/19 20/20/20
f 19/19/19 21/21/21 20/20/20
f 20/20/20 21/21/21 22/22/22
f 21/21/21 23/23/23 22/22/22
f 22/22/22 23/23/23 24/24/24
f 23/23/23 25/25/25 24/24/24
f 24/24/24 25/25/25 26/26/26
f 25/25/25 27/27/27 26/26/26
f 26/26/26 27/27/27 28/28/28
f 27/27/27 29/29/29 28/28/28
f 28/28/28 29/29/29 30/30/30
f 29/29/29 31/31/31 30/30/30
f 30/30/30 31/31/31 32/32/32
f 31/31/31 33/33/33 32/32/32
f 32/32/32 33/33/33 34/34/34
f 33/33/33 35/35/35 34/34/34
f 34/34/34 35/35/35 36/36/36
f 35/35/35 37/37/37 36/36/36
f 36/36/36 37/37/37 38/38/38
f 37/37/37 39/39/39 38/38/38
f 15/15/15 13/13/13 17/17/17
f 17/17/17 13/13/13 40/40/40
f 13/13/13 41/41/41 40/40/40
f 40/40/40 41/41/41 42/42/42
f 41/41/41 43/43/43 42/42/42
f 42/42/42 43/43/43 23/23/23
f 43/43/43 44/44/44 23/23/23
f 23/23/23 44/44/44 45/45/45
f 44/44/44 46/46/46 45/45/45
f 45/45/45 46/46/46 47/47/47
f 46/46/46 48/48/48 47/47/47
f 47/47/47 48/48/48 49/49/49
f 48/48/48 50/50/50 49/49/49
f 49/49/49 50/50/50 51/51/51
f 50/50/50 52/52/52 51/51/51
f 51/51/51 52/52/52 53/53/53
f 52/52/52 54/54/54 53/53/53
f 53/53/53 54/54/54 55/55/55
f 54/54/54 56/56/56 55/55/55
f 55/55/55 56/56/56 33/33/33
f 56/56/56 35/35/35 33/33/33
f 24/24/24 26/26/26 22/22/22
f 22/22/22 26/26/26 57/57/57
f 26/26/26 58/58/58 57/57/57
f 57/57/57 58/58/58 20/20/20
f 58/58/58 59/59/59 20/20/20
f 20/20/20 59/59/59 16/16/16
f 59/59/59 60/60/60 16/16/16
f 16/16/16 60/60/60 61/61/61
f 60/60/60 62/62/62 61/61/61
f 61/61/61 62/62/62 63/63/63
f 62/62/62 64/64/64 63/63/63
f 63/63/63 64/64/64 65/65/65
f 64/64/64 66/66/66 65/65/65
f 65/65/65 66/66/66 67/67/67
f 51/51/51 53/53/53 49/49/49
f 49/49/49 53/53/53 68/68/68
f 53/53/53 69/69/69 68/68/68
f 68/68/68 69/69/69 70/70/70
f 69/69/69 71/71/71 70/70/70
f 70/70/70 71/71/71 23/23/23
f 71/71/71 72/72/72 23/23/23
f 23/23/23 72/72/72 73/73/73
f 72/72/72 29/29/29 73/73/73
f 73/73/73 29/29/29 25/25/25
f 29/29/29 27/27/27 25/25/25
f 43/43/43 41/41/41 44/44/44
f 44/44/44 41/41/41 74/74/74
f 41/41/41 75/75/75 74/74/74
f 74/74/74 75/75/75 46/46/46
f 75/75/75 76/76/76 46/46/46
f 46/46/46 76/76/76 50/50/50
f 76/76/76 77/77/77 50/50/50
f 50/50/50 77/77/77 78/78/78
f 77/77/77 7/7/7 78/78/78
f 78/78/78 7/7/7 5/5/5
f 60/60/60 79/79/79 62/62/62
f 62/62/62 79/79/79 80/80/80
f 79/79/79 81/81/81 80/80/80
f 80/80/80 81/81/81 82/82/82
f 81/81/81 83/83/83 82/82/82
f 82/82/82 83/83/83 84/84/84
f 83/83/83 36/36/36 84/84/84
f 84/84/84 36/36/36 85/85/85
f 36/36/36 38/38/38 85/85/85
f 59/59/59 58/58/58 60/60/60
f 60/60/60 58/58/58 79/79/79
f 58/58/58 86/86/86 79/79/79
f 79/79/79 86/86/86 81/81/81
f 86/86/86 87/87/87 81/81/81
f 81/81/81 87/87/87 83/83/83
f 87/87/87 34/34/34 83/83/83
f 83/83/83 34/34/34 36/36/36
f 16/16/16 61/61/61 14/14/14
f 14/14/14 61/61/61 88/88/88
f 61/61/61 63/63/63 88/88/88
f 88/88/88 63/63/63 89/89/89
f 63/63/63 65/65/65 89/89/89
f 89/89/89 65/65/65 90/90/90
f 65/65/65 67/67/67 90/90/90
f 6/6/6 8/8/8 91/91/91
f 91/91/91 8/8/8 92/92/92
f 8/8/8 10/10/10 92/92/92
f 92/92/92 10/10/10 93/93/93
f 10/10/10 12/12/12 93/93/93
f 93/93/93 12/12/12 88/88/88
f 12/12/12 14/14/14 88/88/88
f 62/62/62 80/80/80 64/64/64
f 64/64/64 80/80/80 94/94/94
f 80/80/80 82/82/82 94/94/94
f 94/94/94 82/82/82 95/95/95
f 82/82/82 96/96/96 95/95/95
f 68/68/68 70/70/70 49/49/49
f 49/49/49 70/70/70 97/97/97
f 70/70/70 23/23/23 97/97/97
f 97/97/97 23/23/23 47/47/47
f 23/23/23 45/45/45 47/47/47
f 98/98/98 99/99/99 100/100/100
f 100/100/100 99/99/99 101/101/101
f 99/99/99 102/102/102 101/101/101
f 101/101/101 102/102/102 2/2/2
f 102/102/102 103/103/103 2/2/2
f 104/104/104 6/6/6 105/105/105
f 105/105/105 6/6/6 106/106/106
f 6/6/6 91/91/91 106/106/106
f 106/106/106 91/91/91 107/107/107
f 91/91/91 108/108/108 107/107/107
f 40/40/40 42/42/42 17/17/17
f 17/17/17 42/42/42 109/109/109
f 42/42/42 23/23/23 109/109/109
f 109/109/109 23/23/23 19/19/19
f 23/23/23 21/21/21 19/19/19
f 90/90/90 110/110/110 89/89/89
f 89/89/89 110/110/110 111/111/111
f 110/110/110 112/112/112 111/111/111
f 111/111/111 112/112/112 113/113/113
f 87/87/87 86/86/86 28/28/28
f 28/28/28 86/86/86 114/114/114
f 86/86/86 58/58/58 114/114/114
f 114/114/114 58/58/58 26/26/26
f 39/39/39 37/37/37 98/98/98
f 98/98/98 37/37/37 99/99/99
f 37/37/37 35/35/35 99/99/99
f 99/99/99 35/35/35 56/56/56
f 33/33/33 31/31/31 55/55/55
f 55/55/55 31/31/31 115/115/115
f 31/31/31 69/69/69 115/115/115
f 115/115/115 69/69/69 53/53/53
f 50/50/50 78/78/78 52/52/52
f 52/52/52 78/78/78 103/103/103
f 78/78/78 5/5/5 103/103/103
f 103/103/103 5/5/5 2/2/2
f 71/71/71 69/69/69 72/72/72
f 72/72/72 69/69/69 116/116/116
f 69/69/69 31/31/31 116/116/116
f 116/116/116 31/31/31 29/29/29
f 100/100/100 101/101/101 117/117/117
f 117/117/117 101/101/101 1/1/1
f 101/101/101 2/2/2 1/1/1
f 76/76/76 75/75/75 77/77/77
f 77/77/77 75/75/75 9/9/9
f 75/75/75 11/11/11 9/9/9
f 30/30/30 32/32/32 28/28/28
f 28/28/28 32/32/32 87/87/87
f 32/32/32 34/34/34 87/87/87
f 41/41/41 118/118/118 75/75/75
f 75/75/75 118/118/118 11/11/11
f 118/118/118 13/13/13 11/11/11
f 85/85/85 119/119/119 84/84/84
f 84/84/84 119/119/119 96/96/96
f 52/52/52 103/103/103 54/54/54
f 54/54/54 103/103/103 102/102/102
f 54/54/54 102/102/102 56/56/56
f 56/56/56 102/102/102 99/99/99
f 66/66/66 64/64/64 120/120/120
f 120/120/120 64/64/64 94/94/94
f 120/120/120 94/94/94 121/121/121
f 121/121/121 94/94/94 95/95/95
f 88/88/88 89/89/89 93/93/93
f 93/93/93 89/89/89 111/111/111
f 93/93/93 111/111/111 92/92/92
f 92/92/92 111/111/111 113/113/113
f 113/113/113 108/108/108 92/92/92
f 92/92/92 108/108/108 91/91/91
f 3/3/3 4/4/4 104/104/104
f 104/104/104 4/4/4 6/6/6
f 73/73/73 25/25/25 23/23/23
f 20/20/20 22/22/22 57/57/57
f 46/46/46 44/44/44 74/74/74
f 46/46/46 50/50/50 48/48/48
f 29/29/29 72/72/72 116/116/116
f 26/26/26 28/28/28 114/114/114
f 53/53/53 55/55/55 115/115/115
f 9/9/9 7/7/7 77/77/77
f 47/47/47 49/49/49 97/97/97
f 20/20/20 16/16/16 18/18/18
f 84/84/84 96/96/96 82/82/82
f 19/19/19 17/17/17 109/109/109
f 41/41/41 13/13/13 118/118/118
