# Blender v2.83.0 OBJ File: ''
# www.blender.org
mtllib S.S._Dolphin_Sagittarius_base.mtl
o S.S._Dolphin_Sagittarius_base
v 0.001697 0.442402 -0.585079
v -0.052996 0.488280 -0.305088
v 0.105383 0.557758 -0.464845
v 0.204776 0.626414 -0.309027
v 0.096506 0.573111 -0.052862
v 0.295562 0.658393 -0.136958
v 0.366840 0.635624 0.044466
v 0.195424 0.514115 0.225418
v 0.366840 0.635624 0.044466
v 0.420400 0.575658 0.222263
v 0.444466 0.467561 0.380679
v 0.217248 0.327103 0.455187
v 0.444466 0.467561 0.380679
v 0.446450 0.331716 0.516567
v 0.416855 0.167259 0.609526
v 0.156132 0.062181 0.574879
v 0.416855 0.167259 0.609526
v 0.366730 -0.008063 0.667092
v 0.291404 -0.184817 0.669688
v 0.028458 -0.209661 0.552422
v 0.291404 -0.184817 0.669688
v 0.202602 -0.352640 0.633505
v 0.101729 -0.494329 0.545042
v -0.131572 -0.415587 0.393834
v 0.101729 -0.494329 0.545042
v -0.001956 -0.609684 0.424808
v -0.101348 -0.678343 0.268989
v -0.281076 -0.500418 0.141609
v -0.101348 -0.678343 0.268989
v -0.101348 -0.678343 0.268989
v -0.192134 -0.710321 0.096920
v -0.263413 -0.687552 -0.084504
v -0.379992 -0.441422 -0.136671
v -0.263413 -0.687552 -0.084504
v -0.316973 -0.627585 -0.262302
v -0.341038 -0.519488 -0.420717
v -0.401817 -0.254410 -0.366441
v -0.341038 -0.519488 -0.420717
v -0.343022 -0.383645 -0.556604
v -0.313428 -0.219188 -0.649565
v -0.340703 0.010511 -0.486133
v -0.313428 -0.219188 -0.649565
v -0.263302 -0.043864 -0.707129
v -0.187977 0.132890 -0.709726
v 0.101729 -0.494329 0.545042
v -0.001956 -0.609684 0.424808
v -0.192134 -0.710321 0.096920
v -0.101348 -0.678343 0.268989
v -0.263413 -0.687552 -0.084504
v -0.316973 -0.627585 -0.262302
v -0.341038 -0.519488 -0.420717
v 0.001697 0.442402 -0.585079
v -0.213026 0.282353 -0.463677
v -0.099174 0.300714 -0.673543
v -0.341038 -0.519488 -0.420717
v -0.343022 -0.383645 -0.556604
v -0.313428 -0.219188 -0.649565
v -0.313428 -0.219188 -0.649565
v -0.263302 -0.043864 -0.707129
v -0.187977 0.132890 -0.709726
v -0.187977 0.132890 -0.709726
v -0.099174 0.300714 -0.673543
v 0.001697 0.442402 -0.585079
v 0.001697 0.442402 -0.585079
v 0.105383 0.557758 -0.464845
v 0.204776 0.626414 -0.309027
v 0.204776 0.626414 -0.309027
v 0.295562 0.658393 -0.136958
v 0.366840 0.635624 0.044466
v 0.366840 0.635624 0.044466
v 0.420400 0.575658 0.222263
v 0.444466 0.467561 0.380679
v 0.444466 0.467561 0.380679
v 0.446450 0.331716 0.516567
v 0.416855 0.167259 0.609526
v 0.416855 0.167259 0.609526
v 0.366730 -0.008063 0.667092
v 0.291404 -0.184817 0.669688
v 0.291404 -0.184817 0.669688
v 0.202602 -0.352640 0.633505
v 0.101729 -0.494329 0.545042
v -0.187977 0.132890 -0.709726
v -0.099174 0.300714 -0.673543
v -0.232955 -0.082973 0.020413
v -0.332274 0.023178 0.124250
v -0.220716 0.057815 -0.088452
v -0.321900 0.142509 0.031977
v -0.064538 0.204518 0.118828
v -0.241581 0.217956 0.138577
v -0.076778 0.063730 0.227694
v -0.251955 0.098625 0.230850
v -0.204359 0.084845 0.094488
v -0.161146 -0.081852 0.179905
v -0.136348 0.203397 -0.040665
v -0.330852 0.139575 0.151056
vt 0.000000 1.000000
vt 0.000000 1.000000
vt 0.000000 1.000000
vt 0.000000 1.000000
vt 0.000000 1.000000
vt 0.000000 1.000000
vt 0.000000 1.000000
vt 0.000000 1.000000
vt 0.000000 1.000000
vt 0.000000 1.000000
vt 0.000000 1.000000
vt 0.000000 1.000000
vt 0.000000 1.000000
vt 0.000000 1.000000
vt 0.000000 1.000000
vt 0.000000 1.000000
vt 0.000000 1.000000
vt 0.000000 1.000000
vt 0.000000 1.000000
vt 0.000000 1.000000
vt 0.000000 1.000000
vt 0.000000 1.000000
vt 0.000000 1.000000
vt 0.000000 1.000000
vt 0.000000 1.000000
vt 0.000000 1.000000
vt 0.000000 1.000000
vt 0.000000 1.000000
vt 0.000000 1.000000
vt 0.000000 1.000000
vt 0.000000 1.000000
vt 0.000000 1.000000
vt 0.000000 1.000000
vt 0.000000 1.000000
vt 0.000000 1.000000
vt 0.000000 1.000000
vt 0.000000 1.000000
vt 0.000000 1.000000
vt 0.000000 1.000000
vt 0.000000 1.000000
vt 0.000000 1.000000
vt 0.000000 1.000000
vt 0.000000 1.000000
vt 0.000000 1.000000
vt 0.000000 1.000000
vt 0.000000 1.000000
vt 0.000000 1.000000
vt 0.000000 1.000000
vt 0.000000 1.000000
vt 0.000000 1.000000
vt 0.000000 1.000000
vt 0.000000 1.000000
vt 0.000000 1.000000
vt 0.000000 1.000000
vt 0.000000 1.000000
vt 0.000000 1.000000
vt 0.000000 1.000000
vt 0.000000 1.000000
vt 0.000000 1.000000
vt 0.000000 1.000000
vt 0.000000 1.000000
vt 0.000000 1.000000
vt 0.000000 1.000000
vt 0.000000 1.000000
vt 0.000000 1.000000
vt 0.000000 1.000000
vt 0.000000 1.000000
vt 0.000000 1.000000
vt 0.000000 1.000000
vt 0.000000 1.000000
vt 0.000000 1.000000
vt 0.000000 1.000000
vt 0.000000 1.000000
vt 0.000000 1.000000
vt 0.000000 1.000000
vt 0.000000 1.000000
vt 0.000000 1.000000
vt 0.000000 1.000000
vt 0.000000 1.000000
vt 0.000000 1.000000
vt 0.000000 1.000000
vt 0.000000 1.000000
vt 0.000000 1.000000
vt 0.000000 1.000000
vt 0.000000 1.000000
vt 0.000000 1.000000
vt 0.000000 1.000000
vt 0.000000 1.000000
vt 0.000000 1.000000
vt 0.000000 1.000000
vt 0.000000 1.000000
vt 0.000000 1.000000
vt 0.000000 1.000000
vt 0.000000 1.000000
vt 0.000000 1.000000
vn -0.5834 0.7756 -0.2410
vn -0.6936 0.7201 0.0176
vn -0.5303 0.8318 -0.1639
vn -0.4448 0.8954 -0.0232
vn -0.5633 0.7942 0.2278
vn -0.3414 0.9301 0.1351
vn -0.2980 0.9256 0.2333
vn -0.4789 0.7406 0.4714
vn -0.2812 0.8985 0.3370
vn -0.2250 0.8473 0.4811
vn -0.2088 0.7927 0.5727
vn -0.4669 0.5685 0.6773
vn -0.2271 0.7170 0.6591
vn -0.2181 0.6003 0.7695
vn -0.2321 0.5100 0.8283
vn -0.5271 0.3297 0.7832
vn -0.2808 0.4108 0.8674
vn -0.3115 0.2643 0.9127
vn -0.3497 0.1626 0.9226
vn -0.6364 0.0918 0.7659
vn -0.4119 0.0725 0.9083
vn -0.4671 -0.0691 0.8815
vn -0.5189 -0.1554 0.8406
vn -0.7670 -0.0880 0.6356
vn -0.5813 -0.2156 0.7846
vn -0.6475 -0.3222 0.6906
vn -0.7005 -0.3704 0.6100
vn -0.8912 -0.1648 0.4227
vn -0.7479 -0.3531 0.5621
vn -0.7647 -0.4268 0.4828
vn -0.8182 -0.4283 0.3835
vn -0.8595 -0.4247 0.2844
vn -0.9775 -0.1103 0.1799
vn -0.9020 -0.3865 0.1922
vn -0.9382 -0.3440 0.0391
vn -0.9560 -0.2887 -0.0518
vn -0.9976 0.0652 -0.0224
vn -0.9725 -0.1979 -0.1227
vn -0.9669 -0.0875 -0.2395
vn -0.9547 0.0036 -0.2976
vn -0.9435 0.3066 -0.1256
vn -0.9395 0.1173 -0.3217
vn -0.8910 0.2560 -0.3750
vn -0.8508 0.3569 -0.3858
vn 0.8490 -0.3674 -0.3797
vn -0.6695 0.6904 -0.2741
vn -0.8322 0.5437 -0.1092
vn -0.6742 0.6717 -0.3070
vn -0.8128 0.4574 -0.3606
vn -0.7810 0.4953 -0.3804
vn -0.7940 -0.5865 -0.1598
vn -0.8919 -0.4145 0.1807
vn -0.7364 0.0761 -0.6723
vn -0.8235 0.3725 -0.4279
vn 0.1182 0.8789 0.4620
vn -0.2519 0.9095 0.3308
vn 0.0606 0.2163 0.9744
vn -0.3203 0.1224 0.9394
vn -0.8490 0.3674 0.3797
vn -0.4049 -0.5743 0.7115
vn -0.2793 0.8704 -0.4056
usemtl white
s 1
f 1/1/1 2/2/2 3/3/3
f 3/3/3 2/2/2 4/4/4
f 2/2/2 5/5/5 4/4/4
f 4/4/4 5/5/5 6/6/6
f 5/5/5 7/7/7 6/6/6
f 5/5/5 8/8/8 9/9/9
f 9/9/9 8/8/8 10/10/10
f 8/8/8 11/11/11 10/10/10
f 8/8/8 12/12/12 13/13/13
f 13/13/13 12/12/12 14/14/14
f 12/12/12 15/15/15 14/14/14
f 12/12/12 16/16/16 17/17/17
f 17/17/17 16/16/16 18/18/18
f 16/16/16 19/19/19 18/18/18
f 16/16/16 20/20/20 21/21/21
f 21/21/21 20/20/20 22/22/22
f 20/20/20 23/23/23 22/22/22
f 20/20/20 24/24/24 25/25/25
f 25/25/25 24/24/24 26/26/26
f 24/24/24 27/27/27 26/26/26
f 24/24/24 28/28/28 29/29/29
f 30/30/30 28/28/28 31/31/31
f 28/28/28 32/32/32 31/31/31
f 28/28/28 33/33/33 34/34/34
f 34/34/34 33/33/33 35/35/35
f 33/33/33 36/36/36 35/35/35
f 33/33/33 37/37/37 38/38/38
f 38/38/38 37/37/37 39/39/39
f 37/37/37 40/40/40 39/39/39
f 37/37/37 41/41/41 42/42/42
f 42/42/42 41/41/41 43/43/43
f 41/41/41 44/44/44 43/43/43
f 45/45/45 46/46/45 47/47/45
f 47/47/45 46/46/45 48/48/45
f 49/49/45 50/50/45 47/47/45
f 47/47/45 50/50/45 51/51/45
f 2/2/2 52/52/46 53/53/47
f 53/53/47 52/52/46 54/54/48
f 55/55/45 56/56/45 47/47/45
f 47/47/45 56/56/45 57/57/45
f 58/58/45 59/59/45 47/47/45
f 47/47/45 59/59/45 60/60/45
f 61/61/45 62/62/45 47/47/45
f 47/47/45 62/62/45 63/63/45
f 64/64/45 65/65/45 47/47/45
f 47/47/45 65/65/45 66/66/45
f 67/67/45 68/68/45 47/47/45
f 47/47/45 68/68/45 69/69/45
f 70/70/45 71/71/45 47/47/45
f 47/47/45 71/71/45 72/72/45
f 73/73/45 74/74/45 47/47/45
f 47/47/45 74/74/45 75/75/45
f 76/76/45 77/77/45 47/47/45
f 47/47/45 77/77/45 78/78/45
f 79/79/45 80/80/45 47/47/45
f 47/47/45 80/80/45 81/81/45
f 41/41/41 53/53/47 82/82/49
f 82/82/49 53/53/47 83/83/50
f 84/84/51 85/85/52 86/86/53
f 86/86/53 85/85/52 87/87/54
f 88/88/55 89/89/56 90/90/57
f 90/90/57 89/89/56 91/91/58
f 92/92/59 20/20/20 16/16/16
f 92/92/59 16/16/16 12/12/12
f 92/92/59 8/8/8 5/5/5
f 8/8/8 92/92/59 12/12/12
f 92/92/59 53/53/47 41/41/41
f 92/92/59 41/41/41 37/37/37
f 53/53/47 92/92/59 2/2/2
f 20/20/20 92/92/59 24/24/24
f 92/92/59 28/28/28 24/24/24
f 92/92/59 5/5/5 2/2/2
f 93/93/60 91/91/58 85/85/52
f 91/91/58 93/93/60 90/90/57
f 94/94/61 87/87/54 89/89/56
f 87/87/54 94/94/61 86/86/53
f 94/94/61 89/89/56 88/88/55
f 85/85/52 91/91/58 95/95/59
f 87/87/54 85/85/52 95/95/59
f 93/93/60 85/85/52 84/84/51
f 91/91/58 89/89/56 95/95/59
f 89/89/56 87/87/54 95/95/59
f 92/92/59 33/33/33 28/28/28
f 33/33/33 92/92/59 37/37/37
