# Blender v2.83.0 OBJ File: ''
# www.blender.org
mtllib S.S._Dolphin_Eternal_Fuel_Dynamo_Base.mtl
o S.S._Dolphin_Eternal_Fuel_Dynamo_Base
v 1.099081 0.022682 1.777526
v 0.948493 -0.328730 1.516216
v 1.872452 0.022683 1.005396
v 1.611381 -0.328729 0.854383
v 2.156142 0.022683 -0.049983
v 1.854542 -0.328729 -0.050223
v 1.874132 0.022683 -1.105804
v 1.612821 -0.328729 -0.955216
v 1.102001 0.022683 -1.879175
v 0.950988 -0.328729 -1.618104
v 0.046622 0.022683 -2.162865
v 0.046382 -0.328729 -1.861265
v -1.009199 0.022683 -1.880855
v -0.858610 -0.328729 -1.619544
v -1.782569 0.022683 -1.108725
v -1.521499 -0.328729 -0.957712
v -2.066259 0.022683 -0.053345
v -1.764659 -0.328729 -0.053105
v -1.784249 0.022683 1.002476
v -1.522939 -0.328729 0.851888
v -1.012119 0.022682 1.775847
v -0.861106 -0.328730 1.514776
v 0.043260 0.022682 2.059536
v 0.043500 -0.328730 1.757937
v 1.099081 0.022682 1.777526
v 0.948493 -0.328730 1.516216
v -2.083860 0.036740 1.116726
v -1.784249 0.022683 1.002476
v -1.185249 0.036739 1.973906
v -1.012119 0.022682 1.775847
v 0.042985 0.036739 2.288337
v 0.043260 0.022682 2.059536
v 1.271751 0.036739 1.975766
v 1.099081 0.022682 1.777526
v 2.171791 0.036740 1.119946
v 1.872452 0.022683 1.005396
v 2.501942 0.036740 -0.049801
v 2.156142 0.022683 -0.049983
v 2.173742 0.036740 -1.220055
v 1.874132 0.022683 -1.105804
v 1.275131 0.036740 -2.077235
v 1.102001 0.022683 -1.879175
v 0.046898 0.036740 -2.391665
v 0.046622 0.022683 -2.162865
v -1.181869 0.036740 -2.079095
v -1.009199 0.022683 -1.880855
v -2.081909 0.036740 -1.223274
v -1.782569 0.022683 -1.108725
v -2.412059 0.036740 -0.053527
v -2.066259 0.022683 -0.053345
v -2.083860 0.036740 1.116726
v -1.784249 0.022683 1.002476
v -2.207759 -0.328729 1.246546
v -1.256849 -0.328730 2.198966
v -2.083860 0.036740 1.116726
v -1.185249 0.036739 1.973906
v 0.042871 -0.328731 2.548336
v 0.042985 0.036739 2.288337
v 1.343151 -0.328730 2.201035
v 1.271751 0.036739 1.975766
v 2.295572 -0.328729 1.250126
v 2.171791 0.036740 1.119946
v 2.644942 -0.328729 -0.049594
v 2.501942 0.036740 -0.049801
v 2.297642 -0.328729 -1.349875
v 2.173742 0.036740 -1.220055
v 1.346731 -0.328729 -2.302295
v 1.275131 0.036740 -2.077235
v 0.047011 -0.328729 -2.651665
v 0.046898 0.036740 -2.391665
v -1.253269 -0.328729 -2.304365
v -1.181869 0.036740 -2.079095
v -2.205690 -0.328729 -1.353455
v -2.081909 0.036740 -1.223274
v -2.555060 -0.328729 -0.053735
v -2.412059 0.036740 -0.053527
v -2.207759 -0.328729 1.246546
v -2.083860 0.036740 1.116726
v 1.454501 0.472709 -0.356992
v 0.044941 0.472709 -0.051664
v 1.454501 0.472709 0.253664
v -1.364619 0.472709 0.253664
v -1.364619 0.472709 -0.356992
v 0.503941 -0.137740 1.905336
v 0.503941 -0.318731 1.905336
v 0.503941 -0.137740 -2.020265
v 0.503941 -0.318730 -2.020265
v 1.326001 -0.137740 -2.020105
v 1.326531 -0.137740 1.905486
v 1.326001 -0.318730 -2.020105
v 1.326531 -0.318731 1.905486
v 1.454501 0.472709 0.253664
v -1.364619 0.472709 0.253664
v 1.549921 0.358471 0.253664
v -1.460029 0.358471 0.253664
v -1.460029 -0.192878 0.253664
v 1.549921 -0.192878 0.253664
v -1.460029 0.358471 0.253664
v 1.549921 0.358471 0.253664
v 1.549921 -0.192878 0.253664
v 1.549911 -0.192878 -0.356992
v 1.549921 0.358471 0.253664
v 1.549911 0.358471 -0.356992
v -1.460029 -0.192878 -0.356992
v -1.460029 -0.192878 0.253664
v -1.460029 0.358471 -0.356992
v -1.460029 0.358471 0.253664
v -1.460029 0.358471 -0.356992
v -1.460029 0.358471 0.253664
v -1.364619 0.472709 -0.356992
v -1.364619 0.472709 0.253664
v 1.549921 0.358471 0.253664
v 1.549911 0.358471 -0.356992
v 1.454501 0.472709 0.253664
v 1.454501 0.472709 -0.356992
v -1.364619 0.472709 -0.356992
v 1.454501 0.472709 -0.356992
v -1.460029 0.358471 -0.356992
v 1.549911 0.358471 -0.356992
v 1.549911 -0.192878 -0.356992
v -1.460029 -0.192878 -0.356992
v 1.549911 0.358471 -0.356992
v -1.460029 0.358471 -0.356992
v 0.503941 -0.137740 -2.020265
v 1.326001 -0.137740 -2.020105
v 0.503941 -0.137740 1.905336
v 1.326531 -0.137740 1.905486
v -1.236639 -0.137740 -2.020415
v -0.414059 -0.137740 -2.020265
v -1.236099 -0.137740 1.905186
v -0.414059 -0.137740 1.905336
v -0.414059 -0.318731 1.905336
v -0.414059 -0.137740 1.905336
v -0.414059 -0.318730 -2.020265
v -0.414059 -0.137740 -2.020265
v -1.236639 -0.318730 -2.020415
v -1.236099 -0.318731 1.905186
v -1.236639 -0.137740 -2.020415
v -1.236099 -0.137740 1.905186
v 0.044941 0.472709 -0.051664
v -1.364619 0.472709 -0.356992
v 1.454501 0.472709 -0.356992
vt 0.000000 0.000000
vt 0.000000 0.000000
vt 0.000000 0.000000
vt 0.000000 0.000000
vt 0.000000 0.000000
vt 0.000000 0.000000
vt 0.000000 0.000000
vt 0.000000 0.000000
vt 0.000000 0.000000
vt 0.000000 0.000000
vt 0.000000 0.000000
vt 0.000000 0.000000
vt 0.000000 0.000000
vt 0.000000 0.000000
vt 0.000000 0.000000
vt 0.000000 0.000000
vt 0.000000 0.000000
vt 0.000000 0.000000
vt 0.000000 0.000000
vt 0.000000 0.000000
vt 0.000000 0.000000
vt 0.000000 0.000000
vt 0.000000 0.000000
vt 0.000000 0.000000
vt 0.000000 0.000000
vt 0.000000 0.000000
vt 0.000000 0.000000
vt 0.000000 0.000000
vt 0.000000 0.000000
vt 0.000000 0.000000
vt 0.000000 0.000000
vt 0.000000 0.000000
vt 0.000000 0.000000
vt 0.000000 0.000000
vt 0.000000 0.000000
vt 0.000000 0.000000
vt 0.000000 0.000000
vt 0.000000 0.000000
vt 0.000000 0.000000
vt 0.000000 0.000000
vt 0.000000 0.000000
vt 0.000000 0.000000
vt 0.000000 0.000000
vt 0.000000 0.000000
vt 0.000000 0.000000
vt 0.000000 0.000000
vt 0.000000 0.000000
vt 0.000000 0.000000
vt 0.000000 0.000000
vt 0.000000 0.000000
vt 0.000000 0.000000
vt 0.000000 0.000000
vt 0.000000 0.000000
vt 0.000000 0.000000
vt 0.000000 0.000000
vt 0.000000 0.000000
vt 0.000000 0.000000
vt 0.000000 0.000000
vt 0.000000 0.000000
vt 0.000000 0.000000
vt 0.000000 0.000000
vt 0.000000 0.000000
vt 0.000000 0.000000
vt 0.000000 0.000000
vt 0.000000 0.000000
vt 0.000000 0.000000
vt 0.000000 0.000000
vt 0.000000 0.000000
vt 0.000000 0.000000
vt 0.000000 0.000000
vt 0.000000 0.000000
vt 0.000000 0.000000
vt 0.000000 0.000000
vt 0.000000 0.000000
vt 0.000000 0.000000
vt 0.000000 0.000000
vt 0.000000 0.000000
vt 0.000000 0.000000
vt 0.000000 0.000000
vt 0.000000 0.000000
vt 0.000000 0.000000
vt 0.000000 0.000000
vt 0.000000 0.000000
vt 0.000000 0.000000
vt 0.000000 0.000000
vt 0.000000 0.000000
vt 0.000000 0.000000
vt 0.000000 0.000000
vt 0.000000 0.000000
vt 0.000000 0.000000
vt 0.000000 0.000000
vt 0.000000 0.000000
vt 0.000000 0.000000
vt 0.000000 0.000000
vt 0.000000 0.000000
vt 0.000000 0.000000
vt 0.000000 0.000000
vt 0.000000 0.000000
vt 0.000000 0.000000
vt 0.000000 0.000000
vt 0.000000 0.000000
vt 0.000000 0.000000
vt 0.000000 0.000000
vt 0.000000 0.000000
vt 0.000000 0.000000
vt 0.000000 0.000000
vt 0.000000 0.000000
vt 0.000000 0.000000
vt 0.000000 0.000000
vt 0.000000 0.000000
vt 0.000000 0.000000
vt 0.000000 0.000000
vt 0.000000 0.000000
vt 0.000000 0.000000
vt 0.000000 0.000000
vt 0.000000 0.000000
vt 0.000000 0.000000
vt 0.000000 0.000000
vt 0.000000 0.000000
vt 0.000000 0.000000
vt 0.000000 0.000000
vt 0.000000 0.000000
vt 0.000000 0.000000
vt 0.000000 0.000000
vt 0.000000 0.000000
vt 0.000000 0.000000
vt 0.000000 0.000000
vt 0.000000 0.000000
vt 0.000000 0.000000
vt 0.000000 0.000000
vt 0.000000 0.000000
vt 0.000000 0.000000
vt 0.000000 0.000000
vt 0.000000 0.000000
vt 0.000000 0.000000
vt 0.000000 0.000000
vt 0.000000 0.000000
vt 0.000000 0.000000
vt 0.000000 0.000000
vt 0.000000 0.000000
vt 0.000000 0.000000
vt 0.000000 0.000000
vn 0.5439 -0.6382 0.5448
vn 0.6569 -0.6513 0.3799
vn 0.7588 -0.6513 0.0006
vn 0.6575 -0.6513 -0.3789
vn 0.3799 -0.6513 -0.6569
vn 0.0006 -0.6513 -0.7588
vn -0.3789 -0.6513 -0.6575
vn -0.6569 -0.6513 -0.3799
vn -0.7588 -0.6513 -0.0006
vn -0.6575 -0.6513 0.3789
vn -0.3799 -0.6513 0.6569
vn -0.0006 -0.6513 0.7588
vn 0.1987 -0.6382 0.7438
vn -0.0335 -0.9988 0.0351
vn -0.0340 -0.9988 0.0354
vn -0.0278 -0.9986 0.0460
vn -0.0252 -0.9985 0.0491
vn -0.0003 -0.9981 0.0611
vn -0.0004 -0.9981 0.0611
vn 0.0278 -0.9985 0.0468
vn 0.0248 -0.9985 0.0488
vn 0.0389 -0.9990 0.0218
vn 0.0376 -0.9990 0.0238
vn 0.0408 -0.9992 -0.0001
vn 0.0408 -0.9992 -0.0002
vn 0.0384 -0.9990 -0.0216
vn 0.0379 -0.9990 -0.0244
vn 0.0278 -0.9986 -0.0460
vn 0.0252 -0.9985 -0.0491
vn 0.0003 -0.9981 -0.0611
vn 0.0004 -0.9981 -0.0611
vn -0.0278 -0.9985 -0.0468
vn -0.0248 -0.9985 -0.0488
vn -0.0389 -0.9990 -0.0218
vn -0.0376 -0.9990 -0.0238
vn -0.0408 -0.9992 0.0001
vn -0.0408 -0.9992 0.0002
vn -0.0422 -0.9990 0.0114
vn -0.0425 -0.9990 0.0114
vn -0.6353 0.4407 0.6342
vn -0.4060 0.5302 0.7444
vn -0.6281 0.4528 0.6329
vn -0.4275 0.5357 0.7282
vn 0.0028 0.5771 0.8167
vn 0.0038 0.5773 0.8165
vn 0.4049 0.5386 0.7389
vn 0.4342 0.5273 0.7303
vn 0.7660 0.4360 0.4724
vn 0.7891 0.4222 0.4462
vn 0.9298 0.3679 0.0051
vn 0.9299 0.3677 0.0059
vn 0.7737 0.4252 -0.4697
vn 0.7880 0.4307 -0.4400
vn 0.4060 0.5302 -0.7444
vn 0.4275 0.5357 -0.7282
vn -0.0028 0.5771 -0.8167
vn -0.0038 0.5773 -0.8165
vn -0.4049 0.5386 -0.7389
vn -0.4342 0.5273 -0.7303
vn -0.7660 0.4360 -0.4724
vn -0.7891 0.4222 -0.4462
vn -0.9298 0.3679 -0.0051
vn -0.9299 0.3677 -0.0059
vn -0.8907 0.3814 0.2472
vn -0.8870 0.3891 0.2488
vn -0.0000 1.0000 0.0000
vn 1.0000 0.0000 0.0000
vn 1.0000 0.0000 -0.0001
vn 0.0000 -0.0000 1.0000
vn -1.0000 0.0000 0.0000
vn -0.7675 0.6410 0.0000
vn 0.7675 0.6411 -0.0000
vn 0.7675 0.6410 -0.0000
vn 0.0000 0.0000 -1.0000
vn 0.0000 -1.0000 -0.0000
vn -1.0000 0.0000 0.0001
usemtl blue_green
s 1
f 1/1/1 2/2/1 3/3/2
f 2/2/1 4/4/2 3/3/2
f 3/3/2 4/4/2 5/5/3
f 4/4/2 6/6/3 5/5/3
f 5/5/3 6/6/3 7/7/4
f 6/6/3 8/8/4 7/7/4
f 7/7/4 8/8/4 9/9/5
f 8/8/4 10/10/5 9/9/5
f 9/9/5 10/10/5 11/11/6
f 10/10/5 12/12/6 11/11/6
f 11/11/6 12/12/6 13/13/7
f 12/12/6 14/14/7 13/13/7
f 13/13/7 14/14/7 15/15/8
f 14/14/7 16/16/8 15/15/8
f 15/15/8 16/16/8 17/17/9
f 16/16/8 18/18/9 17/17/9
f 17/17/9 18/18/9 19/19/10
f 18/18/9 20/20/10 19/19/10
f 19/19/10 20/20/10 21/21/11
f 20/20/10 22/22/11 21/21/11
f 21/21/11 22/22/11 23/23/12
f 22/22/11 24/24/12 23/23/12
f 23/23/12 24/24/12 25/25/13
f 24/24/12 26/26/13 25/25/13
f 27/27/14 28/28/15 29/29/16
f 28/28/15 30/30/17 29/29/16
f 29/29/16 30/30/17 31/31/18
f 30/30/17 32/32/19 31/31/18
f 31/31/18 32/32/19 33/33/20
f 32/32/19 34/34/21 33/33/20
f 33/33/20 34/34/21 35/35/22
f 34/34/21 36/36/23 35/35/22
f 35/35/22 36/36/23 37/37/24
f 36/36/23 38/38/25 37/37/24
f 37/37/24 38/38/25 39/39/26
f 38/38/25 40/40/27 39/39/26
f 39/39/26 40/40/27 41/41/28
f 40/40/27 42/42/29 41/41/28
f 41/41/28 42/42/29 43/43/30
f 42/42/29 44/44/31 43/43/30
f 43/43/30 44/44/31 45/45/32
f 44/44/31 46/46/33 45/45/32
f 45/45/32 46/46/33 47/47/34
f 46/46/33 48/48/35 47/47/34
f 47/47/34 48/48/35 49/49/36
f 48/48/35 50/50/37 49/49/36
f 49/49/36 50/50/37 51/51/38
f 50/50/37 52/52/39 51/51/38
f 53/53/40 54/54/41 55/55/42
f 55/55/42 54/54/41 56/56/43
f 54/54/41 57/57/44 56/56/43
f 56/56/43 57/57/44 58/58/45
f 57/57/44 59/59/46 58/58/45
f 58/58/45 59/59/46 60/60/47
f 59/59/46 61/61/48 60/60/47
f 60/60/47 61/61/48 62/62/49
f 61/61/48 63/63/50 62/62/49
f 62/62/49 63/63/50 64/64/51
f 63/63/50 65/65/52 64/64/51
f 64/64/51 65/65/52 66/66/53
f 65/65/52 67/67/54 66/66/53
f 66/66/53 67/67/54 68/68/55
f 67/67/54 69/69/56 68/68/55
f 68/68/55 69/69/56 70/70/57
f 69/69/56 71/71/58 70/70/57
f 70/70/57 71/71/58 72/72/59
f 71/71/58 73/73/60 72/72/59
f 72/72/59 73/73/60 74/74/61
f 73/73/60 75/75/62 74/74/61
f 74/74/61 75/75/62 76/76/63
f 75/75/62 77/77/64 76/76/63
f 76/76/63 77/77/64 78/78/65
f 79/79/66 80/80/66 81/81/66
f 81/81/66 80/80/66 82/82/66
f 80/80/66 83/83/66 82/82/66
f 84/84/67 85/85/67 86/86/67
f 85/85/67 87/87/67 86/86/67
f 88/88/68 89/89/68 90/90/68
f 90/90/68 89/89/68 91/91/68
f 92/92/69 93/93/69 94/94/69
f 94/94/69 93/93/69 95/95/69
f 96/96/69 97/97/69 98/98/69
f 98/98/69 97/97/69 99/99/69
f 100/100/67 101/101/67 102/102/67
f 102/102/67 101/101/67 103/103/67
f 104/104/70 105/105/70 106/106/70
f 106/106/70 105/105/70 107/107/70
f 108/108/71 109/109/71 110/110/71
f 110/110/71 109/109/71 111/111/71
f 112/112/72 113/113/73 114/114/72
f 114/114/72 113/113/73 115/115/73
f 116/116/74 117/117/74 118/118/74
f 118/118/74 117/117/74 119/119/74
f 120/120/74 121/121/74 122/122/74
f 122/122/74 121/121/74 123/123/74
f 124/124/75 125/125/75 126/126/75
f 125/125/75 127/127/75 126/126/75
f 128/128/75 129/129/75 130/130/75
f 129/129/75 131/131/75 130/130/75
f 132/132/70 133/133/70 134/134/70
f 133/133/70 135/135/70 134/134/70
f 136/136/76 137/137/76 138/138/76
f 138/138/76 137/137/76 139/139/76
f 140/140/75 141/141/75 142/142/75
