# Blender v2.83.0 OBJ File: ''
# www.blender.org
mtllib S.S._Dolphin_part.038.mtl
o S.S._Dolphin_part.038
v -0.573204 0.089071 -0.401362
v -0.622203 -0.079176 -0.331384
v 0.769863 0.089070 0.643351
v 0.818861 -0.079175 0.573373
v -0.573204 0.089071 -0.401362
v 0.867861 0.089071 0.503395
v -0.524204 -0.079175 -0.471340
v 0.818861 -0.079175 0.573373
v 0.818861 -0.079175 0.573373
v -0.524204 -0.079175 -0.471340
v -0.622203 -0.079176 -0.331384
v -0.622203 -0.079176 -0.331384
v -0.573204 0.089071 -0.401362
v -0.524204 -0.079175 -0.471340
v -0.573204 0.089071 -0.401362
v 0.867861 0.089071 0.503395
v 0.769863 0.089070 0.643351
vt 0.000000 0.000000
vt 0.000000 0.000000
vt 0.000000 0.000000
vt 0.000000 0.000000
vt 0.000000 0.000000
vt 0.000000 0.000000
vt 0.000000 0.000000
vt 0.000000 0.000000
vt 0.000000 0.000000
vt 0.000000 0.000000
vt 0.000000 0.000000
vt 0.000000 0.000000
vt 0.000000 0.000000
vt 0.000000 0.000000
vt 0.000000 0.000000
vt 0.000000 0.000000
vt 0.000000 0.000000
vn -0.5476 0.4523 0.7040
vn -0.5576 0.4003 0.7272
vn -0.4927 -0.4003 0.7727
vn -0.4742 -0.4523 0.7553
vn 0.4742 0.4523 -0.7553
vn 0.5576 -0.4003 -0.7272
vn 0.4927 0.4003 -0.7727
vn 0.5476 -0.4523 -0.7040
vn -0.0000 1.0000 0.0000
vn -0.8192 -0.0000 -0.5736
vn 0.0000 -1.0000 -0.0000
usemtl white
s 1
f 1/1/1 2/2/2 3/3/3
f 3/3/3 2/2/2 4/4/4
f 5/5/5 6/6/6 7/7/7
f 7/7/7 6/6/6 8/8/8
f 9/9/9 10/10/9 11/11/9
f 12/12/10 13/13/10 14/14/10
f 15/15/11 16/16/11 17/17/11
