# Blender v2.83.0 OBJ File: ''
# www.blender.org
mtllib S.S._Dolphin_Bowsprit_2.mtl
o S.S._Dolphin_Bowsprit_2
v -0.050899 -0.002298 0.113965
v -0.117839 0.000038 -0.002052
v -0.092438 -0.091063 0.091972
v -0.124380 -0.092260 -0.039452
v -0.050899 -0.002298 -0.118067
v -0.030738 -0.092138 -0.131702
v 0.082983 -0.006974 -0.118067
v 0.098381 -0.094393 -0.096073
v 0.149924 -0.009312 -0.002052
v 0.132089 -0.094981 0.033578
v 0.082983 -0.006974 0.113965
v 0.036680 -0.093315 0.127601
v -0.141103 0.639076 -0.002052
v -0.071442 0.639076 -0.122707
v 0.067879 0.639076 -0.122707
v 0.137540 0.639076 -0.002052
v 0.067879 0.639076 0.118604
v -0.071442 0.639076 0.118604
v -0.071442 0.639076 0.118604
v -0.141103 0.639076 -0.002052
v -0.172556 -0.133788 0.096545
v -0.198975 -0.133788 -0.002052
v -0.172556 -0.133788 -0.100648
v -0.198975 -0.133788 -0.002052
v -0.172556 -0.133788 -0.100648
v -0.513943 -0.322629 -0.002052
v -0.445665 -0.322629 -0.256867
v -0.071442 0.639076 -0.122707
v -0.100378 -0.133788 -0.172826
v -0.001782 -0.133788 -0.199244
v -0.100378 -0.133788 -0.172826
v -0.001782 -0.133788 -0.199244
v -0.259126 -0.322629 -0.443409
v -0.004311 -0.322629 -0.511680
v 0.067879 0.639076 -0.122707
v 0.096815 -0.133788 -0.172826
v 0.168993 -0.133788 -0.100648
v 0.096815 -0.133788 -0.172826
v 0.168993 -0.133788 -0.100648
v 0.250505 -0.322629 -0.443409
v 0.437043 -0.322629 -0.256866
v 0.137540 0.639076 -0.002052
v 0.195411 -0.133788 -0.002052
v 0.168993 -0.133788 0.096545
v 0.195411 -0.133788 -0.002052
v 0.168993 -0.133788 0.096545
v 0.505320 -0.322630 -0.002051
v 0.437043 -0.322845 0.283952
v 0.067879 0.639076 0.118604
v 0.096815 -0.133788 0.168723
v -0.001782 -0.133788 0.195142
v 0.096815 -0.133788 0.168723
v -0.001782 -0.133788 0.195142
v 0.250505 -0.322630 0.459303
v -0.004311 -0.322630 0.530080
v -0.100378 -0.133788 0.168723
v -0.100378 -0.133788 0.168723
v -0.172556 -0.133788 0.096545
v -0.259126 -0.322630 0.459303
v -0.445665 -0.322845 0.283952
vt 0.774400 0.547000
vt 0.800400 0.526900
vt 0.803100 0.580200
vt 0.843000 0.517900
vt 0.792300 0.494700
vt 0.808700 0.455900
vt 0.760300 0.483500
vt 0.736800 0.451500
vt 0.736300 0.502500
vt 0.697700 0.510700
vt 0.743600 0.533100
vt 0.730700 0.573900
vt 0.628200 0.434800
vt 0.628200 0.600300
vt 0.771900 0.677600
vt 0.909200 0.593700
vt 0.909200 0.433300
vt 0.770200 0.351600
vt 0.808900 1.840900
vt 0.402600 1.840900
vt 0.734600 1.320300
vt 0.402600 1.320300
vt 0.070500 1.320300
vt 0.459600 1.320300
vt 0.426400 1.320300
vt 0.459600 1.193200
vt 0.373800 1.193200
vt -0.003800 1.840900
vt -0.172500 1.320300
vt -0.261500 1.320300
vt 0.402100 1.320300
vt 0.393200 1.320300
vt 0.311000 1.193200
vt 0.288000 1.193200
vt -0.003800 1.840900
vt 1.193400 1.316700
vt 0.935600 1.837300
vt 1.104400 1.316700
vt 0.861400 1.316700
vt 0.529800 1.316700
vt 0.505500 1.316700
vt 0.620900 1.189500
vt 0.558100 1.189500
vt 0.529300 1.837300
vt 0.529300 1.316700
vt 0.197300 1.316700
vt 0.472300 1.316700
vt 0.439100 1.316700
vt 0.472300 1.189500
vt 0.376000 1.189400
vt 0.123000 1.837300
vt -0.045800 1.316700
vt -0.134800 1.316700
vt 0.414800 1.316700
vt 0.405900 1.316700
vt 0.316900 1.189500
vt 0.293100 1.189500
vt 0.808900 1.840900
vt 1.066700 1.320300
vt 0.977700 1.320300
vt 0.517100 1.320300
vt 0.492800 1.320300
vt 0.615000 1.193200
vt 0.555900 1.193000
vt 0.250100 0.331600
vt 0.350100 0.395800
vt 0.252100 0.389300
vt 0.324800 0.445900
vt 0.265300 0.442700
vt 0.289500 0.496600
vt 0.324100 0.176700
vt 0.349100 0.230700
vt 0.288100 0.227400
vt 0.363300 0.285500
vt 0.262700 0.278200
vt 0.364400 0.340800
vt -0.172500 1.320300
vt -0.455600 1.193200
vt 0.070500 1.320300
vt 0.643900 1.189500
vt 0.538700 1.316700
vt 0.638800 1.193200
vt 0.526000 1.320300
vn -0.4571 0.1037 0.8833
vn -0.9851 0.1711 0.0161
vn -0.1764 0.9150 -0.3628
vn 0.2088 0.9772 -0.0384
vn -0.4917 0.1167 -0.8629
vn -0.6953 0.6834 -0.2226
vn 0.5023 -0.0302 -0.8642
vn 0.2059 -0.9322 -0.2975
vn 0.9937 -0.1098 -0.0201
vn 0.2542 -0.9281 0.2721
vn 0.5357 -0.0441 0.8432
vn -0.6314 -0.5258 0.5700
vn 1.0000 -0.0044 0.0002
vn 0.5018 -0.0079 0.8649
vn -0.4984 -0.0148 0.8668
vn -0.9998 -0.0180 0.0001
vn -0.4985 -0.0148 -0.8668
vn 0.5015 -0.0083 -0.8651
vn -0.4970 0.1101 0.8608
vn -0.9939 0.1101 -0.0000
vn -0.8635 0.0761 0.4986
vn -0.9972 0.0747 -0.0000
vn -0.8635 0.0761 -0.4986
vn -0.5115 0.8593 -0.0037
vn -0.4455 0.8574 -0.2576
vn -0.9720 -0.2345 -0.0119
vn -0.8423 -0.2335 -0.4858
vn -0.4970 0.1101 -0.8608
vn -0.4986 0.0747 -0.8636
vn -0.0000 0.0761 -0.9971
vn -0.2573 0.8567 -0.4470
vn 0.0007 0.8558 -0.5173
vn -0.4868 -0.2340 -0.8416
vn -0.0009 -0.2348 -0.9720
vn 0.4970 0.1101 -0.8608
vn 0.4986 0.0747 -0.8636
vn 0.8635 0.0761 -0.4985
vn 0.2600 0.8549 -0.4490
vn 0.4505 0.8542 -0.2596
vn 0.4852 -0.2355 -0.8421
vn 0.8413 -0.2361 -0.4863
vn 0.9939 0.1101 -0.0000
vn 0.9972 0.0747 -0.0000
vn 0.8635 0.0761 0.4985
vn 0.5204 0.8540 -0.0000
vn 0.4436 0.8628 0.2426
vn 0.9715 -0.2369 -0.0101
vn 0.8388 -0.2252 0.4957
vn 0.4970 0.1101 0.8608
vn 0.4986 0.0747 0.8636
vn -0.0000 0.0761 0.9971
vn 0.2475 0.8686 0.4293
vn 0.0018 0.8706 0.4920
vn 0.4745 -0.2265 0.8506
vn -0.0003 -0.2211 0.9752
vn -0.4986 0.0747 0.8636
vn -0.2501 0.8691 0.4268
vn -0.4346 0.8662 0.2467
vn -0.4783 -0.2247 0.8490
vn -0.8380 -0.2226 0.4983
usemtl af
s 1
f 1/1/1 2/2/2 3/3/3
f 3/3/3 2/2/2 4/4/4
f 2/2/2 5/5/5 4/4/4
f 4/4/4 5/5/5 6/6/6
f 5/5/5 7/7/7 6/6/6
f 6/6/6 7/7/7 8/8/8
f 7/7/7 9/9/9 8/8/8
f 8/8/8 9/9/9 10/10/10
f 9/9/9 11/11/11 10/10/10
f 10/10/10 11/11/11 12/12/12
f 11/11/11 1/1/1 12/12/12
f 12/12/12 1/1/1 3/3/3
f 3/3/3 4/4/4 13/13/13
f 13/13/13 4/4/4 14/14/14
f 4/4/4 6/6/6 14/14/14
f 14/14/14 6/6/6 15/15/15
f 6/6/6 8/8/8 15/15/15
f 15/15/15 8/8/8 16/16/16
f 8/8/8 10/10/10 16/16/16
f 16/16/16 10/10/10 17/17/17
f 10/10/10 12/12/12 17/17/17
f 17/17/17 12/12/12 18/18/18
f 12/12/12 3/3/3 18/18/18
f 18/18/18 3/3/3 13/13/13
f 19/19/19 20/20/20 21/21/21
f 21/21/21 20/20/20 22/22/22
f 20/20/20 23/23/23 22/22/22
f 24/24/24 25/25/25 26/26/26
f 25/25/25 27/27/27 26/26/26
f 20/20/20 28/28/28 23/23/23
f 23/23/23 28/28/28 29/29/29
f 28/28/28 30/30/30 29/29/29
f 31/31/31 32/32/32 33/33/33
f 32/32/32 34/34/34 33/33/33
f 28/28/28 35/35/35 30/30/30
f 30/36/30 35/37/35 36/38/36
f 35/37/35 37/39/37 36/38/36
f 38/40/38 39/41/39 40/42/40
f 39/41/39 41/43/41 40/42/40
f 35/37/35 42/44/42 37/39/37
f 37/39/37 42/44/42 43/45/43
f 42/44/42 44/46/44 43/45/43
f 45/47/45 46/48/46 47/49/47
f 46/48/46 48/50/48 47/49/47
f 42/44/42 49/51/49 44/46/44
f 44/46/44 49/51/49 50/52/50
f 49/51/49 51/53/51 50/52/50
f 52/54/52 53/55/53 54/56/54
f 53/55/53 55/57/55 54/56/54
f 49/58/49 19/19/19 51/59/51
f 51/59/51 19/19/19 56/60/56
f 19/19/19 21/21/21 56/60/56
f 57/61/57 58/62/58 59/63/59
f 58/62/58 60/64/60 59/63/59
f 26/65/26 48/66/48 60/67/60
f 60/67/60 48/66/48 54/68/54
f 60/67/60 54/68/54 59/69/59
f 59/69/59 54/68/54 55/70/55
f 34/71/34 40/72/40 33/73/33
f 33/73/33 40/72/40 41/74/41
f 33/73/33 41/74/41 27/75/27
f 27/75/27 41/74/41 47/76/47
f 27/75/27 47/76/47 26/65/26
f 26/65/26 47/76/47 48/66/48
f 47/49/47 41/43/41 45/47/45
f 45/47/45 41/43/41 39/41/39
f 33/33/33 27/27/27 31/31/31
f 31/77/31 27/78/27 25/79/25
f 40/42/40 34/80/34 38/40/38
f 38/40/38 34/80/34 32/81/32
f 26/26/26 60/64/60 24/24/24
f 24/24/24 60/64/60 58/62/58
f 54/56/54 48/50/48 52/54/52
f 52/54/52 48/50/48 46/48/46
f 59/63/59 55/82/55 57/61/57
f 57/61/57 55/82/55 53/83/53
