# Blender v2.83.0 OBJ File: ''
# www.blender.org
mtllib S.S._Dolphin_part.012.mtl
o S.S._Dolphin_part.012
v 2.973455 -0.464348 0.029809
v 2.834403 -0.870325 0.034980
v 2.758037 -0.463602 -0.821900
v 2.629053 -0.870283 -0.777479
v 2.329930 -0.463601 -1.627052
v 2.220986 -0.870277 -1.544958
v 1.673964 -0.463599 -2.260502
v 1.595722 -0.870275 -2.148758
v 0.826029 -0.480699 -2.660874
v 0.814483 -0.870276 -2.529801
v -0.048108 -0.458887 -2.756123
v -0.045858 -0.870274 -2.627213
v -0.918388 -0.480699 -2.630425
v -0.902275 -0.870276 -2.499835
v -1.751834 -0.463599 -2.200704
v -1.669740 -0.870275 -2.091759
v -2.385294 -0.463601 -1.544747
v -2.273550 -0.870277 -1.466506
v -2.785041 -0.463602 -0.725145
v -2.654583 -0.870283 -0.685253
v -2.970602 -0.464348 0.133562
v -2.831456 -0.870325 0.133878
v 3.049275 -0.870325 0.028028
v 2.828345 -0.870283 -0.846099
v 2.389317 -0.870275 -1.671807
v 1.716618 -0.870275 -2.321415
v -2.139932 1.853764 0.196180
v -2.606032 0.886083 0.208868
v -2.028280 1.859102 0.826150
v -2.680989 0.090789 1.050897
v -1.712849 1.859102 1.419389
v -2.309494 0.090791 1.868990
v -1.498839 0.893202 2.270724
v -1.641768 0.090795 2.474838
v 2.145475 1.853764 0.121379
v 2.055878 1.859102 0.754860
v 2.611735 0.886083 0.117792
v 2.716031 0.090789 0.956692
v 2.860153 0.086868 0.113819
v 2.915376 -0.870284 1.017627
v 2.968952 -0.464348 0.110492
v 3.042300 -0.870325 0.109212
v 2.497572 -0.870277 1.874266
v 2.373314 0.090791 1.787251
v 1.824182 -0.509875 2.544831
v 1.727139 0.090795 2.416034
v -0.970897 -0.870276 -2.699120
v -1.796588 -0.870275 -2.260092
v -2.446207 -0.870275 -1.587402
v 1.577174 0.893202 2.217032
v 1.761342 1.859102 1.358747
v 1.256395 1.859102 1.807977
v -1.734267 -0.509875 2.606944
v -2.430639 -0.870277 1.960288
v -1.745049 -0.870277 2.622354
v -2.878084 -0.870284 1.118752
v -2.854438 0.086868 0.213568
v 0.876108 -0.870276 -2.731359
v -0.049948 -0.870274 -2.861507
v -1.226502 1.859102 1.899733
v -1.761615 1.859102 1.456136
v -1.192532 1.859102 1.850724
v -2.086022 1.859102 0.846029
v -2.205438 1.859102 0.198107
v 3.069094 -0.520409 0.109175
v 3.115877 -0.870285 0.108358
v 2.211010 1.859102 0.121018
v 2.674348 0.889643 0.115711
v 2.928735 0.088825 0.111624
v -3.063414 -0.520409 0.216217
v -3.046439 -0.870325 0.134428
v -3.110197 -0.870285 0.217034
v 2.114279 1.859102 0.772713
v 1.811361 1.859102 1.393769
v 1.292055 1.859102 1.855772
v -2.963287 -0.464348 0.214040
v -3.036635 -0.870325 0.215320
v -2.856151 -0.870283 -0.746876
v -2.668679 0.889643 0.208974
v -2.923054 0.088825 0.213767
v 1.835506 -0.870277 2.559855
vt 0.000000 1.000000
vt 0.000000 1.000000
vt 0.000000 1.000000
vt 0.000000 1.000000
vt 0.000000 1.000000
vt 0.000000 1.000000
vt 0.000000 1.000000
vt 0.000000 1.000000
vt 0.000000 1.000000
vt 0.000000 1.000000
vt 0.000000 1.000000
vt 0.000000 1.000000
vt 0.000000 1.000000
vt 0.000000 1.000000
vt 0.000000 1.000000
vt 0.000000 1.000000
vt 0.000000 1.000000
vt 0.000000 1.000000
vt 0.000000 1.000000
vt 0.000000 1.000000
vt 0.000000 1.000000
vt 0.000000 1.000000
vt 0.000000 1.000000
vt 0.000000 1.000000
vt 0.000000 1.000000
vt 0.000000 1.000000
vt 0.000000 1.000000
vt 0.000000 1.000000
vt 0.000000 1.000000
vt 0.000000 1.000000
vt 0.000000 1.000000
vt 0.000000 1.000000
vt 0.000000 1.000000
vt 0.000000 1.000000
vt 0.000000 1.000000
vt 0.000000 1.000000
vt 0.000000 1.000000
vt 0.000000 1.000000
vt 0.000000 1.000000
vt 0.000000 1.000000
vt 0.000000 1.000000
vt 0.000000 1.000000
vt 0.000000 1.000000
vt 0.000000 1.000000
vt 0.000000 1.000000
vt 0.000000 1.000000
vt 0.000000 1.000000
vt 0.000000 1.000000
vt 0.000000 1.000000
vt 0.000000 1.000000
vt 0.000000 1.000000
vt 0.000000 1.000000
vt 0.000000 1.000000
vt 0.000000 1.000000
vt 0.000000 1.000000
vt 0.000000 1.000000
vt 0.000000 1.000000
vt 0.000000 1.000000
vt 0.000000 1.000000
vt 0.000000 1.000000
vt 0.000000 1.000000
vt 0.000000 1.000000
vt 0.000000 1.000000
vt 0.000000 1.000000
vt 0.000000 1.000000
vt 0.000000 1.000000
vt 0.000000 1.000000
vt 0.000000 1.000000
vt 0.000000 1.000000
vt 0.000000 1.000000
vt 0.000000 1.000000
vt 0.000000 1.000000
vt 0.000000 1.000000
vt 0.000000 1.000000
vt 0.000000 1.000000
vt 0.000000 1.000000
vt 0.000000 1.000000
vt 0.000000 1.000000
vt 0.000000 1.000000
vt 0.000000 1.000000
vt 0.000000 1.000000
vn -0.5788 -0.7513 0.3172
vn 0.9193 -0.3176 -0.2327
vn -0.1336 -0.9896 0.0542
vn 0.8843 -0.3178 -0.3420
vn -0.1322 -0.9862 0.0997
vn 0.7572 -0.3180 -0.5706
vn -0.0879 -0.9857 0.1436
vn 0.5422 -0.3162 -0.7785
vn -0.0693 -0.9868 0.1461
vn 0.2680 -0.3111 -0.9118
vn 0.0256 -0.9942 0.1048
vn -0.0124 -0.3023 -0.9531
vn 0.0397 -0.9875 0.1528
vn -0.3007 -0.3162 -0.8998
vn 0.0976 -0.9862 0.1336
vn -0.5706 -0.3180 -0.7572
vn 0.1357 -0.9862 0.0950
vn -0.7766 -0.3180 -0.5438
vn 0.1354 -0.9896 0.0492
vn -0.8956 -0.3179 -0.3111
vn 0.5800 -0.7577 0.2991
vn -0.9268 -0.3178 -0.2001
vn -0.8741 -0.1653 0.4567
vn -0.9180 -0.1797 0.3536
vn -0.7856 -0.1799 0.5920
vn -0.5590 -0.1846 0.8083
vn -0.6560 -0.4212 0.6263
vn -0.5603 0.2270 0.7966
vn -0.7529 -0.5961 0.2789
vn -0.9080 0.2747 0.3162
vn -0.6428 -0.5961 0.4811
vn -0.7912 0.2689 0.5492
vn -0.6562 0.3791 0.6525
vn -0.6459 0.2755 0.7119
vn 0.6777 -0.4237 0.6010
vn 0.7655 -0.5928 0.2501
vn 0.5877 0.2262 0.7768
vn 0.9204 0.2710 0.2818
vn 0.6294 0.1580 0.7609
vn 0.9340 0.2047 0.2928
vn 0.6452 -0.2035 0.7364
vn 0.9750 0.1757 0.1362
vn 0.8251 0.1587 0.5423
vn 0.8092 0.2653 0.5242
vn 0.7136 0.1462 0.6851
vn 0.6704 0.2755 0.6889
vn 0.3108 -0.2079 0.9275
vn 0.5920 -0.1799 0.7856
vn 0.8058 -0.1799 0.5642
vn 0.6786 0.3791 0.6292
vn 0.6576 -0.5917 0.4664
vn 0.5603 -0.5380 0.6298
vn -0.6893 0.1462 0.7096
vn -0.8056 0.1587 0.5708
vn -0.6937 0.0515 0.7184
vn -0.9232 0.2047 0.3252
vn -0.6020 0.1587 0.7826
vn -0.2923 -0.2065 0.9338
vn 0.0254 -0.2411 0.9702
vn -0.0000 -1.0000 0.0000
vn -0.5380 -0.5380 0.6490
vn -0.0208 -0.5855 0.8104
vn -0.5645 -0.2475 0.7875
vn -0.7456 -0.1353 0.6525
vn 0.0528 -0.5860 0.8086
vn 0.0328 0.0072 0.9994
vn 0.0309 0.0022 0.9995
vn 0.6062 -0.2723 0.7472
vn 0.8864 -0.1464 0.4392
vn 0.7873 -0.1039 0.6077
vn 0.0017 -1.0000 0.0042
vn -0.6179 -0.2054 0.7590
vn -0.9696 0.1757 0.1702
vn 0.9298 -0.1797 0.3213
vn 0.0026 0.0077 1.0000
vn 0.0030 0.0040 1.0000
vn 0.7184 0.0515 0.6937
usemtl ship_interior
s 1
f 1/1/1 2/2/2 3/3/3
f 2/2/2 4/4/4 3/3/3
f 3/3/3 4/4/4 5/5/5
f 4/4/4 6/6/6 5/5/5
f 5/5/5 6/6/6 7/7/7
f 6/6/6 8/8/8 7/7/7
f 7/7/7 8/8/8 9/9/9
f 8/8/8 10/10/10 9/9/9
f 9/9/9 10/10/10 11/11/11
f 10/10/10 12/12/12 11/11/11
f 11/11/11 12/12/12 13/13/13
f 12/12/12 14/14/14 13/13/13
f 13/13/13 14/14/14 15/15/15
f 14/14/14 16/16/16 15/15/15
f 15/15/15 16/16/16 17/17/17
f 16/16/16 18/18/18 17/17/17
f 17/17/17 18/18/18 19/19/19
f 18/18/18 20/20/20 19/19/19
f 19/19/19 20/20/20 21/21/21
f 20/20/20 22/22/22 21/21/21
f 23/23/23 1/1/1 24/24/24
f 1/1/1 3/3/3 24/24/24
f 24/24/24 3/3/3 25/25/25
f 3/3/3 5/5/5 25/25/25
f 25/25/25 5/5/5 26/26/26
f 5/5/5 7/7/7 26/26/26
f 26/26/26 7/7/7 9/9/9
f 27/27/27 28/28/28 29/29/29
f 28/28/28 30/30/30 29/29/29
f 29/29/29 30/30/30 31/31/31
f 30/30/30 32/32/32 31/31/31
f 31/31/31 32/32/32 33/33/33
f 32/32/32 34/34/34 33/33/33
f 35/35/35 36/36/36 37/37/37
f 36/36/36 38/38/38 37/37/37
f 37/37/37 38/38/38 39/39/39
f 38/38/38 40/40/40 39/39/39
f 39/39/39 40/40/40 41/41/41
f 40/40/40 42/42/42 41/41/41
f 40/40/40 38/38/38 43/43/43
f 38/38/38 44/44/44 43/43/43
f 43/43/43 44/44/44 45/45/45
f 44/44/44 46/46/46 45/45/45
f 11/11/11 13/13/13 47/47/47
f 13/13/13 15/15/15 47/47/47
f 47/47/47 15/15/15 48/48/48
f 15/15/15 49/49/49 48/48/48
f 46/46/46 44/44/44 50/50/50
f 44/44/44 51/51/51 50/50/50
f 50/50/50 51/51/51 52/52/52
f 34/34/34 32/32/32 53/53/53
f 32/32/32 54/54/54 53/53/53
f 53/53/53 54/54/54 55/55/55
f 32/32/32 30/30/30 54/54/54
f 30/30/30 56/56/56 54/54/54
f 28/28/28 57/57/57 30/30/30
f 57/57/57 56/56/56 30/30/30
f 26/26/26 9/9/9 58/58/58
f 9/9/9 59/59/59 58/58/58
f 9/9/9 11/11/11 59/59/59
f 11/11/11 47/47/47 59/59/59
f 60/60/60 61/61/60 62/62/61
f 61/61/60 31/31/31 62/62/61
f 61/61/60 63/63/60 31/31/31
f 63/63/60 29/29/29 31/31/31
f 27/27/27 29/29/29 64/64/62
f 29/29/29 63/63/60 64/64/62
f 65/65/63 1/1/1 66/66/64
f 1/1/1 23/23/23 66/66/64
f 35/35/35 37/37/37 67/67/65
f 37/37/37 68/68/66 67/67/65
f 37/37/37 39/39/39 68/68/66
f 39/39/39 69/69/67 68/68/66
f 39/39/39 41/41/41 69/69/67
f 41/41/41 65/65/63 69/69/67
f 21/21/21 70/70/68 71/71/69
f 70/70/68 72/72/70 71/71/69
f 38/38/38 36/36/36 44/44/44
f 36/36/36 51/51/51 44/44/44
f 67/67/65 73/73/71 35/35/35
f 73/73/71 36/36/36 35/35/35
f 73/73/71 74/74/60 36/36/36
f 74/74/60 51/51/51 36/36/36
f 52/52/52 51/51/51 75/75/60
f 51/51/51 74/74/60 75/75/60
f 57/57/57 76/76/72 56/56/56
f 76/76/72 77/77/73 56/56/56
f 15/15/15 17/17/17 49/49/49
f 17/17/17 78/78/74 49/49/49
f 17/17/17 19/19/19 78/78/74
f 19/19/19 71/71/69 78/78/74
f 64/64/62 79/79/75 27/27/27
f 79/79/75 28/28/28 27/27/27
f 79/79/75 80/80/76 28/28/28
f 80/80/76 57/57/57 28/28/28
f 76/76/72 57/57/57 70/70/68
f 57/57/57 80/80/76 70/70/68
f 76/76/72 70/70/68 21/21/21
f 19/19/19 21/21/21 71/71/69
f 45/45/45 81/81/77 43/43/43
f 1/1/1 65/65/63 41/41/41
f 33/33/33 62/62/61 31/31/31
