# Blender v2.83.0 OBJ File: ''
# www.blender.org
mtllib S.S._Dolphin_Guard_Satellite_7.mtl
o S.S._Dolphin_Guard_Satellite_7
v -0.208235 -0.018178 0.469602
v -0.208235 0.031487 0.474787
v -0.108196 -0.036166 0.641938
v -0.108196 0.013501 0.647122
v 0.091880 -0.036166 0.641938
v 0.091880 0.013501 0.647122
v 0.191919 -0.018178 0.469602
v 0.191919 0.031487 0.474787
v 0.091880 -0.000191 0.297267
v 0.091880 0.049475 0.302451
v -0.108196 -0.000191 0.297267
v -0.108196 0.049475 0.302451
v -0.502936 -0.036166 -0.388315
v -0.507426 0.013501 -0.390906
v -0.602975 -0.036166 -0.215042
v -0.607464 0.013501 -0.217634
v -0.503748 -0.018178 -0.042239
v -0.508236 0.031487 -0.044832
v -0.304482 -0.000191 -0.042708
v -0.308971 0.049475 -0.045300
v 0.680213 -0.031424 -0.115172
v 0.719161 -0.185276 -0.115172
v 0.232226 -0.031424 0.650681
v 0.251700 -0.185276 0.684411
v -0.233992 -0.031424 0.650681
v -0.253465 -0.185276 0.684411
v -0.723353 -0.185276 -0.115172
v 0.486620 -0.036166 -0.388315
v 0.491110 0.013501 -0.390906
v 0.287354 -0.018178 -0.388783
v 0.291844 0.031488 -0.391375
v 0.188127 -0.000191 -0.215979
v 0.192616 0.049475 -0.218571
v -0.507426 0.013501 -0.390906
v -0.502936 -0.036166 -0.388315
v -0.308160 0.031488 -0.391375
v -0.303670 -0.018178 -0.388783
v -0.208932 0.049475 -0.218571
v -0.204443 -0.000191 -0.215979
v 0.144839 0.006852 -0.252140
v 0.144839 0.056788 -0.252140
v -0.161156 0.006852 -0.252140
v -0.161156 0.056788 -0.252140
v -0.314153 0.006852 0.012859
v -0.314153 0.056787 0.012859
v 0.487431 -0.018178 -0.042239
v 0.491920 0.031487 -0.044832
v 0.586659 -0.036166 -0.215042
v 0.591148 0.013501 -0.217634
v 0.486620 -0.036166 -0.388315
v 0.491110 0.013501 -0.390906
v 0.144840 0.006852 0.277859
v 0.144840 0.056787 0.277859
v 0.297837 0.006852 0.012859
v 0.297837 0.056787 0.012859
v 0.144839 0.006852 -0.252140
v 0.144839 0.056788 -0.252140
v -0.233992 -0.031424 0.650681
v -0.723353 -0.185276 -0.115172
v -0.684405 -0.031424 -0.115172
v -0.495010 -0.185276 -0.516091
v -0.475536 -0.031423 -0.482362
v 0.459220 -0.031423 -0.482362
v -0.475536 -0.031423 -0.482362
v 0.459220 -0.031423 -0.482362
v -0.008158 0.045817 0.012860
v 0.680213 -0.031424 -0.115172
v 0.232226 -0.031424 0.650681
v -0.304482 -0.000191 -0.042708
v -0.308971 0.049475 -0.045300
v -0.204443 -0.000191 -0.215979
v -0.208932 0.049475 -0.218571
v -0.108196 -0.000191 0.297267
v -0.108196 0.049475 0.302451
v -0.208235 -0.018178 0.469602
v -0.208235 0.031487 0.474787
v 0.288165 -0.000191 -0.042708
v 0.292655 0.049475 -0.045300
v 0.487431 -0.018178 -0.042239
v 0.491920 0.031487 -0.044832
v -0.161156 0.056788 -0.252140
v 0.144839 0.056788 -0.252140
v -0.314153 0.056787 0.012859
v -0.161155 0.056787 0.277859
v -0.161155 0.056787 0.277859
v 0.144839 0.056788 -0.252140
v 0.144840 0.056787 0.277859
v 0.297837 0.056787 0.012859
v -0.108196 0.049475 0.302451
v 0.091880 0.049475 0.302451
v -0.208235 0.031487 0.474787
v -0.108196 0.013501 0.647122
v -0.108196 0.013501 0.647122
v 0.091880 0.049475 0.302451
v 0.091880 0.013501 0.647122
v 0.191919 0.031487 0.474787
v -0.208932 0.049475 -0.218571
v -0.308971 0.049475 -0.045300
v -0.308160 0.031488 -0.391375
v -0.507426 0.013501 -0.390906
v -0.507426 0.013501 -0.390906
v -0.308971 0.049475 -0.045300
v -0.607464 0.013501 -0.217634
v -0.508236 0.031487 -0.044832
v 0.292655 0.049475 -0.045300
v 0.192616 0.049475 -0.218571
v 0.491920 0.031487 -0.044832
v 0.591148 0.013501 -0.217634
v 0.591148 0.013501 -0.217634
v 0.192616 0.049475 -0.218571
v 0.491110 0.013501 -0.390906
v 0.291844 0.031488 -0.391375
v -0.161155 0.006852 0.277859
v -0.161155 0.056787 0.277859
v 0.144840 0.006852 0.277859
v 0.144840 0.056787 0.277859
v -0.475536 -0.031423 -0.482362
v -0.008158 0.045817 0.012860
v -0.684405 -0.031424 -0.115172
v -0.233992 -0.031424 0.650681
v -0.314153 0.006852 0.012859
v -0.314153 0.056787 0.012859
v -0.161155 0.006852 0.277859
v -0.161155 0.056787 0.277859
v 0.188127 -0.000191 -0.215979
v 0.192616 0.049475 -0.218571
v 0.288165 -0.000191 -0.042708
v 0.292655 0.049475 -0.045300
v 0.680213 -0.031424 -0.115172
v 0.459220 -0.031423 -0.482362
v 0.719161 -0.185276 -0.115172
v 0.478694 -0.185276 -0.516091
v -0.008158 0.045817 0.012860
v 0.232226 -0.031424 0.650681
v -0.233992 -0.031424 0.650681
v 0.459220 -0.031423 -0.482362
v -0.495010 -0.185276 -0.516091
v 0.478694 -0.185276 -0.516091
vt 0.022400 0.551100
vt 0.022400 0.551100
vt 0.022400 0.551100
vt 0.022400 0.551100
vt 0.022400 0.551100
vt 0.022400 0.551100
vt 0.022400 0.551100
vt 0.022400 0.551100
vt 0.022400 0.551100
vt 0.022400 0.551100
vt 0.022400 0.551100
vt 0.022400 0.551100
vt 0.022400 0.551100
vt 0.022400 0.551100
vt 0.022400 0.551100
vt 0.022400 0.551100
vt 0.022400 0.551100
vt 0.022400 0.551100
vt 0.022400 0.551100
vt 0.022400 0.551100
vt 0.022400 0.551100
vt 0.022400 0.551100
vt 0.022400 0.551100
vt 0.022400 0.551100
vt 0.022400 0.551100
vt 0.022400 0.551100
vt 0.022400 0.551100
vt 0.022400 0.551100
vt 0.022400 0.551100
vt 0.022400 0.551100
vt 0.022400 0.551100
vt 0.022400 0.551100
vt 0.022400 0.551100
vt 0.022400 0.551100
vt 0.022400 0.551100
vt 0.022400 0.551100
vt 0.022400 0.551100
vt 0.022400 0.551100
vt 0.022400 0.551100
vt 0.022400 0.551100
vt 0.022400 0.551100
vt 0.022400 0.551100
vt 0.022400 0.551100
vt 0.022400 0.551100
vt 0.022400 0.551100
vt 0.022400 0.551100
vt 0.022400 0.551100
vt 0.022400 0.551100
vt 0.022400 0.551100
vt 0.022400 0.551100
vt 0.022400 0.551100
vt 0.022400 0.551100
vt 0.022400 0.551100
vt 0.022400 0.551100
vt 0.022400 0.551100
vt 0.022400 0.551100
vt 0.022400 0.551100
vt 0.022400 0.551100
vt 0.022400 0.551100
vt 0.022400 0.551100
vt 0.022400 0.551100
vt 0.022400 0.551100
vt 0.022400 0.551100
vt 0.022400 0.551100
vt 0.022400 0.551100
vt 0.022400 0.551100
vt 0.022400 0.551100
vt 0.022400 0.551100
vt 0.022400 0.551100
vt 0.022400 0.551100
vt 0.022400 0.551100
vt 0.022400 0.551100
vt 0.022400 0.551100
vt 0.022400 0.551100
vt 0.022400 0.551100
vt 0.022400 0.551100
vt 0.022400 0.551100
vt 0.022400 0.551100
vt 0.022400 0.551100
vt 0.022400 0.551100
vt 0.022400 0.551100
vt 0.022400 0.551100
vt 0.022400 0.551100
vt 0.022400 0.551100
vt 0.022400 0.551100
vt 0.022400 0.551100
vt 0.022400 0.551100
vt 0.022400 0.551100
vt 0.022400 0.551100
vt 0.022400 0.551100
vt 0.022400 0.551100
vt 0.022400 0.551100
vt 0.022400 0.551100
vt 0.022400 0.551100
vt 0.022400 0.551100
vt 0.022400 0.551100
vt 0.022400 0.551100
vt 0.022400 0.551100
vt 0.022400 0.551100
vt 0.022400 0.551100
vt 0.022400 0.551100
vt 0.022400 0.551100
vt 0.022400 0.551100
vt 0.022400 0.551100
vt 0.022400 0.551100
vt 0.022400 0.551100
vt 0.022400 0.551100
vt 0.022400 0.551100
vt 0.022400 0.551100
vt 0.022400 0.551100
vt 0.022400 0.551100
vt 0.022400 0.551100
vt 0.022400 0.551100
vt 0.022400 0.551100
vt 0.022400 0.551100
vt 0.022400 0.551100
vt 0.022400 0.551100
vt 0.022400 0.551100
vt 0.022400 0.551100
vt 0.022400 0.551100
vt 0.022400 0.551100
vt 0.022400 0.551100
vt 0.022400 0.551100
vt 0.022400 0.551100
vt 0.022400 0.551100
vt 0.022400 0.551100
vt 0.022400 0.551100
vt 0.022400 0.551100
vt 0.022400 0.551100
vt 0.022400 0.551100
vt 0.022400 0.551100
vt 0.022400 0.551100
vt 0.022400 0.551100
vt 0.022400 0.551100
vt 0.022400 0.551100
vt 0.022400 0.551100
vt 0.022400 0.551100
vt 0.022400 0.551100
vn 0.8660 0.0519 -0.4973
vn 0.5000 0.0899 -0.8613
vn -0.5000 0.0899 -0.8613
vn -1.0000 -0.0000 0.0000
vn -0.5000 -0.0899 0.8613
vn 0.0000 -0.1038 0.9946
vn 0.8613 0.1038 0.4973
vn 0.9959 0.0899 -0.0023
vn 0.5000 -0.0000 -0.8660
vn 0.0023 -0.0519 -0.9986
vn -0.8433 -0.2135 -0.4933
vn -0.8433 -0.2136 -0.4932
vn -0.4822 -0.2453 -0.8410
vn -0.4826 -0.2454 -0.8408
vn 0.4553 -0.2453 -0.8559
vn 0.4817 -0.2454 -0.8413
vn 0.8420 -0.2150 -0.4948
vn 0.0023 0.0519 0.9987
vn 0.0023 0.0519 0.9986
vn 0.5000 -0.0000 0.8660
vn 0.8637 -0.0519 0.5014
vn -0.0023 0.0519 0.9987
vn -0.5000 -0.0000 0.8660
vn -0.8637 -0.0519 0.5013
vn 0.0000 0.0000 1.0000
vn 0.8660 -0.0000 0.5000
vn -0.8637 0.0519 -0.5014
vn -0.9959 0.0899 -0.0023
vn -0.8613 0.1038 0.4973
vn -0.8660 0.0000 -0.5000
vn -0.8660 -0.0000 0.5000
vn 0.8422 -0.2132 -0.4953
vn 0.9690 -0.2453 0.0291
vn 0.9694 -0.2452 -0.0074
vn 0.5160 -0.2454 0.8207
vn 0.4876 -0.2454 0.8378
vn 0.0000 -0.2141 0.9768
vn 0.0000 -0.9881 0.1541
vn -0.0616 -0.9934 0.0968
vn -0.0675 -0.9966 0.0483
vn -0.1106 -0.9939 0.0050
vn -0.1246 -0.9895 -0.0729
vn -0.8613 -0.1038 -0.4973
vn 0.8660 -0.0519 0.4973
vn -0.0023 -0.0519 -0.9986
vn 0.0000 -1.0000 -0.0000
vn 0.0000 -0.9946 -0.1038
vn 0.0899 -0.9946 0.0519
vn -0.0899 -0.9946 0.0519
vn 0.0000 0.0000 -1.0000
vn 0.1024 -0.9930 0.0582
vn 0.1198 -0.9922 -0.0340
vn 0.1127 -0.9936 0.0040
vn 0.1271 -0.9891 -0.0748
vn 0.8660 0.0000 -0.5000
vn 0.8613 -0.1038 -0.4973
vn -0.8373 -0.2120 0.5039
vn -0.8373 -0.2153 0.5026
vn -0.8373 -0.2129 0.5035
vn -0.8373 -0.2161 0.5022
vn 0.0000 -0.9927 -0.1202
usemtl af
s 1
f 1/1/1 2/2/1 3/3/2
f 2/2/1 4/4/2 3/3/2
f 3/3/2 4/4/2 5/5/3
f 4/4/2 6/6/3 5/5/3
f 5/5/3 6/6/3 7/7/4
f 6/6/3 8/8/4 7/7/4
f 7/7/4 8/8/4 9/9/5
f 8/8/4 10/10/5 9/9/5
f 9/9/5 10/10/5 11/11/6
f 10/10/5 12/12/6 11/11/6
f 13/13/7 14/14/7 15/15/8
f 14/14/7 16/16/8 15/15/8
f 15/15/8 16/16/8 17/17/9
f 16/16/8 18/18/9 17/17/9
f 17/17/9 18/18/9 19/19/10
f 18/18/9 20/20/10 19/19/10
f 21/21/11 22/22/12 23/23/13
f 22/22/12 24/24/14 23/23/13
f 23/23/13 24/24/14 25/25/15
f 24/24/14 26/26/16 25/25/15
f 25/25/15 26/26/16 27/27/17
f 28/28/18 29/29/19 30/30/20
f 29/29/19 31/31/20 30/30/20
f 30/30/20 31/31/20 32/32/21
f 31/31/20 33/33/21 32/32/21
f 34/34/22 35/35/22 36/36/23
f 35/35/22 37/37/23 36/36/23
f 36/36/23 37/37/23 38/38/24
f 37/37/23 39/39/24 38/38/24
f 40/40/25 41/41/25 42/42/20
f 41/41/25 43/43/20 42/42/20
f 42/42/20 43/43/20 44/44/26
f 43/43/20 45/45/26 44/44/26
f 46/46/27 47/47/27 48/48/28
f 47/47/27 49/49/28 48/48/28
f 48/48/28 49/49/28 50/50/29
f 49/49/28 51/51/29 50/50/29
f 52/52/30 53/53/30 54/54/4
f 53/53/30 55/55/4 54/54/4
f 54/54/4 55/55/4 56/56/31
f 55/55/4 57/57/31 56/56/31
f 58/58/32 59/59/33 60/60/34
f 59/59/33 61/61/35 60/60/34
f 60/60/34 61/61/35 62/62/36
f 61/61/35 63/63/37 62/62/36
f 64/64/38 65/65/39 66/66/40
f 65/65/39 67/67/41 66/66/40
f 66/66/40 67/67/41 68/68/42
f 69/69/43 70/70/43 71/71/43
f 70/70/43 72/72/43 71/71/43
f 73/73/44 74/74/44 75/75/44
f 74/74/44 76/76/44 75/75/44
f 77/77/45 78/78/45 79/79/45
f 78/78/45 80/80/45 79/79/45
f 81/81/46 82/82/46 83/83/46
f 82/82/46 84/84/46 83/83/46
f 85/85/46 86/86/46 87/87/46
f 86/86/46 88/88/46 87/87/46
f 89/89/47 90/90/47 91/91/47
f 90/90/47 92/92/47 91/91/47
f 93/93/47 94/94/47 95/95/47
f 94/94/47 96/96/47 95/95/47
f 97/97/48 98/98/48 99/99/48
f 98/98/48 100/100/48 99/99/48
f 101/101/48 102/102/48 103/103/48
f 102/102/48 104/104/48 103/103/48
f 105/105/49 106/106/49 107/107/49
f 106/106/49 108/108/49 107/107/49
f 109/109/49 110/110/49 111/111/49
f 110/110/49 112/112/49 111/111/49
f 113/113/50 114/114/50 115/115/50
f 114/114/50 116/116/50 115/115/50
f 117/117/51 118/118/52 119/119/53
f 118/118/52 120/120/54 119/119/53
f 121/121/55 122/122/55 123/123/55
f 122/122/55 124/124/55 123/123/55
f 125/125/56 126/126/56 127/127/56
f 126/126/56 128/128/56 127/127/56
f 129/129/57 130/130/58 131/131/59
f 130/130/58 132/132/60 131/131/59
f 133/133/61 134/134/61 135/135/61
f 136/136/37 137/137/37 138/138/37
