# Blender v2.83.0 OBJ File: ''
# www.blender.org
mtllib S.S._Dolphin_part.014.mtl
o S.S._Dolphin_part.014
v -2.829017 -0.728505 -0.728952
v -2.812497 -0.829817 -0.736414
v -2.840757 -0.653897 -0.476586
v -2.682197 -0.829817 0.125119
v -2.835247 -0.516195 -0.249917
v -2.838367 -0.263685 -0.131867
v 3.003225 0.776762 -0.728952
v 3.017545 0.880563 -0.736415
v 2.962785 0.703768 -0.476587
v 2.877225 0.880565 0.188487
v 2.922355 0.564565 -0.249918
v 2.881915 0.303715 -0.131867
v -3.003227 0.776759 -0.728952
v -2.962787 0.703764 -0.476587
v -3.017547 0.880559 -0.736414
v -2.877227 0.880563 0.188487
v -2.985337 1.628414 -0.729054
v -2.839227 1.628417 0.176142
v -2.922357 0.564554 -0.249917
v -2.814217 0.014715 0.168013
v -2.447517 0.880558 1.031840
v -2.393917 0.014715 0.992900
v 2.829015 -0.728497 -0.728952
v 2.840755 -0.653897 -0.476587
v 2.812495 -0.829817 -0.736414
v 2.682195 -0.829817 0.125118
v 2.436975 -1.692237 0.045437
v 2.073014 -1.692227 0.759749
v 2.835255 -0.516195 -0.249918
v 2.814215 0.014715 0.168012
v 2.281614 -0.829817 0.911310
v 2.393915 0.014715 0.992900
v -2.073007 -1.692237 0.759749
v -2.281617 -0.829817 0.911310
v -2.436967 -1.692237 0.045437
v -2.562377 -1.692237 -0.729575
v -2.841487 0.014745 -0.072341
v -2.184737 -1.692237 0.840929
v -2.568317 -1.692237 0.088116
v -2.700487 -1.692237 -0.728876
v 2.700495 -1.692227 -0.728877
v 2.562384 -1.692227 -0.729575
v 2.568315 -1.692237 0.088115
v 2.184744 -1.692227 0.840929
v 2.985334 1.628417 -0.729055
v 2.839225 1.628420 0.176139
v 2.447515 0.880563 1.031840
v 2.415195 1.628417 1.008360
v 2.838364 -0.263685 -0.131867
v 2.841485 0.014745 -0.072342
v -2.415197 1.628415 1.008360
v -2.881917 0.303705 -0.131867
v -3.113507 1.628414 -0.728521
v -2.961127 1.628417 0.215747
v -2.518887 1.628415 1.083700
v 3.113505 1.628417 -0.728522
v 2.961125 1.628421 0.215747
v 2.518885 1.628416 1.083700
vt 0.000000 1.000000
vt 0.000000 1.000000
vt 0.000000 1.000000
vt 0.000000 1.000000
vt 0.000000 1.000000
vt 0.000000 1.000000
vt 0.000000 1.000000
vt 0.000000 1.000000
vt 0.000000 1.000000
vt 0.000000 1.000000
vt 0.000000 1.000000
vt 0.000000 1.000000
vt 0.000000 1.000000
vt 0.000000 1.000000
vt 0.000000 1.000000
vt 0.000000 1.000000
vt 0.000000 1.000000
vt 0.000000 1.000000
vt 0.000000 1.000000
vt 0.000000 1.000000
vt 0.000000 1.000000
vt 0.000000 1.000000
vt 0.000000 1.000000
vt 0.000000 1.000000
vt 0.000000 1.000000
vt 0.000000 1.000000
vt 0.000000 1.000000
vt 0.000000 1.000000
vt 0.000000 1.000000
vt 0.000000 1.000000
vt 0.000000 1.000000
vt 0.000000 1.000000
vt 0.000000 1.000000
vt 0.000000 1.000000
vt 0.000000 1.000000
vt 0.000000 1.000000
vt 0.000000 1.000000
vt 0.000000 1.000000
vt 0.000000 1.000000
vt 0.000000 1.000000
vt 0.000000 1.000000
vt 0.000000 1.000000
vt 0.000000 1.000000
vt 0.000000 1.000000
vt 0.000000 1.000000
vt 0.000000 1.000000
vt 0.000000 1.000000
vt 0.000000 1.000000
vt 0.000000 1.000000
vt 0.000000 1.000000
vt 0.000000 1.000000
vt 0.000000 1.000000
vt 0.000000 1.000000
vt 0.000000 1.000000
vt 0.000000 1.000000
vt 0.000000 1.000000
vt 0.000000 1.000000
vt 0.000000 1.000000
vn -0.9869 -0.1611 0.0017
vn -0.9604 -0.2593 0.1018
vn -0.9401 -0.3123 0.1369
vn -0.9194 -0.2357 0.3148
vn -0.9543 -0.1976 0.2242
vn -0.9667 -0.1330 0.2188
vn 0.9845 -0.1271 0.1210
vn 0.9894 -0.0330 0.1417
vn 0.9860 -0.0823 0.1451
vn 0.9515 -0.0123 0.3074
vn 0.9864 -0.0674 0.1501
vn 0.9857 -0.0838 0.1459
vn -0.9845 -0.1271 0.1210
vn -0.9860 -0.0823 0.1451
vn -0.9894 -0.0330 0.1417
vn -0.9514 -0.0120 0.3076
vn -0.6839 -0.7218 0.1066
vn -0.6540 -0.7257 0.2136
vn -0.9869 -0.0661 0.1471
vn -0.9459 -0.1093 0.3054
vn -0.8909 -0.0113 0.4540
vn -0.8848 -0.1174 0.4508
vn 0.9869 -0.1610 0.0017
vn 0.9401 -0.3123 0.1369
vn 0.9596 -0.2615 0.1039
vn 0.9189 -0.2384 0.3143
vn 0.7316 0.6393 0.2370
vn 0.6890 0.6340 0.3511
vn 0.9564 -0.2040 0.2091
vn 0.9459 -0.1070 0.3062
vn 0.8690 -0.2208 0.4428
vn 0.8848 -0.1174 0.4508
vn -0.6890 0.6340 0.3511
vn -0.8690 -0.2208 0.4428
vn -0.7318 0.6382 0.2392
vn -0.7651 0.6327 0.1198
vn -0.9908 -0.0753 0.1124
vn 0.0000 1.0000 0.0000
vn 0.7630 0.6345 0.1235
vn 0.6839 -0.7218 0.1066
vn 0.6540 -0.7257 0.2136
vn 0.8910 -0.0113 0.4540
vn 0.6166 -0.7218 0.3142
vn 0.9855 -0.0774 0.1512
vn 0.9908 -0.0753 0.1124
vn -0.6166 -0.7218 0.3142
vn -0.9868 -0.0965 0.1298
vn 0.0000 -1.0000 0.0000
usemtl ship_interior
s 1
f 1/1/1 2/2/2 3/3/3
f 2/2/2 4/4/4 3/3/3
f 3/3/3 4/4/4 5/5/5
f 4/4/4 6/6/6 5/5/5
f 7/7/7 8/8/8 9/9/9
f 8/8/8 10/10/10 9/9/9
f 9/9/9 10/10/10 11/11/11
f 10/10/10 12/12/12 11/11/11
f 13/13/13 14/14/14 15/15/15
f 14/14/14 16/16/16 15/15/15
f 15/15/15 16/16/16 17/17/17
f 16/16/16 18/18/18 17/17/17
f 14/14/14 19/19/19 16/16/16
f 19/19/19 20/20/20 16/16/16
f 16/16/16 20/20/20 21/21/21
f 20/20/20 22/22/22 21/21/21
f 23/23/23 24/24/24 25/25/25
f 24/24/24 26/26/26 25/25/25
f 25/25/25 26/26/26 27/27/27
f 26/26/26 28/28/28 27/27/27
f 24/24/24 29/29/29 26/26/26
f 29/29/29 30/30/30 26/26/26
f 26/26/26 30/30/30 31/31/31
f 30/30/30 32/32/32 31/31/31
f 33/33/33 34/34/34 35/35/35
f 34/34/34 4/4/4 35/35/35
f 35/35/35 4/4/4 36/36/36
f 4/4/4 2/2/2 36/36/36
f 34/34/34 22/22/22 4/4/4
f 22/22/22 20/20/20 4/4/4
f 4/4/4 20/20/20 6/6/6
f 20/20/20 37/37/37 6/6/6
f 38/38/38 33/33/33 39/39/38
f 33/33/33 35/35/35 39/39/38
f 39/39/38 35/35/35 40/40/38
f 35/35/35 36/36/36 40/40/38
f 41/41/38 42/42/39 43/43/38
f 42/42/39 27/27/27 43/43/38
f 43/43/38 27/27/27 44/44/38
f 27/27/27 28/28/28 44/44/38
f 8/8/8 45/45/40 10/10/10
f 45/45/40 46/46/41 10/10/10
f 10/10/10 46/46/41 47/47/42
f 46/46/41 48/48/43 47/47/42
f 29/29/29 49/49/44 30/30/30
f 49/49/44 50/50/45 30/30/30
f 30/30/30 50/50/45 12/12/12
f 18/18/18 16/16/16 51/51/46
f 16/16/16 21/21/21 51/51/46
f 12/12/12 10/10/10 30/30/30
f 10/10/10 32/32/32 30/30/30
f 37/37/37 20/20/20 52/52/47
f 20/20/20 19/19/19 52/52/47
f 17/17/17 18/18/18 53/53/48
f 18/18/18 54/54/48 53/53/48
f 18/18/18 51/51/46 54/54/48
f 51/51/46 55/55/48 54/54/48
f 56/56/48 57/57/48 45/45/40
f 57/57/48 46/46/41 45/45/40
f 48/48/43 46/46/41 58/58/48
f 46/46/41 57/57/48 58/58/48
f 10/10/10 47/47/42 32/32/32
f 27/27/27 42/42/39 25/25/25
f 28/28/28 26/26/26 31/31/31
