# Blender v2.83.0 OBJ File: ''
# www.blender.org
mtllib S.S._Dolphin_Guard_Satellite_5.mtl
o S.S._Dolphin_Guard_Satellite_5
v -0.450299 0.060818 -0.210330
v -0.445839 0.011480 -0.207754
v -0.458276 -0.026661 -0.239761
v -0.454173 -0.072056 -0.237391
v 0.407299 0.060818 -0.284804
v 0.402839 0.011480 -0.282229
v 0.436775 -0.026661 -0.276998
v 0.432672 -0.072056 -0.274628
v 0.436775 -0.026661 -0.276998
v 0.432672 -0.072056 -0.274628
v 0.429129 0.064484 -0.247758
v 0.424669 0.015142 -0.245183
v 0.429129 0.064484 -0.247758
v 0.424669 0.015142 -0.245183
v 0.458274 -0.026661 -0.239761
v 0.454171 -0.072056 -0.237391
v 0.458274 -0.026661 -0.239761
v 0.454171 -0.072056 -0.237391
v 0.450297 0.060818 -0.210330
v 0.445837 0.011480 -0.207754
v 0.450297 0.060818 -0.210330
v 0.445837 0.011480 -0.207754
v 0.478389 0.000752 -0.176900
v 0.475830 -0.027561 -0.175422
v 0.407299 0.060818 -0.284804
v 0.392394 0.000752 -0.325848
v 0.402839 0.011480 -0.282229
v 0.389835 -0.027561 -0.324370
v -0.450299 0.060818 -0.210330
v -0.478391 0.000752 -0.176900
v -0.445839 0.011480 -0.207754
v -0.475832 -0.027561 -0.175422
v -0.407301 0.060818 -0.284804
v -0.402841 0.011480 -0.282229
v -0.392396 0.000752 -0.325848
v -0.389837 -0.027561 -0.324370
v -0.436777 -0.026661 -0.276998
v -0.432674 -0.072056 -0.274628
v -0.407301 0.060818 -0.284804
v -0.402841 0.011480 -0.282229
v -0.429131 0.064484 -0.247758
v -0.424671 0.015142 -0.245183
v -0.436777 -0.026661 -0.276998
v -0.432674 -0.072056 -0.274628
v -0.458276 -0.026661 -0.239761
v -0.454173 -0.072056 -0.237391
v -0.429131 0.064484 -0.247758
v -0.424671 0.015142 -0.245183
v 0.042996 0.060818 0.495134
v 0.042996 0.011480 0.489985
v 0.021497 -0.026661 0.516759
v 0.021497 -0.072056 0.512021
v 0.021497 -0.026661 0.516759
v 0.021497 -0.072056 0.512021
v -0.000001 0.064484 0.495517
v -0.000001 0.015142 0.490368
v -0.000001 0.064484 0.495517
v -0.000001 0.015142 0.490368
v -0.021500 -0.026661 0.516759
v -0.021500 -0.072056 0.512021
v -0.021500 -0.026661 0.516759
v -0.021500 -0.072056 0.512021
v -0.042999 0.060818 0.495134
v -0.042999 0.011480 0.489985
v -0.042999 0.060818 0.495134
v -0.042999 0.011480 0.489985
v -0.085996 0.000751 0.502748
v -0.085996 -0.027561 0.499793
v 0.042996 0.060818 0.495134
v 0.085994 0.000751 0.502748
v 0.042996 0.011480 0.489985
v 0.085994 -0.027561 0.499793
vt 0.000000 1.000000
vt 0.000000 1.000000
vt 0.000000 1.000000
vt 0.000000 1.000000
vt 0.000000 1.000000
vt 0.000000 1.000000
vt 0.000000 1.000000
vt 0.000000 1.000000
vt 0.000000 1.000000
vt 0.000000 1.000000
vt 0.000000 1.000000
vt 0.000000 1.000000
vt 0.000000 1.000000
vt 0.000000 1.000000
vt 0.000000 1.000000
vt 0.000000 1.000000
vt 0.000000 1.000000
vt 0.000000 1.000000
vt 0.000000 1.000000
vt 0.000000 1.000000
vt 0.000000 1.000000
vt 0.000000 1.000000
vt 0.000000 1.000000
vt 0.000000 1.000000
vt 0.000000 1.000000
vt 0.000000 1.000000
vt 0.000000 1.000000
vt 0.000000 1.000000
vt 0.000000 1.000000
vt 0.000000 1.000000
vt 0.000000 1.000000
vt 0.000000 1.000000
vt 0.000000 1.000000
vt 0.000000 1.000000
vt 0.000000 1.000000
vt 0.000000 1.000000
vt 0.000000 1.000000
vt 0.000000 1.000000
vt 0.000000 1.000000
vt 0.000000 1.000000
vt 0.000000 1.000000
vt 0.000000 1.000000
vt 0.000000 1.000000
vt 0.000000 1.000000
vt 0.000000 1.000000
vt 0.000000 1.000000
vt 0.000000 1.000000
vt 0.000000 1.000000
vt 0.000000 1.000000
vt 0.000000 1.000000
vt 0.000000 1.000000
vt 0.000000 1.000000
vt 0.000000 1.000000
vt 0.000000 1.000000
vt 0.000000 1.000000
vt 0.000000 1.000000
vt 0.000000 1.000000
vt 0.000000 1.000000
vt 0.000000 1.000000
vt 0.000000 1.000000
vt 0.000000 1.000000
vt 0.000000 1.000000
vt 0.000000 1.000000
vt 0.000000 1.000000
vt 0.000000 1.000000
vt 0.000000 1.000000
vt 0.000000 1.000000
vt 0.000000 1.000000
vt 0.000000 1.000000
vt 0.000000 1.000000
vt 0.000000 1.000000
vt 0.000000 1.000000
vn 0.9044 0.0597 -0.4225
vn -0.0862 0.0597 0.9945
vn -0.9044 0.0597 -0.4225
vn -0.9044 0.0597 -0.4226
vn -0.6672 0.0989 0.7383
vn -0.6672 0.0988 0.7383
vn -0.9730 0.0988 0.2087
vn 0.6672 0.0989 0.7383
vn 0.6672 0.0988 0.7383
vn 0.9730 0.0988 0.2087
vn 0.0862 0.0597 0.9945
vn 0.9044 0.0597 -0.4226
vn 0.0861 0.0597 0.9945
vn -0.8181 0.0597 -0.5719
vn 0.8181 0.0597 -0.5719
vn -0.3058 0.0988 -0.9470
vn 0.3057 0.0988 -0.9470
usemtl emit
s 1
f 1/1/1 2/2/1 3/3/1
f 2/2/1 4/4/1 3/3/1
f 5/5/2 6/6/2 7/7/2
f 6/6/2 8/8/2 7/7/2
f 9/9/3 10/10/3 11/11/4
f 10/10/3 12/12/4 11/11/4
f 13/13/2 14/14/2 15/15/2
f 14/14/2 16/16/2 15/15/2
f 17/17/3 18/18/3 19/19/3
f 18/18/3 20/20/4 19/19/3
f 21/21/5 22/22/5 23/23/6
f 22/22/5 24/24/6 23/23/6
f 25/25/7 26/26/7 27/27/7
f 26/26/7 28/28/7 27/27/7
f 29/29/8 30/30/8 31/31/8
f 30/30/8 32/32/9 31/31/8
f 33/33/10 34/34/10 35/35/10
f 34/34/10 36/36/10 35/35/10
f 37/37/11 38/38/11 39/39/11
f 38/38/11 40/40/11 39/39/11
f 41/41/12 42/42/12 43/43/1
f 42/42/12 44/44/1 43/43/1
f 45/45/13 46/46/11 47/47/11
f 46/46/11 48/48/11 47/47/11
f 49/49/14 50/50/14 51/51/14
f 50/50/14 52/52/14 51/51/14
f 53/53/15 54/54/15 55/55/15
f 54/54/15 56/56/15 55/55/15
f 57/57/14 58/58/14 59/59/14
f 58/58/14 60/60/14 59/59/14
f 61/61/15 62/62/15 63/63/15
f 62/62/15 64/64/15 63/63/15
f 65/65/16 66/66/16 67/67/16
f 66/66/16 68/68/16 67/67/16
f 69/69/17 70/70/17 71/71/17
f 70/70/17 72/72/17 71/71/17
