# Blender v2.83.0 OBJ File: ''
# www.blender.org
mtllib S.S._Dolphin_Seat.mtl
o S.S._Dolphin_Seat
v -0.538864 -0.864482 0.345204
v -0.563743 -0.491965 0.288211
v -0.695335 -0.737758 0.282809
v -0.714549 -0.659083 0.255729
v -0.605483 -0.470385 0.225225
v -0.661756 -0.414039 0.242372
v -0.651702 -0.360077 0.142425
v -0.810830 -0.234260 0.090504
v -0.669903 -0.282269 -0.438123
v -0.827154 -0.186685 0.023014
v -0.838321 -0.117160 0.054749
v -0.976140 -0.217836 0.070976
v -1.033990 -0.164348 0.050760
v -1.067080 0.042353 -0.002969
v -0.838321 0.218546 -0.047297
v -1.033990 0.249696 -0.075097
v -0.976140 0.307940 -0.088842
v -0.827154 0.258854 -0.112420
v -0.809502 0.327616 -0.076888
v -0.698966 -0.017998 -0.521241
v -0.642478 0.623625 -0.147891
v -0.533457 0.315834 -0.584219
v -0.605483 0.651747 -0.206525
v -0.563743 0.704510 -0.166149
v -0.714549 0.777350 -0.180906
v -0.695335 0.855243 -0.201420
v 0.460060 -0.457030 -0.366659
v 0.182281 -0.523601 -0.309617
v 0.500557 -0.385855 0.163939
v 0.251124 -0.459840 0.282277
v 0.202038 -0.509823 0.254007
v 0.274704 -0.595491 0.408051
v 0.221795 -0.628133 0.383167
v 0.261716 -0.911696 0.369422
v 0.167150 -0.624499 0.435855
v 0.206129 -0.971705 0.385557
v 0.000126 -0.990002 0.393725
v 0.670155 -0.282269 -0.438123
v 0.648498 -0.359825 0.135229
v 0.567094 -0.393832 0.148851
v 0.605736 -0.470385 0.225225
v 0.563996 -0.491965 0.288211
v 0.714802 -0.659083 0.255729
v 0.695588 -0.737758 0.282809
v -0.550024 0.984990 -0.219423
v -0.274452 0.876225 -0.204500
v -0.170289 0.512287 -0.628129
v -0.221543 0.879650 -0.257353
v -0.166897 0.905737 -0.211484
v -0.261464 1.050516 -0.227021
v -0.205876 1.106791 -0.246238
v -0.338531 -0.937079 0.371076
v -0.274452 -0.595491 0.408051
v -0.250868 -0.460168 0.291673
v -0.502465 -0.386083 0.170484
v -0.182022 -0.524369 -0.287630
v -0.465125 -0.457533 -0.352268
v 0.000126 1.137344 -0.261582
v 0.167150 0.905737 -0.211484
v 0.206128 1.106791 -0.246238
v 0.261716 1.050516 -0.227021
v 0.221795 0.879650 -0.257353
v 0.274704 0.876225 -0.204500
v 0.170545 0.512287 -0.628129
v 0.533711 0.315834 -0.584219
v 0.927940 0.583261 -0.137334
v 0.809755 0.327616 -0.076888
v 0.998700 0.384995 -0.109096
v 0.976392 0.307940 -0.088842
v 0.827406 0.258854 -0.112420
v 0.838574 0.218546 -0.047297
v 0.699219 -0.017998 -0.521241
v 0.338783 1.069976 -0.239000
v 0.550277 0.984990 -0.219423
v 0.563996 0.704510 -0.166149
v 0.695588 0.855243 -0.201420
v 0.714802 0.777350 -0.180906
v 0.605736 0.651747 -0.206525
v 0.642731 0.623625 -0.147891
v 0.792699 0.754130 -0.183338
v -0.201783 -0.510206 0.265000
v -0.221543 -0.628133 0.383167
v -0.261464 -0.911696 0.369422
v 1.034241 0.249696 -0.075097
v 1.067341 0.042353 -0.002969
v 0.838574 -0.117160 0.054749
v 1.034241 -0.164348 0.050760
v 0.976392 -0.217836 0.070976
v 0.827406 -0.186685 0.023014
v 0.811082 -0.234260 0.090504
v 0.998700 -0.295681 0.097805
v -0.998448 0.384995 -0.109096
v -0.927687 0.583261 -0.137334
v -0.792445 0.754130 -0.183338
v -0.569592 -0.394072 0.155727
v 0.662009 -0.414039 0.242372
v -0.166897 -0.624499 0.435855
v 0.151560 -0.482559 0.299646
v -0.151306 -0.482847 0.307891
v -0.792445 -0.643690 0.241557
v -0.936642 -0.475450 0.174278
v -0.998448 -0.295681 0.097805
v -0.205876 -0.971705 0.385557
v 0.936895 -0.475450 0.174278
v 0.792699 -0.643690 0.241557
v 0.539117 -0.864482 0.345204
v 0.338783 -0.937079 0.371076
v -0.338531 1.069976 -0.239000
vt 0.000000 0.000000
vt 0.000000 0.000000
vt 0.000000 0.000000
vt 0.000000 0.000000
vt 0.000000 0.000000
vt 0.000000 0.000000
vt 0.000000 0.000000
vt 0.000000 0.000000
vt 0.000000 0.000000
vt 0.000000 0.000000
vt 0.000000 0.000000
vt 0.000000 0.000000
vt 0.000000 0.000000
vt 0.000000 0.000000
vt 0.000000 0.000000
vt 0.000000 0.000000
vt 0.000000 0.000000
vt 0.000000 0.000000
vt 0.000000 0.000000
vt 0.000000 0.000000
vt 0.000000 0.000000
vt 0.000000 0.000000
vt 0.000000 0.000000
vt 0.000000 0.000000
vt 0.000000 0.000000
vt 0.000000 0.000000
vt 0.000000 0.000000
vt 0.000000 0.000000
vt 0.000000 0.000000
vt 0.000000 0.000000
vt 0.000000 0.000000
vt 0.000000 0.000000
vt 0.000000 0.000000
vt 0.000000 0.000000
vt 0.000000 0.000000
vt 0.000000 0.000000
vt 0.000000 0.000000
vt 0.000000 0.000000
vt 0.000000 0.000000
vt 0.000000 0.000000
vt 0.000000 0.000000
vt 0.000000 0.000000
vt 0.000000 0.000000
vt 0.000000 0.000000
vt 0.000000 0.000000
vt 0.000000 0.000000
vt 0.000000 0.000000
vt 0.000000 0.000000
vt 0.000000 0.000000
vt 0.000000 0.000000
vt 0.000000 0.000000
vt 0.000000 0.000000
vt 0.000000 0.000000
vt 0.000000 0.000000
vt 0.000000 0.000000
vt 0.000000 0.000000
vt 0.000000 0.000000
vt 0.000000 0.000000
vt 0.000000 0.000000
vt 0.000000 0.000000
vt 0.000000 0.000000
vt 0.000000 0.000000
vt 0.000000 0.000000
vt 0.000000 0.000000
vt 0.000000 0.000000
vt 0.000000 0.000000
vt 0.000000 0.000000
vt 0.000000 0.000000
vt 0.000000 0.000000
vt 0.000000 0.000000
vt 0.000000 0.000000
vt 0.000000 0.000000
vt 0.000000 0.000000
vt 0.000000 0.000000
vt 0.000000 0.000000
vt 0.000000 0.000000
vt 0.000000 0.000000
vt 0.000000 0.000000
vt 0.000000 0.000000
vt 0.000000 0.000000
vt 0.000000 0.000000
vt 0.000000 0.000000
vt 0.000000 0.000000
vt 0.000000 0.000000
vt 0.000000 0.000000
vt 0.000000 0.000000
vt 0.000000 0.000000
vt 0.000000 0.000000
vt 0.000000 0.000000
vt 0.000000 0.000000
vt 0.000000 0.000000
vt 0.000000 0.000000
vt 0.000000 0.000000
vt 0.000000 0.000000
vt 0.000000 0.000000
vt 0.000000 0.000000
vt 0.000000 0.000000
vt 0.000000 0.000000
vt 0.000000 0.000000
vt 0.000000 0.000000
vt 0.000000 0.000000
vt 0.000000 0.000000
vt 0.000000 0.000000
vt 0.000000 0.000000
vt 0.000000 0.000000
vt 0.000000 0.000000
vt 0.000000 0.000000
vt 0.000000 0.000000
vn -0.2515 0.0438 0.9669
vn -0.3605 0.5137 0.7785
vn -0.3215 0.1516 0.9347
vn -0.3014 0.1739 0.9375
vn -0.1240 0.5581 0.8205
vn 0.2714 0.4525 0.8495
vn 0.4903 0.8143 0.3106
vn 0.2777 0.7723 0.5713
vn 0.8588 0.4801 0.1788
vn 0.7718 0.3134 0.5532
vn 0.5504 0.0706 0.8319
vn -0.0254 0.3165 0.9482
vn -0.0804 0.2518 0.9644
vn -0.0601 0.2895 0.9553
vn 0.5608 0.4075 0.7207
vn -0.0817 0.3269 0.9415
vn -0.0386 0.2575 0.9655
vn 0.7333 -0.0763 0.6756
vn 0.3677 -0.2079 0.9064
vn 0.9455 -0.0488 0.3221
vn 0.5735 0.0682 0.8164
vn 0.6849 -0.4841 0.5446
vn 0.4948 -0.3847 0.7792
vn 0.1072 -0.3344 0.9363
vn 0.0131 0.1764 0.9842
vn -0.0201 0.2111 0.9773
vn -0.4235 0.9057 -0.0217
vn -0.1516 0.9852 -0.0801
vn 0.0031 0.9703 0.2421
vn -0.4232 0.7988 0.4276
vn -0.1161 0.9505 0.2881
vn -0.1739 0.3244 0.9298
vn 0.1280 0.3580 0.9249
vn 0.1759 -0.0990 0.9794
vn 0.3190 0.3194 0.8923
vn 0.1720 -0.1223 0.9775
vn -0.0000 -0.1311 0.9914
vn -0.8540 0.4894 0.1767
vn -0.4616 0.8484 0.2592
vn -0.1285 0.9435 0.3054
vn 0.0457 0.5249 0.8500
vn 0.3553 0.5316 0.7689
vn 0.3014 0.1739 0.9375
vn 0.3215 0.1516 0.9347
vn 0.0007 0.1853 0.9827
vn 0.4218 -0.1804 0.8886
vn 0.2285 -0.6975 0.6792
vn 0.1897 -0.5201 0.8328
vn -0.1642 -0.3229 0.9321
vn 0.0254 0.1178 0.9927
vn 0.0819 0.1851 0.9793
vn -0.0630 -0.0957 0.9934
vn 0.1532 0.3003 0.9415
vn 0.4059 0.8033 0.4359
vn 0.0054 0.9701 0.2426
vn 0.1421 0.9865 -0.0815
vn 0.4312 0.9020 -0.0204
vn 0.0000 0.1932 0.9812
vn 0.1642 -0.3229 0.9321
vn -0.0819 0.1851 0.9793
vn -0.0254 0.1178 0.9927
vn -0.1897 -0.5201 0.8328
vn -0.4204 -0.1854 0.8882
vn -0.2213 -0.6948 0.6843
vn -0.6806 -0.4792 0.5542
vn 0.0293 0.2258 0.9737
vn -0.3731 -0.2077 0.9043
vn 0.1061 0.1977 0.9745
vn 0.0386 0.2575 0.9655
vn -0.7333 -0.0763 0.6756
vn -0.5608 0.4075 0.7207
vn -0.9451 -0.0439 0.3239
vn 0.0364 0.1635 0.9859
vn -0.0007 0.1853 0.9827
vn -0.1134 -0.3373 0.9345
vn 0.0201 0.2111 0.9773
vn -0.0131 0.1764 0.9842
vn -0.4948 -0.3847 0.7792
vn -0.5740 0.0647 0.8163
vn 0.0339 0.2255 0.9737
vn 0.1286 0.9415 0.3114
vn -0.1049 0.3409 0.9342
vn -0.1759 -0.0990 0.9794
vn 0.0817 0.3269 0.9415
vn 0.0601 0.2895 0.9553
vn -0.5504 0.0706 0.8319
vn 0.0804 0.2518 0.9644
vn 0.0254 0.3165 0.9482
vn -0.7718 0.3134 0.5532
vn -0.2758 0.7727 0.5717
vn 0.1694 0.3951 0.9029
vn -0.1061 0.1977 0.9745
vn -0.0293 0.2258 0.9737
vn -0.0339 0.2255 0.9737
vn 0.0373 0.9385 0.3431
vn -0.1880 0.4355 0.8803
vn -0.3239 0.3180 0.8910
vn 0.2963 0.8855 0.3580
vn -0.3022 0.8726 0.3837
vn -0.2155 0.1192 0.9692
vn -0.2832 0.2374 0.9292
vn -0.1694 0.3951 0.9029
vn -0.1720 -0.1223 0.9775
vn 0.2832 0.2374 0.9292
vn 0.2155 0.1192 0.9692
vn 0.2515 0.0438 0.9669
vn 0.0630 -0.0957 0.9934
vn -0.0364 0.1635 0.9859
usemtl ship_seat
s 1
f 1/1/1 2/2/2 3/3/3
f 3/3/3 2/2/2 4/4/4
f 2/2/2 5/5/5 4/4/4
f 4/4/4 5/5/5 6/6/6
f 5/5/5 7/7/7 6/6/6
f 6/6/6 7/7/7 8/8/8
f 7/7/7 9/9/9 8/8/8
f 8/8/8 9/9/9 10/10/10
f 9/9/9 11/11/11 10/10/10
f 10/10/10 11/11/11 12/12/12
f 11/11/11 13/13/13 12/12/12
f 14/14/14 15/15/15 16/16/16
f 16/16/16 15/15/15 17/17/17
f 15/15/15 18/18/18 17/17/17
f 17/17/17 18/18/18 19/19/19
f 18/18/18 20/20/20 19/19/19
f 19/19/19 20/20/20 21/21/21
f 20/20/20 22/22/22 21/21/21
f 21/21/21 22/22/22 23/23/23
f 22/22/22 24/24/24 23/23/23
f 23/23/23 24/24/24 25/25/25
f 24/24/24 26/26/26 25/25/25
f 27/27/27 28/28/28 29/29/29
f 29/29/29 28/28/28 30/30/30
f 28/28/28 31/31/31 30/30/30
f 30/30/30 31/31/31 32/32/32
f 31/31/31 33/33/33 32/32/32
f 32/32/32 33/33/33 34/34/34
f 33/33/33 35/35/35 34/34/34
f 34/34/34 35/35/35 36/36/36
f 35/35/35 37/37/37 36/36/36
f 38/38/38 27/27/27 39/39/39
f 39/39/39 27/27/27 40/40/40
f 27/27/27 29/29/29 40/40/40
f 40/40/40 29/29/29 41/41/41
f 29/29/29 42/42/42 41/41/41
f 41/41/41 42/42/42 43/43/43
f 42/42/42 44/44/44 43/43/43
f 26/26/26 24/24/24 45/45/45
f 45/45/45 24/24/24 46/46/46
f 24/24/24 47/47/47 46/46/46
f 46/46/46 47/47/47 48/48/48
f 47/47/47 49/49/49 48/48/48
f 48/48/48 49/49/49 50/50/50
f 49/49/49 51/51/51 50/50/50
f 52/52/52 53/53/53 1/1/1
f 1/1/1 53/53/53 2/2/2
f 53/53/53 54/54/54 2/2/2
f 2/2/2 54/54/54 55/55/55
f 54/54/54 56/56/56 55/55/55
f 55/55/55 56/56/56 57/57/57
f 58/58/58 59/59/59 60/60/60
f 60/60/60 59/59/59 61/61/61
f 59/59/59 62/62/62 61/61/61
f 61/61/61 62/62/62 63/63/63
f 62/62/62 64/64/64 63/63/63
f 63/63/63 64/64/64 65/65/65
f 66/66/66 67/67/67 68/68/68
f 68/68/68 67/67/67 69/69/69
f 67/67/67 70/70/70 69/69/69
f 69/69/69 70/70/70 71/71/71
f 70/70/70 72/72/72 71/71/71
f 71/71/71 72/72/72 38/38/38
f 61/61/61 63/63/63 73/73/73
f 73/73/73 63/63/63 74/74/74
f 63/63/63 75/75/75 74/74/74
f 74/74/74 75/75/75 76/76/76
f 75/75/75 77/77/77 76/76/76
f 63/63/63 65/65/65 75/75/75
f 75/75/75 65/65/65 78/78/78
f 65/65/65 79/79/79 78/78/78
f 78/78/78 79/79/79 77/77/77
f 79/79/79 80/80/80 77/77/77
f 56/56/56 54/54/54 81/81/81
f 81/81/81 54/54/54 82/82/82
f 54/54/54 53/53/53 82/82/82
f 82/82/82 53/53/53 83/83/83
f 53/53/53 52/52/52 83/83/83
f 69/69/69 71/71/71 84/84/84
f 84/84/84 71/71/71 85/85/85
f 71/71/71 86/86/86 85/85/85
f 85/85/85 86/86/86 87/87/87
f 86/86/86 88/88/88 87/87/87
f 71/71/71 38/38/38 86/86/86
f 86/86/86 38/38/38 89/89/89
f 38/38/38 90/90/90 89/89/89
f 89/89/89 90/90/90 88/88/88
f 90/90/90 91/91/91 88/88/88
f 51/51/51 49/49/49 58/58/58
f 58/58/58 49/49/49 59/59/59
f 49/49/49 47/47/47 59/59/59
f 59/59/59 47/47/47 64/64/64
f 80/80/80 79/79/79 66/66/66
f 66/66/66 79/79/79 67/67/67
f 79/79/79 65/65/65 67/67/67
f 67/67/67 65/65/65 72/72/72
f 17/17/17 19/19/19 92/92/92
f 92/92/92 19/19/19 93/93/93
f 19/19/19 21/21/21 93/93/93
f 93/93/93 21/21/21 94/94/94
f 13/13/13 11/11/11 14/14/14
f 14/14/14 11/11/11 15/15/15
f 11/11/11 9/9/9 15/15/15
f 15/15/15 9/9/9 20/20/20
f 9/9/9 7/7/7 57/57/57
f 57/57/57 7/7/7 95/95/95
f 7/7/7 5/5/5 95/95/95
f 95/95/95 5/5/5 2/2/2
f 38/38/38 39/39/39 90/90/90
f 90/90/90 39/39/39 96/96/96
f 39/39/39 40/40/40 96/96/96
f 96/96/96 40/40/40 41/41/41
f 37/37/37 35/35/35 97/97/97
f 97/97/97 35/35/35 98/98/98
f 35/35/35 33/33/33 98/98/98
f 98/98/98 33/33/33 31/31/31
f 82/82/82 97/97/97 81/81/81
f 81/81/81 97/97/97 99/99/99
f 97/97/97 98/98/98 99/99/99
f 99/99/99 98/98/98 56/56/56
f 4/4/4 6/6/6 100/100/100
f 100/100/100 6/6/6 101/101/101
f 6/6/6 102/102/102 101/101/101
f 37/37/37 97/97/97 103/103/103
f 103/103/103 97/97/97 83/83/83
f 97/97/97 82/82/82 83/83/83
f 90/90/90 96/96/96 91/91/91
f 91/91/91 96/96/96 104/104/104
f 96/96/96 105/105/105 104/104/104
f 23/23/23 25/25/25 21/21/21
f 21/21/21 25/25/25 94/94/94
f 57/57/57 95/95/95 55/55/55
f 55/55/55 95/95/95 2/2/2
f 10/10/10 12/12/12 8/8/8
f 8/8/8 12/12/12 102/102/102
f 29/29/29 30/30/30 42/42/42
f 42/42/42 30/30/30 32/32/32
f 105/105/105 96/96/96 43/43/43
f 43/43/43 96/96/96 41/41/41
f 44/44/44 42/42/42 106/106/106
f 106/106/106 42/42/42 32/32/32
f 31/31/31 28/28/28 98/98/98
f 98/98/98 28/28/28 56/56/56
f 34/34/34 107/107/107 32/32/32
f 32/32/32 107/107/107 106/106/106
f 48/48/48 50/50/50 46/46/46
f 46/46/46 50/50/50 108/108/108
f 15/15/15 20/20/20 18/18/18
f 102/102/102 6/6/6 8/8/8
f 77/77/77 75/75/75 78/78/78
f 88/88/88 86/86/86 89/89/89
f 67/67/67 72/72/72 70/70/70
f 59/59/59 64/64/64 62/62/62
f 47/47/47 24/24/24 22/22/22
f 45/45/45 46/46/46 108/108/108
f 99/99/99 56/56/56 81/81/81
