# Blender v2.83.0 OBJ File: ''
# www.blender.org
mtllib S.S._Dolphin_Chronos_Reactor_2.mtl
o S.S._Dolphin_Chronos_Reactor_2
v 2.075383 0.506881 0.010913
v 1.970512 0.506880 0.673038
v 1.808683 -0.374596 0.010911
v 1.716872 -0.374596 0.559594
v 1.666172 0.506879 1.270344
v 1.552913 -0.078197 1.135984
v 1.192142 0.506879 1.744374
v 1.109852 -0.078197 1.559433
v 0.594828 0.506879 2.048723
v 0.512415 -0.374596 1.699583
v -0.067296 0.506879 2.153593
v -0.067296 -0.374596 1.786484
v -0.729420 0.506879 2.048723
v -0.647007 -0.374596 1.699583
v -1.326728 0.506879 1.744374
v -1.244448 -0.078197 1.559433
v -1.800758 0.506879 1.270344
v -1.687508 -0.078197 1.135984
v -2.105108 0.506880 0.673038
v -1.851458 -0.374596 0.559594
v -2.209978 0.506881 0.010913
v -1.943278 -0.374596 0.010911
v -2.105108 0.506882 -0.651212
v -1.851458 -0.374594 -0.537772
v -1.800758 0.506883 -1.248517
v -1.687508 -0.078193 -1.114158
v -1.326728 0.506884 -1.722547
v -1.244448 -0.078193 -1.537608
v -0.729420 0.506884 -2.026897
v -0.647007 -0.374593 -1.677758
v -0.067296 0.506884 -2.131768
v -0.067296 -0.374593 -1.764657
v 0.594828 0.506884 -2.026897
v 0.512414 -0.374593 -1.677758
v 1.192142 0.506883 -1.722547
v 1.109852 -0.078193 -1.537608
v 1.666163 0.506883 -1.248517
v 1.552913 -0.078193 -1.114158
v 1.970512 0.506882 -0.651212
v 1.716872 -0.374594 -0.537772
v 2.075383 0.506881 0.010913
v 1.808683 -0.374596 0.010911
v 0.454008 -0.385070 -1.507617
v -0.067296 -0.385070 -1.585768
v 0.512414 -0.374593 -1.677758
v -0.067296 -0.374593 -1.764657
v -0.588599 -0.385070 -1.507617
v -0.647007 -0.374593 -1.677758
v -1.125848 -0.088671 -1.381597
v -1.244448 -0.078193 -1.537608
v -1.524268 -0.088672 -1.000808
v -1.687508 -0.078193 -1.114158
v -1.671698 -0.385072 -0.482490
v -1.851458 -0.374594 -0.537772
v -1.754268 -0.385073 0.010911
v -1.943278 -0.374596 0.010911
v -1.671708 -0.385074 0.504313
v -1.851458 -0.374596 0.559594
v -1.524268 -0.088675 1.022624
v -1.687508 -0.078197 1.135984
v -1.125848 -0.088675 1.403423
v -1.244448 -0.078197 1.559433
v -0.588599 -0.385075 1.529443
v -0.647007 -0.374596 1.699583
v -0.067296 -0.385075 1.607594
v -0.067296 -0.374596 1.786484
v 0.454008 -0.385075 1.529443
v 0.512415 -0.374596 1.699583
v 0.991252 -0.088675 1.403423
v 1.109852 -0.078197 1.559433
v 1.389672 -0.088675 1.022624
v 1.552913 -0.078197 1.135984
v 1.537113 -0.385074 0.504313
v 1.716872 -0.374596 0.559594
v 1.619672 -0.385074 0.010911
v 1.808683 -0.374596 0.010911
v 1.537113 -0.385072 -0.482490
v 1.716872 -0.374594 -0.537772
v 1.389672 -0.088672 -1.000808
v 1.552913 -0.078193 -1.114158
v 0.991252 -0.088671 -1.381597
v 1.109852 -0.078193 -1.537608
v 0.454008 -0.385070 -1.507617
v 0.512414 -0.374593 -1.677758
v -1.305038 0.506883 -1.710088
v -1.125848 -0.088671 -1.381597
v -1.770908 0.506883 -1.239467
v -1.524268 -0.088672 -1.000808
v -2.070008 0.506882 -0.646448
v -1.671698 -0.385072 -0.482490
v -2.173079 0.506881 0.010913
v -1.754268 -0.385073 0.010911
v -2.070008 0.506880 0.668275
v -1.671708 -0.385074 0.504313
v -1.770908 0.506879 1.261294
v -1.524268 -0.088675 1.022624
v -1.305038 0.506879 1.731914
v -1.125848 -0.088675 1.403423
v -0.718018 0.506879 2.034063
v -0.588599 -0.385075 1.529443
v -0.067297 0.506879 2.138184
v -0.067296 -0.385075 1.607594
v 0.583424 0.506879 2.034063
v 0.454008 -0.385075 1.529443
v 1.170452 0.506879 1.731914
v 0.991252 -0.088675 1.403423
v 1.636313 0.506879 1.261294
v 1.638702 0.506232 1.258384
v 1.389672 -0.088675 1.022624
v 0.991252 -0.088675 1.403423
v -1.125848 -0.088671 -1.381597
v -1.305038 0.506883 -1.710088
v -0.588599 -0.385070 -1.507617
v -0.718018 0.506884 -2.012237
v -0.067296 -0.385070 -1.585768
v -0.067297 0.506884 -2.116358
v 0.454008 -0.385070 -1.507617
v 0.583424 0.506883 -2.012237
v 0.991252 -0.088671 -1.381597
v 1.170452 0.506883 -1.710088
v 1.389672 -0.088672 -1.000808
v 1.636313 0.506883 -1.239467
v 1.537113 -0.385072 -0.482490
v 1.935423 0.506882 -0.646448
v 1.619672 -0.385074 0.010911
v 2.038483 0.506881 0.010913
v 1.537113 -0.385074 0.504313
v 1.935423 0.506880 0.668275
v 1.389672 -0.088675 1.022624
v 1.636313 0.506879 1.261294
vt 0.000000 1.000000
vt 0.000000 1.000000
vt 0.000000 1.000000
vt 0.000000 1.000000
vt 0.000000 1.000000
vt 0.000000 1.000000
vt 0.000000 1.000000
vt 0.000000 1.000000
vt 0.000000 1.000000
vt 0.000000 1.000000
vt 0.000000 1.000000
vt 0.000000 1.000000
vt 0.000000 1.000000
vt 0.000000 1.000000
vt 0.000000 1.000000
vt 0.000000 1.000000
vt 0.000000 1.000000
vt 0.000000 1.000000
vt 0.000000 1.000000
vt 0.000000 1.000000
vt 0.000000 1.000000
vt 0.000000 1.000000
vt 0.000000 1.000000
vt 0.000000 1.000000
vt 0.000000 1.000000
vt 0.000000 1.000000
vt 0.000000 1.000000
vt 0.000000 1.000000
vt 0.000000 1.000000
vt 0.000000 1.000000
vt 0.000000 1.000000
vt 0.000000 1.000000
vt 0.000000 1.000000
vt 0.000000 1.000000
vt 0.000000 1.000000
vt 0.000000 1.000000
vt 0.000000 1.000000
vt 0.000000 1.000000
vt 0.000000 1.000000
vt 0.000000 1.000000
vt 0.000000 1.000000
vt 0.000000 1.000000
vt 0.000000 1.000000
vt 0.000000 1.000000
vt 0.000000 1.000000
vt 0.000000 1.000000
vt 0.000000 1.000000
vt 0.000000 1.000000
vt 0.000000 1.000000
vt 0.000000 1.000000
vt 0.000000 1.000000
vt 0.000000 1.000000
vt 0.000000 1.000000
vt 0.000000 1.000000
vt 0.000000 1.000000
vt 0.000000 1.000000
vt 0.000000 1.000000
vt 0.000000 1.000000
vt 0.000000 1.000000
vt 0.000000 1.000000
vt 0.000000 1.000000
vt 0.000000 1.000000
vt 0.000000 1.000000
vt 0.000000 1.000000
vt 0.000000 1.000000
vt 0.000000 1.000000
vt 0.000000 1.000000
vt 0.000000 1.000000
vt 0.000000 1.000000
vt 0.000000 1.000000
vt 0.000000 1.000000
vt 0.000000 1.000000
vt 0.000000 1.000000
vt 0.000000 1.000000
vt 0.000000 1.000000
vt 0.000000 1.000000
vt 0.000000 1.000000
vt 0.000000 1.000000
vt 0.000000 1.000000
vt 0.000000 1.000000
vt 0.000000 1.000000
vt 0.000000 1.000000
vt 0.000000 1.000000
vt 0.000000 1.000000
vt 0.000000 1.000000
vt 0.000000 1.000000
vt 0.000000 1.000000
vt 0.000000 1.000000
vt 0.000000 1.000000
vt 0.000000 1.000000
vt 0.000000 1.000000
vt 0.000000 1.000000
vt 0.000000 1.000000
vt 0.000000 1.000000
vt 0.000000 1.000000
vt 0.000000 1.000000
vt 0.000000 1.000000
vt 0.000000 1.000000
vt 0.000000 1.000000
vt 0.000000 1.000000
vt 0.000000 1.000000
vt 0.000000 1.000000
vt 0.000000 1.000000
vt 0.000000 1.000000
vt 0.000000 1.000000
vt 0.000000 1.000000
vt 0.000000 1.000000
vt 0.000000 1.000000
vt 0.000000 1.000000
vt 0.000000 1.000000
vt 0.000000 1.000000
vt 0.000000 1.000000
vt 0.000000 1.000000
vt 0.000000 1.000000
vt 0.000000 1.000000
vt 0.000000 1.000000
vt 0.000000 1.000000
vt 0.000000 1.000000
vt 0.000000 1.000000
vt 0.000000 1.000000
vt 0.000000 1.000000
vt 0.000000 1.000000
vt 0.000000 1.000000
vt 0.000000 1.000000
vt 0.000000 1.000000
vt 0.000000 1.000000
vt 0.000000 1.000000
vt 0.000000 1.000000
vt 0.000000 1.000000
vt 0.000000 1.000000
vn 0.9463 -0.2863 0.1499
vn 0.9066 -0.2977 0.2991
vn 0.9446 -0.2896 0.1547
vn 0.9202 -0.2910 0.2619
vn 0.7759 -0.2903 0.5601
vn 0.8083 -0.2803 0.5178
vn 0.5486 -0.3163 0.7739
vn 0.5222 -0.3377 0.7831
vn 0.2753 -0.3662 0.8889
vn 0.2436 -0.3785 0.8929
vn -0.0013 -0.3830 0.9237
vn -0.0016 -0.3829 0.9238
vn -0.2824 -0.3774 0.8819
vn -0.2487 -0.3682 0.8958
vn -0.5388 -0.3357 0.7727
vn -0.5102 -0.3189 0.7988
vn -0.7682 -0.2862 0.5726
vn -0.7905 -0.2911 0.5388
vn -0.9119 -0.2902 0.2903
vn -0.9207 -0.2954 0.2549
vn -0.9567 -0.2912 0.0014
vn -0.9566 -0.2914 0.0018
vn -0.9066 -0.2977 -0.2991
vn -0.9202 -0.2910 -0.2619
vn -0.7759 -0.2903 -0.5601
vn -0.8083 -0.2803 -0.5177
vn -0.5486 -0.3163 -0.7739
vn -0.5222 -0.3377 -0.7831
vn -0.2754 -0.3662 -0.8889
vn -0.2436 -0.3785 -0.8929
vn 0.0013 -0.3830 -0.9237
vn 0.0016 -0.3829 -0.9238
vn 0.2824 -0.3774 -0.8819
vn 0.2487 -0.3682 -0.8958
vn 0.5388 -0.3357 -0.7727
vn 0.5102 -0.3189 -0.7988
vn 0.7682 -0.2862 -0.5726
vn 0.7905 -0.2911 -0.5388
vn 0.9119 -0.2901 -0.2903
vn 0.9207 -0.2954 -0.2549
vn 0.9450 -0.2893 -0.1526
vn 0.9451 -0.2860 -0.1581
vn 0.0088 -0.9983 -0.0585
vn -0.0000 -0.9983 -0.0585
vn -0.2210 -0.9751 0.0158
vn -0.2583 -0.9650 0.0445
vn -0.2381 -0.9660 0.1010
vn -0.1983 -0.9764 0.0851
vn 0.1102 -0.9626 -0.2476
vn 0.0823 -0.9689 -0.2332
vn 0.0239 -0.9758 -0.2172
vn 0.0179 -0.9701 -0.2420
vn -0.0553 -0.9985 -0.0000
vn 0.0160 -0.9715 0.2363
vn 0.0375 -0.9660 0.2557
vn 0.0867 -0.9679 0.2360
vn 0.0870 -0.9727 0.2152
vn -0.2507 -0.9598 -0.1261
vn -0.2145 -0.9734 -0.0808
vn -0.2032 -0.9789 -0.0232
vn -0.2435 -0.9696 -0.0239
vn 0.0000 -0.9983 0.0585
vn 0.2210 -0.9751 -0.0158
vn 0.2583 -0.9650 -0.0445
vn 0.2381 -0.9660 -0.1010
vn 0.1983 -0.9764 -0.0851
vn -0.1102 -0.9626 0.2476
vn -0.0823 -0.9689 0.2332
vn -0.0239 -0.9758 0.2172
vn -0.0179 -0.9701 0.2420
vn 0.0554 -0.9985 -0.0000
vn -0.0160 -0.9715 -0.2363
vn -0.0375 -0.9660 -0.2557
vn -0.0867 -0.9679 -0.2360
vn -0.0870 -0.9727 -0.2152
vn 0.2507 -0.9598 0.1261
vn 0.2145 -0.9734 0.0808
vn 0.4252 -0.8971 0.1202
vn 0.4255 -0.9004 0.0906
vn -0.6089 -0.5157 -0.6028
vn -0.6037 -0.5071 -0.6151
vn -0.6962 -0.5010 -0.5141
vn -0.7091 -0.4745 -0.5216
vn -0.8455 -0.4486 -0.2897
vn -0.8590 -0.4315 -0.2754
vn -0.9045 -0.4265 -0.0013
vn -0.9043 -0.4268 -0.0019
vn -0.8570 -0.4324 0.2802
vn -0.8545 -0.4452 0.2675
vn -0.6998 -0.4806 0.5284
vn -0.6742 -0.5020 0.5418
vn -0.4954 -0.5248 0.6923
vn -0.5018 -0.5137 0.6959
vn -0.2748 -0.5136 0.8128
vn -0.2643 -0.5054 0.8214
vn 0.0012 -0.5099 0.8602
vn 0.0017 -0.5097 0.8603
vn 0.2654 -0.5050 0.8213
vn 0.2550 -0.5129 0.8197
vn 0.5123 -0.5147 0.6875
vn 0.5035 -0.5285 0.6835
vn 0.6019 -0.5230 0.6035
vn -0.7635 -0.5814 0.2812
vn 0.5987 -0.4989 0.6265
vn 0.5988 -0.4989 0.6265
vn -0.4599 -0.5310 -0.7118
vn -0.4171 -0.5063 -0.7548
vn -0.2549 -0.5129 -0.8197
vn -0.2654 -0.5050 -0.8213
vn -0.0017 -0.5097 -0.8603
vn -0.0012 -0.5099 -0.8602
vn 0.2643 -0.5054 -0.8214
vn 0.2748 -0.5136 -0.8128
vn 0.5018 -0.5138 -0.6959
vn 0.4953 -0.5248 -0.6923
vn 0.6742 -0.5020 -0.5418
vn 0.6998 -0.4806 -0.5284
vn 0.8545 -0.4452 -0.2675
vn 0.8570 -0.4324 -0.2802
vn 0.9043 -0.4268 0.0019
vn 0.9045 -0.4265 0.0013
vn 0.8590 -0.4315 0.2754
vn 0.8455 -0.4486 0.2897
vn 0.7770 -0.4503 0.4398
vn 0.7823 -0.4821 0.3946
usemtl Ship_exterior_2
s 1
f 1/1/1 2/2/2 3/3/3
f 3/3/3 2/2/2 4/4/4
f 2/2/2 5/5/5 4/4/4
f 4/4/4 5/5/5 6/6/6
f 5/5/5 7/7/7 6/6/6
f 6/6/6 7/7/7 8/8/8
f 7/7/7 9/9/9 8/8/8
f 8/8/8 9/9/9 10/10/10
f 9/9/9 11/11/11 10/10/10
f 10/10/10 11/11/11 12/12/12
f 11/11/11 13/13/13 12/12/12
f 12/12/12 13/13/13 14/14/14
f 13/13/13 15/15/15 14/14/14
f 14/14/14 15/15/15 16/16/16
f 15/15/15 17/17/17 16/16/16
f 16/16/16 17/17/17 18/18/18
f 17/17/17 19/19/19 18/18/18
f 18/18/18 19/19/19 20/20/20
f 19/19/19 21/21/21 20/20/20
f 20/20/20 21/21/21 22/22/22
f 21/21/21 23/23/23 22/22/22
f 22/22/22 23/23/23 24/24/24
f 23/23/23 25/25/25 24/24/24
f 24/24/24 25/25/25 26/26/26
f 25/25/25 27/27/27 26/26/26
f 26/26/26 27/27/27 28/28/28
f 27/27/27 29/29/29 28/28/28
f 28/28/28 29/29/29 30/30/30
f 29/29/29 31/31/31 30/30/30
f 30/30/30 31/31/31 32/32/32
f 31/31/31 33/33/33 32/32/32
f 32/32/32 33/33/33 34/34/34
f 33/33/33 35/35/35 34/34/34
f 34/34/34 35/35/35 36/36/36
f 35/35/35 37/37/37 36/36/36
f 36/36/36 37/37/37 38/38/38
f 37/37/37 39/39/39 38/38/38
f 38/38/38 39/39/39 40/40/40
f 39/39/39 41/41/41 40/40/40
f 40/40/40 41/41/41 42/42/42
f 43/43/43 44/44/44 45/45/43
f 45/45/43 44/44/44 46/46/44
f 44/44/44 47/47/45 46/46/44
f 46/46/44 47/47/45 48/48/46
f 47/47/45 49/49/47 48/48/46
f 48/48/46 49/49/47 50/50/48
f 49/49/47 51/51/49 50/50/48
f 50/50/48 51/51/49 52/52/50
f 51/51/49 53/53/51 52/52/50
f 52/52/50 53/53/51 54/54/52
f 53/53/51 55/55/53 54/54/52
f 54/54/52 55/55/53 56/56/53
f 55/55/53 57/57/54 56/56/53
f 56/56/53 57/57/54 58/58/55
f 57/57/54 59/59/56 58/58/55
f 58/58/55 59/59/56 60/60/57
f 59/59/56 61/61/58 60/60/57
f 60/60/57 61/61/58 62/62/59
f 61/61/58 63/63/60 62/62/59
f 62/62/59 63/63/60 64/64/61
f 63/63/60 65/65/62 64/64/61
f 64/64/61 65/65/62 66/66/62
f 65/65/62 67/67/63 66/66/62
f 66/66/62 67/67/63 68/68/64
f 67/67/63 69/69/65 68/68/64
f 68/68/64 69/69/65 70/70/66
f 69/69/65 71/71/67 70/70/66
f 70/70/66 71/71/67 72/72/68
f 71/71/67 73/73/69 72/72/68
f 72/72/68 73/73/69 74/74/70
f 73/73/69 75/75/71 74/74/70
f 74/74/70 75/75/71 76/76/71
f 75/75/71 77/77/72 76/76/71
f 76/76/71 77/77/72 78/78/73
f 77/77/72 79/79/74 78/78/73
f 78/78/73 79/79/74 80/80/75
f 79/79/74 81/81/76 80/80/75
f 80/80/75 81/81/76 82/82/77
f 81/81/76 83/83/78 82/82/77
f 82/82/77 83/83/78 84/84/79
f 85/85/80 86/86/81 87/87/82
f 86/86/81 88/88/83 87/87/82
f 87/87/82 88/88/83 89/89/84
f 88/88/83 90/90/85 89/89/84
f 89/89/84 90/90/85 91/91/86
f 90/90/85 92/92/87 91/91/86
f 91/91/86 92/92/87 93/93/88
f 92/92/87 94/94/89 93/93/88
f 93/93/88 94/94/89 95/95/90
f 94/94/89 96/96/91 95/95/90
f 95/95/90 96/96/91 97/97/92
f 96/96/91 98/98/93 97/97/92
f 97/97/92 98/98/93 99/99/94
f 98/98/93 100/100/95 99/99/94
f 99/99/94 100/100/95 101/101/96
f 100/100/95 102/102/97 101/101/96
f 101/101/96 102/102/97 103/103/98
f 102/102/97 104/104/99 103/103/98
f 103/103/98 104/104/99 105/105/100
f 104/104/99 106/106/101 105/105/100
f 105/105/100 106/106/101 107/107/102
f 106/106/101 108/108/103 107/107/102
f 107/107/102 108/108/103 109/109/104
f 108/108/103 110/110/105 109/109/104
f 111/111/106 112/112/107 113/113/108
f 112/112/107 114/114/109 113/113/108
f 113/113/108 114/114/109 115/115/110
f 114/114/109 116/116/111 115/115/110
f 115/115/110 116/116/111 117/117/112
f 116/116/111 118/118/113 117/117/112
f 117/117/112 118/118/113 119/119/114
f 118/118/113 120/120/115 119/119/114
f 119/119/114 120/120/115 121/121/116
f 120/120/115 122/122/117 121/121/116
f 121/121/116 122/122/117 123/123/118
f 122/122/117 124/124/119 123/123/118
f 123/123/118 124/124/119 125/125/120
f 124/124/119 126/126/121 125/125/120
f 125/125/120 126/126/121 127/127/122
f 126/126/121 128/128/123 127/127/122
f 127/127/122 128/128/123 129/129/124
f 128/128/123 130/130/125 129/129/124
