# Blender v2.83.0 OBJ File: ''
# www.blender.org
mtllib S.S._Dolphin_part.013.mtl
o S.S._Dolphin_part.013
v 1.989444 2.834618 0.486864
v 2.266918 1.945550 0.433340
v 1.593687 2.834618 -0.037657
v 1.908241 1.949949 -0.236263
v 1.100604 2.834618 -0.503305
v 1.262396 1.964572 -0.775231
v 0.558477 2.834618 -0.864512
v 0.591951 1.945549 -1.148458
v -0.112115 2.834618 -0.951458
v -0.122687 1.945550 -1.320928
v -0.776634 2.834618 -0.826306
v -1.094675 0.185626 -1.550032
v -1.597651 1.945551 -0.793954
v -1.816814 0.185626 -1.080541
v -2.487655 0.185626 -0.452650
v -1.791335 -1.428084 -1.030955
v -2.243228 -3.137835 -0.260440
v -1.653698 -3.137835 -0.863546
v -0.943969 -3.137835 -1.262359
v -0.134509 -1.428083 -1.734374
v -0.133929 0.185626 -1.714052
v 0.834623 0.185626 -1.605228
v 0.693350 1.126789 -1.392211
v 1.393171 1.145811 -0.967874
v 2.115640 1.131187 -0.396235
v 2.402577 -3.137834 0.347503
v 2.055018 -3.137834 -0.383406
v 2.762001 -1.428084 0.560478
v 2.288058 0.185626 -0.589281
v 2.778942 0.185626 0.266262
v 2.513600 1.126788 0.345307
v 2.559179 1.945550 1.104257
v 2.113736 2.834617 1.121250
v 2.860033 -2.171295 1.382115
v 2.584841 -3.115106 1.391251
v 2.846611 -2.096694 1.114871
v 2.841839 -1.958994 0.876244
v 0.700606 -3.137834 -1.309410
v 1.559815 -1.428084 -1.126831
v 1.431977 -3.137834 -0.951831
v 1.582419 0.185626 -1.177795
v -1.837514 2.834618 -0.008175
v -2.482726 1.945550 0.500538
v -2.128007 2.834617 0.604658
v -2.215815 2.834616 1.245114
v -3.105609 -2.096695 1.136954
v -3.114491 -1.958996 0.898446
v -2.689852 -3.137835 0.916160
v -3.013007 -1.428084 0.558413
v -3.061833 -0.878236 0.759563
v -3.097336 -0.739025 0.999336
v -2.883677 0.185626 0.382824
v -3.142308 -0.666036 1.268250
v -3.091708 0.185626 1.267005
v -2.917180 1.128105 1.261730
v -1.371868 2.834618 -0.501258
v 2.979753 -0.739024 0.996826
v 2.989440 0.185627 1.093028
v 2.694120 1.551045 1.107398
v -3.106203 -2.171296 1.404594
v -2.828473 -3.115106 1.397910
v -0.125663 -3.137834 -1.425036
v -2.661511 1.945550 1.253620
v 2.930601 -0.878234 0.759470
vt 0.000000 1.000000
vt 0.000000 1.000000
vt 0.000000 1.000000
vt 0.000000 1.000000
vt 0.000000 1.000000
vt 0.000000 1.000000
vt 0.000000 1.000000
vt 0.000000 1.000000
vt 0.000000 1.000000
vt 0.000000 1.000000
vt 0.000000 1.000000
vt 0.000000 1.000000
vt 0.000000 1.000000
vt 0.000000 1.000000
vt 0.000000 1.000000
vt 0.000000 1.000000
vt 0.000000 1.000000
vt 0.000000 1.000000
vt 0.000000 1.000000
vt 0.000000 1.000000
vt 0.000000 1.000000
vt 0.000000 1.000000
vt 0.000000 1.000000
vt 0.000000 1.000000
vt 0.000000 1.000000
vt 0.000000 1.000000
vt 0.000000 1.000000
vt 0.000000 1.000000
vt 0.000000 1.000000
vt 0.000000 1.000000
vt 0.000000 1.000000
vt 0.000000 1.000000
vt 0.000000 1.000000
vt 0.000000 1.000000
vt 0.000000 1.000000
vt 0.000000 1.000000
vt 0.000000 1.000000
vt 0.000000 1.000000
vt 0.000000 1.000000
vt 0.000000 1.000000
vt 0.000000 1.000000
vt 0.000000 1.000000
vt 0.000000 1.000000
vt 0.000000 1.000000
vt 0.000000 1.000000
vt 0.000000 1.000000
vt 0.000000 1.000000
vt 0.000000 1.000000
vt 0.000000 1.000000
vt 0.000000 1.000000
vt 0.000000 1.000000
vt 0.000000 1.000000
vt 0.000000 1.000000
vt 0.000000 1.000000
vt 0.000000 1.000000
vt 0.000000 1.000000
vt 0.000000 1.000000
vt 0.000000 1.000000
vt 0.000000 1.000000
vt 0.000000 1.000000
vt 0.000000 1.000000
vt 0.000000 1.000000
vt 0.000000 1.000000
vt 0.000000 1.000000
vn 0.8375 0.3341 -0.4324
vn 0.8498 0.3115 -0.4252
vn 0.7152 0.3545 -0.6024
vn 0.7356 0.3391 -0.5864
vn 0.5750 0.3514 -0.7388
vn 0.5450 0.3059 -0.7806
vn 0.3234 0.3185 -0.8911
vn 0.3299 0.3141 -0.8902
vn -0.0042 0.3624 -0.9320
vn -0.0295 0.3117 -0.9497
vn -0.3161 0.3413 -0.8852
vn -0.3665 0.0953 -0.9255
vn -0.5832 0.2994 -0.7551
vn -0.6142 0.0835 -0.7847
vn -0.8015 0.0989 -0.5898
vn -0.6100 -0.0909 -0.7871
vn -0.8131 -0.1555 -0.5610
vn -0.6035 -0.1257 -0.7874
vn -0.3582 -0.1348 -0.9239
vn -0.0285 -0.0923 -0.9953
vn -0.0259 0.1175 -0.9927
vn 0.3207 0.1084 -0.9410
vn 0.3187 0.2615 -0.9111
vn 0.5477 0.2724 -0.7911
vn 0.7386 0.2832 -0.6118
vn 0.9214 -0.1881 -0.3401
vn 0.7965 -0.1185 -0.5929
vn 0.8751 -0.1042 -0.4726
vn 0.7659 0.0954 -0.6359
vn 0.9131 0.0958 -0.3964
vn 0.8644 0.2888 -0.4115
vn 0.8805 0.3265 -0.3436
vn 0.8794 0.4439 -0.1723
vn 0.9521 -0.2788 -0.1257
vn 0.9461 -0.2849 -0.1537
vn 0.9477 -0.2783 -0.1561
vn 0.9216 -0.1921 -0.3373
vn 0.3048 -0.1348 -0.9428
vn 0.5640 -0.0909 -0.8207
vn 0.5575 -0.1257 -0.8206
vn 0.5668 0.1237 -0.8145
vn -0.7760 0.3411 -0.5306
vn -0.8791 0.3204 -0.3528
vn -0.8849 0.3839 -0.2637
vn -0.9000 0.4050 -0.1610
vn -0.9371 -0.3166 -0.1470
vn -0.8091 -0.2990 -0.5060
vn -0.9047 -0.2815 -0.3197
vn -0.8560 -0.1105 -0.5051
vn -0.9566 0.0591 -0.2855
vn -0.9763 0.0964 -0.1938
vn -0.9314 0.1301 -0.3399
vn -0.9749 0.0805 -0.2073
vn -0.9669 0.1158 -0.2275
vn -0.9390 0.2306 -0.2550
vn -0.5639 0.3839 -0.7312
vn 0.9725 0.0284 -0.2313
vn 0.9628 0.1140 -0.2451
vn 0.8946 0.2788 -0.3492
vn -0.9564 -0.2809 -0.0804
vn -0.9241 -0.3090 -0.2246
vn -0.0281 -0.1781 -0.9836
vn -0.9079 0.3596 -0.2155
vn 0.9243 -0.0440 -0.3792
usemtl ship_interior
s 1
f 1/1/1 2/2/2 3/3/3
f 2/2/2 4/4/4 3/3/3
f 3/3/3 4/4/4 5/5/5
f 4/4/4 6/6/6 5/5/5
f 5/5/5 6/6/6 7/7/7
f 6/6/6 8/8/8 7/7/7
f 7/7/7 8/8/8 9/9/9
f 8/8/8 10/10/10 9/9/9
f 9/9/9 10/10/10 11/11/11
f 10/10/10 12/12/12 11/11/11
f 11/11/11 12/12/12 13/13/13
f 12/12/12 14/14/14 13/13/13
f 13/13/13 14/14/14 15/15/15
f 14/14/14 16/16/16 15/15/15
f 15/15/15 16/16/16 17/17/17
f 16/16/16 18/18/18 17/17/17
f 18/18/18 16/16/16 19/19/19
f 16/16/16 12/12/12 19/19/19
f 19/19/19 12/12/12 20/20/20
f 12/12/12 21/21/21 20/20/20
f 20/20/20 21/21/21 22/22/22
f 21/21/21 23/23/23 22/22/22
f 22/22/22 23/23/23 24/24/24
f 23/23/23 6/6/6 24/24/24
f 24/24/24 6/6/6 25/25/25
f 6/6/6 4/4/4 25/25/25
f 25/25/25 4/4/4 2/2/2
f 26/26/26 27/27/27 28/28/28
f 27/27/27 29/29/29 28/28/28
f 28/28/28 29/29/29 30/30/30
f 29/29/29 25/25/25 30/30/30
f 30/30/30 25/25/25 31/31/31
f 25/25/25 2/2/2 31/31/31
f 31/31/31 2/2/2 32/32/32
f 2/2/2 1/1/1 32/32/32
f 32/32/32 1/1/1 33/33/33
f 34/34/34 35/35/35 36/36/36
f 35/35/35 26/26/26 36/36/36
f 36/36/36 26/26/26 37/37/37
f 26/26/26 28/28/28 37/37/37
f 20/20/20 22/22/22 38/38/38
f 22/22/22 39/39/39 38/38/38
f 38/38/38 39/39/39 40/40/40
f 39/39/39 27/27/27 40/40/40
f 27/27/27 39/39/39 29/29/29
f 39/39/39 41/41/41 29/29/29
f 29/29/29 41/41/41 24/24/24
f 41/41/41 22/22/22 24/24/24
f 13/13/13 15/15/15 42/42/42
f 15/15/15 43/43/43 42/42/42
f 42/42/42 43/43/43 44/44/44
f 43/43/43 45/45/45 44/44/44
f 46/46/46 47/47/47 48/48/48
f 47/47/47 49/49/49 48/48/48
f 48/48/48 49/49/49 17/17/17
f 49/49/49 15/15/15 17/17/17
f 50/50/50 51/51/51 52/52/52
f 51/51/51 53/53/53 52/52/52
f 52/52/52 53/53/53 54/54/54
f 54/54/54 55/55/55 52/52/52
f 55/55/55 43/43/43 52/52/52
f 52/52/52 43/43/43 15/15/15
f 12/12/12 10/10/10 21/21/21
f 10/10/10 23/23/23 21/21/21
f 11/11/11 13/13/13 56/56/56
f 13/13/13 42/42/42 56/56/56
f 57/57/57 30/30/30 58/58/58
f 30/30/30 59/59/59 58/58/58
f 10/10/10 8/8/8 23/23/23
f 8/8/8 6/6/6 23/23/23
f 60/60/60 46/46/46 61/61/61
f 46/46/46 48/48/48 61/61/61
f 19/19/19 20/20/20 62/62/62
f 20/20/20 38/38/38 62/62/62
f 45/45/45 43/43/43 63/63/63
f 43/43/43 55/55/55 63/63/63
f 30/30/30 31/31/31 59/59/59
f 31/31/31 32/32/32 59/59/59
f 28/28/28 30/30/30 64/64/64
f 30/30/30 57/57/57 64/64/64
f 50/50/50 52/52/52 49/49/49
f 52/52/52 15/15/15 49/49/49
f 22/22/22 41/41/41 39/39/39
f 24/24/24 25/25/25 29/29/29
f 16/16/16 14/14/14 12/12/12
