# Blender v2.83.0 OBJ File: ''
# www.blender.org
mtllib S.S._Dolphin_part.028.mtl
o S.S._Dolphin_part.028
v -0.173159 -0.173742 -2.482161
v 0.190947 -0.173742 -2.482161
v -0.542551 -0.062542 -1.013040
v 0.560339 -0.062542 -1.013040
v 0.008894 0.099058 0.057723
v 2.896745 -0.020943 0.452072
v 2.576675 -0.020943 1.501210
v 0.560339 -0.062542 -1.013040
v 0.711187 -0.268898 -1.107641
v 2.896745 -0.020943 0.452072
v 3.052664 -0.227599 0.498472
v -0.542551 -0.062542 -1.013040
v -0.693399 -0.268898 -1.107641
v -0.173159 -0.173742 -2.482161
v -0.299633 -0.379797 -2.513761
v -0.542551 -0.062542 -1.013040
v 0.008894 0.099058 0.057723
v -2.878957 -0.020943 0.452072
v -2.558886 -0.020943 1.501210
v 0.317421 -0.379797 -2.513761
v 0.190947 -0.173742 -2.482161
v -0.299633 -0.379797 -2.513761
v -0.173159 -0.173742 -2.482161
v 2.772765 0.462401 0.452072
v 2.896745 -0.020943 0.452072
v 2.869584 0.569055 0.452072
v 3.052664 -0.227599 0.498472
v 2.611905 0.462401 1.107207
v 2.576675 -0.020943 1.501210
v 2.772765 0.462401 0.452072
v 2.896745 -0.020943 0.452072
v 2.752464 0.569055 1.002406
v 2.715325 -0.227599 1.632011
v 2.611905 0.462401 1.107207
v 2.576675 -0.020943 1.501210
v -2.851796 0.569055 0.452072
v -3.034877 -0.227599 0.498472
v -2.754978 0.462401 0.452072
v -2.878957 -0.020943 0.452072
v -2.594117 0.462401 1.107207
v -2.558886 -0.020943 1.501210
v -2.734676 0.569055 1.002406
v -2.697537 -0.227599 1.632011
v -2.754978 0.462401 0.452072
v -2.878957 -0.020943 0.452072
v -2.594117 0.462401 1.107207
v -2.558886 -0.020943 1.501210
v -0.693399 -0.268898 -1.107641
v -0.542551 -0.062542 -1.013040
v -3.034877 -0.227599 0.498472
v -2.878957 -0.020943 0.452072
v 0.711187 -0.268898 -1.107641
v 0.560339 -0.062542 -1.013040
v 0.317421 -0.379797 -2.513761
v 0.190947 -0.173742 -2.482161
v 2.715325 -0.227599 1.632011
v -2.697537 -0.227599 1.632011
v 2.576675 -0.020943 1.501210
v -2.558886 -0.020943 1.501210
v 0.008894 0.099058 0.057723
v 2.576675 -0.020943 1.501210
v -2.558886 -0.020943 1.501210
vt 0.000000 1.000000
vt 0.000000 1.000000
vt 0.000000 1.000000
vt 0.000000 1.000000
vt 0.000000 1.000000
vt 0.000000 1.000000
vt 0.000000 1.000000
vt 0.000000 1.000000
vt 0.000000 1.000000
vt 0.000000 1.000000
vt 0.000000 1.000000
vt 0.000000 1.000000
vt 0.000000 1.000000
vt 0.000000 1.000000
vt 0.000000 1.000000
vt 0.000000 1.000000
vt 0.000000 1.000000
vt 0.000000 1.000000
vt 0.000000 1.000000
vt 0.000000 1.000000
vt 0.000000 1.000000
vt 0.000000 1.000000
vt 0.000000 1.000000
vt 0.000000 1.000000
vt 0.000000 1.000000
vt 0.000000 1.000000
vt 0.000000 1.000000
vt 0.000000 1.000000
vt 0.000000 1.000000
vt 0.000000 1.000000
vt 0.000000 1.000000
vt 0.000000 1.000000
vt 0.000000 1.000000
vt 0.000000 1.000000
vt 0.000000 1.000000
vt 0.000000 1.000000
vt 0.000000 1.000000
vt 0.000000 1.000000
vt 0.000000 1.000000
vt 0.000000 1.000000
vt 0.000000 1.000000
vt 0.000000 1.000000
vt 0.000000 1.000000
vt 0.000000 1.000000
vt 0.000000 1.000000
vt 0.000000 1.000000
vt 0.000000 1.000000
vt 0.000000 1.000000
vt 0.000000 1.000000
vt 0.000000 1.000000
vt 0.000000 1.000000
vt 0.000000 1.000000
vt 0.000000 1.000000
vt 0.000000 1.000000
vt 0.000000 1.000000
vt 0.000000 1.000000
vt 0.000000 1.000000
vt 0.000000 1.000000
vt 0.000000 1.000000
vt 0.000000 1.000000
vt 0.000000 1.000000
vt 0.000000 1.000000
vn 0.0000 -0.9971 0.0755
vn 0.0000 -0.9940 0.1090
vn -0.0219 -0.9933 0.1132
vn -0.0337 -0.9932 0.1115
vn -0.0440 -0.9989 0.0186
vn -0.0399 -0.9991 -0.0122
vn -0.4126 -0.6112 0.6754
vn -0.4201 -0.5970 0.6835
vn -0.5435 -0.2502 0.8013
vn -0.5474 -0.2325 0.8040
vn 0.7314 -0.6412 0.2324
vn 0.7384 -0.6318 0.2357
vn 0.7954 -0.5459 0.2633
vn 0.8026 -0.5335 0.2668
vn 0.0576 -0.9911 0.1199
vn 0.0535 -0.9946 0.0891
vn 0.0440 -0.9989 0.0186
vn 0.0399 -0.9991 -0.0122
vn 0.0000 -0.1516 0.9884
vn 0.0000 -0.0000 1.0000
vn -0.2803 -0.0129 0.9598
vn -0.0590 -0.0027 0.9983
vn -0.3021 -0.0139 0.9532
vn 0.9638 0.1227 0.2367
vn 0.9489 0.1791 0.2599
vn 0.9396 0.2083 0.2716
vn 0.9289 0.2383 0.2834
vn -0.1183 -0.6123 -0.7817
vn -0.1688 -0.6126 -0.7722
vn -0.1234 -0.6124 -0.7809
vn -0.1881 -0.6123 -0.7679
vn 0.0511 0.0464 0.9976
vn 0.2853 -0.0514 0.9570
vn 0.0759 0.0362 0.9965
vn 0.4088 -0.1048 0.9066
vn 0.1042 -0.6238 -0.7746
vn 0.1661 -0.6073 -0.7769
vn 0.1216 -0.6195 -0.7756
vn 0.1704 -0.6061 -0.7769
vn -0.9424 0.2417 0.2314
vn -0.9437 0.2114 0.2544
vn -0.9438 0.1867 0.2726
vn -0.9432 0.1658 0.2878
vn 0.4369 -0.6187 0.6529
vn 0.4439 -0.5987 0.6666
vn 0.5146 -0.2450 0.8217
vn 0.5175 -0.2039 0.8310
vn -0.7221 -0.6439 0.2530
vn -0.7333 -0.6314 0.2522
vn -0.8004 -0.5471 0.2452
vn -0.8094 -0.5342 0.2439
vn 0.0000 -0.5348 -0.8450
vn 0.0000 -0.9966 -0.0828
usemtl white
s 1
f 1/1/1 2/2/1 3/3/2
f 2/2/1 4/4/3 3/3/2
f 3/3/2 4/4/3 5/5/4
f 4/4/3 6/6/5 5/5/4
f 5/5/4 6/6/5 7/7/6
f 8/8/7 9/9/8 10/10/9
f 9/9/8 11/11/10 10/10/9
f 12/12/11 13/13/12 14/14/13
f 13/13/12 15/15/14 14/14/13
f 16/16/15 17/17/16 18/18/17
f 17/17/16 19/19/18 18/18/17
f 20/20/19 21/21/19 22/22/19
f 21/21/19 23/23/19 22/22/19
f 24/24/20 25/25/21 26/26/22
f 25/25/21 27/27/23 26/26/22
f 28/28/24 29/29/25 30/30/26
f 29/29/25 31/31/27 30/30/26
f 32/32/28 33/33/29 34/34/30
f 33/33/29 35/35/31 34/34/30
f 36/36/32 37/37/33 38/38/34
f 37/37/33 39/39/35 38/38/34
f 40/40/36 41/41/37 42/42/38
f 41/41/37 43/43/39 42/42/38
f 44/44/40 45/45/41 46/46/42
f 45/45/41 47/47/43 46/46/42
f 48/48/44 49/49/45 50/50/46
f 49/49/45 51/51/47 50/50/46
f 52/52/48 53/53/49 54/54/50
f 53/53/49 55/55/51 54/54/50
f 56/56/52 57/57/52 58/58/52
f 57/57/52 59/59/52 58/58/52
f 60/60/53 61/61/53 62/62/53
