# Blender v2.83.0 OBJ File: ''
# www.blender.org
mtllib S.S._Dolphin_Bowsprit_1.mtl
o S.S._Dolphin_Bowsprit_1
v -0.009322 -0.266939 0.136294
v 0.058783 -0.269318 0.118034
v 0.124370 -0.160471 0.224985
v 0.219402 -0.163790 0.129895
v 0.108640 -0.271059 0.068147
v 0.254186 -0.165005 -0.000000
v 0.126889 -0.271697 -0.000000
v 0.219402 -0.163790 -0.129894
v 0.108640 -0.271059 -0.068146
v 0.124370 -0.160471 -0.224984
v 0.058783 -0.269318 -0.118033
v -0.005446 -0.155938 -0.259790
v -0.009322 -0.266939 -0.136293
v -0.135261 -0.151405 -0.224984
v -0.077427 -0.264562 -0.118033
v -0.230293 -0.148087 -0.129894
v -0.127284 -0.262821 -0.068146
v -0.265077 -0.146872 -0.000000
v -0.145533 -0.262183 -0.000000
v -0.230293 -0.148087 0.129895
v -0.127284 -0.262821 0.068147
v -0.135261 -0.151405 0.224985
v -0.077427 -0.264561 0.118034
v -0.005446 -0.155938 0.259790
v -0.151448 0.005640 -0.262496
v -0.262324 0.009511 -0.151552
v -0.302907 0.010929 -0.000000
v -0.262324 0.009511 0.151553
v -0.151448 0.005640 0.262497
v 0.000012 0.000350 0.303105
v 0.151472 -0.004939 0.262497
v 0.262348 -0.008811 0.151553
v 0.302932 -0.010228 -0.000000
v 0.262348 -0.008811 -0.151552
v 0.151472 -0.004939 -0.262496
v 0.000012 0.000350 -0.303104
v 0.005121 0.146646 0.270615
v 0.140346 0.141923 0.234359
v 0.239337 0.138465 0.135308
v 0.275570 0.137200 -0.000000
v 0.239337 0.138467 -0.135307
v 0.140346 0.141923 -0.234358
v 0.005121 0.146646 -0.270614
v -0.130104 0.151366 -0.234358
v -0.229095 0.154824 -0.135307
v -0.265329 0.156087 -0.000000
v -0.229095 0.154824 0.135308
v -0.130104 0.151367 0.234359
v 0.008771 0.251177 0.166212
v 0.091826 0.248275 0.143944
v 0.152627 0.246152 0.083106
v 0.174882 0.245375 -0.000000
v 0.152627 0.246152 -0.083106
v 0.091826 0.248275 -0.143943
v 0.008771 0.251177 -0.166211
v -0.074284 0.254076 -0.143943
v -0.135085 0.256200 -0.083106
v -0.157340 0.256976 -0.000000
v -0.135085 0.256200 0.083106
v -0.074285 0.254076 0.143944
v 0.010355 0.296535 -0.000000
vt 0.000000 0.952000
vt 0.000000 0.952000
vt 0.000000 0.952000
vt 0.000000 0.952000
vt 0.000000 0.952000
vt 0.000000 0.952000
vt 0.000000 0.952000
vt 0.000000 0.952000
vt 0.000000 0.952000
vt 0.000000 0.952000
vt 0.000000 0.952000
vt 0.000000 0.952000
vt 0.000000 0.952000
vt 0.000000 0.952000
vt 0.000000 0.952000
vt 0.000000 0.952000
vt 0.000000 0.952000
vt 0.000000 0.952000
vt 0.000000 0.952000
vt 0.000000 0.952000
vt 0.000000 0.952000
vt 0.000000 0.952000
vt 0.000000 0.952000
vt 0.000000 0.952000
vt 0.000000 0.952000
vt 0.000000 0.952000
vt 0.000000 0.952000
vt 0.000000 0.952000
vt 0.000000 0.952000
vt 0.000000 0.952000
vt 0.000000 0.952000
vt 0.000000 0.952000
vt 0.000000 0.952000
vt 0.000000 0.952000
vt 0.000000 0.952000
vt 0.000000 0.952000
vt 0.000000 0.952000
vt 0.000000 0.952000
vt 0.000000 0.952000
vt 0.000000 0.952000
vt 0.000000 0.952000
vt 0.000000 0.952000
vt 0.000000 0.952000
vt 0.000000 0.952000
vt 0.000000 0.952000
vt 0.000000 0.952000
vt 0.000000 0.952000
vt 0.000000 0.952000
vt 0.000000 0.952000
vt 0.000000 0.952000
vt 0.000000 0.952000
vt 0.000000 0.952000
vt 0.000000 0.952000
vt 0.000000 0.952000
vt 0.000000 0.952000
vt 0.000000 0.952000
vt 0.000000 0.952000
vt 0.000000 0.952000
vt 0.000000 0.952000
vt 0.000000 0.952000
vt 0.000000 0.952000
vn -0.0259 -0.7431 0.6687
vn 0.3082 -0.7547 0.5791
vn 0.4131 -0.5213 0.7467
vn 0.7285 -0.5323 0.4311
vn 0.5528 -0.7633 0.3344
vn 0.8440 -0.5364 -0.0000
vn 0.6424 -0.7664 0.0000
vn 0.7285 -0.5323 -0.4311
vn 0.5528 -0.7633 -0.3344
vn 0.4132 -0.5213 -0.7467
vn 0.3082 -0.7547 -0.5791
vn -0.0177 -0.5063 -0.8622
vn -0.0259 -0.7431 -0.6687
vn -0.4485 -0.4912 -0.7467
vn -0.3601 -0.7314 -0.5791
vn -0.7639 -0.4802 -0.4311
vn -0.6047 -0.7229 -0.3344
vn -0.8793 -0.4762 0.0000
vn -0.6943 -0.7197 -0.0000
vn -0.7639 -0.4802 0.4311
vn -0.6047 -0.7229 0.3344
vn -0.4485 -0.4912 0.7467
vn -0.3601 -0.7314 0.5791
vn -0.0177 -0.5063 0.8622
vn -0.5004 -0.0075 -0.8658
vn -0.8661 0.0053 -0.4998
vn -1.0000 0.0100 -0.0000
vn -0.8661 0.0053 0.4998
vn -0.5004 -0.0075 0.8658
vn -0.0009 -0.0249 0.9997
vn 0.4987 -0.0423 0.8658
vn 0.8644 -0.0551 0.4998
vn 0.9982 -0.0598 -0.0000
vn 0.8644 -0.0551 -0.4998
vn 0.4987 -0.0423 -0.8658
vn -0.0009 -0.0249 -0.9997
vn 0.0161 0.4620 0.8868
vn 0.4592 0.4465 0.7679
vn 0.7836 0.4352 0.4434
vn 0.9023 0.4310 0.0000
vn 0.7836 0.4352 -0.4434
vn 0.4592 0.4465 -0.7680
vn 0.0161 0.4620 -0.8868
vn -0.4270 0.4774 -0.7680
vn -0.7514 0.4888 -0.4434
vn -0.8701 0.4929 -0.0000
vn -0.7514 0.4888 0.4434
vn -0.4270 0.4774 0.7680
vn 0.0295 0.8456 0.5330
vn 0.2959 0.8363 0.4616
vn 0.4909 0.8295 0.2665
vn 0.5622 0.8270 -0.0000
vn 0.4909 0.8295 -0.2665
vn 0.2959 0.8363 -0.4616
vn 0.0295 0.8456 -0.5330
vn -0.2368 0.8549 -0.4616
vn -0.4318 0.8617 -0.2665
vn -0.5032 0.8642 0.0000
vn -0.4318 0.8617 0.2665
vn -0.2368 0.8549 0.4616
vn 0.0349 0.9994 -0.0000
usemtl light_green
s 1
f 1/1/1 2/2/2 3/3/3
f 3/3/3 2/2/2 4/4/4
f 2/2/2 5/5/5 4/4/4
f 4/4/4 5/5/5 6/6/6
f 5/5/5 7/7/7 6/6/6
f 6/6/6 7/7/7 8/8/8
f 7/7/7 9/9/9 8/8/8
f 8/8/8 9/9/9 10/10/10
f 9/9/9 11/11/11 10/10/10
f 10/10/10 11/11/11 12/12/12
f 11/11/11 13/13/13 12/12/12
f 12/12/12 13/13/13 14/14/14
f 13/13/13 15/15/15 14/14/14
f 14/14/14 15/15/15 16/16/16
f 15/15/15 17/17/17 16/16/16
f 16/16/16 17/17/17 18/18/18
f 17/17/17 19/19/19 18/18/18
f 18/18/18 19/19/19 20/20/20
f 19/19/19 21/21/21 20/20/20
f 20/20/20 21/21/21 22/22/22
f 21/21/21 23/23/23 22/22/22
f 22/22/22 23/23/23 24/24/24
f 23/23/23 1/1/1 24/24/24
f 24/24/24 1/1/1 3/3/3
f 14/14/14 16/16/16 25/25/25
f 25/25/25 16/16/16 26/26/26
f 16/16/16 18/18/18 26/26/26
f 26/26/26 18/18/18 27/27/27
f 18/18/18 20/20/20 27/27/27
f 27/27/27 20/20/20 28/28/28
f 20/20/20 22/22/22 28/28/28
f 28/28/28 22/22/22 29/29/29
f 22/22/22 24/24/24 29/29/29
f 29/29/29 24/24/24 30/30/30
f 24/24/24 3/3/3 30/30/30
f 30/30/30 3/3/3 31/31/31
f 3/3/3 4/4/4 31/31/31
f 31/31/31 4/4/4 32/32/32
f 4/4/4 6/6/6 32/32/32
f 32/32/32 6/6/6 33/33/33
f 6/6/6 8/8/8 33/33/33
f 33/33/33 8/8/8 34/34/34
f 8/8/8 10/10/10 34/34/34
f 34/34/34 10/10/10 35/35/35
f 10/10/10 12/12/12 35/35/35
f 35/35/35 12/12/12 36/36/36
f 12/12/12 14/14/14 36/36/36
f 36/36/36 14/14/14 25/25/25
f 30/30/30 31/31/31 37/37/37
f 37/37/37 31/31/31 38/38/38
f 31/31/31 32/32/32 38/38/38
f 38/38/38 32/32/32 39/39/39
f 32/32/32 33/33/33 39/39/39
f 39/39/39 33/33/33 40/40/40
f 33/33/33 34/34/34 40/40/40
f 40/40/40 34/34/34 41/41/41
f 34/34/34 35/35/35 41/41/41
f 41/41/41 35/35/35 42/42/42
f 35/35/35 36/36/36 42/42/42
f 42/42/42 36/36/36 43/43/43
f 36/36/36 25/25/25 43/43/43
f 43/43/43 25/25/25 44/44/44
f 25/25/25 26/26/26 44/44/44
f 44/44/44 26/26/26 45/45/45
f 26/26/26 27/27/27 45/45/45
f 45/45/45 27/27/27 46/46/46
f 27/27/27 28/28/28 46/46/46
f 46/46/46 28/28/28 47/47/47
f 28/28/28 29/29/29 47/47/47
f 47/47/47 29/29/29 48/48/48
f 29/29/29 30/30/30 48/48/48
f 48/48/48 30/30/30 37/37/37
f 48/48/48 37/37/37 49/49/49
f 49/49/49 37/37/37 50/50/50
f 37/37/37 38/38/38 50/50/50
f 50/50/50 38/38/38 51/51/51
f 38/38/38 39/39/39 51/51/51
f 51/51/51 39/39/39 52/52/52
f 39/39/39 40/40/40 52/52/52
f 52/52/52 40/40/40 53/53/53
f 40/40/40 41/41/41 53/53/53
f 53/53/53 41/41/41 54/54/54
f 41/41/41 42/42/42 54/54/54
f 54/54/54 42/42/42 55/55/55
f 42/42/42 43/43/43 55/55/55
f 55/55/55 43/43/43 56/56/56
f 43/43/43 44/44/44 56/56/56
f 56/56/56 44/44/44 57/57/57
f 44/44/44 45/45/45 57/57/57
f 57/57/57 45/45/45 58/58/58
f 45/45/45 46/46/46 58/58/58
f 58/58/58 46/46/46 59/59/59
f 46/46/46 47/47/47 59/59/59
f 59/59/59 47/47/47 60/60/60
f 47/47/47 48/48/48 60/60/60
f 60/60/60 48/48/48 49/49/49
f 50/50/50 61/61/61 49/49/49
f 49/49/49 61/61/61 60/60/60
f 61/61/61 59/59/59 60/60/60
f 59/59/59 61/61/61 58/58/58
f 58/58/58 61/61/61 57/57/57
f 61/61/61 56/56/56 57/57/57
f 56/56/56 61/61/61 55/55/55
f 55/55/55 61/61/61 54/54/54
f 61/61/61 53/53/53 54/54/54
f 53/53/53 61/61/61 52/52/52
f 52/52/52 61/61/61 51/51/51
f 61/61/61 50/50/50 51/51/51
