# Blender v2.83.0 OBJ File: ''
# www.blender.org
mtllib S.S._Dolphin_Gluon_Drive_cog_3.mtl
o S.S._Dolphin_Gluon_Drive_cog_3
v 0.001224 0.122972 -0.527909
v 0.001224 0.218972 -0.001213
v 0.138771 0.122972 -0.509962
v 0.266944 0.122972 -0.457345
v 0.377009 0.122972 -0.373644
v 0.377009 0.122972 -0.373644
v 0.001224 0.218972 -0.001213
v 0.461465 0.122972 -0.264561
v 0.514557 0.122972 -0.137532
v 0.532665 0.122972 -0.001213
v 0.535104 0.122971 0.304270
v 0.596689 0.122972 0.156916
v 0.461465 0.122971 0.262133
v 0.514556 0.122972 0.135104
v 0.001224 0.122971 0.525481
v 0.001224 -0.254329 0.525480
v 0.001224 0.122971 0.609751
v 0.001224 -0.254329 0.609751
v -0.374561 -0.254329 0.371217
v -0.434686 -0.254329 0.430805
v -0.374561 0.122971 0.371217
v -0.434685 0.122971 0.430805
v -0.532654 0.122971 0.304270
v -0.434685 0.122971 0.430805
v -0.459016 0.122971 0.262133
v -0.374561 0.122971 0.371217
v 0.514556 -0.254329 0.135104
v 0.514556 0.122972 0.135104
v 0.596689 -0.254329 0.156915
v 0.596689 0.122972 0.156916
v -0.459016 0.122971 0.262133
v -0.459016 -0.254329 0.262133
v -0.532654 0.122971 0.304270
v -0.532654 -0.254329 0.304270
v -0.512107 -0.254329 -0.137532
v -0.512107 0.122972 -0.137532
v -0.594240 -0.254329 -0.159343
v -0.594239 0.122972 -0.159343
v -0.532654 0.122972 -0.306697
v -0.594239 0.122972 -0.159343
v -0.459016 0.122972 -0.264561
v -0.512107 0.122972 -0.137532
v 0.617695 0.122972 -0.001213
v 0.596690 0.122972 -0.159343
v 0.532665 0.122972 -0.001213
v 0.514557 0.122972 -0.137532
v -0.459016 0.122972 -0.264561
v -0.459016 -0.254329 -0.264561
v -0.532654 0.122972 -0.306697
v -0.532654 -0.254329 -0.306697
v -0.136323 -0.254329 -0.509962
v -0.136323 0.122972 -0.509962
v -0.158330 -0.254329 -0.591361
v -0.158330 0.122972 -0.591361
v 0.001224 0.122972 -0.612179
v -0.158330 0.122972 -0.591361
v 0.001224 0.122972 -0.527909
v -0.136323 0.122972 -0.509962
v 0.532665 0.122972 -0.001213
v 0.532665 -0.254329 -0.001213
v 0.617695 0.122972 -0.001213
v 0.617695 -0.254329 -0.001213
v 0.001224 0.122972 -0.527909
v 0.001224 0.122972 -0.612179
v 0.001224 -0.254329 -0.527909
v 0.001224 -0.254329 -0.612180
v 0.377009 -0.254329 -0.373644
v 0.377009 0.122972 -0.373644
v 0.437135 -0.254329 -0.433233
v 0.437135 0.122972 -0.433232
v 0.535104 0.122972 -0.306697
v 0.437135 0.122972 -0.433232
v 0.461465 0.122972 -0.264561
v 0.377009 0.122972 -0.373644
v 0.514556 -0.254329 -0.137532
v 0.596689 -0.254329 -0.159343
v 0.514557 0.122972 -0.137532
v 0.596690 0.122972 -0.159343
v 0.461465 0.122972 -0.264561
v 0.535104 0.122972 -0.306697
v 0.461465 -0.254329 -0.264561
v 0.535104 -0.254329 -0.306697
v 0.514556 -0.254329 0.135104
v 0.532665 -0.254329 -0.001213
v 0.514556 0.122972 0.135104
v 0.532665 0.122972 -0.001213
v 0.266944 0.122972 -0.457345
v 0.266944 -0.254329 -0.457345
v 0.309459 0.122972 -0.530327
v 0.309459 -0.254329 -0.530327
v 0.535103 -0.254329 0.304270
v 0.596689 -0.254329 0.156915
v 0.535104 0.122971 0.304270
v 0.596689 0.122972 0.156916
v 0.309459 0.122972 -0.530327
v 0.160778 0.122972 -0.591361
v 0.266944 0.122972 -0.457345
v 0.138771 0.122972 -0.509962
v 0.377009 -0.254329 0.371217
v 0.461465 -0.254329 0.262133
v 0.377009 0.122971 0.371217
v 0.461465 0.122971 0.262133
v 0.138771 -0.254329 -0.509962
v 0.160778 -0.254329 -0.591361
v 0.138771 0.122972 -0.509962
v 0.160778 0.122972 -0.591361
v 0.309459 -0.254329 0.527899
v 0.437135 -0.254329 0.430804
v 0.309459 0.122971 0.527899
v 0.437135 0.122971 0.430804
v -0.264496 0.122972 -0.457345
v -0.307011 0.122972 -0.530327
v -0.264496 -0.254329 -0.457345
v -0.307011 -0.254329 -0.530327
v 0.138771 -0.254329 0.507533
v 0.266944 -0.254329 0.454918
v 0.138771 0.122971 0.507536
v 0.266944 0.122971 0.454918
v -0.307011 0.122972 -0.530327
v -0.434685 0.122972 -0.433232
v -0.264496 0.122972 -0.457345
v -0.374561 0.122972 -0.373644
v 0.001224 -0.254329 0.609751
v 0.160778 -0.254329 0.588934
v 0.001224 0.122971 0.609751
v 0.160778 0.122971 0.588934
v -0.374561 -0.254329 -0.373644
v -0.374561 0.122972 -0.373644
v -0.434686 -0.254329 -0.433233
v -0.434685 0.122972 -0.433232
v -0.136323 -0.254329 0.507533
v 0.001224 -0.254329 0.525480
v -0.136323 0.122971 0.507536
v 0.001224 0.122971 0.525481
v -0.530215 0.122972 -0.001213
v -0.615245 0.122972 -0.001213
v -0.530215 -0.254329 -0.001213
v -0.615245 -0.254329 -0.001213
v -0.307011 -0.254329 0.527899
v -0.158330 -0.254329 0.588934
v -0.307011 0.122971 0.527899
v -0.158330 0.122971 0.588934
v -0.615245 0.122972 -0.001213
v -0.594239 0.122972 0.156916
v -0.530215 0.122972 -0.001213
v -0.512107 0.122972 0.135104
v -0.374561 -0.254329 0.371217
v -0.264496 -0.254329 0.454918
v -0.374561 0.122971 0.371217
v -0.264496 0.122971 0.454918
v -0.512107 -0.254329 0.135104
v -0.594240 -0.254329 0.156915
v -0.512107 0.122972 0.135104
v -0.594239 0.122972 0.156916
v -0.532654 -0.254329 0.304270
v -0.434686 -0.254329 0.430805
v -0.532654 0.122971 0.304270
v -0.434685 0.122971 0.430805
v -0.264496 0.122971 0.454918
v -0.264496 -0.254329 0.454918
v -0.307011 0.122971 0.527899
v -0.307011 -0.254329 0.527899
v -0.512107 -0.254329 0.135104
v -0.459016 -0.254329 0.262133
v -0.512107 0.122972 0.135104
v -0.459016 0.122971 0.262133
v -0.307011 0.122971 0.527899
v -0.158330 0.122971 0.588934
v -0.264496 0.122971 0.454918
v -0.136323 0.122971 0.507536
v -0.615245 -0.254329 -0.001213
v -0.594240 -0.254329 0.156915
v -0.615245 0.122972 -0.001213
v -0.594239 0.122972 0.156916
v -0.136323 -0.254329 0.507533
v -0.158330 -0.254329 0.588934
v -0.136323 0.122971 0.507536
v -0.158330 0.122971 0.588934
v -0.512107 -0.254329 -0.137532
v -0.530215 -0.254329 -0.001213
v -0.512107 0.122972 -0.137532
v -0.530215 0.122972 -0.001213
v 0.266944 0.122971 0.454918
v 0.309459 0.122971 0.527899
v 0.266944 -0.254329 0.454918
v 0.309459 -0.254329 0.527899
v -0.532654 -0.254329 -0.306697
v -0.594240 -0.254329 -0.159343
v -0.532654 0.122972 -0.306697
v -0.594239 0.122972 -0.159343
v 0.309459 0.122971 0.527899
v 0.437135 0.122971 0.430804
v 0.266944 0.122971 0.454918
v 0.377009 0.122971 0.371217
v -0.374561 -0.254329 -0.373644
v -0.459016 -0.254329 -0.264561
v -0.374561 0.122972 -0.373644
v -0.459016 0.122972 -0.264561
v 0.377009 -0.254329 0.371217
v 0.437135 -0.254329 0.430804
v 0.377009 0.122971 0.371217
v 0.437135 0.122971 0.430804
v -0.307011 -0.254329 -0.530327
v -0.434686 -0.254329 -0.433233
v -0.307011 0.122972 -0.530327
v -0.434685 0.122972 -0.433232
v -0.136323 -0.254329 -0.509962
v -0.264496 -0.254329 -0.457345
v -0.136323 0.122972 -0.509962
v -0.264496 0.122972 -0.457345
v 0.001224 -0.254329 -0.612180
v -0.158330 -0.254329 -0.591361
v 0.001224 0.122972 -0.612179
v -0.158330 0.122972 -0.591361
v 0.138771 -0.254329 -0.509962
v 0.001224 -0.254329 -0.527909
v 0.138771 0.122972 -0.509962
v 0.001224 0.122972 -0.527909
v 0.309459 -0.254329 -0.530327
v 0.160778 -0.254329 -0.591361
v 0.309459 0.122972 -0.530327
v 0.160778 0.122972 -0.591361
v 0.461465 0.122971 0.262133
v 0.535104 0.122971 0.304270
v 0.461465 -0.254329 0.262133
v 0.535103 -0.254329 0.304270
v 0.377009 -0.254329 -0.373644
v 0.266944 -0.254329 -0.457345
v 0.377009 0.122972 -0.373644
v 0.266944 0.122972 -0.457345
v 0.535104 -0.254329 -0.306697
v 0.437135 -0.254329 -0.433233
v 0.535104 0.122972 -0.306697
v 0.437135 0.122972 -0.433232
v 0.514556 -0.254329 -0.137532
v 0.461465 -0.254329 -0.264561
v 0.514557 0.122972 -0.137532
v 0.461465 0.122972 -0.264561
v 0.617695 -0.254329 -0.001213
v 0.596689 -0.254329 -0.159343
v 0.617695 0.122972 -0.001213
v 0.596690 0.122972 -0.159343
v 0.138771 -0.254329 0.507533
v 0.160778 -0.254329 0.588934
v 0.138771 0.122971 0.507536
v 0.160778 0.122971 0.588934
v 0.001224 0.122971 0.609751
v 0.160778 0.122971 0.588934
v 0.001224 0.122971 0.525481
v 0.138771 0.122971 0.507536
v 0.001224 0.122972 -0.527909
v -0.136323 0.122972 -0.509962
v 0.001224 0.218972 -0.001213
v -0.264496 0.122972 -0.457345
v -0.264496 0.122972 -0.457345
v -0.374561 0.122972 -0.373644
v 0.001224 0.218972 -0.001213
v -0.459016 0.122972 -0.264561
v -0.459016 0.122972 -0.264561
v -0.512107 0.122972 -0.137532
v 0.001224 0.218972 -0.001213
v -0.530215 0.122972 -0.001213
v -0.530215 0.122972 -0.001213
v -0.512107 0.122972 0.135104
v 0.001224 0.218972 -0.001213
v -0.459016 0.122971 0.262133
v -0.459016 0.122971 0.262133
v -0.374561 0.122971 0.371217
v 0.001224 0.218972 -0.001213
v -0.264496 0.122971 0.454918
v -0.264496 0.122971 0.454918
v -0.136323 0.122971 0.507536
v 0.001224 0.218972 -0.001213
v 0.001224 0.122971 0.525481
v 0.001224 0.122971 0.525481
v 0.138771 0.122971 0.507536
v 0.001224 0.218972 -0.001213
v 0.266944 0.122971 0.454918
v 0.266944 0.122971 0.454918
v 0.377009 0.122971 0.371217
v 0.001224 0.218972 -0.001213
v 0.461465 0.122971 0.262133
v 0.532665 0.122972 -0.001213
v 0.001224 0.218972 -0.001213
v 0.514556 0.122972 0.135104
v 0.461465 0.122971 0.262133
vt 0.000000 1.000000
vt 0.000000 1.000000
vt 0.000000 1.000000
vt 0.000000 1.000000
vt 0.000000 1.000000
vt 0.000000 1.000000
vt 0.000000 1.000000
vt 0.000000 1.000000
vt 0.000000 1.000000
vt 0.000000 1.000000
vt 0.000000 1.000000
vt 0.000000 1.000000
vt 0.000000 1.000000
vt 0.000000 1.000000
vt 0.549000 0.606400
vt 0.530600 0.607200
vt 0.549000 0.606400
vt 0.530600 0.607100
vt 0.530600 0.893200
vt 0.530600 0.888700
vt 0.549000 0.850400
vt 0.549000 0.852100
vt 0.000000 1.000000
vt 0.000000 1.000000
vt 0.000000 1.000000
vt 0.000000 1.000000
vt 0.530600 0.149100
vt 0.549000 0.202900
vt 0.530600 0.154400
vt 0.549000 0.200700
vt 0.549000 0.930300
vt 0.530600 0.980500
vt 0.549000 0.932300
vt 0.530600 0.975400
vt 0.530600 1.221800
vt 0.549000 1.169800
vt 0.530600 1.217100
vt 0.549000 1.172200
vt 0.000000 1.000000
vt 0.000000 1.000000
vt 0.000000 1.000000
vt 0.000000 1.000000
vt 0.000000 1.000000
vt 0.000000 1.000000
vt 0.000000 1.000000
vt 0.000000 1.000000
vt 0.549000 1.252300
vt 0.530600 1.298800
vt 0.549000 1.254500
vt 0.530600 1.294700
vt 0.530600 1.529000
vt 0.549000 1.515300
vt 0.530600 1.527900
vt 0.549000 1.516000
vt 0.000000 1.000000
vt 0.000000 1.000000
vt 0.000000 1.000000
vt 0.000000 1.000000
vt 0.549000 0.123400
vt 0.530600 0.068700
vt 0.549000 0.121100
vt 0.530600 0.073900
vt 0.549000 -0.393100
vt 0.549000 -0.393200
vt 0.530600 -0.393900
vt 0.530600 -0.393800
vt 0.530600 -0.163200
vt 0.549000 -0.124100
vt 0.530600 -0.159800
vt 0.549000 -0.126000
vt 0.000000 1.000000
vt 0.000000 1.000000
vt 0.000000 1.000000
vt 0.000000 1.000000
vt 0.530600 -0.009500
vt 0.530600 -0.004700
vt 0.549000 0.042900
vt 0.549000 0.040600
vt 0.549000 -0.039300
vt 0.549000 -0.041500
vt 0.530600 -0.086500
vt 0.530600 -0.082400
vt 0.530600 0.149100
vt 0.530600 0.068700
vt 0.549000 0.202900
vt 0.549000 0.123400
vt 0.549000 -0.211600
vt 0.530600 -0.239800
vt 0.549000 -0.213000
vt 0.530600 -0.237500
vt 0.530600 0.237800
vt 0.530600 0.154400
vt 0.549000 0.280300
vt 0.549000 0.200700
vt 0.000000 1.000000
vt 0.000000 1.000000
vt 0.000000 1.000000
vt 0.000000 1.000000
vt 0.530600 0.320400
vt 0.530600 0.232700
vt 0.549000 0.362200
vt 0.549000 0.282300
vt 0.530600 -0.316800
vt 0.530600 -0.315500
vt 0.549000 -0.301600
vt 0.549000 -0.302400
vt 0.530600 0.415900
vt 0.530600 0.324800
vt 0.549000 0.441700
vt 0.549000 0.360600
vt 0.549000 1.425100
vt 0.549000 1.426400
vt 0.530600 1.452000
vt 0.530600 1.449800
vt 0.530600 0.508800
vt 0.530600 0.412600
vt 0.549000 0.524400
vt 0.549000 0.442800
vt 0.000000 1.000000
vt 0.000000 1.000000
vt 0.000000 1.000000
vt 0.000000 1.000000
vt 0.530600 0.607100
vt 0.530600 0.510500
vt 0.549000 0.606400
vt 0.549000 0.523800
vt 0.530600 1.375400
vt 0.549000 1.337300
vt 0.530600 1.372100
vt 0.549000 1.339100
vt 0.530600 0.705600
vt 0.530600 0.607200
vt 0.549000 0.688300
vt 0.549000 0.606400
vt 0.549000 1.089200
vt 0.549000 1.091600
vt 0.530600 1.143800
vt 0.530600 1.138700
vt 0.530600 0.798000
vt 0.530600 0.703700
vt 0.549000 0.771000
vt 0.549000 0.689000
vt 0.000000 1.000000
vt 0.000000 1.000000
vt 0.000000 1.000000
vt 0.000000 1.000000
vt 0.530600 0.893200
vt 0.530600 0.801400
vt 0.549000 0.850400
vt 0.549000 0.769800
vt 0.530600 1.063700
vt 0.530600 1.058400
vt 0.549000 1.009600
vt 0.549000 1.011900
vt 0.530600 0.975400
vt 0.530600 0.888700
vt 0.549000 0.932300
vt 0.549000 0.852100
vt 0.549000 0.769800
vt 0.530600 0.801400
vt 0.549000 0.771000
vt 0.530600 0.798000
vt 0.530600 1.063700
vt 0.530600 0.980500
vt 0.549000 1.009600
vt 0.549000 0.930300
vt 0.000000 1.000000
vt 0.000000 1.000000
vt 0.000000 1.000000
vt 0.000000 1.000000
vt 0.530600 1.138700
vt 0.530600 1.058400
vt 0.549000 1.091600
vt 0.549000 1.011900
vt 0.530600 0.705600
vt 0.530600 0.703700
vt 0.549000 0.688300
vt 0.549000 0.689000
vt 0.530600 1.221800
vt 0.530600 1.143800
vt 0.549000 1.169800
vt 0.549000 1.089200
vt 0.549000 0.442800
vt 0.549000 0.441700
vt 0.530600 0.412600
vt 0.530600 0.415900
vt 0.530600 1.294700
vt 0.530600 1.217100
vt 0.549000 1.254500
vt 0.549000 1.172200
vt 0.000000 1.000000
vt 0.000000 1.000000
vt 0.000000 1.000000
vt 0.000000 1.000000
vt 0.530600 1.375400
vt 0.530600 1.298800
vt 0.549000 1.337300
vt 0.549000 1.252300
vt 0.530600 0.320400
vt 0.530600 0.324800
vt 0.549000 0.362200
vt 0.549000 0.360600
vt 0.530600 1.449800
vt 0.530600 1.372100
vt 0.549000 1.426400
vt 0.549000 1.339100
vt 0.530600 1.529000
vt 0.530600 1.452000
vt 0.549000 1.515300
vt 0.549000 1.425100
vt 0.530600 -0.393800
vt 0.530600 -0.472100
vt 0.549000 -0.393200
vt 0.549000 -0.484000
vt 0.530600 -0.316800
vt 0.530600 -0.393900
vt 0.549000 -0.301600
vt 0.549000 -0.393100
vt 0.530600 -0.237500
vt 0.530600 -0.315500
vt 0.549000 -0.213000
vt 0.549000 -0.302400
vt 0.549000 0.282300
vt 0.549000 0.280300
vt 0.530600 0.232700
vt 0.530600 0.237800
vt 0.530600 -0.163200
vt 0.530600 -0.239800
vt 0.549000 -0.124100
vt 0.549000 -0.211600
vt 0.530600 -0.082400
vt 0.530600 -0.159800
vt 0.549000 -0.041500
vt 0.549000 -0.126000
vt 0.530600 -0.009500
vt 0.530600 -0.086500
vt 0.549000 0.042900
vt 0.549000 -0.039300
vt 0.530600 0.073900
vt 0.530600 -0.004700
vt 0.549000 0.121100
vt 0.549000 0.040600
vt 0.530600 0.508800
vt 0.530600 0.510500
vt 0.549000 0.524400
vt 0.549000 0.523800
vt 0.000000 1.000000
vt 0.000000 1.000000
vt 0.000000 1.000000
vt 0.000000 1.000000
vt 0.000000 1.000000
vt 0.000000 1.000000
vt 0.000000 1.000000
vt 0.000000 1.000000
vt 0.000000 1.000000
vt 0.000000 1.000000
vt 0.000000 1.000000
vt 0.000000 1.000000
vt 0.000000 1.000000
vt 0.000000 1.000000
vt 0.000000 1.000000
vt 0.000000 1.000000
vt 0.000000 1.000000
vt 0.000000 1.000000
vt 0.000000 1.000000
vt 0.000000 1.000000
vt 0.000000 1.000000
vt 0.000000 1.000000
vt 0.000000 1.000000
vt 0.000000 1.000000
vt 0.000000 1.000000
vt 0.000000 1.000000
vt 0.000000 1.000000
vt 0.000000 1.000000
vt 0.000000 1.000000
vt 0.000000 1.000000
vt 0.000000 1.000000
vt 0.000000 1.000000
vt 0.000000 1.000000
vt 0.000000 1.000000
vt 0.000000 1.000000
vt 0.000000 1.000000
vt 0.000000 1.000000
vt 0.000000 1.000000
vt 0.000000 1.000000
vt 0.000000 1.000000
vn 0.0234 0.9835 -0.1793
vn 0.0670 0.9843 -0.1634
vn 0.0461 0.9838 -0.1732
vn 0.0890 0.9839 -0.1552
vn 0.1091 0.9836 -0.1435
vn 0.1422 0.9837 -0.1101
vn 0.1619 0.9845 -0.0678
vn 0.1540 0.9840 -0.0896
vn 0.1717 0.9841 -0.0464
vn 0.1777 0.9838 -0.0236
vn -0.0000 1.0000 0.0000
vn -1.0000 0.0000 0.0000
vn -0.7039 0.0000 -0.7103
vn 0.2567 0.0000 -0.9665
vn -0.4967 0.0000 -0.8679
vn -0.2567 -0.0000 0.9665
vn 0.4966 0.0000 -0.8680
vn -0.9653 -0.0000 0.2610
vn 0.0000 -0.0000 1.0000
vn 0.2567 -0.0000 0.9665
vn -0.4966 0.0000 -0.8680
vn 0.9913 0.0000 0.1317
vn 0.8641 0.0000 0.5034
vn 0.9227 -0.0000 0.3856
vn 0.7907 0.0000 0.6122
vn 0.9653 -0.0000 0.2610
vn 0.6053 -0.0000 0.7960
vn -0.8641 -0.0000 0.5034
vn 0.3797 -0.0000 0.9251
vn 0.3798 -0.0000 0.9251
vn 0.1294 -0.0000 0.9916
vn -0.7039 0.0000 0.7103
vn -0.1294 -0.0000 0.9916
vn -0.3798 -0.0000 0.9251
vn -0.6053 -0.0000 0.7960
vn -0.2567 0.0000 -0.9665
vn -0.7907 -0.0000 0.6122
vn -0.8641 0.0000 -0.5034
vn -0.9227 0.0000 0.3856
vn -0.9913 0.0000 0.1317
vn -0.9653 0.0000 -0.2610
vn -0.9913 0.0000 -0.1317
vn 0.8641 0.0000 -0.5034
vn -0.9227 0.0000 -0.3856
vn -0.7907 0.0000 -0.6122
vn -0.6053 0.0000 -0.7960
vn -0.3798 0.0000 -0.9251
vn -0.1294 0.0000 -0.9916
vn 0.1294 0.0000 -0.9916
vn 0.3798 0.0000 -0.9251
vn 0.4967 0.0000 -0.8680
vn 0.4967 -0.0000 -0.8679
vn 0.6053 0.0000 -0.7960
vn 0.7907 0.0000 -0.6122
vn 0.9227 -0.0000 -0.3856
vn 0.9913 0.0000 -0.1317
vn -0.0234 0.9835 -0.1793
vn -0.0461 0.9838 -0.1732
vn -0.0460 0.9838 -0.1732
vn -0.0686 0.9836 -0.1671
vn -0.1091 0.9836 -0.1435
vn -0.1258 0.9839 -0.1267
vn -0.1256 0.9839 -0.1268
vn -0.1422 0.9837 -0.1101
vn -0.1656 0.9838 -0.0692
vn -0.1717 0.9841 -0.0464
vn -0.1777 0.9838 -0.0236
vn -0.1777 0.9838 0.0236
vn -0.1717 0.9841 0.0464
vn -0.1656 0.9838 0.0692
vn -0.1422 0.9837 0.1101
vn -0.1258 0.9839 0.1267
vn -0.1256 0.9839 0.1268
vn -0.1091 0.9836 0.1435
vn -0.0686 0.9836 0.1671
vn -0.0461 0.9838 0.1732
vn -0.0460 0.9838 0.1732
vn -0.0234 0.9835 0.1793
vn 0.0234 0.9835 0.1793
vn 0.0461 0.9838 0.1732
vn 0.0460 0.9838 0.1732
vn 0.0686 0.9836 0.1671
vn 0.1091 0.9836 0.1435
vn 0.1258 0.9839 0.1267
vn 0.1256 0.9839 0.1269
vn 0.1422 0.9837 0.1101
vn 0.1777 0.9838 0.0236
vn 0.1717 0.9841 0.0464
vn 0.1656 0.9838 0.0692
usemtl ship_coglg
s 1
f 1/1/1 2/2/2 3/3/3
f 3/3/3 2/2/2 4/4/4
f 2/2/2 5/5/5 4/4/4
f 6/6/6 7/7/7 8/8/8
f 8/8/8 7/7/7 9/9/9
f 7/7/7 10/10/10 9/9/9
f 11/11/11 12/12/11 13/13/11
f 13/13/11 12/12/11 14/14/11
f 15/15/12 16/16/12 17/17/12
f 17/17/12 16/16/12 18/18/12
f 19/19/13 20/20/13 21/21/13
f 20/20/13 22/22/13 21/21/13
f 23/23/11 24/24/11 25/25/11
f 25/25/11 24/24/11 26/26/11
f 27/27/14 28/28/14 29/29/14
f 29/29/14 28/28/14 30/30/14
f 31/31/15 32/32/15 33/33/15
f 33/33/15 32/32/15 34/34/15
f 35/35/16 36/36/16 37/37/16
f 37/37/16 36/36/16 38/38/16
f 39/39/11 40/40/11 41/41/11
f 41/41/11 40/40/11 42/42/11
f 43/43/11 44/44/11 45/45/11
f 45/45/11 44/44/11 46/46/11
f 47/47/17 48/48/17 49/49/17
f 49/49/17 48/48/17 50/50/17
f 51/51/18 52/52/18 53/53/18
f 53/53/18 52/52/18 54/54/18
f 55/55/11 56/56/11 57/57/11
f 57/57/11 56/56/11 58/58/11
f 59/59/19 60/60/19 61/61/19
f 61/61/19 60/60/19 62/62/19
f 63/63/12 64/64/12 65/65/12
f 64/64/12 66/66/12 65/65/12
f 67/67/13 68/68/13 69/69/13
f 69/69/13 68/68/13 70/70/13
f 71/71/11 72/72/11 73/73/11
f 73/73/11 72/72/11 74/74/11
f 75/75/20 76/76/20 77/77/20
f 76/76/20 78/78/20 77/77/20
f 79/79/21 80/80/21 81/81/21
f 80/80/21 82/82/21 81/81/21
f 83/83/22 84/84/22 85/85/22
f 85/85/22 84/84/22 86/86/22
f 87/87/23 88/88/23 89/89/23
f 89/89/23 88/88/23 90/90/23
f 91/91/24 92/92/24 93/93/24
f 93/93/24 92/92/24 94/94/24
f 95/95/11 96/96/11 97/97/11
f 97/97/11 96/96/11 98/98/11
f 99/99/25 100/100/25 101/101/25
f 101/101/25 100/100/25 102/102/25
f 103/103/26 104/104/26 105/105/26
f 104/104/26 106/106/26 105/105/26
f 107/107/27 108/108/27 109/109/27
f 109/109/27 108/108/27 110/110/27
f 111/111/28 112/112/28 113/113/28
f 112/112/28 114/114/28 113/113/28
f 115/115/29 116/116/30 117/117/30
f 117/117/30 116/116/30 118/118/30
f 119/119/11 120/120/11 121/121/11
f 121/121/11 120/120/11 122/122/11
f 123/123/31 124/124/31 125/125/31
f 125/125/31 124/124/31 126/126/31
f 127/127/32 128/128/32 129/129/32
f 129/129/32 128/128/32 130/130/32
f 131/131/33 132/132/33 133/133/33
f 133/133/33 132/132/33 134/134/33
f 135/135/19 136/136/19 137/137/19
f 136/136/19 138/138/19 137/137/19
f 139/139/34 140/140/34 141/141/34
f 141/141/34 140/140/34 142/142/34
f 143/143/11 144/144/11 145/145/11
f 145/145/11 144/144/11 146/146/11
f 147/147/35 148/148/35 149/149/35
f 149/149/35 148/148/35 150/150/35
f 151/151/36 152/152/36 153/153/36
f 152/152/36 154/154/36 153/153/36
f 155/155/37 156/156/37 157/157/37
f 157/157/37 156/156/37 158/158/37
f 159/159/38 160/160/38 161/161/38
f 161/161/38 160/160/38 162/162/38
f 163/163/39 164/164/39 165/165/39
f 165/165/39 164/164/39 166/166/39
f 167/167/11 168/168/11 169/169/11
f 169/169/11 168/168/11 170/170/11
f 171/171/40 172/172/40 173/173/40
f 173/173/40 172/172/40 174/174/40
f 175/175/41 176/176/41 177/177/41
f 176/176/41 178/178/41 177/177/41
f 179/179/42 180/180/42 181/181/42
f 181/181/42 180/180/42 182/182/42
f 183/183/43 184/184/43 185/185/43
f 184/184/43 186/186/43 185/185/43
f 187/187/44 188/188/44 189/189/44
f 189/189/44 188/188/44 190/190/44
f 191/191/11 192/192/11 193/193/11
f 193/193/11 192/192/11 194/194/11
f 195/195/45 196/196/45 197/197/45
f 197/197/45 196/196/45 198/198/45
f 199/199/32 200/200/32 201/201/32
f 200/200/32 202/202/32 201/201/32
f 203/203/46 204/204/46 205/205/46
f 205/205/46 204/204/46 206/206/46
f 207/207/47 208/208/47 209/209/47
f 209/209/47 208/208/47 210/210/47
f 211/211/48 212/212/48 213/213/48
f 213/213/48 212/212/48 214/214/48
f 215/215/49 216/216/49 217/217/49
f 217/217/49 216/216/49 218/218/49
f 219/219/50 220/220/50 221/221/50
f 221/221/50 220/220/50 222/222/50
f 223/223/51 224/224/51 225/225/52
f 224/224/51 226/226/52 225/225/52
f 227/227/53 228/228/53 229/229/53
f 229/229/53 228/228/53 230/230/53
f 231/231/54 232/232/54 233/233/54
f 233/233/54 232/232/54 234/234/54
f 235/235/55 236/236/55 237/237/55
f 237/237/55 236/236/55 238/238/55
f 239/239/56 240/240/56 241/241/56
f 241/241/56 240/240/56 242/242/56
f 243/243/18 244/244/18 245/245/18
f 244/244/18 246/246/18 245/245/18
f 247/247/11 248/248/11 249/249/11
f 249/249/11 248/248/11 250/250/11
f 251/251/57 252/252/58 253/253/59
f 253/253/59 252/252/58 254/254/60
f 255/255/61 256/256/62 257/257/63
f 257/257/63 256/256/62 258/258/64
f 259/259/65 260/260/66 261/261/66
f 261/261/66 260/260/66 262/262/67
f 263/263/68 264/264/69 265/265/69
f 265/265/69 264/264/69 266/266/70
f 267/267/71 268/268/72 269/269/73
f 269/269/73 268/268/72 270/270/74
f 271/271/75 272/272/76 273/273/77
f 273/273/77 272/272/76 274/274/78
f 275/275/79 276/276/80 277/277/81
f 277/277/81 276/276/80 278/278/82
f 279/279/83 280/280/84 281/281/85
f 281/281/85 280/280/84 282/282/86
f 283/283/87 284/284/88 285/285/88
f 285/285/88 284/284/88 286/286/89
