# Blender v2.83.0 OBJ File: ''
# www.blender.org
mtllib S.S._Dolphin_Chronos_Reactor_5.mtl
o S.S._Dolphin_Chronos_Reactor_5
v 1.977272 -0.036744 -0.641189
v 0.986550 -0.036744 -0.014296
v 1.543102 -0.036742 -1.393189
v 0.502760 -0.036742 -0.848877
v 0.515873 -0.036744 0.802862
v -0.450251 -0.036744 0.802021
v -1.911029 -0.036744 -0.641189
v -1.476859 -0.036742 -1.393179
v -0.919265 -0.036744 -0.014176
v -0.436933 -0.036742 -0.847919
v 1.543102 -0.036742 -1.393189
v 0.502760 -0.036742 -0.848877
v 1.796322 0.091857 -1.038047
v 0.040737 0.091856 -0.015667
v 0.467287 -0.036744 1.974183
v -0.401042 -0.036744 1.974183
v 0.515873 -0.036744 0.802862
v -0.450251 -0.036744 0.802021
v -0.450251 -0.036744 0.802021
v -0.401042 -0.036744 1.974183
v 0.040737 0.091856 -0.015667
v 0.033122 0.091855 2.015903
v 0.040737 0.091856 -0.015667
v 0.033122 0.091855 2.015903
v 0.515873 -0.036744 0.802862
v 0.467287 -0.036744 1.974183
v 0.986550 -0.036744 -0.014296
v 1.977272 -0.036744 -0.641189
v 0.040737 0.091856 -0.015667
v 1.796322 0.091857 -1.038047
v -1.911029 -0.036744 -0.641189
v -0.919265 -0.036744 -0.014176
v -1.730079 0.091857 -1.038047
v 0.040737 0.091856 -0.015667
v -0.436933 -0.036742 -0.847919
v -1.476859 -0.036742 -1.393179
v 0.040737 0.091856 -0.015667
v -1.730079 0.091857 -1.038047
v -0.450251 -0.036744 0.802021
v -0.919265 -0.036744 -0.014176
v 0.502760 -0.036742 -0.848877
v -0.436933 -0.036742 -0.847919
vt 0.000000 1.000000
vt 0.000000 1.000000
vt 0.000000 1.000000
vt 0.000000 1.000000
vt 0.000000 1.000000
vt 0.000000 1.000000
vt 0.000000 1.000000
vt 0.000000 1.000000
vt 0.000000 1.000000
vt 0.000000 1.000000
vt 0.000000 1.000000
vt 0.000000 1.000000
vt 0.000000 1.000000
vt 0.000000 1.000000
vt 0.000000 1.000000
vt 0.000000 1.000000
vt 0.000000 1.000000
vt 0.000000 1.000000
vt 0.000000 1.000000
vt 0.000000 1.000000
vt 0.000000 1.000000
vt 0.000000 1.000000
vt 0.000000 1.000000
vt 0.000000 1.000000
vt 0.000000 1.000000
vt 0.000000 1.000000
vt 0.000000 1.000000
vt 0.000000 1.000000
vt 0.000000 1.000000
vt 0.000000 1.000000
vt 0.000000 1.000000
vt 0.000000 1.000000
vt 0.000000 1.000000
vt 0.000000 1.000000
vt 0.000000 1.000000
vt 0.000000 1.000000
vt 0.000000 1.000000
vt 0.000000 1.000000
vt 0.000000 1.000000
vt 0.000000 1.000000
vt 0.000000 1.000000
vt 0.000000 1.000000
vn -0.0000 -1.0000 -0.0000
vn -0.1322 0.9584 -0.2528
vn -0.1289 0.9658 -0.2249
vn -0.1312 0.9608 -0.2442
vn -0.1284 0.9669 -0.2204
vn -0.2378 0.9713 0.0100
vn -0.2767 0.9610 0.0007
vn -0.2565 0.9665 0.0055
vn -0.2839 0.9589 -0.0011
vn 0.2597 0.9657 0.0010
vn 0.2784 0.9604 0.0090
vn 0.2632 0.9647 0.0025
vn 0.2850 0.9584 0.0118
vn 0.1315 0.9693 0.2078
vn 0.1412 0.9605 0.2398
vn 0.1362 0.9652 0.2234
vn 0.1430 0.9588 0.2455
vn -0.1524 0.9585 0.2411
vn -0.1323 0.9651 0.2260
vn -0.1463 0.9606 0.2365
vn -0.1291 0.9661 0.2236
vn 0.1124 0.9702 -0.2145
vn 0.1375 0.9607 -0.2411
vn 0.1246 0.9658 -0.2274
vn 0.1420 0.9588 -0.2460
usemtl ship_grey
s 1
f 1/1/1 2/2/1 3/3/1
f 3/3/1 2/2/1 4/4/1
f 2/2/1 5/5/1 4/4/1
f 4/4/1 5/5/1 6/6/1
f 7/7/1 8/8/1 9/9/1
f 9/9/1 8/8/1 10/10/1
f 11/11/2 12/12/3 13/13/4
f 13/13/4 12/12/3 14/14/5
f 15/15/1 16/16/1 17/17/1
f 17/17/1 16/16/1 18/18/1
f 19/19/6 20/20/7 21/21/8
f 21/21/8 20/20/7 22/22/9
f 23/23/10 24/24/11 25/25/12
f 25/25/12 24/24/11 26/26/13
f 27/27/14 28/28/15 29/29/16
f 29/29/16 28/28/15 30/30/17
f 31/31/18 32/32/19 33/33/20
f 33/33/20 32/32/19 34/34/21
f 35/35/22 36/36/23 37/37/24
f 37/37/24 36/36/23 38/38/25
f 39/39/1 40/40/1 41/41/1
f 41/41/1 40/40/1 42/42/1
