# Blender v2.83.0 OBJ File: ''
# www.blender.org
mtllib S.S._Dolphin_Bowsprit_3.mtl
o S.S._Dolphin_Bowsprit_3
v 2.138231 -0.993054 -0.644829
v 1.664930 -0.198131 -0.644828
v 2.033582 -0.993054 0.015922
v 1.346961 -0.198132 0.333795
v 1.312201 0.253858 -0.644828
v 1.061591 0.253858 0.126462
v 0.756260 0.584899 -0.095372
v 0.288866 0.584899 0.244211
v 0.261064 0.785918 -0.223672
v -0.261063 0.785918 -0.223672
v -0.502923 0.786849 -0.644828
v -0.756260 0.584899 -0.095372
v -0.934790 0.584899 -0.644828
v -1.061590 0.253858 0.126462
v -1.312199 0.253858 -0.644828
v -1.346959 -0.198132 0.333795
v -1.664930 -0.198131 -0.644828
v -2.033579 -0.993054 0.015922
v -2.138230 -0.993054 -0.644829
v -0.000000 -0.993055 1.493411
v 0.514492 -0.198132 0.938620
v -0.514492 -0.198132 0.938620
v -0.405491 0.253858 0.603142
v 0.405491 0.253858 0.603142
v -0.288866 0.584899 0.244211
v -1.256820 -0.993055 1.085041
v 1.729871 -0.993055 0.611991
v 1.256821 -0.993055 1.085041
v 0.660751 -0.993055 1.388751
v 0.502923 0.786849 -0.644828
v 0.934790 0.584899 -0.644828
v 0.435029 0.786849 -0.896439
v -0.000000 0.786849 -1.147752
v -0.252047 0.786849 -1.081138
v 0.252046 0.786849 -1.081138
v -0.435029 0.786849 -0.896439
v -1.729870 -0.993055 0.611991
v -0.660751 -0.993055 1.388751
vt 0.000000 0.937700
vt 0.000000 0.937700
vt 0.000000 0.937700
vt 0.000000 0.937700
vt 0.000000 0.937600
vt 0.000000 0.937700
vt 0.000000 0.937700
vt 0.000000 0.937700
vt 0.000000 0.937700
vt 0.000000 0.937700
vt 0.000000 0.937700
vt 0.000000 0.937700
vt 0.000000 0.937700
vt 0.000000 0.937700
vt 0.000000 0.937700
vt 0.000000 0.937700
vt 0.000000 0.937700
vt 0.000000 0.937700
vt 0.000000 0.937700
vt 0.000000 0.937700
vt 0.000000 0.937700
vt 0.000000 0.937700
vt 0.000000 0.937700
vt 0.000000 0.937700
vt 0.000000 0.937700
vt 0.000000 0.937700
vt 0.000000 0.937700
vt 0.000000 0.937700
vt 0.000000 0.937700
vt 0.000000 0.937700
vt 0.000000 0.937700
vt 0.000000 0.937700
vt 0.000000 0.937700
vt 0.000000 0.937700
vt 0.000000 0.937700
vt 0.000000 0.937700
vt 0.000000 0.937700
vt 0.000000 0.937700
vt 0.000000 0.937700
vn 0.8514 0.5069 0.1348
vn 0.7895 0.5704 0.2267
vn 0.8053 0.5320 0.2617
vn 0.6558 0.5856 0.4765
vn 0.7155 0.6588 0.2325
vn 0.5951 0.6774 0.4324
vn 0.4555 0.8272 0.3290
vn 0.1665 0.8299 0.5325
vn 0.1226 0.9680 0.2189
vn -0.1226 0.9680 0.2189
vn -0.1780 0.9810 0.0776
vn -0.4555 0.8272 0.3290
vn -0.5567 0.8108 0.1809
vn -0.5951 0.6774 0.4324
vn -0.7155 0.6588 0.2325
vn -0.6558 0.5856 0.4764
vn -0.7895 0.5704 0.2267
vn -0.8053 0.5320 0.2617
vn -0.8514 0.5069 0.1348
vn -0.0000 0.5320 0.8468
vn 0.2505 0.5856 0.7709
vn -0.2505 0.5856 0.7709
vn -0.2273 0.6774 0.6996
vn 0.2273 0.6774 0.6996
vn -0.1665 0.8299 0.5325
vn -0.4977 0.5320 0.6851
vn 0.6951 0.5116 0.5050
vn 0.4977 0.5320 0.6851
vn 0.2655 0.5116 0.8172
vn 0.1780 0.9810 0.0776
vn 0.5567 0.8108 0.1809
vn 0.0000 1.0000 -0.0000
vn -0.6951 0.5116 0.5050
vn -0.2655 0.5116 0.8172
usemtl ship_glow
s 1
f 1/1/1 2/2/2 3/3/3
f 3/3/3 2/2/2 4/4/4
f 2/2/2 5/5/5 4/4/4
f 4/4/4 5/6/5 6/7/6
f 5/6/5 7/8/7 6/7/6
f 6/7/6 7/8/7 8/9/8
f 7/8/7 9/10/9 8/9/8
f 8/9/8 9/10/9 10/11/10
f 9/10/9 11/12/11 10/11/10
f 10/11/10 11/12/11 12/13/12
f 11/12/11 13/14/13 12/13/12
f 12/13/12 13/14/13 14/15/14
f 13/14/13 15/16/15 14/15/14
f 14/15/14 15/16/15 16/17/16
f 15/16/15 17/18/17 16/17/16
f 16/17/16 17/18/17 18/19/18
f 17/18/17 19/20/19 18/19/18
f 20/21/20 21/22/21 22/23/22
f 22/23/22 21/22/21 23/24/23
f 21/22/21 24/25/24 23/24/23
f 23/24/23 24/25/24 25/26/25
f 24/25/24 8/9/8 25/26/25
f 25/26/25 8/9/8 10/11/10
f 10/11/10 12/13/12 25/26/25
f 25/26/25 12/13/12 23/24/23
f 12/13/12 14/15/14 23/24/23
f 23/24/23 14/15/14 22/23/22
f 14/15/14 16/17/16 22/23/22
f 22/23/22 16/17/16 26/27/26
f 3/3/3 4/4/4 27/28/27
f 27/28/27 4/4/4 28/29/28
f 4/4/4 21/22/21 28/29/28
f 28/29/28 21/22/21 29/30/29
f 21/22/21 20/21/20 29/30/29
f 9/10/9 7/8/7 30/31/30
f 30/31/30 7/8/7 31/32/31
f 7/8/7 5/6/5 31/32/31
f 32/33/32 11/12/11 30/31/30
f 30/31/30 11/12/11 9/10/9
f 33/34/32 34/35/32 35/36/32
f 35/36/32 34/35/32 36/37/32
f 18/19/18 37/38/33 16/17/16
f 16/17/16 37/38/33 26/27/26
f 35/36/32 36/37/32 32/33/32
f 32/33/32 36/37/32 11/12/11
f 20/21/20 22/23/22 38/39/34
f 38/39/34 22/23/22 26/27/26
f 21/22/21 4/4/4 24/25/24
f 24/25/24 4/4/4 6/7/6
f 8/9/8 24/25/24 6/7/6
