# Blender v2.83.0 OBJ File: ''
# www.blender.org
mtllib S.S._Dolphin_Whimsical_Radar_1.mtl
o S.S._Dolphin_Whimsical_Radar_1
v 0.296287 0.808024 0.283287
v 0.553813 0.685896 0.238837
v 0.274931 0.779139 0.196579
v 0.513192 0.664982 0.155028
v 0.758187 0.495676 0.169601
v 0.702278 0.487178 0.090313
v 0.889404 0.255985 0.082363
v 0.823678 0.263133 0.008768
v 0.934617 -0.009713 -0.014345
v 0.865508 0.014777 -0.081626
v 0.889403 -0.275412 -0.111050
v 0.823677 -0.233581 -0.172021
v 0.758187 -0.515101 -0.198290
v 0.702277 -0.457626 -0.253567
v 0.553813 -0.705320 -0.267526
v 0.513192 -0.635428 -0.318281
v 0.296287 -0.827449 -0.311977
v 0.274931 -0.749587 -0.359831
v 0.010817 -0.869532 -0.327293
v 0.010817 -0.788921 -0.374148
v -0.274653 -0.827449 -0.311977
v -0.253297 -0.749587 -0.359831
v -0.532179 -0.705320 -0.267526
v -0.491558 -0.635428 -0.318281
v -0.736553 -0.515101 -0.198290
v -0.680643 -0.457626 -0.253567
v -0.867769 -0.275412 -0.111050
v -0.802044 -0.233581 -0.172021
v -0.912983 -0.009713 -0.014345
v -0.843875 0.014777 -0.081626
v -0.867769 0.255985 0.082363
v -0.802044 0.263133 0.008768
v -0.736553 0.495676 0.169601
v -0.680644 0.487178 0.090313
v -0.532179 0.685896 0.238837
v -0.491558 0.664982 0.155028
v -0.274653 0.808024 0.283287
v -0.253297 0.779139 0.196579
v 0.010817 0.850107 0.298605
v 0.010817 0.818474 0.210896
v 0.296287 0.808024 0.283287
v 0.274931 0.779139 0.196579
v -0.912983 -0.096039 0.222835
v -0.867769 0.169660 0.319540
v -0.912983 -0.009713 -0.014345
v -0.867769 0.255985 0.082363
v -0.736553 0.409350 0.406781
v -0.736553 0.495676 0.169601
v -0.532179 0.599569 0.476015
v -0.532179 0.685896 0.238837
v -0.274653 0.721699 0.520467
v -0.274653 0.808024 0.283287
v 0.010817 0.763781 0.535783
v 0.010817 0.850107 0.298605
v 0.296287 0.721699 0.520467
v 0.296287 0.808024 0.283287
v 0.553813 0.599569 0.476015
v 0.553813 0.685896 0.238837
v 0.758187 0.409350 0.406781
v 0.758187 0.495676 0.169601
v 0.889404 0.169660 0.319540
v 0.889404 0.255985 0.082363
v 0.934617 -0.096039 0.222835
v 0.934617 -0.009713 -0.014345
v 0.889403 -0.361737 0.126129
v 0.889403 -0.275412 -0.111050
v 0.758187 -0.601428 0.038887
v 0.758187 -0.515101 -0.198290
v 0.553813 -0.791647 -0.030347
v 0.553813 -0.705320 -0.267526
v 0.296287 -0.913774 -0.074798
v 0.296287 -0.827449 -0.311977
v 0.010817 -0.955858 -0.090115
v 0.010817 -0.869532 -0.327293
v -0.274653 -0.913774 -0.074798
v -0.274653 -0.827449 -0.311977
v -0.532179 -0.791647 -0.030347
v -0.532179 -0.705320 -0.267526
v -0.736553 -0.601428 0.038887
v -0.736553 -0.515101 -0.198290
v -0.867769 -0.361737 0.126129
v -0.867769 -0.275412 -0.111050
v -0.912983 -0.096039 0.222835
v -0.912983 -0.009713 -0.014345
v -0.802044 -0.233581 -0.172021
v -0.680644 0.487178 0.090313
v -0.680643 -0.457626 -0.253567
v -0.491558 0.664982 0.155028
v -0.680643 -0.457626 -0.253567
v -0.491558 0.664982 0.155028
v -0.491558 -0.635428 -0.318281
v -0.253297 0.779139 0.196579
v -0.491558 -0.635428 -0.318281
v -0.253297 0.779139 0.196579
v -0.253297 -0.749587 -0.359831
v 0.010817 0.818474 0.210896
v -0.253297 -0.749587 -0.359831
v 0.010817 0.818474 0.210896
v 0.010817 -0.788921 -0.374148
v 0.274931 0.779139 0.196579
v 0.823678 0.263133 0.008768
v 0.702277 -0.457626 -0.253567
v 0.702278 0.487178 0.090313
v 0.513192 -0.635428 -0.318281
v 0.702278 0.487178 0.090313
v 0.513192 -0.635428 -0.318281
v 0.513192 0.664982 0.155028
v 0.274931 -0.749587 -0.359831
v 0.513192 0.664982 0.155028
v 0.274931 -0.749587 -0.359831
v 0.274931 0.779139 0.196579
v 0.010817 -0.788921 -0.374148
v -0.843875 0.014777 -0.081626
v -0.802044 0.263133 0.008768
v -0.802044 -0.233581 -0.172021
v -0.680644 0.487178 0.090313
v 0.865508 0.014777 -0.081626
v 0.823677 -0.233581 -0.172021
v 0.823678 0.263133 0.008768
v 0.702277 -0.457626 -0.253567
vt 0.000000 0.000000
vt 0.000000 0.000000
vt 0.000000 0.000000
vt 0.000000 0.000000
vt 0.000000 0.000000
vt 0.000000 0.000000
vt 0.000000 0.000000
vt 0.000000 0.000000
vt 0.000000 0.000000
vt 0.000000 0.000000
vt 0.000000 0.000000
vt 0.000000 0.000000
vt 0.000000 0.000000
vt 0.000000 0.000000
vt 0.000000 0.000000
vt 0.000000 0.000000
vt 0.000000 0.000000
vt 0.000000 0.000000
vt 0.000000 0.000000
vt 0.000000 0.000000
vt 0.000000 0.000000
vt 0.000000 0.000000
vt 0.000000 0.000000
vt 0.000000 0.000000
vt 0.000000 0.000000
vt 0.000000 0.000000
vt 0.000000 0.000000
vt 0.000000 0.000000
vt 0.000000 0.000000
vt 0.000000 0.000000
vt 0.000000 0.000000
vt 0.000000 0.000000
vt 0.000000 0.000000
vt 0.000000 0.000000
vt 0.000000 0.000000
vt 0.000000 0.000000
vt 0.000000 0.000000
vt 0.000000 0.000000
vt 0.000000 0.000000
vt 0.000000 0.000000
vt 0.000000 0.000000
vt 0.000000 0.000000
vt 0.000000 0.000000
vt 0.000000 0.000000
vt 0.000000 0.000000
vt 0.000000 0.000000
vt 0.000000 0.000000
vt 0.000000 0.000000
vt 0.000000 0.000000
vt 0.000000 0.000000
vt 0.000000 0.000000
vt 0.000000 0.000000
vt 0.000000 0.000000
vt 0.000000 0.000000
vt 0.000000 0.000000
vt 0.000000 0.000000
vt 0.000000 0.000000
vt 0.000000 0.000000
vt 0.000000 0.000000
vt 0.000000 0.000000
vt 0.000000 0.000000
vt 0.000000 0.000000
vt 0.000000 0.000000
vt 0.000000 0.000000
vt 0.000000 0.000000
vt 0.000000 0.000000
vt 0.000000 0.000000
vt 0.000000 0.000000
vt 0.000000 0.000000
vt 0.000000 0.000000
vt 0.000000 0.000000
vt 0.000000 0.000000
vt 0.000000 0.000000
vt 0.000000 0.000000
vt 0.000000 0.000000
vt 0.000000 0.000000
vt 0.000000 0.000000
vt 0.000000 0.000000
vt 0.000000 0.000000
vt 0.000000 0.000000
vt 0.000000 0.000000
vt 0.000000 0.000000
vt 0.000000 0.000000
vt 0.000000 0.000000
vt 0.000000 0.000000
vt 0.000000 0.000000
vt 0.000000 0.000000
vt 0.000000 0.000000
vt 0.000000 0.000000
vt 0.000000 0.000000
vt 0.000000 0.000000
vt 0.000000 0.000000
vt 0.000000 0.000000
vt 0.000000 0.000000
vt 0.000000 0.000000
vt 0.000000 0.000000
vt 0.000000 0.000000
vt 0.000000 0.000000
vt 0.000000 0.000000
vt 0.000000 0.000000
vt 0.000000 0.000000
vt 0.000000 0.000000
vt 0.000000 0.000000
vt 0.000000 0.000000
vt 0.000000 0.000000
vt 0.000000 0.000000
vt 0.000000 0.000000
vt 0.000000 0.000000
vt 0.000000 0.000000
vt 0.000000 0.000000
vt 0.000000 0.000000
vt 0.000000 0.000000
vt 0.000000 0.000000
vt 0.000000 0.000000
vt 0.000000 0.000000
vt 0.000000 0.000000
vt 0.000000 0.000000
vt 0.000000 0.000000
vt 0.000000 0.000000
vt 0.000000 0.000000
vn 0.3445 0.8619 -0.3720
vn 0.4427 0.7963 -0.4122
vn 0.3446 0.8611 -0.3738
vn 0.4368 0.7994 -0.4125
vn 0.5968 0.6371 -0.4877
vn 0.5922 0.6416 -0.4875
vn 0.6895 0.4452 -0.5713
vn 0.6876 0.4485 -0.5710
vn 0.7198 0.2371 -0.6525
vn 0.7197 0.2370 -0.6525
vn 0.6885 0.0262 -0.7248
vn 0.6882 0.0222 -0.7252
vn 0.5955 -0.1734 -0.7844
vn 0.5931 -0.1798 -0.7848
vn 0.4421 -0.3432 -0.8287
vn 0.4378 -0.3487 -0.8287
vn 0.2368 -0.4598 -0.8558
vn 0.2332 -0.4623 -0.8555
vn 0.0004 -0.5022 -0.8648
vn 0.0005 -0.5022 -0.8647
vn -0.2364 -0.4612 -0.8552
vn -0.2322 -0.4614 -0.8563
vn -0.4427 -0.3450 -0.8276
vn -0.4368 -0.3472 -0.8298
vn -0.5968 -0.1746 -0.7831
vn -0.5922 -0.1781 -0.7858
vn -0.6895 0.0262 -0.7238
vn -0.6876 0.0235 -0.7257
vn -0.7198 0.2378 -0.6522
vn -0.7198 0.2379 -0.6522
vn -0.6885 0.4458 -0.5721
vn -0.6882 0.4492 -0.5698
vn -0.5955 0.6370 -0.4894
vn -0.5931 0.6422 -0.4856
vn -0.4421 0.7956 -0.4142
vn -0.4378 0.7998 -0.4107
vn -0.2368 0.9024 -0.3600
vn -0.2332 0.9040 -0.3582
vn -0.0004 0.9406 -0.3396
vn -0.0005 0.9406 -0.3396
vn 0.1203 0.9329 -0.3396
vn 0.1204 0.9326 -0.3403
vn -0.9875 0.1484 0.0540
vn -0.9502 0.2928 0.1066
vn -0.8065 0.5556 0.2022
vn -0.5843 0.7626 0.2776
vn -0.3065 0.8945 0.3256
vn -0.0000 0.9397 0.3420
vn 0.3065 0.8945 0.3256
vn 0.5843 0.7626 0.2776
vn 0.8065 0.5556 0.2022
vn 0.9502 0.2928 0.1066
vn 1.0000 -0.0000 -0.0000
vn 0.9502 -0.2928 -0.1066
vn 0.8065 -0.5556 -0.2022
vn 0.5843 -0.7626 -0.2776
vn 0.3065 -0.8945 -0.3256
vn -0.0000 -0.9397 -0.3420
vn -0.3065 -0.8945 -0.3256
vn -0.5843 -0.7626 -0.2776
vn -0.8065 -0.5556 -0.2022
vn -0.9502 -0.2928 -0.1066
vn -0.9875 -0.1484 -0.0540
vn -0.0000 0.3420 -0.9397
usemtl dark_red
s 1
f 1/1/1 2/2/2 3/3/3
f 3/3/3 2/2/2 4/4/4
f 2/2/2 5/5/5 4/4/4
f 4/4/4 5/5/5 6/6/6
f 5/5/5 7/7/7 6/6/6
f 6/6/6 7/7/7 8/8/8
f 7/7/7 9/9/9 8/8/8
f 8/8/8 9/9/9 10/10/10
f 9/9/9 11/11/11 10/10/10
f 10/10/10 11/11/11 12/12/12
f 11/11/11 13/13/13 12/12/12
f 12/12/12 13/13/13 14/14/14
f 13/13/13 15/15/15 14/14/14
f 14/14/14 15/15/15 16/16/16
f 15/15/15 17/17/17 16/16/16
f 16/16/16 17/17/17 18/18/18
f 17/17/17 19/19/19 18/18/18
f 18/18/18 19/19/19 20/20/20
f 19/19/19 21/21/21 20/20/20
f 20/20/20 21/21/21 22/22/22
f 21/21/21 23/23/23 22/22/22
f 22/22/22 23/23/23 24/24/24
f 23/23/23 25/25/25 24/24/24
f 24/24/24 25/25/25 26/26/26
f 25/25/25 27/27/27 26/26/26
f 26/26/26 27/27/27 28/28/28
f 27/27/27 29/29/29 28/28/28
f 28/28/28 29/29/29 30/30/30
f 29/29/29 31/31/31 30/30/30
f 30/30/30 31/31/31 32/32/32
f 31/31/31 33/33/33 32/32/32
f 32/32/32 33/33/33 34/34/34
f 33/33/33 35/35/35 34/34/34
f 34/34/34 35/35/35 36/36/36
f 35/35/35 37/37/37 36/36/36
f 36/36/36 37/37/37 38/38/38
f 37/37/37 39/39/39 38/38/38
f 38/38/38 39/39/39 40/40/40
f 39/39/39 41/41/41 40/40/40
f 40/40/40 41/41/41 42/42/42
f 43/43/43 44/44/44 45/45/43
f 45/45/43 44/44/44 46/46/44
f 44/44/44 47/47/45 46/46/44
f 46/46/44 47/47/45 48/48/45
f 47/47/45 49/49/46 48/48/45
f 48/48/45 49/49/46 50/50/46
f 49/49/46 51/51/47 50/50/46
f 50/50/46 51/51/47 52/52/47
f 51/51/47 53/53/48 52/52/47
f 52/52/47 53/53/48 54/54/48
f 53/53/48 55/55/49 54/54/48
f 54/54/48 55/55/49 56/56/49
f 55/55/49 57/57/50 56/56/49
f 56/56/49 57/57/50 58/58/50
f 57/57/50 59/59/51 58/58/50
f 58/58/50 59/59/51 60/60/51
f 59/59/51 61/61/52 60/60/51
f 60/60/51 61/61/52 62/62/52
f 61/61/52 63/63/53 62/62/52
f 62/62/52 63/63/53 64/64/53
f 63/63/53 65/65/54 64/64/53
f 64/64/53 65/65/54 66/66/54
f 65/65/54 67/67/55 66/66/54
f 66/66/54 67/67/55 68/68/55
f 67/67/55 69/69/56 68/68/55
f 68/68/55 69/69/56 70/70/56
f 69/69/56 71/71/57 70/70/56
f 70/70/56 71/71/57 72/72/57
f 71/71/57 73/73/58 72/72/57
f 72/72/57 73/73/58 74/74/58
f 73/73/58 75/75/59 74/74/58
f 74/74/58 75/75/59 76/76/59
f 75/75/59 77/77/60 76/76/59
f 76/76/59 77/77/60 78/78/60
f 77/77/60 79/79/61 78/78/60
f 78/78/60 79/79/61 80/80/61
f 79/79/61 81/81/62 80/80/61
f 80/80/61 81/81/62 82/82/62
f 81/81/62 83/83/63 82/82/62
f 82/82/62 83/83/63 84/84/63
f 85/85/64 86/86/64 87/87/64
f 87/87/64 86/86/64 88/88/64
f 89/89/64 90/90/64 91/91/64
f 91/91/64 90/90/64 92/92/64
f 93/93/64 94/94/64 95/95/64
f 95/95/64 94/94/64 96/96/64
f 97/97/64 98/98/64 99/99/64
f 99/99/64 98/98/64 100/100/64
f 101/101/64 102/102/64 103/103/64
f 103/103/64 102/102/64 104/104/64
f 105/105/64 106/106/64 107/107/64
f 107/107/64 106/106/64 108/108/64
f 109/109/64 110/110/64 111/111/64
f 111/111/64 110/110/64 112/112/64
f 113/113/64 114/114/64 115/115/64
f 115/115/64 114/114/64 116/116/64
f 117/117/64 118/118/64 119/119/64
f 119/119/64 118/118/64 120/120/64
