# Blender v2.83.0 OBJ File: ''
# www.blender.org
mtllib S.S._Dolphin_part.015.mtl
o S.S._Dolphin_part.015
v 2.842577 1.109573 -2.023738
v 2.331327 0.759695 -2.793990
v 2.418026 1.109569 -2.856981
v 1.693777 0.759695 -3.431531
v 1.756767 1.109569 -3.518231
v 0.858303 0.776792 -3.829461
v 0.923539 1.109569 -3.942781
v -0.000104 0.769176 -3.952881
v -0.000104 1.109567 -4.089071
v -0.858510 0.776792 -3.829461
v -0.923747 1.109569 -3.942781
v -1.693984 0.759695 -3.431531
v -1.756974 1.109569 -3.518231
v -2.331535 0.759695 -2.793990
v -2.418234 1.109569 -2.856981
v -2.740854 0.759695 -1.990631
v -2.842785 1.109573 -2.023738
v -3.051345 1.110089 -1.082609
v 1.444826 0.803434 1.441391
v 1.754636 1.110091 1.315081
v 0.887723 0.803434 1.700421
v 0.922416 1.110090 1.739121
v -0.000104 0.803434 1.859341
v -0.000104 1.110090 1.885230
v -0.887931 0.803434 1.700421
v -0.922625 1.110090 1.739121
v -1.445034 0.803434 1.441391
v -1.754844 1.110091 1.315081
v -1.599754 0.643950 1.396591
v -2.415294 1.110092 0.654630
v -2.447625 0.362235 0.678110
v 2.184637 -2.210555 0.487200
v 2.072907 -2.210554 0.406019
v 1.885917 -2.210555 0.785919
v 1.506026 -2.210563 0.972899
v 0.834393 -2.210555 1.468209
v 0.791715 -2.210555 1.336860
v 0.208520 -2.210555 1.567340
v -0.000104 -2.210555 1.462279
v -0.208728 -2.210555 1.567340
v -0.791923 -2.210555 1.336860
v -0.834601 -2.210555 1.468209
v -1.886124 -2.210555 0.787120
v -2.394015 -0.503612 0.639170
v -2.281714 -1.348142 0.557579
v -1.463044 -1.336942 1.185039
v -2.073114 -2.210554 0.406019
v -1.362244 -1.454422 1.203330
v -1.506234 -2.210563 0.972899
v -0.829991 -1.462212 1.426149
v -0.000104 -1.462203 1.570969
v 0.829783 -1.462212 1.426149
v 1.507636 0.803434 1.545261
v 0.931843 0.803434 1.824770
v -0.000104 0.803434 1.986941
v -0.932051 0.803434 1.824770
v 1.362036 -1.454422 1.203330
v 1.423166 -1.454422 1.302339
v 0.872721 -1.462213 1.544909
v -0.000104 -1.462203 1.692680
v -0.872930 -1.462213 1.544909
v -1.423374 -1.454422 1.302339
v 2.444877 1.110090 0.700711
v 2.390927 0.736713 0.696611
v 2.901797 1.110093 -0.157225
v 2.819577 0.753437 -0.183940
v 3.051137 1.110089 -1.082609
v 2.940327 0.759534 -1.086511
v 2.740647 0.759695 -1.990630
v 2.856137 0.759695 -2.028153
v 2.429557 0.759695 -2.865351
v 1.765147 0.759692 -3.529771
v -3.070345 0.759534 -1.082690
v -2.856335 0.759695 -2.028153
v -2.429764 0.759695 -2.865361
v -1.765354 0.759692 -3.529771
v -0.898968 0.776792 -3.957491
v -0.026199 1.110090 2.011021
v -1.016474 1.110089 1.833371
v -1.830184 1.110090 1.418770
v -2.518985 1.110090 0.729970
v 2.494197 0.736741 0.770491
v 2.940347 0.753437 -0.144701
v 3.070137 0.759534 -1.082689
v 1.829966 1.110090 1.418770
v 1.016266 1.110089 1.833371
v 0.025990 1.110090 2.011021
v -1.526234 -1.336942 1.283679
v -1.666264 0.643950 1.499550
v -1.507844 0.803434 1.545261
v 2.552237 0.362235 0.754270
v 2.393807 -0.503612 0.639170
v 2.496337 -0.503612 0.713660
v 2.281507 -1.348142 0.557579
v 2.379227 -1.348142 0.628579
v 2.272337 -1.819553 0.550919
v -2.387225 0.736558 0.704151
v -2.441915 1.110090 0.707031
v -2.819785 0.753437 -0.183940
v -2.902004 1.110093 -0.157225
v -2.940535 0.759534 -1.086511
v -2.940555 0.753437 -0.144701
v 1.462836 -1.336942 1.185039
v 2.295567 -1.980123 0.551119
v 1.599546 0.643950 1.396591
v 2.447407 0.362235 0.678110
v 2.415087 1.110092 0.654630
v -2.184844 -2.210555 0.487200
v 2.518777 1.110090 0.729970
v 1.666057 0.643950 1.499550
v 1.526026 -1.336942 1.283679
v -2.552444 0.362235 0.754270
v -2.489084 0.736539 0.780741
v 0.898761 0.776792 -3.957491
v -0.000104 0.754981 -4.071342
v -2.295774 -1.980123 0.551119
v -2.272544 -1.819553 0.550919
v -2.379435 -1.348142 0.628579
v -2.496544 -0.503612 0.713660
vt 0.000000 1.000000
vt 0.000000 1.000000
vt 0.000000 1.000000
vt 0.000000 1.000000
vt 0.000000 1.000000
vt 0.000000 1.000000
vt 0.000000 1.000000
vt 0.000000 1.000000
vt 0.000000 1.000000
vt 0.000000 1.000000
vt 0.000000 1.000000
vt 0.000000 1.000000
vt 0.000000 1.000000
vt 0.000000 1.000000
vt 0.000000 1.000000
vt 0.000000 1.000000
vt 0.000000 1.000000
vt 0.000000 1.000000
vt 0.000000 1.000000
vt 0.000000 1.000000
vt 0.000000 1.000000
vt 0.000000 1.000000
vt 0.000000 1.000000
vt 0.000000 1.000000
vt 0.000000 1.000000
vt 0.000000 1.000000
vt 0.000000 1.000000
vt 0.000000 1.000000
vt 0.000000 1.000000
vt 0.000000 1.000000
vt 0.000000 1.000000
vt 0.000000 1.000000
vt 0.000000 1.000000
vt 0.000000 1.000000
vt 0.000000 1.000000
vt 0.000000 1.000000
vt 0.000000 1.000000
vt 0.000000 1.000000
vt 0.000000 1.000000
vt 0.000000 1.000000
vt 0.000000 1.000000
vt 0.000000 1.000000
vt 0.000000 1.000000
vt 0.000000 1.000000
vt 0.000000 1.000000
vt 0.000000 1.000000
vt 0.000000 1.000000
vt 0.000000 1.000000
vt 0.000000 1.000000
vt 0.000000 1.000000
vt 0.000000 1.000000
vt 0.000000 1.000000
vt 0.000000 1.000000
vt 0.000000 1.000000
vt 0.000000 1.000000
vt 0.000000 1.000000
vt 0.000000 1.000000
vt 0.000000 1.000000
vt 0.000000 1.000000
vt 0.000000 1.000000
vt 0.000000 1.000000
vt 0.000000 1.000000
vt 0.000000 1.000000
vt 0.000000 1.000000
vt 0.000000 1.000000
vt 0.000000 1.000000
vt 0.000000 1.000000
vt 0.000000 1.000000
vt 0.000000 1.000000
vt 0.000000 1.000000
vt 0.000000 1.000000
vt 0.000000 1.000000
vt 0.000000 1.000000
vt 0.000000 1.000000
vt 0.000000 1.000000
vt 0.000000 1.000000
vt 0.000000 1.000000
vt 0.000000 1.000000
vt 0.000000 1.000000
vt 0.000000 1.000000
vt 0.000000 1.000000
vt 0.000000 1.000000
vt 0.000000 1.000000
vt 0.000000 1.000000
vt 0.000000 1.000000
vt 0.000000 1.000000
vt 0.000000 1.000000
vt 0.000000 1.000000
vt 0.000000 1.000000
vt 0.000000 1.000000
vt 0.000000 1.000000
vt 0.000000 1.000000
vt 0.000000 1.000000
vt 0.000000 1.000000
vt 0.000000 1.000000
vt 0.000000 1.000000
vt 0.000000 1.000000
vt 0.000000 1.000000
vt 0.000000 1.000000
vt 0.000000 1.000000
vt 0.000000 1.000000
vt 0.000000 1.000000
vt 0.000000 1.000000
vt 0.000000 1.000000
vt 0.000000 1.000000
vt 0.000000 1.000000
vt 0.000000 1.000000
vt 0.000000 1.000000
vt 0.000000 1.000000
vt 0.000000 1.000000
vt 0.000000 1.000000
vt 0.000000 1.000000
vt 0.000000 1.000000
vt 0.000000 1.000000
vt 0.000000 1.000000
vt 0.000000 1.000000
vt 0.000000 1.000000
vt 0.000000 1.000000
vt 0.000000 1.000000
vn -0.1890 -0.9790 0.0766
vn 0.6243 0.6361 -0.4536
vn -0.1794 -0.9751 0.1303
vn 0.4472 0.6429 -0.6218
vn -0.1604 -0.9730 0.1662
vn 0.2365 0.6062 -0.7593
vn -0.0541 -0.9631 0.2635
vn -0.0042 0.5516 -0.8341
vn -0.0243 -0.9540 0.2990
vn -0.2254 0.5984 -0.7688
vn 0.1148 -0.9655 0.2337
vn -0.4570 0.6386 -0.6192
vn 0.1191 -0.9749 0.1883
vn -0.6243 0.6361 -0.4536
vn 0.1794 -0.9751 0.1303
vn -0.7326 0.6276 -0.2634
vn 0.1912 -0.9790 0.0713
vn -0.7885 -0.5924 0.1651
vn 0.5023 0.5581 0.6605
vn 0.3788 -0.7719 0.5106
vn 0.2245 0.6875 0.6906
vn 0.1973 -0.7907 0.5795
vn -0.0056 0.7182 0.6958
vn -0.0050 -0.7733 0.6340
vn -0.2093 0.6862 0.6966
vn -0.1862 -0.7888 0.5858
vn -0.5220 0.5385 0.6615
vn -0.3819 -0.7711 0.5095
vn -0.9251 0.2187 0.3105
vn -0.0562 -0.5794 0.8131
vn -0.0141 -0.0129 0.9998
vn -0.4711 0.5591 0.6822
vn 0.1002 0.5241 0.8458
vn -0.0000 1.0000 -0.0000
vn 0.4284 0.7052 0.5650
vn 0.2200 0.6997 0.6797
vn 0.0031 0.6956 0.7184
vn -0.2234 0.6981 0.6802
vn 0.0056 -0.0741 0.9972
vn 0.0167 -0.1300 0.9914
vn -0.8755 -0.3965 0.2761
vn -0.1091 0.5261 0.8434
vn -0.5393 -0.6603 0.5227
vn -0.4282 0.7057 0.5645
vn -0.1926 -0.7799 0.5955
vn 0.0024 -0.7917 0.6108
vn 0.1898 -0.7812 0.5947
vn 0.3559 0.9094 -0.2152
vn 0.5393 -0.6603 0.5227
vn 0.4099 -0.8753 -0.2566
vn 0.0063 -1.0000 -0.0023
vn -0.0000 -1.0000 -0.0000
vn -0.0063 -1.0000 -0.0023
vn -0.4099 -0.8753 -0.2566
vn 0.8750 -0.1315 0.4660
vn 0.6150 0.7133 0.3361
vn 0.9283 -0.2237 0.2969
vn 0.7186 0.6548 0.2341
vn 0.7991 -0.5837 0.1436
vn 0.7701 0.6371 -0.0325
vn 0.7326 0.6277 -0.2633
vn -0.7022 0.6652 0.2538
vn -0.6089 0.6585 0.4424
vn -0.4358 0.6607 0.6113
vn 0.4872 0.8659 0.1135
vn 0.7030 0.6648 0.2527
vn 0.6089 0.6585 0.4424
vn 0.4339 0.6593 0.6141
vn 0.2240 0.6612 0.7160
vn 0.4436 -0.6561 0.6105
vn -0.0098 0.9999 0.0141
vn -0.0035 0.9999 0.0112
vn -0.4871 0.8662 0.1115
vn -0.8047 -0.2944 -0.5156
vn -0.7835 0.3665 -0.5018
vn -0.3559 0.9094 -0.2152
vn -0.5878 -0.0000 0.8090
vn -0.0056 -0.0741 0.9972
vn -0.0167 -0.1300 0.9914
vn -0.5688 -0.0065 0.8225
vn -0.6126 0.7261 0.3122
vn -0.8854 -0.1559 0.4379
vn -0.7101 0.6636 0.2352
vn -0.9224 -0.2440 0.2994
vn -0.7674 0.6407 -0.0233
vn 0.0036 0.9999 0.0111
vn 0.8755 -0.3965 0.2761
vn -0.4059 -0.0576 0.9121
vn 0.9251 0.2187 0.3105
vn 0.0141 -0.0129 0.9998
vn 0.0562 -0.5794 0.8131
vn 0.4720 0.5959 0.6497
vn -0.4436 -0.6561 0.6105
vn 0.7835 0.3665 -0.5019
vn 0.8047 -0.2944 -0.5156
vn 0.5878 -0.0000 0.8090
vn 0.0099 0.9999 0.0141
vn -0.2076 0.6603 0.7217
vn -0.0137 0.7366 0.6762
vn 0.5067 -0.0523 0.8606
vn 0.5702 -0.0136 0.8214
usemtl ship_interior
s 1
f 1/1/1 2/2/2 3/3/3
f 2/2/2 4/4/4 3/3/3
f 3/3/3 4/4/4 5/5/5
f 4/4/4 6/6/6 5/5/5
f 5/5/5 6/6/6 7/7/7
f 6/6/6 8/8/8 7/7/7
f 7/7/7 8/8/8 9/9/9
f 8/8/8 10/10/10 9/9/9
f 9/9/9 10/10/10 11/11/11
f 10/10/10 12/12/12 11/11/11
f 11/11/11 12/12/12 13/13/13
f 12/12/12 14/14/14 13/13/13
f 13/13/13 14/14/14 15/15/15
f 14/14/14 16/16/16 15/15/15
f 15/15/15 16/16/16 17/17/17
f 16/16/16 18/18/18 17/17/17
f 19/19/19 20/20/20 21/21/21
f 20/20/20 22/22/22 21/21/21
f 21/21/21 22/22/22 23/23/23
f 22/22/22 24/24/24 23/23/23
f 23/23/23 24/24/24 25/25/25
f 24/24/24 26/26/26 25/25/25
f 25/25/25 26/26/26 27/27/27
f 26/26/26 28/28/28 27/27/27
f 27/27/27 28/28/28 29/29/29
f 28/28/28 30/30/30 29/29/29
f 29/29/29 30/30/30 31/31/31
f 32/32/32 33/33/33 34/34/34
f 33/33/33 35/35/35 34/34/34
f 34/34/34 35/35/35 36/36/34
f 35/35/35 37/37/36 36/36/34
f 36/36/34 37/37/36 38/38/34
f 37/37/36 39/39/37 38/38/34
f 38/38/34 39/39/37 40/40/34
f 39/39/37 41/41/38 40/40/34
f 40/40/34 41/41/38 42/42/34
f 41/41/38 43/43/34 42/42/34
f 44/44/39 45/45/40 46/46/41
f 45/45/40 47/47/42 46/46/41
f 46/46/41 47/47/42 48/48/43
f 47/47/42 49/49/44 48/48/43
f 48/48/43 49/49/44 50/50/45
f 49/49/44 41/41/38 50/50/45
f 50/50/45 41/41/38 51/51/46
f 41/41/38 39/39/37 51/51/46
f 51/51/46 39/39/37 52/52/47
f 53/53/48 19/19/19 54/54/34
f 19/19/19 21/21/21 54/54/34
f 54/54/34 21/21/21 55/55/34
f 21/21/21 23/23/23 55/55/34
f 55/55/34 23/23/23 56/56/34
f 23/23/23 25/25/25 56/56/34
f 56/56/34 25/25/25 27/27/27
f 57/57/49 58/58/50 52/52/47
f 58/58/50 59/59/51 52/52/47
f 52/52/47 59/59/51 51/51/46
f 59/59/51 60/60/52 51/51/46
f 51/51/46 60/60/52 50/50/45
f 60/60/52 61/61/53 50/50/45
f 50/50/45 61/61/53 62/62/54
f 63/63/55 64/64/56 65/65/57
f 64/64/56 66/66/58 65/65/57
f 65/65/57 66/66/58 67/67/59
f 66/66/58 68/68/60 67/67/59
f 67/67/59 68/68/60 1/1/1
f 68/68/60 69/69/61 1/1/1
f 1/1/1 69/69/61 2/2/2
f 68/68/60 70/70/62 69/69/61
f 70/70/62 71/71/63 69/69/61
f 69/69/61 71/71/63 2/2/2
f 71/71/63 72/72/64 2/2/2
f 2/2/2 72/72/64 4/4/4
f 72/72/64 6/6/6 4/4/4
f 73/73/65 16/16/16 74/74/66
f 16/16/16 14/14/14 74/74/66
f 74/74/66 14/14/14 75/75/67
f 14/14/14 12/12/12 75/75/67
f 75/75/67 12/12/12 76/76/68
f 12/12/12 77/77/69 76/76/68
f 24/24/24 78/78/52 26/26/26
f 78/78/52 79/79/52 26/26/26
f 26/26/26 79/79/52 28/28/28
f 79/79/52 80/80/52 28/28/28
f 28/28/28 80/80/52 81/81/70
f 64/64/56 82/82/71 66/66/58
f 82/82/71 83/83/72 66/66/58
f 66/66/58 83/83/72 68/68/60
f 83/83/72 84/84/73 68/68/60
f 68/68/60 84/84/73 70/70/62
f 70/70/62 1/1/1 71/71/63
f 1/1/1 3/3/3 71/71/63
f 71/71/63 3/3/3 72/72/64
f 3/3/3 5/5/5 72/72/64
f 72/72/64 5/5/5 7/7/7
f 20/20/20 85/85/52 22/22/22
f 85/85/52 86/86/52 22/22/22
f 22/22/22 86/86/52 24/24/24
f 86/86/52 87/87/52 24/24/24
f 24/24/24 87/87/52 78/78/52
f 46/46/41 88/88/74 29/29/29
f 88/88/74 89/89/75 29/29/29
f 29/29/29 89/89/75 27/27/27
f 89/89/75 90/90/76 27/27/27
f 33/33/33 57/57/49 35/35/35
f 57/57/49 52/52/47 35/35/35
f 35/35/35 52/52/47 37/37/36
f 52/52/47 39/39/37 37/37/36
f 91/91/77 92/92/78 93/93/77
f 92/92/78 94/94/79 93/93/77
f 93/93/77 94/94/79 95/95/77
f 94/94/79 96/96/80 95/95/77
f 9/9/9 11/11/11 77/77/69
f 11/11/11 13/13/13 77/77/69
f 77/77/69 13/13/13 76/76/68
f 13/13/13 75/75/67 76/76/68
f 15/15/15 17/17/17 74/74/66
f 17/17/17 18/18/18 74/74/66
f 74/74/66 18/18/18 73/73/65
f 97/97/81 98/98/82 99/99/83
f 98/98/82 100/100/84 99/99/83
f 99/99/83 100/100/84 101/101/85
f 88/88/74 46/46/41 62/62/54
f 46/46/41 48/48/43 62/62/54
f 62/62/54 48/48/43 50/50/45
f 102/102/86 99/99/83 73/73/65
f 99/99/83 101/101/85 73/73/65
f 73/73/65 101/101/85 16/16/16
f 57/57/49 33/33/33 103/103/87
f 33/33/33 94/94/79 103/103/87
f 103/103/87 94/94/79 92/92/78
f 94/94/79 33/33/33 96/96/80
f 33/33/33 32/32/32 96/96/80
f 96/96/80 32/32/32 104/104/88
f 103/103/87 92/92/78 105/105/89
f 92/92/78 106/106/90 105/105/89
f 105/105/89 106/106/90 107/107/91
f 47/47/42 108/108/92 49/49/44
f 108/108/92 43/43/34 49/49/44
f 49/49/44 43/43/34 41/41/38
f 109/109/93 107/107/91 91/91/77
f 107/107/91 106/106/90 91/91/77
f 91/91/77 106/106/90 92/92/78
f 110/110/94 111/111/95 105/105/89
f 111/111/95 103/103/87 105/105/89
f 81/81/70 112/112/96 30/30/30
f 112/112/96 31/31/31 30/30/30
f 97/97/81 99/99/83 113/113/97
f 99/99/83 102/102/86 113/113/97
f 72/72/64 114/114/98 6/6/6
f 114/114/98 8/8/8 6/6/6
f 115/115/99 77/77/69 10/10/10
f 77/77/69 12/12/12 10/10/10
f 114/114/98 115/115/99 8/8/8
f 115/115/99 10/10/10 8/8/8
f 16/16/16 101/101/85 18/18/18
f 101/101/85 100/100/84 18/18/18
f 67/67/59 1/1/1 84/84/73
f 1/1/1 70/70/62 84/84/73
f 13/13/13 15/15/15 75/75/67
f 15/15/15 74/74/66 75/75/67
f 108/108/92 47/47/42 116/116/100
f 47/47/42 117/117/101 116/116/100
f 72/72/64 7/7/7 114/114/98
f 7/7/7 115/115/99 114/114/98
f 7/7/7 9/9/9 115/115/99
f 9/9/9 77/77/69 115/115/99
f 109/109/93 85/85/52 107/107/91
f 85/85/52 20/20/20 107/107/91
f 47/47/42 45/45/40 117/117/101
f 45/45/40 118/118/96 117/117/101
f 45/45/40 44/44/39 118/118/96
f 44/44/39 119/119/96 118/118/96
f 57/57/49 103/103/87 58/58/50
f 103/103/87 111/111/95 58/58/50
f 107/107/91 20/20/20 105/105/89
f 20/20/20 19/19/19 105/105/89
f 105/105/89 19/19/19 110/110/94
f 19/19/19 53/53/48 110/110/94
f 31/31/31 44/44/39 29/29/29
f 44/44/39 46/46/41 29/29/29
f 44/44/39 31/31/31 119/119/96
f 31/31/31 112/112/96 119/119/96
f 56/56/34 27/27/27 90/90/76
f 28/28/28 81/81/70 30/30/30
