# Blender v2.83.0 OBJ File: ''
# www.blender.org
mtllib S.S._Dolphin_part.021.mtl
o S.S._Dolphin_part.021
v -1.099646 0.359082 0.184161
v -0.557664 0.352703 -0.874427
v -0.275837 1.111989 -0.044701
v -0.204119 0.559391 -0.937251
v 0.275838 1.111989 -0.044701
v 0.204121 0.559391 -0.937251
v 0.557666 0.352703 -0.874427
v -0.343399 1.325950 -0.188272
v -0.275837 1.111989 -0.044701
v -0.000000 1.370630 -0.201851
v 0.275838 1.111989 -0.044701
v 0.343400 1.325950 -0.188272
v 0.663398 1.194970 -0.148459
v -1.281586 -0.279875 0.299843
v -0.804996 -0.669405 0.496779
v -1.326796 0.059472 0.196693
v -1.099646 0.359082 0.184161
v -1.281586 0.398828 0.093543
v -1.149036 0.715056 -0.002579
v 1.326795 0.059472 0.196693
v 1.281585 0.398828 0.093543
v 1.099645 0.359082 0.184161
v 1.149035 0.715056 -0.002579
v 0.663398 -1.076027 0.541845
v 0.938186 -0.867649 0.478509
v 0.804998 -0.669405 0.496779
v 1.149035 -0.596102 0.395965
v 1.281585 -0.279875 0.299843
v -0.761784 -0.005294 -0.765604
v -0.761784 -0.418661 -0.639954
v -0.557664 -0.776657 -0.531131
v -0.204119 -0.983335 -0.468306
v 0.204120 -0.983335 -0.468306
v -0.000000 -1.045155 0.583858
v 0.804998 -0.669405 0.496779
v -0.804996 -0.669405 0.496779
v 0.343400 -1.207017 0.581667
v -0.000000 -1.251688 0.595247
v -0.000000 -1.045155 0.583858
v -0.938185 -0.867649 0.478509
v -1.149036 -0.596102 0.395965
v 0.938186 0.986602 -0.085122
v 0.761785 -0.005294 -0.765604
v 0.761785 -0.418661 -0.639954
v 0.557666 -0.776657 -0.531131
v -0.343399 -1.207017 0.581667
v -0.663396 -1.076027 0.541845
v 1.099645 0.359082 0.184161
v -0.938185 0.986602 -0.085122
v -0.663396 1.194970 -0.148459
vt 0.762400 0.866400
vt 0.836900 0.894900
vt 0.981100 0.867200
vt 0.896900 0.895100
vt 0.981100 0.867200
vt 0.896900 0.895100
vt 0.836900 0.894900
vt 0.847100 0.874700
vt 0.847100 0.874700
vt 0.847100 0.874700
vt 0.847100 0.874700
vt 0.847100 0.874700
vt 0.847100 0.874700
vt 0.847100 0.874700
vt 0.847100 0.874700
vt 0.847100 0.874700
vt 0.847100 0.874700
vt 0.847100 0.874700
vt 0.847100 0.874700
vt 0.847100 0.874700
vt 0.847100 0.874700
vt 0.847100 0.874700
vt 0.847100 0.874700
vt 0.847100 0.874700
vt 0.847100 0.874700
vt 0.847100 0.874700
vt 0.847100 0.874700
vt 0.847100 0.874700
vt 0.847100 0.874700
vt 0.847100 0.874700
vt 0.847100 0.874700
vt 0.847100 0.874700
vt 0.847100 0.874700
vt 0.847100 0.874700
vt 0.890400 0.893600
vt 0.982700 0.865800
vt 0.890400 0.893600
vt 0.875600 0.865400
vt 0.875600 0.865400
vt 0.830400 0.893800
vt 0.726500 0.894200
vt 0.732900 0.894600
vt 0.847100 0.874700
vt 0.847100 0.874700
vt 0.847100 0.874700
vt 0.847100 0.874700
vt 0.847100 0.874700
vt 0.847100 0.874700
vt 0.847100 0.874700
vt 0.847100 0.874700
vt 0.847100 0.874700
vt 0.847100 0.874700
vt 0.847100 0.874700
vt 0.847100 0.874700
vt 0.847100 0.874700
vt 0.847100 0.874700
vt 0.830400 0.893800
vt 0.726500 0.894200
vt 0.762400 0.866400
vt 0.732900 0.894600
vt 0.847100 0.874700
vt 0.847100 0.874700
vn 0.9397 -0.1726 0.2953
vn 0.4772 -0.2352 0.8468
vn 0.3343 -0.8064 0.4879
vn 0.1806 -0.3953 0.9006
vn -0.3343 -0.8064 0.4879
vn -0.1806 -0.3953 0.9006
vn -0.4772 -0.2352 0.8468
vn -0.0751 0.5392 0.8388
vn -0.0775 0.5067 0.8586
vn -0.0000 0.5337 0.8457
vn 0.0785 0.5069 0.8584
vn 0.0751 0.5392 0.8388
vn 0.1318 0.4528 0.8818
vn -0.1857 0.2528 0.9495
vn -0.1982 0.1116 0.9738
vn -0.2537 0.2463 0.9354
vn -0.2845 0.3465 0.8938
vn -0.3516 0.3604 0.8640
vn -0.1863 0.4238 0.8864
vn 0.2537 0.2463 0.9354
vn 0.3516 0.3604 0.8640
vn 0.2853 0.3432 0.8949
vn 0.2350 0.4258 0.8738
vn 0.0818 0.0901 0.9926
vn 0.2252 0.0617 0.9724
vn 0.1969 0.1100 0.9742
vn 0.2446 0.1658 0.9553
vn 0.1857 0.2528 0.9495
vn 0.6169 0.0723 0.7837
vn 0.6360 0.3792 0.6721
vn 0.4687 0.6520 0.5959
vn 0.1918 0.8145 0.5476
vn -0.1918 0.8145 0.5476
vn 0.0000 0.9998 -0.0195
vn -0.7397 0.6706 0.0550
vn 0.7397 0.6706 0.0550
vn -0.0000 0.2909 0.9568
vn 0.0035 0.0852 0.9964
vn -0.0000 0.0551 0.9985
vn -0.2252 0.0617 0.9724
vn -0.2446 0.1659 0.9553
vn 0.1218 0.4177 0.9004
vn -0.6169 0.0723 0.7837
vn -0.6360 0.3792 0.6721
vn -0.4687 0.6520 0.5959
vn -0.0327 0.1284 0.9912
vn -0.1127 0.0706 0.9911
vn -0.9397 -0.1726 0.2953
vn -0.1297 0.3912 0.9111
vn -0.1327 0.4707 0.8722
usemtl jet
s 1
f 1/1/1 2/2/2 3/3/3
f 2/2/2 4/4/4 3/3/3
f 3/3/3 4/4/4 5/5/5
f 4/4/4 6/6/6 5/5/5
f 5/5/5 6/6/6 7/7/7
f 8/8/8 9/9/9 10/10/10
f 9/9/9 11/11/11 10/10/10
f 10/10/10 11/11/11 12/12/12
f 11/11/11 13/13/13 12/12/12
f 14/14/14 15/15/15 16/16/16
f 15/15/15 17/17/17 16/16/16
f 16/16/16 17/17/17 18/18/18
f 17/17/17 19/19/19 18/18/18
f 20/20/20 21/21/21 22/22/22
f 21/21/21 23/23/23 22/22/22
f 24/24/24 25/25/25 26/26/26
f 25/25/25 27/27/27 26/26/26
f 26/26/26 27/27/27 28/28/28
f 29/29/29 30/30/30 2/31/2
f 30/30/30 31/32/31 2/31/2
f 2/31/2 31/32/31 32/33/32
f 2/31/2 32/33/32 33/34/33
f 32/35/32 34/36/34 33/37/33
f 33/37/33 34/36/34 35/38/35
f 34/36/34 32/35/32 36/39/36
f 32/35/32 31/40/31 36/39/36
f 36/39/36 31/40/31 30/41/30
f 36/39/36 30/41/30 1/1/1
f 30/41/30 29/42/29 1/1/1
f 1/1/1 29/42/29 2/2/2
f 37/43/37 24/24/24 38/44/38
f 24/24/24 26/26/26 38/44/38
f 38/44/38 26/26/26 39/45/39
f 40/46/40 15/15/15 41/47/41
f 15/15/15 14/14/14 41/47/41
f 11/11/11 22/22/22 13/13/13
f 22/22/22 42/48/42 13/13/13
f 4/49/4 2/31/2 6/50/6
f 2/31/2 7/51/7 6/50/6
f 7/51/7 2/31/2 43/52/43
f 2/31/2 44/53/44 43/52/43
f 44/53/44 2/31/2 45/54/45
f 2/31/2 33/34/33 45/54/45
f 39/45/39 15/15/15 38/44/38
f 15/15/15 46/55/46 38/44/38
f 28/28/28 20/20/20 26/26/26
f 20/20/20 22/22/22 26/26/26
f 46/55/46 15/15/15 47/56/47
f 15/15/15 40/46/40 47/56/47
f 33/37/33 35/38/35 45/57/45
f 35/38/35 44/58/44 45/57/45
f 35/38/35 48/59/48 44/58/44
f 48/59/48 43/60/43 44/58/44
f 17/17/17 9/9/9 19/19/19
f 9/9/9 49/61/49 19/19/19
f 49/61/49 9/9/9 50/62/50
f 9/9/9 8/8/8 50/62/50
f 5/5/5 7/7/7 48/59/48
f 7/7/7 43/60/43 48/59/48
f 22/22/22 23/23/23 42/48/42
