# Blender v2.83.0 OBJ File: ''
# www.blender.org
mtllib S.S._Dolphin_Chronos_Reactor_lights.001.mtl
o S.S._Dolphin_Chronos_Reactor_lights.001
v 1.081482 0.019305 -1.733004
v 0.903925 -0.038615 -1.939255
v 1.034162 0.173543 -1.807454
v 0.903925 -0.038615 -1.939255
v 0.888591 0.237430 -1.887114
v 1.034162 0.173543 -1.807454
v 0.986840 -0.134933 -1.701864
v 0.903925 -0.038615 -1.939255
v 1.081482 0.019305 -1.733004
v 0.903925 -0.038615 -1.939255
v 0.719544 0.173543 -1.954165
v 0.888591 0.237430 -1.887114
v 0.816013 -0.198819 -1.750335
v 0.903925 -0.038615 -1.939255
v 0.986840 -0.134933 -1.701864
v 0.669073 -0.134933 -1.850034
v 0.903925 -0.038615 -1.939255
v 0.816013 -0.198819 -1.750335
v 0.903925 -0.038615 -1.939255
v 0.632095 0.019305 -1.942555
v 0.719544 0.173543 -1.954165
v 0.632095 0.019305 -1.942555
v 0.903925 -0.038615 -1.939255
v 0.669073 -0.134933 -1.850034
v 1.751222 0.019305 1.050687
v 1.953952 -0.038615 0.869733
v 1.824832 0.173542 1.002066
v 1.953952 -0.038615 0.869733
v 1.920992 0.237430 0.854885
v 1.824832 0.173542 1.002066
v 1.752792 -0.134933 0.975734
v 1.953952 -0.038615 0.869733
v 1.751222 0.019305 1.050687
v 1.953952 -0.038615 0.869733
v 1.966032 0.173542 0.684936
v 1.920992 0.237430 0.854885
v 1.799192 -0.198820 0.800655
v 1.953952 -0.038615 0.869733
v 1.752792 -0.134933 0.975734
v 1.898262 -0.134933 0.649023
v 1.953952 -0.038615 0.869733
v 1.799192 -0.198820 0.800655
v 1.953952 -0.038615 0.869733
v 1.952902 0.019305 0.597704
v 1.966032 0.173542 0.684936
v 1.952902 0.019305 0.597704
v 1.953952 -0.038615 0.869733
v 1.898262 -0.134933 0.649023
v -1.751219 0.019305 -1.051474
v -1.953949 -0.038615 -0.870527
v -1.824829 0.173543 -1.002865
v -1.953949 -0.038615 -0.870527
v -1.920989 0.237430 -0.855676
v -1.824829 0.173543 -1.002865
v -1.752789 -0.134933 -0.976528
v -1.953949 -0.038615 -0.870527
v -1.751219 0.019305 -1.051474
v -1.953949 -0.038615 -0.870527
v -1.966029 0.173543 -0.685730
v -1.920989 0.237430 -0.855676
v -1.799189 -0.198819 -0.801450
v -1.953949 -0.038615 -0.870527
v -1.752789 -0.134933 -0.976528
v -1.898249 -0.134933 -0.649819
v -1.953949 -0.038615 -0.870527
v -1.799189 -0.198819 -0.801450
v -1.953949 -0.038615 -0.870527
v -1.952899 0.019305 -0.598498
v -1.966029 0.173543 -0.685730
v -1.952899 0.019305 -0.598498
v -1.953949 -0.038615 -0.870527
v -1.898249 -0.134933 -0.649819
v -1.081479 0.019305 1.732207
v -0.903920 -0.038615 1.938457
v -1.034158 0.173542 1.806656
v -0.903920 -0.038615 1.938457
v -0.888674 0.237430 1.905377
v -1.034158 0.173542 1.806656
v -0.986834 -0.134933 1.701066
v -0.903920 -0.038615 1.938457
v -1.081479 0.019305 1.732207
v -0.903920 -0.038615 1.938457
v -0.719538 0.173542 1.953367
v -0.888674 0.237430 1.905377
v -0.816008 -0.198820 1.749537
v -0.903920 -0.038615 1.938457
v -0.986834 -0.134933 1.701066
v -0.669067 -0.134933 1.849246
v -0.903920 -0.038615 1.938457
v -0.816008 -0.198820 1.749537
v -0.903920 -0.038615 1.938457
v -0.632088 0.019305 1.941766
v -0.719538 0.173542 1.953367
v -0.632088 0.019305 1.941766
v -0.903920 -0.038615 1.938457
v -0.669067 -0.134933 1.849246
vt 0.000000 0.937500
vt 0.000000 0.937500
vt 0.000000 0.937500
vt 0.000000 0.937500
vt 0.000000 0.937500
vt 0.000000 0.937500
vt 0.000000 0.937500
vt 0.000000 0.937500
vt 0.000000 0.937500
vt 0.000000 0.937500
vt 0.000000 0.937500
vt 0.000000 0.937500
vt 0.000000 0.937500
vt 0.000000 0.937500
vt 0.000000 0.937500
vt 0.000000 0.937500
vt 0.000000 0.937500
vt 0.000000 0.937500
vt 0.000000 0.937500
vt 0.000000 0.937500
vt 0.000000 0.937500
vt 0.000000 0.937500
vt 0.000000 0.937500
vt 0.000000 0.937500
vt 0.000000 0.937500
vt 0.000000 0.937500
vt 0.000000 0.937500
vt 0.000000 0.937500
vt 0.000000 0.937500
vt 0.000000 0.937500
vt 0.000000 0.937500
vt 0.000000 0.937500
vt 0.000000 0.937500
vt 0.000000 0.937500
vt 0.000000 0.937500
vt 0.000000 0.937500
vt 0.000000 0.937500
vt 0.000000 0.937500
vt 0.000000 0.937500
vt 0.000000 0.937500
vt 0.000000 0.937500
vt 0.000000 0.937500
vt 0.000000 0.937500
vt 0.000000 0.937500
vt 0.000000 0.937500
vt 0.000000 0.937500
vt 0.000000 0.937500
vt 0.000000 0.937500
vt 0.000000 0.937500
vt 0.000000 0.937500
vt 0.000000 0.937500
vt 0.000000 0.937500
vt 0.000000 0.937500
vt 0.000000 0.937500
vt 0.000000 0.937500
vt 0.000000 0.937500
vt 0.000000 0.937500
vt 0.000000 0.937500
vt 0.000000 0.937500
vt 0.000000 0.937500
vt 0.000000 0.937500
vt 0.000000 0.937500
vt 0.000000 0.937500
vt 0.000000 0.937500
vt 0.000000 0.937500
vt 0.000000 0.937500
vt 0.000000 0.937500
vt 0.000000 0.937500
vt 0.000000 0.937500
vt 0.000000 0.937500
vt 0.000000 0.937500
vt 0.000000 0.937500
vt 0.000000 0.937500
vt 0.000000 0.937500
vt 0.000000 0.937500
vt 0.000000 0.937500
vt 0.000000 0.937500
vt 0.000000 0.937500
vt 0.000000 0.937500
vt 0.000000 0.937500
vt 0.000000 0.937500
vt 0.000000 0.937500
vt 0.000000 0.937500
vt 0.000000 0.937500
vt 0.000000 0.937500
vt 0.000000 0.937500
vt 0.000000 0.937500
vt 0.000000 0.937500
vt 0.000000 0.937500
vt 0.000000 0.937500
vt 0.000000 0.937500
vt 0.000000 0.937500
vt 0.000000 0.937500
vt 0.000000 0.937500
vt 0.000000 0.937500
vt 0.000000 0.937500
vn 0.7659 -0.0733 -0.6388
vn 0.5331 0.1855 -0.8254
vn 0.7107 -0.5296 -0.4631
vn 0.2978 0.1931 -0.9349
vn 0.4228 -0.7787 -0.4636
vn 0.0832 -0.7788 -0.6217
vn -0.0035 -0.0731 -0.9973
vn -0.1026 -0.5297 -0.8420
vn 0.6523 -0.0735 0.7544
vn 0.8042 0.1272 0.5806
vn 0.5634 -0.3565 0.7453
vn 0.9696 0.1270 0.2092
vn 0.5607 -0.7188 0.4109
vn 0.6807 -0.7187 0.1419
vn 0.9971 -0.0738 -0.0196
vn 0.9310 -0.3562 -0.0794
vn -0.6523 -0.0736 -0.7544
vn -0.8042 0.1273 -0.5806
vn -0.5634 -0.3564 -0.7453
vn -0.9696 0.1270 -0.2092
vn -0.5607 -0.7188 -0.4109
vn -0.6807 -0.7187 -0.1419
vn -0.9971 -0.0738 0.0196
vn -0.9310 -0.3563 0.0795
vn -0.7659 -0.0733 0.6388
vn -0.5947 0.1280 0.7937
vn -0.7107 -0.5296 0.4631
vn -0.2256 0.1282 0.9657
vn -0.4228 -0.7787 0.4636
vn -0.0833 -0.7788 0.6217
vn 0.0034 -0.0731 0.9973
vn 0.1026 -0.5297 0.8420
usemtl lights_red
s 1
f 1/1/1 2/2/1 3/3/1
f 4/4/2 5/5/2 6/6/2
f 7/7/3 8/8/3 9/9/3
f 10/10/4 11/11/4 12/12/4
f 13/13/5 14/14/5 15/15/5
f 16/16/6 17/17/6 18/18/6
f 19/19/7 20/20/7 21/21/7
f 22/22/8 23/23/8 24/24/8
f 25/25/9 26/26/9 27/27/9
f 28/28/10 29/29/10 30/30/10
f 31/31/11 32/32/11 33/33/11
f 34/34/12 35/35/12 36/36/12
f 37/37/13 38/38/13 39/39/13
f 40/40/14 41/41/14 42/42/14
f 43/43/15 44/44/15 45/45/15
f 46/46/16 47/47/16 48/48/16
f 49/49/17 50/50/17 51/51/17
f 52/52/18 53/53/18 54/54/18
f 55/55/19 56/56/19 57/57/19
f 58/58/20 59/59/20 60/60/20
f 61/61/21 62/62/21 63/63/21
f 64/64/22 65/65/22 66/66/22
f 67/67/23 68/68/23 69/69/23
f 70/70/24 71/71/24 72/72/24
f 73/73/25 74/74/25 75/75/25
f 76/76/26 77/77/26 78/78/26
f 79/79/27 80/80/27 81/81/27
f 82/82/28 83/83/28 84/84/28
f 85/85/29 86/86/29 87/87/29
f 88/88/30 89/89/30 90/90/30
f 91/91/31 92/92/31 93/93/31
f 94/94/32 95/95/32 96/96/32
