# Blender v2.83.0 OBJ File: ''
# www.blender.org
mtllib S.S._Dolphin_Chronos_Reactor_lights_2.mtl
o S.S._Dolphin_Chronos_Reactor_lights_2
v 0.968278 0.000000 -1.682405
v 0.832075 -0.119195 -1.699066
v 0.867967 0.119195 -1.776035
v 0.731765 0.000000 -1.792696
v 1.801040 -0.000000 1.029785
v 1.833830 -0.119195 0.900116
v 1.875470 0.119195 0.918655
v 1.908250 -0.000000 0.788987
v -0.966976 -0.000000 1.850266
v -0.830774 -0.119195 1.866926
v -0.866666 0.119195 1.943895
v -0.730463 -0.000000 1.960556
v -1.832531 -0.119195 -0.732252
v -1.874171 0.119195 -0.750792
v -1.799741 0.000000 -0.861920
v -1.874171 0.119195 -0.750792
v -1.832531 -0.119195 -0.732252
v -1.906951 0.000000 -0.621122
v -1.906951 -0.000000 0.789002
v -1.874171 0.119195 0.918672
v -1.832531 -0.119195 0.900133
v -1.799741 -0.000000 1.029800
v 1.833830 -0.119195 -0.732233
v 1.908250 0.000000 -0.621104
v 1.875470 0.119195 -0.750773
v 1.875470 0.119195 -0.750773
v 1.801040 0.000000 -0.861903
v 1.833830 -0.119195 -0.732233
v 0.832074 -0.119195 1.866942
v 0.728015 -0.000000 1.950993
v 0.859293 0.119195 1.925313
v 0.859293 0.119195 1.925313
v 0.963352 -0.000000 1.841263
v 0.832074 -0.119195 1.866942
v -0.830772 -0.119195 -1.699049
v -0.730463 0.000000 -1.792677
v -0.866665 0.119195 -1.776019
v -0.866665 0.119195 -1.776019
v -0.966976 0.000000 -1.682388
v -0.830772 -0.119195 -1.699049
vt 0.000000 0.937500
vt 0.000000 0.937500
vt 0.000000 0.937500
vt 0.000000 0.937500
vt 0.000000 0.937500
vt 0.000000 0.937500
vt 0.000000 0.937500
vt 0.000000 0.937500
vt 0.000000 0.937500
vt 0.000000 0.937500
vt 0.000000 0.937500
vt 0.000000 0.937500
vt 0.000000 0.937500
vt 0.000000 0.937500
vt 0.000000 0.937500
vt 0.000000 0.937500
vt 0.000000 0.937500
vt 0.000000 0.937500
vt 0.000000 0.937500
vt 0.000000 0.937500
vt 0.000000 0.937500
vt 0.000000 0.937500
vt 0.000000 0.937500
vt 0.000000 0.937500
vt 0.000000 0.937500
vt 0.000000 0.937500
vt 0.000000 0.937500
vt 0.000000 0.937500
vt 0.000000 0.937500
vt 0.000000 0.937500
vt 0.000000 0.937500
vt 0.000000 0.937500
vt 0.000000 0.937500
vt 0.000000 0.937500
vt 0.000000 0.937500
vt 0.000000 0.937500
vt 0.000000 0.937500
vt 0.000000 0.937500
vt 0.000000 0.937500
vt 0.000000 0.937500
vn 0.3981 -0.3356 -0.8537
vn 0.8973 -0.1878 0.3995
vn -0.3981 -0.3356 0.8537
vn -0.8973 -0.1878 -0.3995
vn 0.8973 0.1878 -0.3995
vn -0.8973 0.1878 0.3995
vn -0.4080 0.2608 -0.8750
vn 0.3981 0.3356 0.8537
usemtl lights_red
s 1
f 1/1/1 2/2/1 3/3/1
f 3/3/1 2/2/1 4/4/1
f 5/5/2 6/6/2 7/7/2
f 7/7/2 6/6/2 8/8/2
f 9/9/3 10/10/3 11/11/3
f 11/11/3 10/10/3 12/12/3
f 13/13/4 14/14/4 15/15/4
f 16/16/4 17/17/4 18/18/4
usemtl light_green
f 19/19/5 20/20/5 21/21/5
f 20/20/5 22/22/5 21/21/5
f 23/23/6 24/24/6 25/25/6
f 26/26/6 27/27/6 28/28/6
f 29/29/7 30/30/7 31/31/7
f 32/32/7 33/33/7 34/34/7
f 35/35/8 36/36/8 37/37/8
f 38/38/8 39/39/8 40/40/8
