# Blender v2.83.0 OBJ File: ''
# www.blender.org
mtllib S.S._Dolphin_Sagittarius.mtl
o S.S._Dolphin_Sagittarius
v -0.144348 -0.554696 -0.252023
v -0.156976 -0.348184 -0.481198
v -0.298762 -0.161245 -0.262350
v -0.161553 0.228952 -0.324912
v 0.042640 0.219484 -0.572214
v 0.201394 0.428536 -0.409667
v 0.435509 0.432007 0.125438
v 0.448135 0.225494 0.354613
v 0.127884 0.233244 0.336641
v 0.379693 -0.057874 0.471812
v -0.009326 -0.156954 0.399203
v 0.127884 0.233244 0.336641
v 0.379693 -0.057874 0.471812
v 0.248520 -0.342173 0.445629
v -0.009326 -0.156954 0.399203
v -0.009326 -0.156954 0.399203
v 0.248520 -0.342173 0.445629
v 0.089766 -0.551225 0.283082
v -0.215261 0.090701 0.093589
v -0.298762 -0.161245 -0.262350
v -0.161553 0.228952 -0.324912
v -0.161553 0.228952 -0.324912
v 0.051770 0.426199 -0.025417
v -0.215261 0.090701 0.093589
v 0.127884 0.233244 0.336641
v -0.009326 -0.156954 0.399203
v -0.215261 0.090701 0.093589
v -0.215261 0.090701 0.093589
v 0.051770 0.426199 -0.025417
v 0.127884 0.233244 0.336641
v -0.161553 0.228952 -0.324912
v -0.298762 -0.161245 -0.262350
v -0.088534 -0.064816 -0.598397
v -0.088534 -0.064816 -0.598397
v 0.042640 0.219484 -0.572214
v -0.161553 0.228952 -0.324912
v 0.201394 0.428536 -0.409667
v 0.051770 0.426199 -0.025417
v -0.161553 0.228952 -0.324912
v -0.298762 -0.161245 -0.262350
v -0.156976 -0.348184 -0.481198
v -0.088534 -0.064816 -0.598397
v 0.051770 0.426199 -0.025417
v 0.201394 0.428536 -0.409667
v 0.345444 0.507039 -0.154427
v -0.222649 -0.354198 0.099707
v 0.089766 -0.551225 0.283082
v -0.054286 -0.629719 0.027834
v -0.222649 -0.354198 0.099707
v -0.054286 -0.629719 0.027834
v -0.144348 -0.554696 -0.252023
v 0.051770 0.426199 -0.025417
v 0.345444 0.507039 -0.154427
v 0.435509 0.432007 0.125438
v 0.127884 0.233244 0.336641
v 0.448135 0.225494 0.354613
v 0.379693 -0.057874 0.471812
v -0.009326 -0.156954 0.399203
v -0.222649 -0.354198 0.099707
v -0.215261 0.090701 0.093589
v 0.127884 0.233244 0.336641
v 0.051770 0.426199 -0.025417
v 0.435509 0.432007 0.125438
v 0.089766 -0.551225 0.283082
v -0.222649 -0.354198 0.099707
v -0.009326 -0.156954 0.399203
v -0.298762 -0.161245 -0.262350
v -0.222649 -0.354198 0.099707
v -0.144348 -0.554696 -0.252023
v -0.215261 0.090701 0.093589
v -0.222649 -0.354198 0.099707
v -0.298762 -0.161245 -0.262350
vt 0.000000 1.000000
vt 0.000000 1.000000
vt 0.000000 1.000000
vt 0.000000 1.000000
vt 0.000000 1.000000
vt 0.000000 1.000000
vt 0.000000 1.000000
vt 0.000000 1.000000
vt 0.000000 1.000000
vt 0.000000 1.000000
vt 0.000000 1.000000
vt 0.000000 1.000000
vt 0.000000 1.000000
vt 0.000000 1.000000
vt 0.000000 1.000000
vt 0.000000 1.000000
vt 0.000000 1.000000
vt 0.000000 1.000000
vt 0.000000 1.000000
vt 0.000000 1.000000
vt 0.000000 1.000000
vt 0.000000 1.000000
vt 0.000000 1.000000
vt 0.000000 1.000000
vt 0.000000 1.000000
vt 0.000000 1.000000
vt 0.000000 1.000000
vt 0.000000 1.000000
vt 0.000000 1.000000
vt 0.000000 1.000000
vt 0.000000 1.000000
vt 0.000000 1.000000
vt 0.000000 1.000000
vt 0.000000 1.000000
vt 0.000000 1.000000
vt 0.000000 1.000000
vt 0.000000 1.000000
vt 0.000000 1.000000
vt 0.000000 1.000000
vt 0.000000 1.000000
vt 0.000000 1.000000
vt 0.000000 1.000000
vt 0.000000 1.000000
vt 0.000000 1.000000
vt 0.000000 1.000000
vt 0.000000 1.000000
vt 0.000000 1.000000
vt 0.000000 1.000000
vt 0.000000 1.000000
vt 0.000000 1.000000
vt 0.000000 1.000000
vt 0.000000 1.000000
vt 0.000000 1.000000
vt 0.000000 1.000000
vt 0.000000 1.000000
vt 0.000000 1.000000
vt 0.000000 1.000000
vt 0.000000 1.000000
vt 0.000000 1.000000
vt 0.000000 1.000000
vt 0.000000 1.000000
vt 0.000000 1.000000
vt 0.000000 1.000000
vt 0.000000 1.000000
vt 0.000000 1.000000
vt 0.000000 1.000000
vt 0.000000 1.000000
vt 0.000000 1.000000
vt 0.000000 1.000000
vt 0.000000 1.000000
vt 0.000000 1.000000
vt 0.000000 1.000000
vn 0.8930 0.3576 0.2731
vn 0.5088 -0.7349 0.4483
vn 0.0196 -0.7422 -0.6699
vn 0.2357 -0.2341 -0.9432
vn 0.1818 0.0067 -0.9833
vn 0.4039 0.3504 -0.8451
vn 0.9439 -0.3300 0.0121
vn 0.7568 -0.6433 -0.1154
vn 0.6333 -0.3346 -0.6979
vn 0.6015 -0.6456 -0.4705
vn 0.8538 -0.2249 0.4696
vn 0.7058 -0.3807 0.5974
vn 0.5070 -0.8402 0.1923
vn 0.8455 0.0165 0.5337
vn 0.3103 -0.9436 0.1151
vn 0.6525 0.5380 -0.5337
vn 0.8322 0.5406 -0.1229
vn 0.1306 -0.9463 -0.2957
vn 0.0422 -0.3905 -0.9196
vn 0.8210 -0.0215 -0.5706
vn 0.2069 -0.8447 -0.4937
vn 0.6308 0.3609 -0.6869
vn 0.9309 0.3653 -0.0010
vn 0.9763 -0.0192 -0.2155
usemtl libra
s 1
f 1/1/1 2/2/1 3/3/1
f 4/4/2 5/5/2 6/6/2
f 7/7/3 8/8/3 9/9/3
f 10/10/4 11/11/4 12/12/4
f 13/13/5 14/14/5 15/15/5
f 16/16/6 17/17/6 18/18/6
f 19/19/7 20/20/7 21/21/7
f 22/22/8 23/23/8 24/24/8
f 25/25/9 26/26/9 27/27/9
f 28/28/10 29/29/10 30/30/10
f 31/31/11 32/32/11 33/33/11
f 34/34/12 35/35/12 36/36/12
f 37/37/13 38/38/13 39/39/13
f 40/40/14 41/41/14 42/42/14
f 43/43/15 44/44/15 45/45/15
f 46/46/16 47/47/16 48/48/16
f 49/49/17 50/50/17 51/51/17
f 52/52/18 53/53/18 54/54/18
f 55/55/19 56/56/19 57/57/19
f 58/58/20 59/59/20 60/60/20
f 61/61/21 62/62/21 63/63/21
f 64/64/22 65/65/22 66/66/22
f 67/67/23 68/68/23 69/69/23
f 70/70/24 71/71/24 72/72/24
