# Blender v2.83.0 OBJ File: ''
# www.blender.org
mtllib S.S._Dolphin_part.016.mtl
o S.S._Dolphin_part.016
v -2.206806 0.667135 -1.699164
v -1.584836 0.667135 -2.306573
v -1.534476 0.667135 -2.258193
v -0.845638 0.667124 -2.698783
v -0.818765 0.667124 -2.637604
v 0.000000 0.667135 -2.842885
v 0.000000 0.667135 -2.777205
v 0.845637 0.667124 -2.698783
v 0.818764 0.667124 -2.637604
v 1.534474 0.667135 -2.258193
v 1.207344 -0.733846 -1.767985
v 1.661764 -0.733846 -1.313564
v 1.953514 -0.733846 -0.740955
v 2.037804 -0.733846 -0.768345
v 2.054045 -0.733845 -0.106040
v 2.142675 -0.733845 -0.106036
v 1.953514 -0.733846 0.528518
v 2.037804 -0.733846 0.555906
v 1.661764 -0.733846 1.101126
v 1.733464 -0.733846 1.153215
v 1.259434 -0.733837 1.627246
v -1.661766 -0.733846 1.101126
v -1.953517 -0.733846 0.528518
v -2.037806 -0.733846 0.555906
v -2.054047 -0.733845 -0.106040
v -2.142677 -0.733845 -0.106036
v -1.953517 -0.733846 -0.740955
v -2.037806 -0.733846 -0.768345
v -1.733466 -0.733846 -1.365654
v 1.584835 0.667135 -2.306573
v 2.206815 0.667135 -1.699164
v 2.136684 0.667135 -1.670545
v 2.594265 0.667135 -0.949147
v 2.511824 0.667135 -0.944479
v 2.641085 0.667125 -0.128160
v -1.603346 0.667134 2.100586
v -1.552386 0.667134 2.008348
v -0.842927 0.667123 2.488036
v -0.816140 0.667134 2.383487
v -0.210732 0.667134 2.588166
v 0.000000 0.667134 2.512747
v 0.000000 0.667134 2.621547
v 0.210731 0.667134 2.588166
v 2.594265 0.667134 0.736709
v 2.206815 0.667135 1.497126
v 2.136684 0.667135 1.424057
v 1.905075 0.667134 1.798857
v 1.552394 0.667134 2.008348
v 1.603345 0.667134 2.100586
v 0.842926 0.667123 2.488036
v -2.594267 0.667134 0.736709
v -2.727766 0.667125 -0.106036
v -2.641087 0.667125 -0.128159
v -2.511827 0.667135 -0.944479
v -1.661766 -0.733846 -1.313564
v -2.594267 0.667135 -0.949147
v -2.136687 0.667135 -1.670545
v -1.207336 -0.733846 -1.767985
v -0.634736 -0.733846 -2.059735
v -1.733466 -0.733846 1.153215
v -1.259436 -0.733837 1.627246
v -1.207336 -0.733837 1.555546
v -0.634736 -0.733846 1.847296
v 1.207344 -0.733837 1.555546
v 0.634736 -0.733846 1.847296
v 0.531758 -0.733837 1.984026
v 0.000000 -0.733837 1.947826
v 0.000000 -0.733846 2.036456
v -0.531751 -0.733837 1.984026
v 2.727765 0.667125 -0.106036
v 2.511824 0.667134 0.687803
v -1.905076 0.667134 1.798857
v -2.206806 0.667135 1.497126
v -2.136687 0.667135 1.424057
v -2.511827 0.667134 0.687803
v 0.816140 0.667134 2.383487
v -1.259436 -0.733836 -1.839685
v 0.634736 -0.733846 -2.059735
v 0.000000 -0.733846 -2.160275
v -0.662124 -0.733846 -2.144024
v 0.000000 -0.733846 -2.248906
v 0.662124 -0.733846 -2.144024
v 1.259434 -0.733836 -1.839685
v 1.733464 -0.733846 -1.365654
vt 0.000000 1.000000
vt 0.000000 1.000000
vt 0.000000 1.000000
vt 0.000000 1.000000
vt 0.000000 1.000000
vt 0.000000 1.000000
vt 0.000000 1.000000
vt 0.000000 1.000000
vt 0.000000 1.000000
vt 0.000000 1.000000
vt 0.000000 1.000000
vt 0.000000 1.000000
vt 0.000000 1.000000
vt 0.000000 1.000000
vt 0.000000 1.000000
vt 0.000000 1.000000
vt 0.000000 1.000000
vt 0.000000 1.000000
vt 0.000000 1.000000
vt 0.000000 1.000000
vt 0.000000 1.000000
vt 0.000000 1.000000
vt 0.000000 1.000000
vt 0.000000 1.000000
vt 0.000000 1.000000
vt 0.000000 1.000000
vt 0.000000 1.000000
vt 0.000000 1.000000
vt 0.000000 1.000000
vt 0.000000 1.000000
vt 0.000000 1.000000
vt 0.000000 1.000000
vt 0.000000 1.000000
vt 0.000000 1.000000
vt 0.000000 1.000000
vt 0.000000 1.000000
vt 0.000000 1.000000
vt 0.000000 1.000000
vt 0.000000 1.000000
vt 0.000000 1.000000
vt 0.000000 1.000000
vt 0.000000 1.000000
vt 0.000000 1.000000
vt 0.000000 1.000000
vt 0.000000 1.000000
vt 0.000000 1.000000
vt 0.000000 1.000000
vt 0.000000 1.000000
vt 0.000000 1.000000
vt 0.000000 1.000000
vt 0.000000 1.000000
vt 0.000000 1.000000
vt 0.000000 1.000000
vt 0.000000 1.000000
vt 0.000000 1.000000
vt 0.000000 1.000000
vt 0.000000 1.000000
vt 0.000000 1.000000
vt 0.000000 1.000000
vt 0.000000 1.000000
vt 0.000000 1.000000
vt 0.000000 1.000000
vt 0.000000 1.000000
vt 0.000000 1.000000
vt 0.000000 1.000000
vt 0.000000 1.000000
vt 0.000000 1.000000
vt 0.000000 1.000000
vt 0.000000 1.000000
vt 0.000000 1.000000
vt 0.000000 1.000000
vt 0.000000 1.000000
vt 0.000000 1.000000
vt 0.000000 1.000000
vt 0.000000 1.000000
vt 0.000000 1.000000
vt 0.000000 1.000000
vt 0.000000 1.000000
vt 0.000000 1.000000
vt 0.000000 1.000000
vt 0.000000 1.000000
vt 0.000000 1.000000
vt 0.000000 1.000000
vt 0.000000 1.000000
vn 0.0000 -1.0000 -0.0000
vn -0.3025 -0.8569 -0.4175
vn -0.1624 -0.8619 -0.4803
vn -0.0007 -0.8641 -0.5032
vn 0.1627 -0.8609 -0.4820
vn 0.3041 -0.8567 -0.4167
vn 0.4756 0.5941 -0.6487
vn 0.6497 0.5948 -0.4734
vn 0.7650 0.5944 -0.2481
vn -0.0000 1.0000 -0.0000
vn 0.8032 0.5957 0.0013
vn 0.7623 0.5974 0.2489
vn 0.6473 0.5990 0.4715
vn -0.6473 0.5990 0.4715
vn -0.7623 0.5974 0.2489
vn -0.8032 0.5957 0.0013
vn -0.7655 0.5940 -0.2475
vn 0.4101 -0.8601 -0.3034
vn 0.4850 -0.8598 -0.1598
vn 0.5131 -0.8583 -0.0007
vn -0.3046 -0.8556 0.4185
vn 0.0000 -1.0000 -0.0001
vn -0.1604 -0.8552 0.4929
vn 0.0000 -0.8550 0.5187
vn 0.4181 -0.8564 0.3031
vn 0.3046 -0.8556 0.4185
vn -0.5131 -0.8583 -0.0007
vn -0.4855 -0.8596 -0.1595
vn -0.6510 0.5935 -0.4733
vn -0.4113 -0.8594 -0.3037
vn -0.4724 0.5943 -0.6509
vn -0.2513 0.5920 -0.7658
vn -0.4695 0.6002 0.6475
vn -0.2466 0.6010 0.7602
vn 0.4696 0.6002 0.6475
vn 0.2466 0.6011 0.7602
vn -0.0000 1.0000 -0.0001
vn 0.0000 0.6012 0.7991
vn 0.0000 1.0000 0.0001
vn 0.4898 -0.8573 0.1585
vn -0.4181 -0.8564 0.3031
vn -0.4898 -0.8573 0.1585
vn 0.1604 -0.8552 0.4929
vn 0.0001 1.0000 0.0001
vn 0.2512 0.5899 -0.7674
vn -0.0016 0.5891 -0.8081
vn -0.0001 1.0000 0.0001
usemtl ship_interior
s 1
f 1/1/1 2/2/1 3/3/2
f 2/2/1 4/4/1 3/3/2
f 3/3/2 4/4/1 5/5/3
f 4/4/1 6/6/1 5/5/3
f 5/5/3 6/6/1 7/7/4
f 6/6/1 8/8/1 7/7/4
f 7/7/4 8/8/1 9/9/5
f 8/8/1 10/10/6 9/9/5
f 9/9/5 10/10/6 11/11/7
f 10/10/6 12/12/8 11/11/7
f 12/12/8 13/13/9 14/14/10
f 13/13/9 15/15/11 14/14/10
f 14/14/10 15/15/11 16/16/10
f 15/15/11 17/17/12 16/16/10
f 16/16/10 17/17/12 18/18/10
f 17/17/12 19/19/13 18/18/10
f 18/18/10 19/19/13 20/20/10
f 19/19/13 21/21/10 20/20/10
f 22/22/14 23/23/15 24/24/10
f 23/23/15 25/25/16 24/24/10
f 24/24/10 25/25/16 26/26/10
f 25/25/16 27/27/17 26/26/10
f 26/26/10 27/27/17 28/28/10
f 27/27/17 29/29/10 28/28/10
f 30/30/1 31/31/1 32/32/18
f 31/31/1 33/33/1 32/32/18
f 32/32/18 33/33/1 34/34/19
f 33/33/1 35/35/20 34/34/19
f 34/34/19 35/35/20 15/15/11
f 35/35/20 17/17/12 15/15/11
f 36/36/1 37/37/21 38/38/22
f 37/37/21 39/39/23 38/38/22
f 38/38/22 39/39/23 40/40/1
f 39/39/23 41/41/24 40/40/1
f 40/40/1 41/41/24 42/42/1
f 41/41/24 43/43/1 42/42/1
f 44/44/1 45/45/1 46/46/25
f 45/45/1 47/47/1 46/46/25
f 46/46/25 47/47/1 48/48/26
f 47/47/1 49/49/1 48/48/26
f 48/48/26 49/49/1 50/50/22
f 51/51/1 52/52/1 53/53/27
f 52/52/1 54/54/28 53/53/27
f 53/53/27 54/54/28 27/27/17
f 54/54/28 55/55/29 27/27/17
f 52/52/1 56/56/1 54/54/28
f 56/56/1 57/57/30 54/54/28
f 54/54/28 57/57/30 55/55/29
f 57/57/30 58/58/31 55/55/29
f 56/56/1 1/1/1 57/57/30
f 1/1/1 3/3/2 57/57/30
f 57/57/30 3/3/2 58/58/31
f 3/3/2 59/59/32 58/58/31
f 24/24/10 60/60/10 22/22/14
f 60/60/10 61/61/10 22/22/14
f 22/22/14 61/61/10 62/62/33
f 61/61/10 63/63/34 62/62/33
f 8/8/1 30/30/1 10/10/6
f 30/30/1 32/32/18 10/10/6
f 10/10/6 32/32/18 12/12/8
f 32/32/18 13/13/9 12/12/8
f 64/64/35 65/65/36 66/66/37
f 65/65/36 67/67/38 66/66/37
f 66/66/37 67/67/38 68/68/39
f 67/67/38 69/69/37 68/68/39
f 33/33/1 70/70/1 35/35/20
f 70/70/1 71/71/40 35/35/20
f 35/35/20 71/71/40 17/17/12
f 71/71/40 19/19/13 17/17/12
f 70/70/1 44/44/1 71/71/40
f 44/44/1 46/46/25 71/71/40
f 71/71/40 46/46/25 19/19/13
f 46/46/25 64/64/35 19/19/13
f 72/72/1 73/73/1 74/74/41
f 73/73/1 75/75/42 74/74/41
f 74/74/41 75/75/42 23/23/15
f 75/75/42 25/25/16 23/23/15
f 23/23/15 22/22/14 74/74/41
f 22/22/14 37/37/21 74/74/41
f 74/74/41 37/37/21 72/72/1
f 37/37/21 36/36/1 72/72/1
f 73/73/1 51/51/1 75/75/42
f 51/51/1 53/53/27 75/75/42
f 75/75/42 53/53/27 25/25/16
f 53/53/27 27/27/17 25/25/16
f 63/63/34 67/67/38 41/41/24
f 67/67/38 76/76/43 41/41/24
f 41/41/24 76/76/43 43/43/1
f 76/76/43 50/50/22 43/43/1
f 27/27/17 55/55/29 29/29/10
f 55/55/29 77/77/44 29/29/10
f 11/11/7 78/78/45 9/9/5
f 78/78/45 7/7/4 9/9/5
f 78/78/45 79/79/46 7/7/4
f 79/79/46 5/5/3 7/7/4
f 79/79/46 59/59/32 5/5/3
f 59/59/32 3/3/2 5/5/3
f 19/19/13 64/64/35 21/21/10
f 64/64/35 66/66/37 21/21/10
f 55/55/29 58/58/31 77/77/44
f 58/58/31 80/80/10 77/77/44
f 32/32/18 34/34/19 13/13/9
f 34/34/19 15/15/11 13/13/9
f 67/67/38 63/63/34 69/69/37
f 63/63/34 61/61/10 69/69/37
f 58/58/31 59/59/32 80/80/10
f 59/59/32 81/81/10 80/80/10
f 59/59/32 79/79/46 81/81/10
f 79/79/46 82/82/10 81/81/10
f 79/79/46 78/78/45 82/82/10
f 78/78/45 83/83/47 82/82/10
f 78/78/45 11/11/7 83/83/47
f 11/11/7 84/84/10 83/83/47
f 46/46/25 48/48/26 64/64/35
f 48/48/26 65/65/36 64/64/35
f 22/22/14 62/62/33 37/37/21
f 62/62/33 39/39/23 37/37/21
f 62/62/33 63/63/34 39/39/23
f 63/63/34 41/41/24 39/39/23
f 11/11/7 12/12/8 84/84/10
f 12/12/8 14/14/10 84/84/10
f 50/50/22 76/76/43 48/48/26
f 76/76/43 65/65/36 48/48/26
f 67/67/38 65/65/36 76/76/43
