# Blender v2.83.0 OBJ File: ''
# www.blender.org
mtllib S.S._Dolphin_Guard_Satellite_lights.mtl
o S.S._Dolphin_Guard_Satellite_lights
v 0.306712 0.020051 -0.029411
v 0.390359 -0.015920 -0.022562
v 0.351677 -0.000819 -0.090502
v 0.306712 0.020051 -0.029411
v 0.270352 -0.017659 0.045378
v 0.231670 -0.002559 -0.022562
v 0.306712 0.020051 -0.029411
v 0.390359 -0.015920 -0.022562
v 0.349696 -0.024340 0.045378
v 0.306712 0.020051 -0.029411
v 0.272332 0.005861 -0.090502
v 0.351677 -0.000819 -0.090502
v 0.349696 -0.024340 0.045378
v 0.270352 -0.017659 0.045378
v 0.306712 0.020051 -0.029411
v 0.231670 -0.002559 -0.022562
v 0.306712 0.020051 -0.029411
v 0.272332 0.005861 -0.090502
v -0.315655 0.018901 -0.029400
v -0.265852 -0.017676 0.045389
v -0.227170 -0.002577 -0.022551
v -0.315655 0.018901 -0.029400
v -0.385858 -0.015939 -0.022551
v -0.347176 -0.000837 -0.090491
v -0.345198 -0.024359 0.045389
v -0.385858 -0.015939 -0.022551
v -0.315655 0.018901 -0.029400
v -0.315655 0.018901 -0.029400
v -0.347176 -0.000837 -0.090491
v -0.267834 0.005844 -0.090491
v -0.315655 0.018901 -0.029400
v -0.227170 -0.002577 -0.022551
v -0.267834 0.005844 -0.090491
v -0.265852 -0.017676 0.045389
v -0.345198 -0.024359 0.045389
v -0.315655 0.018901 -0.029400
v -0.004519 0.018643 0.045461
v 0.081851 -0.010300 0.051789
v 0.042038 0.002724 -0.015927
v -0.004519 0.018643 0.045461
v -0.077400 -0.010300 0.051790
v -0.037587 0.002724 -0.015927
v -0.004519 0.018643 0.045461
v -0.037587 -0.023322 0.119507
v 0.042038 -0.023322 0.119506
v -0.004519 0.018643 0.045461
v -0.037587 -0.023322 0.119507
v -0.077400 -0.010300 0.051790
v -0.004519 0.018643 0.045461
v -0.037587 0.002724 -0.015927
v 0.042038 0.002724 -0.015927
v -0.004519 0.018643 0.045461
v 0.042038 -0.023322 0.119506
v 0.081851 -0.010300 0.051789
vt 0.000000 1.000000
vt 0.000000 1.000000
vt 0.000000 1.000000
vt 0.000000 1.000000
vt 0.000000 1.000000
vt 0.000000 1.000000
vt 0.000000 1.000000
vt 0.000000 1.000000
vt 0.000000 1.000000
vt 0.000000 1.000000
vt 0.000000 1.000000
vt 0.000000 1.000000
vt 0.000000 1.000000
vt 0.000000 1.000000
vt 0.000000 1.000000
vt 0.000000 1.000000
vt 0.000000 1.000000
vt 0.000000 1.000000
vt 0.000000 1.000000
vt 0.000000 1.000000
vt 0.000000 1.000000
vt 0.000000 1.000000
vt 0.000000 1.000000
vt 0.000000 1.000000
vt 0.000000 1.000000
vt 0.000000 1.000000
vt 0.000000 1.000000
vt 0.000000 1.000000
vt 0.000000 1.000000
vt 0.000000 1.000000
vt 0.000000 1.000000
vt 0.000000 1.000000
vt 0.000000 1.000000
vt 0.000000 1.000000
vt 0.000000 1.000000
vt 0.000000 1.000000
vt 0.000000 1.000000
vt 0.000000 1.000000
vt 0.000000 1.000000
vt 0.000000 1.000000
vt 0.000000 1.000000
vt 0.000000 1.000000
vt 0.000000 1.000000
vt 0.000000 1.000000
vt 0.000000 1.000000
vt 0.000000 1.000000
vt 0.000000 1.000000
vt 0.000000 1.000000
vt 0.000000 1.000000
vt 0.000000 1.000000
vt 0.000000 1.000000
vt 0.000000 1.000000
vt 0.000000 1.000000
vt 0.000000 1.000000
vn 0.3965 0.9178 -0.0217
vn 0.2427 -0.9085 -0.3401
vn -0.3521 -0.8797 -0.3198
vn -0.0808 -0.9599 0.2684
vn -0.0737 -0.8756 -0.4773
vn -0.2928 0.9545 -0.0569
vn 0.2001 0.9261 0.3197
vn 0.4483 -0.8921 0.0569
vn 0.3912 -0.8552 -0.3401
vn 0.0808 -0.9599 0.2684
vn 0.2374 0.9712 -0.0217
vn 0.0737 -0.8756 -0.4773
vn 0.3180 0.9481 -0.0047
vn 0.3718 -0.9274 0.0402
vn 0.0000 0.8700 0.4931
vn 0.3180 -0.8787 -0.3560
vn 0.0000 -0.9680 0.2510
vn 0.2770 0.9002 0.3360
usemtl outer_lights_blue
s 1
f 1/1/1 2/2/1 3/3/1
f 4/4/2 5/5/2 6/6/2
f 7/7/3 8/8/3 9/9/3
f 10/10/4 11/11/4 12/12/4
f 13/13/5 14/14/5 15/15/5
f 16/16/6 17/17/6 18/18/6
usemtl light_green_ss_light_green.png
f 19/19/7 20/20/7 21/21/7
f 22/22/8 23/23/8 24/24/8
f 25/25/9 26/26/9 27/27/9
f 28/28/10 29/29/10 30/30/10
f 31/31/11 32/32/11 33/33/11
f 34/34/12 35/35/12 36/36/12
usemtl lights_red
f 37/37/13 38/38/13 39/39/13
f 40/40/14 41/41/14 42/42/14
f 43/43/15 44/44/15 45/45/15
f 46/46/16 47/47/16 48/48/16
f 49/49/17 50/50/17 51/51/17
f 52/52/18 53/53/18 54/54/18
