# Blender v2.83.0 OBJ File: ''
# www.blender.org
mtllib S.S._Dolphin_part.032.mtl
o S.S._Dolphin_part.032
v -3.274841 -0.138189 -0.087898
v -3.274941 0.009300 -0.166648
v -3.274841 0.013104 -0.332618
v -3.275221 0.300468 -0.140168
v -3.275121 0.152981 -0.070428
v -3.275401 0.292857 0.191762
v -3.275221 0.149175 0.095532
v -3.275221 -0.002121 0.331242
v -3.275121 0.001686 0.165272
v -3.274841 -0.289484 0.156822
v -3.274941 -0.141995 0.078062
v -3.274661 -0.281871 -0.175108
v -3.274841 -0.138189 -0.087898
v -3.274841 0.013104 -0.332618
v 3.274941 0.009299 -0.166648
v 3.274841 -0.138189 -0.087898
v 3.274661 -0.281871 -0.175108
v 3.274841 -0.289485 0.156822
v 3.274941 -0.141996 0.078062
v 3.275221 -0.002122 0.331242
v 3.275121 0.001686 0.165272
v 3.275401 0.292856 0.191762
v 3.275221 0.149174 0.095532
v 3.275221 0.300467 -0.140168
v 3.275121 0.152981 -0.070428
v 3.274841 0.013103 -0.332618
v 3.274941 0.009299 -0.166648
v 3.274661 -0.281871 -0.175108
v -2.339580 0.393842 0.243661
v -2.339321 0.404116 -0.204287
v -2.339321 -0.004235 0.447532
v -2.338821 0.016311 -0.448348
v -2.338821 -0.392046 0.221492
v -2.338560 -0.381765 -0.226448
v 2.339321 0.404115 -0.204287
v 2.339581 0.393842 0.243661
v 2.338821 0.016311 -0.448348
v 2.339321 -0.004236 0.447532
v 2.338561 -0.381765 -0.226448
v 2.338821 -0.392046 0.221492
v 3.275221 0.149174 0.095532
v 2.645031 0.005493 -0.000688
v 3.275121 0.152981 -0.070428
v 3.274941 0.009299 -0.166648
v 3.274841 -0.138189 -0.087898
v 3.274841 -0.138189 -0.087898
v 2.645031 0.005493 -0.000688
v 3.274941 -0.141996 0.078062
v 3.275121 0.001686 0.165272
v 3.275221 0.149174 0.095532
v -3.275121 0.152981 -0.070428
v -2.645031 0.005493 -0.000688
v -3.275221 0.149175 0.095532
v -3.275121 0.001686 0.165272
v -3.274941 -0.141995 0.078062
v -3.274941 -0.141995 0.078062
v -2.645031 0.005493 -0.000688
v -3.274841 -0.138189 -0.087898
v -3.274941 0.009300 -0.166648
v -3.275121 0.152981 -0.070428
v -3.029491 -0.382034 -0.226588
v -3.029751 -0.392315 0.221352
v -3.274661 -0.281871 -0.175108
v -3.274841 -0.289484 0.156822
v -2.338821 -0.392046 0.221492
v -2.339321 -0.004235 0.447532
v -3.029751 -0.392315 0.221352
v -3.030251 -0.004509 0.447392
v -3.029751 -0.392315 0.221352
v -3.030251 -0.004509 0.447392
v -3.274841 -0.289484 0.156822
v -3.275221 -0.002121 0.331242
v -2.339321 -0.004235 0.447532
v -2.339580 0.393842 0.243661
v -3.030251 -0.004509 0.447392
v -3.030511 0.393568 0.243522
v -3.030251 -0.004509 0.447392
v -3.030511 0.393568 0.243522
v -3.275221 -0.002121 0.331242
v -3.275401 0.292857 0.191762
v -2.339580 0.393842 0.243661
v -2.339321 0.404116 -0.204287
v -3.030511 0.393568 0.243522
v -3.030251 0.403842 -0.204429
v 2.339321 0.404115 -0.204287
v 2.339581 0.393842 0.243661
v 3.030251 0.403842 -0.204429
v 3.030511 0.393568 0.243522
v 3.275401 0.292856 0.191762
v 3.275221 0.300467 -0.140168
v 3.030511 0.393568 0.243522
v 3.030251 0.403842 -0.204429
v 2.338821 0.016311 -0.448348
v 2.339321 0.404115 -0.204287
v 3.029751 0.016037 -0.448488
v 3.030251 0.403842 -0.204429
v 3.275221 0.300467 -0.140168
v 3.274841 0.013103 -0.332618
v 3.030251 0.403842 -0.204429
v 3.029751 0.016037 -0.448488
v 2.338561 -0.381765 -0.226448
v 2.338821 0.016311 -0.448348
v 3.029491 -0.382044 -0.226588
v 3.029751 0.016037 -0.448488
v 3.274841 0.013103 -0.332618
v 3.274661 -0.281871 -0.175108
v 3.029751 0.016037 -0.448488
v 3.029491 -0.382044 -0.226588
v 2.338821 -0.392046 0.221492
v 2.338561 -0.381765 -0.226448
v 3.029751 -0.392315 0.221352
v 3.029491 -0.382044 -0.226588
v 3.274661 -0.281871 -0.175108
v 3.274841 -0.289485 0.156822
v 3.029491 -0.382044 -0.226588
v 3.029751 -0.392315 0.221352
v 2.339321 -0.004236 0.447532
v 2.338821 -0.392046 0.221492
v 3.030251 -0.004510 0.447392
v 3.029751 -0.392315 0.221352
v 3.274841 -0.289485 0.156822
v 3.275221 -0.002122 0.331242
v 3.029751 -0.392315 0.221352
v 3.030251 -0.004510 0.447392
v 2.339581 0.393842 0.243661
v 2.339321 -0.004236 0.447532
v 3.030511 0.393568 0.243522
v 3.030251 -0.004510 0.447392
v 3.275221 -0.002122 0.331242
v 3.275401 0.292856 0.191762
v 3.030251 -0.004510 0.447392
v 3.030511 0.393568 0.243522
v -3.275221 0.300468 -0.140168
v -3.275401 0.292857 0.191762
v -3.030251 0.403842 -0.204429
v -3.030511 0.393568 0.243522
v -2.339321 0.404116 -0.204287
v -2.338821 0.016311 -0.448348
v -3.030251 0.403842 -0.204429
v -3.029751 0.016038 -0.448488
v -3.030251 0.403842 -0.204429
v -3.029751 0.016038 -0.448488
v -3.275221 0.300468 -0.140168
v -3.274841 0.013104 -0.332618
v -2.338821 0.016311 -0.448348
v -2.338560 -0.381765 -0.226448
v -3.029751 0.016038 -0.448488
v -3.029491 -0.382034 -0.226588
v -3.029751 0.016038 -0.448488
v -3.029491 -0.382034 -0.226588
v -3.274841 0.013104 -0.332618
v -3.274661 -0.281871 -0.175108
v -2.338560 -0.381765 -0.226448
v -2.338821 -0.392046 0.221492
v -3.029491 -0.382034 -0.226588
v -3.029751 -0.392315 0.221352
v -3.018811 -0.250223 0.285222
v -3.019441 0.258798 0.025492
v -3.018561 -0.243611 -0.291288
v 3.019441 0.258797 0.025492
v 3.018561 -0.243612 -0.291288
v 3.018811 -0.250223 0.285222
vt 0.000000 1.000000
vt 0.000000 1.000000
vt 0.000000 1.000000
vt 0.000000 1.000000
vt 0.000000 1.000000
vt 0.000000 1.000000
vt 0.000000 1.000000
vt 0.000000 1.000000
vt 0.000000 1.000000
vt 0.000000 1.000000
vt 0.000000 1.000000
vt 0.000000 1.000000
vt 0.000000 1.000000
vt 0.000000 1.000000
vt 0.000000 1.000000
vt 0.000000 1.000000
vt 0.000000 1.000000
vt 0.000000 1.000000
vt 0.000000 1.000000
vt 0.000000 1.000000
vt 0.000000 1.000000
vt 0.000000 1.000000
vt 0.000000 1.000000
vt 0.000000 1.000000
vt 0.000000 1.000000
vt 0.000000 1.000000
vt 0.000000 1.000000
vt 0.000000 1.000000
vt 0.000000 1.000000
vt 0.000000 1.000000
vt 0.000000 1.000000
vt 0.000000 1.000000
vt 0.000000 1.000000
vt 0.000000 1.000000
vt 0.000000 1.000000
vt 0.000000 1.000000
vt 0.000000 1.000000
vt 0.000000 1.000000
vt 0.000000 1.000000
vt 0.000000 1.000000
vt 0.000000 1.000000
vt 0.000000 1.000000
vt 0.000000 1.000000
vt 0.000000 1.000000
vt 0.000000 1.000000
vt 0.000000 1.000000
vt 0.000000 1.000000
vt 0.000000 1.000000
vt 0.000000 1.000000
vt 0.000000 1.000000
vt 0.000000 1.000000
vt 0.000000 1.000000
vt 0.000000 1.000000
vt 0.000000 1.000000
vt 0.000000 1.000000
vt 0.000000 1.000000
vt 0.000000 1.000000
vt 0.000000 1.000000
vt 0.000000 1.000000
vt 0.000000 1.000000
vt 0.000000 1.000000
vt 0.000000 1.000000
vt 0.000000 1.000000
vt 0.000000 1.000000
vt 0.000000 1.000000
vt 0.000000 1.000000
vt 0.000000 1.000000
vt 0.000000 1.000000
vt 0.000000 1.000000
vt 0.000000 1.000000
vt 0.000000 1.000000
vt 0.000000 1.000000
vt 0.000000 1.000000
vt 0.000000 1.000000
vt 0.000000 1.000000
vt 0.000000 1.000000
vt 0.000000 1.000000
vt 0.000000 1.000000
vt 0.000000 1.000000
vt 0.000000 1.000000
vt 0.000000 1.000000
vt 0.000000 1.000000
vt 0.000000 1.000000
vt 0.000000 1.000000
vt 0.000000 1.000000
vt 0.000000 1.000000
vt 0.000000 1.000000
vt 0.000000 1.000000
vt 0.000000 1.000000
vt 0.000000 1.000000
vt 0.000000 1.000000
vt 0.000000 1.000000
vt 0.000000 1.000000
vt 0.000000 1.000000
vt 0.000000 1.000000
vt 0.000000 1.000000
vt 0.000000 1.000000
vt 0.000000 1.000000
vt 0.000000 1.000000
vt 0.000000 1.000000
vt 0.000000 1.000000
vt 0.000000 1.000000
vt 0.000000 1.000000
vt 0.000000 1.000000
vt 0.000000 1.000000
vt 0.000000 1.000000
vt 0.000000 1.000000
vt 0.000000 1.000000
vt 0.000000 1.000000
vt 0.000000 1.000000
vt 0.000000 1.000000
vt 0.000000 1.000000
vt 0.000000 1.000000
vt 0.000000 1.000000
vt 0.000000 1.000000
vt 0.000000 1.000000
vt 0.000000 1.000000
vt 0.000000 1.000000
vt 0.000000 1.000000
vt 0.000000 1.000000
vt 0.000000 1.000000
vt 0.000000 1.000000
vt 0.000000 1.000000
vt 0.000000 1.000000
vt 0.000000 1.000000
vt 0.000000 1.000000
vt 0.000000 1.000000
vt 0.000000 1.000000
vt 0.000000 1.000000
vt 0.000000 1.000000
vt 0.000000 1.000000
vt 0.000000 1.000000
vt 0.000000 1.000000
vt 0.000000 1.000000
vt 0.000000 1.000000
vt 0.000000 1.000000
vt 0.000000 1.000000
vt 0.000000 1.000000
vt 0.000000 1.000000
vt 0.000000 1.000000
vt 0.000000 1.000000
vt 0.000000 1.000000
vt 0.000000 1.000000
vt 0.000000 1.000000
vt 0.000000 1.000000
vt 0.000000 1.000000
vt 0.000000 1.000000
vt 0.000000 1.000000
vt 0.000000 1.000000
vt 0.000000 1.000000
vt 0.000000 1.000000
vt 0.000000 1.000000
vt 0.000000 1.000000
vt 0.000000 1.000000
vt 0.000000 1.000000
vt 0.000000 1.000000
vt 0.000000 1.000000
vt 0.000000 1.000000
vt 0.000000 1.000000
vt 0.000000 1.000000
vt 0.000000 1.000000
vt 0.000000 1.000000
vn -1.0000 -0.0010 -0.0006
vn -1.0000 -0.0009 -0.0006
vn -1.0000 -0.0009 -0.0005
vn -1.0000 -0.0010 -0.0005
vn 1.0000 -0.0009 -0.0005
vn 1.0000 -0.0010 -0.0006
vn 1.0000 -0.0009 -0.0006
vn 0.2255 -0.9740 -0.0225
vn 0.3201 -0.5094 0.7988
vn 0.2505 -0.8606 0.4435
vn 0.2548 -0.0467 0.9659
vn 0.2238 0.4589 0.8598
vn 0.2253 0.9740 0.0222
vn 0.3200 0.5103 -0.7982
vn 0.2565 0.8478 -0.4641
vn 0.2547 0.0478 -0.9658
vn 0.2292 -0.4162 -0.8799
vn -0.2255 -0.9740 -0.0225
vn -0.3295 -0.4240 -0.8436
vn -0.2646 -0.8082 -0.5262
vn -0.2547 0.0478 -0.9658
vn -0.2226 0.5056 -0.8335
vn -0.2253 0.9740 0.0222
vn -0.3295 0.4232 0.8440
vn -0.2578 0.8231 0.5060
vn -0.2548 -0.0467 0.9659
vn -0.2169 -0.5434 0.8110
vn -0.3820 -0.9239 -0.0214
vn 0.0000 -0.5036 0.8640
vn -0.4019 -0.4615 0.7909
vn -0.3894 -0.4722 0.7908
vn -0.3945 -0.4679 0.7909
vn -0.3796 -0.4804 0.7907
vn -0.0004 0.4558 0.8901
vn -0.3854 0.4204 0.8214
vn -0.3629 0.4100 0.8368
vn -0.3719 0.4142 0.8307
vn -0.3444 0.4011 0.8488
vn -0.0004 0.9997 0.0229
vn 0.0004 0.9997 0.0229
vn 0.3840 0.9231 0.0210
vn 0.3840 0.9231 0.0209
vn 0.0000 0.5326 -0.8463
vn 0.4124 0.5066 -0.7572
vn 0.3886 0.4976 -0.7755
vn 0.3973 0.5009 -0.7689
vn 0.3767 0.4931 -0.7842
vn -0.0004 -0.4869 -0.8735
vn 0.3804 -0.4358 -0.8157
vn 0.3648 -0.4487 -0.8158
vn 0.3703 -0.4442 -0.8158
vn 0.3572 -0.4550 -0.8157
vn -0.0004 -0.9997 -0.0229
vn 0.3820 -0.9239 -0.0214
vn 0.4049 -0.4748 0.7814
vn 0.3903 -0.4687 0.7924
vn 0.3954 -0.4708 0.7887
vn 0.3829 -0.4656 0.7979
vn 0.0004 0.4558 0.8901
vn 0.3908 0.3933 0.8322
vn 0.3648 0.4155 0.8332
vn 0.3736 0.4081 0.8330
vn 0.3516 0.4266 0.8333
vn -0.3840 0.9231 0.0210
vn -0.3840 0.9231 0.0209
vn -0.4078 0.4859 -0.7730
vn -0.3871 0.5033 -0.7725
vn -0.3959 0.4960 -0.7728
vn -0.3711 0.5164 -0.7718
vn 0.0004 -0.4869 -0.8735
vn -0.3770 -0.4512 -0.8089
vn -0.3638 -0.4454 -0.8181
vn -0.3693 -0.4478 -0.8143
vn -0.3533 -0.4408 -0.8251
vn 0.0004 -0.9997 -0.0229
vn -1.0000 -0.0015 -0.0005
vn -1.0000 0.0015 0.0005
usemtl ship_grey
s 1
f 1/1/1 2/2/1 3/3/2
f 3/3/2 2/2/1 4/4/2
f 2/2/1 5/5/3 4/4/2
f 4/4/2 5/5/3 6/6/2
f 5/5/3 7/7/2 6/6/2
f 6/6/2 7/7/2 8/8/2
f 7/7/2 9/9/1 8/8/2
f 8/8/2 9/9/1 10/10/1
f 9/9/1 11/11/4 10/10/1
f 10/10/1 11/11/4 12/12/2
f 11/11/4 13/13/2 12/12/2
f 12/12/2 13/13/2 14/14/2
f 15/15/5 16/16/5 17/17/5
f 17/17/5 16/16/5 18/18/6
f 16/16/5 19/19/6 18/18/6
f 18/18/6 19/19/6 20/20/7
f 19/19/6 21/21/7 20/20/7
f 20/20/7 21/21/7 22/22/7
f 21/21/7 23/23/5 22/22/7
f 22/22/7 23/23/5 24/24/7
f 23/23/5 25/25/7 24/24/7
f 24/24/7 25/25/7 26/26/7
f 25/25/7 27/27/7 26/26/7
f 26/26/7 27/27/7 28/28/7
f 29/29/1 30/30/2 31/31/2
f 30/30/2 32/32/2 31/31/2
f 31/31/2 32/32/2 33/33/1
f 32/32/2 34/34/1 33/33/1
f 35/35/7 36/36/7 37/37/6
f 36/36/7 38/38/6 37/37/6
f 37/37/6 38/38/6 39/39/6
f 38/38/6 40/40/7 39/39/6
f 41/41/8 42/42/9 43/43/10
f 43/43/10 42/42/9 44/44/11
f 42/42/9 45/45/12 44/44/11
f 46/46/13 47/47/14 48/48/15
f 48/48/15 47/47/14 49/49/16
f 47/47/14 50/50/17 49/49/16
f 51/51/18 52/52/19 53/53/20
f 53/53/20 52/52/19 54/54/21
f 52/52/19 55/55/22 54/54/21
f 56/56/23 57/57/24 58/58/25
f 58/58/25 57/57/24 59/59/26
f 57/57/24 60/60/27 59/59/26
f 61/61/28 62/62/28 63/63/28
f 63/63/28 62/62/28 64/64/28
f 65/65/29 66/66/29 67/67/29
f 67/67/29 66/66/29 68/68/29
f 69/69/30 70/70/31 71/71/32
f 71/71/32 70/70/31 72/72/33
f 73/73/34 74/74/34 75/75/34
f 75/75/34 74/74/34 76/76/34
f 77/77/35 78/78/36 79/79/37
f 79/79/37 78/78/36 80/80/38
f 81/81/39 82/82/39 83/83/39
f 83/83/39 82/82/39 84/84/39
f 85/85/40 86/86/40 87/87/40
f 87/87/40 86/86/40 88/88/40
f 89/89/41 90/90/41 91/91/41
f 91/91/41 90/90/41 92/92/42
f 93/93/43 94/94/43 95/95/43
f 95/95/43 94/94/43 96/96/43
f 97/97/44 98/98/45 99/99/46
f 99/99/46 98/98/45 100/100/47
f 101/101/48 102/102/48 103/103/48
f 103/103/48 102/102/48 104/104/48
f 105/105/49 106/106/50 107/107/51
f 107/107/51 106/106/50 108/108/52
f 109/109/53 110/110/53 111/111/53
f 111/111/53 110/110/53 112/112/53
f 113/113/54 114/114/54 115/115/54
f 115/115/54 114/114/54 116/116/54
f 117/117/29 118/118/29 119/119/29
f 119/119/29 118/118/29 120/120/29
f 121/121/55 122/122/56 123/123/57
f 123/123/57 122/122/56 124/124/58
f 125/125/59 126/126/59 127/127/59
f 127/127/59 126/126/59 128/128/59
f 129/129/60 130/130/61 131/131/62
f 131/131/62 130/130/61 132/132/63
f 133/133/64 134/134/64 135/135/64
f 135/135/64 134/134/64 136/136/65
f 137/137/43 138/138/43 139/139/43
f 139/139/43 138/138/43 140/140/43
f 141/141/66 142/142/67 143/143/68
f 143/143/68 142/142/67 144/144/69
f 145/145/70 146/146/70 147/147/70
f 147/147/70 146/146/70 148/148/70
f 149/149/71 150/150/72 151/151/73
f 151/151/73 150/150/72 152/152/74
f 153/153/75 154/154/75 155/155/75
f 155/155/75 154/154/75 156/156/75
f 157/157/76 158/158/76 159/159/76
f 160/160/77 161/161/77 162/162/77
