# Blender v2.83.0 OBJ File: ''
# www.blender.org
mtllib S_S__Dolphin_Main_Engine_Part_8.mtl
o S_S__Dolphin_Main_Engine_Part_8
v 0.152113 0.372586 0.070932
v -0.012700 0.336660 0.242087
v 0.356452 -0.110922 0.166217
v 0.191638 -0.146847 0.337372
v -0.012700 0.336660 0.242087
v -0.236555 0.239568 0.229466
v 0.191638 -0.146847 0.337372
v -0.032217 -0.243939 0.324751
v -0.236555 0.239568 0.229466
v -0.390114 0.142477 0.066096
v -0.032217 -0.243939 0.324751
v -0.185776 -0.341031 0.161380
v -0.390114 0.142477 0.066096
v -0.364943 0.106554 -0.170176
v -0.185776 -0.341031 0.161380
v -0.160604 -0.376956 -0.074891
v -0.364943 0.106554 -0.170176
v -0.200128 0.142478 -0.341331
v -0.160604 -0.376956 -0.074891
v 0.004210 -0.341030 -0.246046
v -0.200128 0.142478 -0.341331
v 0.023726 0.239570 -0.328709
v 0.004210 -0.341030 -0.246046
v 0.228064 -0.243938 -0.233425
v 0.023726 0.239570 -0.328709
v 0.177285 0.336663 -0.165340
v 0.228064 -0.243938 -0.233425
v 0.381625 -0.146846 -0.070055
v 0.177285 0.336663 -0.165340
v 0.152113 0.372586 0.070932
v 0.381625 -0.146846 -0.070055
v 0.356452 -0.110922 0.166217
v -0.160604 -0.376956 -0.074891
v 0.004210 -0.341030 -0.246046
v 0.191638 -0.146847 0.337372
v 0.228064 -0.243938 -0.233425
v 0.228064 -0.243938 -0.233425
v 0.381625 -0.146846 -0.070055
v 0.191638 -0.146847 0.337372
v 0.356452 -0.110922 0.166217
v 0.023726 0.239570 -0.328709
v -0.200128 0.142478 -0.341331
v 0.177285 0.336663 -0.165340
v -0.364943 0.106554 -0.170176
v -0.364943 0.106554 -0.170176
v -0.390114 0.142477 0.066096
v 0.177285 0.336663 -0.165340
v -0.236555 0.239568 0.229466
v -0.236555 0.239568 0.229466
v -0.012700 0.336660 0.242087
v 0.177285 0.336663 -0.165340
v 0.152113 0.372586 0.070932
v -0.032217 -0.243939 0.324751
v -0.185776 -0.341031 0.161380
v 0.191638 -0.146847 0.337372
v -0.160604 -0.376956 -0.074891
vt 0.501200 0.423200
vt 0.473000 0.423200
vt 0.502600 0.420600
vt 0.486800 0.420600
vt 0.473000 0.423200
vt 0.142200 0.423200
vt 0.486800 0.420600
vt 0.158900 0.420500
vt 0.142200 0.423200
vt 0.123500 0.423200
vt 0.158900 0.420500
vt 0.126900 0.420500
vt 0.123500 0.423200
vt 0.002600 0.423200
vt 0.126900 0.420500
vt 0.001200 0.420500
vt 1.002600 0.423200
vt 0.881200 0.423200
vt 1.001200 0.420500
vt 0.875900 0.420500
vt 0.881200 0.423200
vt 0.814300 0.423200
vt 0.875900 0.420500
vt 0.807900 0.420500
vt 0.814300 0.423200
vt 0.662400 0.423200
vt 0.807900 0.420500
vt 0.659100 0.420600
vt 0.662400 0.423200
vt 0.501200 0.423200
vt 0.659100 0.420600
vt 0.502600 0.420600
vt 0.085200 0.680300
vt 0.085200 0.680300
vt 0.085200 0.680300
vt 0.085200 0.680300
vt 0.085200 0.680300
vt 0.085200 0.680300
vt 0.085200 0.680300
vt 0.085200 0.680300
vt 0.085200 0.680300
vt 0.085200 0.680300
vt 0.085200 0.680300
vt 0.085200 0.680300
vt 0.085200 0.680300
vt 0.085200 0.680300
vt 0.085200 0.680300
vt 0.085200 0.680300
vt 0.085200 0.680300
vt 0.085200 0.680300
vt 0.085200 0.680300
vt 0.085200 0.680300
vt 0.085200 0.680300
vt 0.085200 0.680300
vt 0.085200 0.680300
vt 0.085200 0.680300
vn 0.6188 0.3953 0.6788
vn -0.1178 0.1439 0.9826
vn -0.6770 -0.1439 0.7218
vn -0.9178 -0.3953 -0.0377
vn -0.6188 -0.3953 -0.6788
vn 0.1178 -0.1439 -0.9826
vn 0.6770 0.1439 -0.7218
vn 0.9178 0.3953 0.0377
vn 0.3830 -0.9063 0.1786
vn -0.3830 0.9063 -0.1786
usemtl af_2
s off
f 1/1/1 2/2/1 3/3/1
f 3/3/1 2/2/1 4/4/1
f 5/5/2 6/6/2 7/7/2
f 7/7/2 6/6/2 8/8/2
f 9/9/3 10/10/3 11/11/3
f 11/11/3 10/10/3 12/12/3
f 13/13/4 14/14/4 15/15/4
f 15/15/4 14/14/4 16/16/4
f 17/17/5 18/18/5 19/19/5
f 19/19/5 18/18/5 20/20/5
f 21/21/6 22/22/6 23/23/6
f 23/23/6 22/22/6 24/24/6
f 25/25/7 26/26/7 27/27/7
f 27/27/7 26/26/7 28/28/7
f 29/29/8 30/30/8 31/31/8
f 31/31/8 30/30/8 32/32/8
f 33/33/9 34/34/9 35/35/9
f 35/35/9 34/34/9 36/36/9
f 37/37/9 38/38/9 39/39/9
f 39/39/9 38/38/9 40/40/9
f 41/41/10 42/42/10 43/43/10
f 43/43/10 42/42/10 44/44/10
f 45/45/10 46/46/10 47/47/10
f 47/47/10 46/46/10 48/48/10
f 49/49/10 50/50/10 51/51/10
f 51/51/10 50/50/10 52/52/10
f 53/53/9 54/54/9 55/55/9
f 55/55/9 54/54/9 56/56/9
