# Blender v2.83.0 OBJ File: ''
# www.blender.org
mtllib S_S__Dolphin_Main_Engine_Part_6.mtl
o S_S__Dolphin_Main_Engine_Part_6
v -0.196039 -0.146761 0.328366
v -0.361443 -0.111613 0.152007
v 0.144435 -0.371895 -0.083889
v -0.390223 -0.146761 -0.088063
v -0.390223 -0.146761 -0.088063
v -0.241520 -0.241753 -0.251195
v 0.144435 -0.371895 -0.083889
v -0.020969 -0.336747 -0.260249
v 0.008300 0.336748 0.233082
v 0.228852 0.241754 0.224029
v -0.157104 0.371894 0.056722
v 0.377555 0.146762 0.060896
v 0.377555 0.146762 0.060896
v 0.348775 0.111614 -0.179173
v -0.157104 0.371894 0.056722
v 0.183370 0.146762 -0.355534
v 0.183370 0.146762 -0.355534
v -0.037181 0.241754 -0.346480
v -0.157104 0.371894 0.056722
v -0.185884 0.336748 -0.183348
v 0.173216 -0.336747 0.156181
v 0.024513 -0.241754 0.319314
v 0.144435 -0.371895 -0.083889
v -0.196039 -0.146761 0.328366
v 0.024513 -0.241754 0.319314
v 0.173216 -0.336747 0.156181
v 0.228852 0.241754 0.224029
v 0.377555 0.146762 0.060896
v 0.144435 -0.371895 -0.083889
v 0.348775 0.111614 -0.179173
v -0.020969 -0.336747 -0.260249
v 0.183370 0.146762 -0.355534
v -0.241520 -0.241753 -0.251195
v -0.037181 0.241754 -0.346480
v -0.390223 -0.146761 -0.088063
v -0.185884 0.336748 -0.183348
v -0.361443 -0.111613 0.152007
v -0.157104 0.371894 0.056722
v -0.196039 -0.146761 0.328366
v 0.008300 0.336748 0.233082
v 0.024513 -0.241754 0.319314
v 0.228852 0.241754 0.224029
vt 0.085200 0.681000
vt 0.085200 0.681000
vt 0.085200 0.681000
vt 0.085200 0.681000
vt 0.085200 0.681000
vt 0.085200 0.681000
vt 0.085200 0.681000
vt 0.085200 0.681000
vt 0.085200 0.681000
vt 0.085200 0.681000
vt 0.085200 0.681000
vt 0.085200 0.681000
vt 0.085200 0.681000
vt 0.085200 0.681000
vt 0.085200 0.681000
vt 0.085200 0.681000
vt 0.085200 0.681000
vt 0.085200 0.681000
vt 0.085200 0.681000
vt 0.085200 0.681000
vt 0.085200 0.681000
vt 0.085200 0.681000
vt 0.085200 0.681000
vt 0.085200 0.681000
vt -0.002900 0.498600
vt 0.121000 0.498600
vt -0.002900 0.501400
vt 0.121000 0.501400
vt 0.247000 0.498600
vt 0.247000 0.501400
vt 0.373100 0.498600
vt 0.373100 0.501400
vt 0.497000 0.498600
vt 0.497000 0.501400
vt 0.621000 0.498600
vt 0.621000 0.501400
vt 0.747000 0.498600
vt 0.747000 0.501400
vt 0.873000 0.498600
vt 0.873000 0.501400
vt 0.997000 0.498600
vt 0.997000 0.501400
vn -0.3830 -0.9063 0.1786
vn 0.3830 0.9063 -0.1786
vn 0.6858 -0.1495 0.7122
vn 0.8816 -0.3010 0.3635
vn 0.8214 -0.4226 -0.3830
vn 0.2882 -0.3010 -0.9090
vn -0.4226 0.0000 -0.9063
vn -0.8816 0.3010 -0.3635
vn -0.8214 0.4226 0.3830
vn -0.2882 0.3010 0.9090
vn 0.1047 0.1495 0.9832
usemtl af_2
s off
f 1/1/1 2/2/1 3/3/1
f 3/3/1 2/2/1 4/4/1
f 5/5/1 6/6/1 7/7/1
f 7/7/1 6/6/1 8/8/1
f 9/9/2 10/10/2 11/11/2
f 11/11/2 10/10/2 12/12/2
f 13/13/2 14/14/2 15/15/2
f 15/15/2 14/14/2 16/16/2
f 17/17/2 18/18/2 19/19/2
f 19/19/2 18/18/2 20/20/2
f 21/21/1 22/22/1 23/23/1
f 23/23/1 22/22/1 24/24/1
s 1
f 25/25/3 26/26/4 27/27/3
f 27/27/3 26/26/4 28/28/4
f 26/26/4 29/29/5 28/28/4
f 28/28/4 29/29/5 30/30/5
f 29/29/5 31/31/6 30/30/5
f 30/30/5 31/31/6 32/32/6
f 31/31/6 33/33/7 32/32/6
f 32/32/6 33/33/7 34/34/7
f 33/33/7 35/35/8 34/34/7
f 34/34/7 35/35/8 36/36/8
f 35/35/8 37/37/9 36/36/8
f 36/36/8 37/37/9 38/38/9
f 37/37/9 39/39/10 38/38/9
f 38/38/9 39/39/10 40/40/10
f 39/39/10 41/41/11 40/40/10
f 40/40/10 41/41/11 42/42/11
