# Blender v2.83.0 OBJ File: ''
# www.blender.org
mtllib S_S__Dolphin_Main_Engine_Part_1.mtl
o S_S__Dolphin_Main_Engine_Part_1
v -0.267345 -0.250146 0.639093
v 0.243169 -0.250146 0.352709
v 0.311961 -0.250146 0.639093
v 0.456788 -0.250146 0.555477
v 0.464029 -0.250146 -0.029832
v 0.746441 -0.250146 0.053784
v 0.746441 -0.250146 -0.113448
v 0.243168 -0.250146 -0.412373
v -0.198552 -0.250146 -0.412373
v 0.311961 -0.250146 -0.698757
v -0.267345 -0.250146 -0.698757
v -0.412172 -0.250146 -0.615143
v 0.464029 -0.250146 -0.029832
v 0.243168 -0.250146 -0.412373
v 0.746441 -0.250146 -0.113448
v 0.456788 -0.250146 -0.615143
v 0.311961 -0.250146 -0.698757
v 1.348217 0.360254 -0.184180
v 0.817855 0.360254 -1.110273
v 0.552674 0.360254 1.204948
v 0.552673 0.360254 -1.264612
v 0.552673 0.360254 -1.264612
v -0.508057 0.360254 -1.264612
v 0.552674 0.360254 1.204948
v -0.773241 0.360254 -1.110273
v -0.773241 0.360254 -1.110273
v -1.303603 0.360254 -0.184180
v 0.552674 0.360254 1.204948
v -1.303603 0.360254 0.124515
v -1.303603 0.360254 0.124515
v -0.773240 0.360254 1.050608
v 0.552674 0.360254 1.204948
v -0.508057 0.360254 1.204948
v -0.412172 -0.250146 0.555477
v -0.198552 -0.250146 0.352710
v -0.267345 -0.250146 0.639093
v 0.243169 -0.250146 0.352709
v -0.412172 -0.250146 -0.615143
v -0.198552 -0.250146 -0.412373
v -0.701826 -0.250146 -0.113447
v -0.419413 -0.250146 -0.029832
v -0.701826 -0.250146 -0.113447
v -0.419413 -0.250146 -0.029832
v -0.701826 -0.250146 0.053784
v -0.198552 -0.250146 0.352710
v 0.817856 0.360254 1.050608
v 1.348217 0.360254 0.124515
v 0.552674 0.360254 1.204948
v 1.348217 0.360254 -0.184180
v -0.701826 -0.250146 0.053784
v -0.412172 -0.250146 0.555477
v -0.198552 -0.250146 0.352710
v -1.303603 0.360254 -0.184180
v -0.773241 0.360254 -1.110273
v -0.701826 -0.250146 -0.113447
v -0.412172 -0.250146 -0.615143
v -0.508057 0.360254 -1.264612
v -0.267345 -0.250146 -0.698757
v 0.552673 0.360254 -1.264612
v 0.311961 -0.250146 -0.698757
v 0.817855 0.360254 -1.110273
v 0.456788 -0.250146 -0.615143
v 1.348217 0.360254 -0.184180
v 0.746441 -0.250146 -0.113448
v 1.348217 0.360254 0.124515
v 0.746441 -0.250146 0.053784
v 0.817856 0.360254 1.050608
v 0.456788 -0.250146 0.555477
v 0.552674 0.360254 1.204948
v 0.311961 -0.250146 0.639093
v -0.508057 0.360254 1.204948
v -0.267345 -0.250146 0.639093
v -0.773240 0.360254 1.050608
v -0.412172 -0.250146 0.555477
v -1.303603 0.360254 0.124515
v -0.701826 -0.250146 0.053784
v -1.303603 0.360254 -0.184180
v -0.701826 -0.250146 -0.113447
v 0.243168 -0.250146 -0.412373
v 0.022308 0.539854 -0.029832
v 0.464029 -0.250146 -0.029832
v 0.243169 -0.250146 0.352709
v 0.243169 -0.250146 0.352709
v 0.022308 0.539854 -0.029832
v -0.198552 -0.250146 0.352710
v -0.419413 -0.250146 -0.029832
v -0.419413 -0.250146 -0.029832
v 0.022308 0.539854 -0.029832
v -0.198552 -0.250146 -0.412373
v 0.243168 -0.250146 -0.412373
vt 0.000000 1.000000
vt 0.000000 1.000000
vt 0.000000 1.000000
vt 0.000000 1.000000
vt 0.000000 1.000000
vt 0.000000 1.000000
vt 0.000000 1.000000
vt 0.000000 1.000000
vt 0.000000 1.000000
vt 0.000000 1.000000
vt 0.000000 1.000000
vt 0.000000 1.000000
vt 0.000000 1.000000
vt 0.000000 1.000000
vt 0.000000 1.000000
vt 0.000000 1.000000
vt 0.000000 1.000000
vt 0.000000 1.000000
vt 0.000000 1.000000
vt 0.000000 1.000000
vt 0.000000 1.000000
vt 0.000000 1.000000
vt 0.000000 1.000000
vt 0.000000 1.000000
vt 0.000000 1.000000
vt 0.000000 1.000000
vt 0.000000 1.000000
vt 0.000000 1.000000
vt 0.000000 1.000000
vt 0.000000 1.000000
vt 0.000000 1.000000
vt 0.000000 1.000000
vt 0.000000 1.000000
vt 0.000000 1.000000
vt 0.000000 1.000000
vt 0.000000 1.000000
vt 0.000000 1.000000
vt 0.000000 1.000000
vt 0.000000 1.000000
vt 0.000000 1.000000
vt 0.000000 1.000000
vt 0.000000 1.000000
vt 0.000000 1.000000
vt 0.000000 1.000000
vt 0.000000 1.000000
vt 0.000000 1.000000
vt 0.000000 1.000000
vt 0.000000 1.000000
vt 0.000000 1.000000
vt 0.000000 1.000000
vt 0.000000 1.000000
vt 0.000000 1.000000
vt 0.000000 1.000000
vt 0.000000 1.000000
vt 0.000000 1.000000
vt 0.000000 1.000000
vt 0.000000 1.000000
vt 0.000000 1.000000
vt 0.000000 1.000000
vt 0.000000 1.000000
vt 0.000000 1.000000
vt 0.000000 1.000000
vt 0.000000 1.000000
vt 0.000000 1.000000
vt 0.000000 1.000000
vt 0.000000 1.000000
vt 0.000000 1.000000
vt 0.000000 1.000000
vt 0.000000 1.000000
vt 0.000000 1.000000
vt 0.000000 1.000000
vt 0.000000 1.000000
vt 0.000000 1.000000
vt 0.000000 1.000000
vt 0.000000 1.000000
vt 0.000000 1.000000
vt 0.000000 1.000000
vt 0.000000 1.000000
vt 0.000000 1.000000
vt 0.000000 1.000000
vt 0.000000 1.000000
vt 0.000000 1.000000
vt 0.000000 1.000000
vt 0.000000 1.000000
vt 0.000000 1.000000
vt 0.000000 1.000000
vt 0.000000 1.000000
vt 0.000000 1.000000
vt 0.000000 1.000000
vt 0.000000 1.000000
vn 0.0000 -1.0000 -0.0000
vn -0.0000 1.0000 0.0000
vn -0.6408 -0.6743 -0.3670
vn -0.4953 -0.7045 -0.5082
vn -0.6396 -0.6751 -0.3676
vn -0.5139 -0.7031 -0.4915
vn -0.1937 -0.7068 -0.6804
vn -0.1699 -0.7052 -0.6884
vn 0.1937 -0.7070 -0.6802
vn 0.1703 -0.7049 -0.6885
vn 0.4951 -0.7050 -0.5077
vn 0.5149 -0.7023 -0.4916
vn 0.6908 -0.7019 -0.1738
vn 0.6863 -0.6996 -0.1988
vn 0.6912 -0.7015 0.1735
vn 0.6860 -0.7002 0.1978
vn 0.4953 -0.7045 0.5082
vn 0.5139 -0.7031 0.4915
vn 0.1937 -0.7068 0.6804
vn 0.1699 -0.7052 0.6884
vn -0.1937 -0.7070 0.6802
vn -0.1703 -0.7049 0.6885
vn -0.4951 -0.7050 0.5077
vn -0.5149 -0.7023 0.4916
vn -0.6908 -0.7019 0.1738
vn -0.6863 -0.6996 0.1988
vn -0.7121 -0.7021 -0.0000
vn 0.7795 0.4358 -0.4500
vn 0.8728 0.4880 -0.0000
vn 0.7795 0.4358 0.4500
vn 0.0000 0.4358 0.9000
vn -0.4364 0.4880 0.7559
vn -0.7795 0.4358 0.4500
vn -0.7795 0.4358 -0.4500
vn -0.4364 0.4880 -0.7559
vn 0.0000 0.4358 -0.9000
usemtl black
s off
f 1/1/1 2/2/1 3/3/1
f 3/3/1 2/2/1 4/4/1
f 2/2/1 5/5/1 4/4/1
f 4/4/1 5/5/1 6/6/1
f 5/5/1 7/7/1 6/6/1
f 8/8/1 9/9/1 10/10/1
f 10/10/1 9/9/1 11/11/1
f 9/9/1 12/12/1 11/11/1
f 13/13/1 14/14/1 15/15/1
f 15/15/1 14/14/1 16/16/1
f 14/14/1 17/17/1 16/16/1
f 18/18/2 19/19/2 20/20/2
f 20/20/2 19/19/2 21/21/2
f 22/22/2 23/23/2 24/24/2
f 24/24/2 23/23/2 25/25/2
f 26/26/2 27/27/2 28/28/2
f 28/28/2 27/27/2 29/29/2
f 30/30/2 31/31/2 32/32/2
f 32/32/2 31/31/2 33/33/2
f 34/34/1 35/35/1 36/36/1
f 36/36/1 35/35/1 37/37/1
f 38/38/1 39/39/1 40/40/1
f 40/40/1 39/39/1 41/41/1
f 42/42/1 43/43/1 44/44/1
f 44/44/1 43/43/1 45/45/1
f 46/46/2 47/47/2 48/48/2
f 48/48/2 47/47/2 49/49/2
f 50/50/2 51/51/2 52/52/2
s 1
f 53/53/3 54/54/4 55/55/5
f 55/55/5 54/54/4 56/56/6
f 54/54/4 57/57/7 56/56/6
f 56/56/6 57/57/7 58/58/8
f 57/57/7 59/59/9 58/58/8
f 58/58/8 59/59/9 60/60/10
f 59/59/9 61/61/11 60/60/10
f 60/60/10 61/61/11 62/62/12
f 61/61/11 63/63/13 62/62/12
f 62/62/12 63/63/13 64/64/14
f 63/63/13 65/65/15 64/64/14
f 64/64/14 65/65/15 66/66/16
f 65/65/15 67/67/17 66/66/16
f 66/66/16 67/67/17 68/68/18
f 67/67/17 69/69/19 68/68/18
f 68/68/18 69/69/19 70/70/20
f 69/69/19 71/71/21 70/70/20
f 70/70/20 71/71/21 72/72/22
f 71/71/21 73/73/23 72/72/22
f 72/72/22 73/73/23 74/74/24
f 73/73/23 75/75/25 74/74/24
f 74/74/24 75/75/25 76/76/26
f 75/75/25 77/77/27 76/76/26
f 76/76/26 77/77/27 78/78/27
f 79/79/28 80/80/29 81/81/29
f 80/80/29 82/82/30 81/81/29
f 83/83/31 84/84/32 85/85/32
f 84/84/32 86/86/33 85/85/32
f 87/87/34 88/88/35 89/89/35
f 88/88/35 90/90/36 89/89/35
